<svg height="512pt" viewBox="-22 0 512 512.00051" width="512pt" xmlns="http://www.w3.org/2000/svg"><path d="m453.277344 217.835938c8.417968 0 15.238281-6.824219 15.238281-15.238282v-79.621094c0-5.808593-3.300781-11.109374-8.511719-13.671874l-219.019531-107.738282c-4.242187-2.089844-9.210937-2.089844-13.453125 0l-219.019531 107.738282c-5.210938 2.5625-8.511719 7.863281-8.511719 13.671874v79.621094c0 8.414063 6.824219 15.238282 15.238281 15.238282h15.554688v210.1875h-15.554688c-8.414062 0-15.238281 6.824218-15.238281 15.238281v53.5c0 8.417969 6.824219 15.238281 15.238281 15.238281h438.039063c8.417968 0 15.238281-6.820312 15.238281-15.238281v-53.5c0-8.414063-6.820313-15.238281-15.238281-15.238281h-15.554688v-210.1875zm-422.804688-85.375 203.785156-100.242188 203.785157 100.242188v54.898437h-407.570313zm253.71875 295.5625v-210.1875h53.667969v210.1875zm-99.867187-210.1875v210.1875h-53.667969v-210.1875zm30.472656 0h38.917969v210.1875h-38.917969zm-153.53125 0h38.917969v210.1875h-38.917969zm376.777344 263.691406h-407.570313v-23.027344h407.570313zm-30.792969-53.503906h-38.917969v-210.1875h38.917969zm0 0"/><path d="m316.480469 90.800781h-164.445313c-8.414062 0-15.234375 6.820313-15.234375 15.234375v49.757813c0 8.414062 6.820313 15.238281 15.234375 15.238281h164.445313c8.414062 0 15.234375-6.824219 15.234375-15.238281v-49.757813c0-8.414062-6.820313-15.234375-15.234375-15.234375zm-15.238281 49.757813h-133.96875v-19.285156h133.96875zm0 0"/></svg>