<svg width="16" height="16" viewBox="0 0 16 16" fill="none" xmlns="http://www.w3.org/2000/svg">
<path d="M4.66669 7.3335H6.00002V8.66683H4.66669V7.3335ZM4.66669 10.0002H6.00002V11.3335H4.66669V10.0002ZM7.33335 7.3335H8.66669V8.66683H7.33335V7.3335ZM7.33335 10.0002H8.66669V11.3335H7.33335V10.0002ZM10 7.3335H11.3334V8.66683H10V7.3335ZM10 10.0002H11.3334V11.3335H10V10.0002Z" fill="black"/>
<path d="M3.33333 14.6668H12.6667C13.402 14.6668 14 14.0688 14 13.3335V4.00016C14 3.26483 13.402 2.66683 12.6667 2.66683H11.3333V1.3335H10V2.66683H6V1.3335H4.66667V2.66683H3.33333C2.598 2.66683 2 3.26483 2 4.00016V13.3335C2 14.0688 2.598 14.6668 3.33333 14.6668ZM12.6667 5.3335L12.6673 13.3335H3.33333V5.3335H12.6667Z" fill="black"/>
</svg>
