<svg width="24" height="24" viewBox="0 0 24 24" fill="none" xmlns="http://www.w3.org/2000/svg">
<path d="M22.7999 17.6V6.8C22.7999 5.804 21.9959 5 20.9999 5H4.18794C3.19194 5 2.38794 5.804 2.38794 6.8V17.6C2.38794 18.596 3.19194 19.4 4.18794 19.4H20.9999C21.9959 19.4 22.7999 18.596 22.7999 17.6ZM21.2279 6.668C21.6239 7.064 21.4079 7.472 21.1919 7.676L16.3199 12.14L20.9999 17.012C21.1439 17.18 21.2399 17.444 21.0719 17.624C20.9159 17.816 20.5559 17.804 20.3999 17.684L15.1559 13.208L12.5879 15.548L10.0319 13.208L4.78794 17.684C4.63194 17.804 4.27194 17.816 4.11594 17.624C3.94794 17.444 4.04394 17.18 4.18794 17.012L8.86794 12.14L3.99594 7.676C3.77994 7.472 3.56394 7.064 3.95994 6.668C4.35594 6.272 4.76394 6.464 5.09994 6.752L12.5879 12.8L20.0879 6.752C20.4239 6.464 20.8319 6.272 21.2279 6.668Z" fill="black"/>
</svg>
