<?xml version="1.0"?>
<svg xmlns="http://www.w3.org/2000/svg" width="512" height="512" viewBox="0 0 128 128"><g><path d="M24.192,16.884H75.514a1.75,1.75,0,0,0,0-3.5H24.192a1.75,1.75,0,0,0,0,3.5Z"/><path d="M44.7,95.611a16.835,16.835,0,1,0-28.324,0,20.935,20.935,0,0,0-11.63,18.7v7.19a1.75,1.75,0,0,0,1.75,1.75H54.58a1.75,1.75,0,0,0,1.75-1.75v-7.19A20.946,20.946,0,0,0,44.7,95.611Zm-14.162-22.4A13.335,13.335,0,1,1,17.207,86.544,13.349,13.349,0,0,1,30.542,73.209ZM52.83,119.75H8.25v-5.44A17.425,17.425,0,0,1,18.62,98.417a16.8,16.8,0,0,0,23.844,0A17.437,17.437,0,0,1,52.83,114.31Z"/><path d="M111.62,95.611a16.834,16.834,0,1,0-28.324,0,20.946,20.946,0,0,0-11.626,18.7v7.19a1.75,1.75,0,0,0,1.75,1.75H121.5a1.75,1.75,0,0,0,1.75-1.75v-7.19A20.935,20.935,0,0,0,111.62,95.611Zm-14.162-22.4A13.335,13.335,0,1,1,84.124,86.544,13.349,13.349,0,0,1,97.458,73.209ZM119.75,119.75H75.17v-5.44A17.437,17.437,0,0,1,85.536,98.416a16.8,16.8,0,0,0,23.844,0,17.425,17.425,0,0,1,10.37,15.893Z"/><path d="M112.746,106.086a1.75,1.75,0,0,0-.6,2.4,11.349,11.349,0,0,1,1.607,5.825,1.75,1.75,0,0,0,3.5,0,14.848,14.848,0,0,0-2.1-7.622A1.752,1.752,0,0,0,112.746,106.086Z"/><path d="M104.667,66.917a7.759,7.759,0,0,0,7.75-7.75V28a7.759,7.759,0,0,0-7.75-7.75H84.12V12.5a7.759,7.759,0,0,0-7.75-7.75H23.33a7.759,7.759,0,0,0-7.75,7.75V43.67a7.759,7.759,0,0,0,7.75,7.75H43.876v7.747a7.759,7.759,0,0,0,7.75,7.75H58.5V74a1.75,1.75,0,0,0,2.666,1.491l13.955-8.574Zm-81.337-19a4.255,4.255,0,0,1-4.25-4.25V12.5a4.255,4.255,0,0,1,4.25-4.25H76.37a4.255,4.255,0,0,1,4.25,4.25v7.75H51.626a7.713,7.713,0,0,0-4.919,1.767H24.192a1.75,1.75,0,0,0,0,3.5h20.1A7.7,7.7,0,0,0,43.876,28v2.65H24.192a1.75,1.75,0,0,0,0,3.5H43.876v5.133H24.192a1.75,1.75,0,1,0,0,3.5H43.876V47.92ZM73.71,63.676,62,70.871v-5.7a1.75,1.75,0,0,0-1.75-1.75H51.626a4.255,4.255,0,0,1-4.25-4.25V28a4.255,4.255,0,0,1,4.25-4.25h53.041a4.255,4.255,0,0,1,4.25,4.25V59.167a4.255,4.255,0,0,1-4.25,4.25H74.626A1.752,1.752,0,0,0,73.71,63.676Z"/><path d="M52.486,32.384h51.322a1.75,1.75,0,0,0,0-3.5H52.486a1.75,1.75,0,0,0,0,3.5Z"/><path d="M52.486,41.017h51.322a1.75,1.75,0,0,0,0-3.5H52.486a1.75,1.75,0,0,0,0,3.5Z"/><path d="M52.486,49.65h51.322a1.75,1.75,0,0,0,0-3.5H52.486a1.75,1.75,0,0,0,0,3.5Z"/><path d="M105.558,56.533a1.75,1.75,0,0,0-1.75-1.75H52.486a1.75,1.75,0,0,0,0,3.5h51.322A1.75,1.75,0,0,0,105.558,56.533Z"/></g></svg>
