<svg width="24" height="24" viewBox="0 0 24 24" fill="none" xmlns="http://www.w3.org/2000/svg">
<path d="M20.7072 14.7036C20.592 13.9032 19.974 13.2792 19.1784 13.0932C16.086 12.3684 15.3108 10.5876 15.18 8.61239C14.6316 8.51039 13.656 8.39999 12 8.39999C10.344 8.39999 9.36843 8.51039 8.82003 8.61239C8.68923 10.5876 7.91403 12.3684 4.82163 13.0932C4.02603 13.2804 3.40803 13.9032 3.29283 14.7036L2.69643 18.834C2.48643 20.2884 3.55443 21.6 5.04003 21.6H18.96C20.4444 21.6 21.5136 20.2884 21.3036 18.834L20.7072 14.7036ZM12 18.5904C10.326 18.5904 8.96883 17.2464 8.96883 15.5904C8.96883 13.9344 10.326 12.5904 12 12.5904C13.674 12.5904 15.0312 13.9344 15.0312 15.5904C15.0312 17.2464 13.6728 18.5904 12 18.5904ZM23.94 7.19999C23.9112 5.39999 19.3296 2.40119 12 2.39999C4.66923 2.40119 0.0876344 5.39999 0.0600344 7.19999C0.0324344 8.99999 0.0852345 11.3424 3.10203 10.9524C6.63123 10.4952 6.41403 9.26279 6.41403 7.50119C6.41403 6.27239 9.28443 5.97599 12 5.97599C14.7156 5.97599 17.5848 6.27239 17.586 7.50119C17.586 9.26279 17.3688 10.4952 20.898 10.9524C23.9136 11.3424 23.9676 8.99999 23.94 7.19999Z" fill="black"/>
</svg>
