<svg id="Capa_1" enable-background="new 0 0 512 512" height="512" viewBox="0 0 512 512" width="512" xmlns="http://www.w3.org/2000/svg"><g><path d="m211 135c0-24.813 20.187-45 45-45s45 20.187 45 45v197h90v-197c0-74.439-60.561-135-135-135s-135 60.561-135 135v197h90zm120 167v-30h30v30zm-180 0v-30h30v30zm30-167v107h-30v-107c0-57.897 47.103-105 105-105s105 47.103 105 105v107h-30v-107c0-41.355-33.645-75-75-75s-75 33.645-75 75z"/><path d="m301 377c0-24.813-20.187-45-45-45s-45 20.187-45 45 20.187 45 45 45 45-20.187 45-45zm-45 15c-8.271 0-15-6.729-15-15s6.729-15 15-15 15 6.729 15 15-6.729 15-15 15z"/><path d="m256 422c-41.355 0-75 33.645-75 75v15h150v-15c0-41.355-33.645-75-75-75zm-42.43 60c6.191-17.461 22.874-30 42.43-30s36.239 12.539 42.43 30z"/><path d="m467.209 452-79.496-99.37-23.426 18.74 40.504 50.63h-51.669l39.122 89.981 27.512-11.962-20.878-48.019z"/><path d="m147.713 371.37-23.426-18.74-79.496 99.37h68.331l-20.878 48.019 27.512 11.962 39.122-89.981h-51.669z"/></g></svg>