<svg width="32" height="32" viewBox="0 0 32 32" fill="none" xmlns="http://www.w3.org/2000/svg">
<path d="M13.3335 24.0001C15.7001 23.9997 17.9985 23.2074 19.8628 21.7495L25.7241 27.6108L27.6095 25.7255L21.7481 19.8641C23.2068 17.9997 23.9996 15.7007 24.0001 13.3335C24.0001 7.45214 19.2148 2.66681 13.3335 2.66681C7.45214 2.66681 2.66681 7.45214 2.66681 13.3335C2.66681 19.2148 7.45214 24.0001 13.3335 24.0001ZM13.3335 5.33348C17.7455 5.33348 21.3335 8.92148 21.3335 13.3335C21.3335 17.7455 17.7455 21.3335 13.3335 21.3335C8.92148 21.3335 5.33348 17.7455 5.33348 13.3335C5.33348 8.92148 8.92148 5.33348 13.3335 5.33348Z" fill="black"/>
</svg>
