<?xml version="1.0" standalone="no"?>
<!DOCTYPE svg PUBLIC "-//W3C//DTD SVG 20010904//EN"
 "http://www.w3.org/TR/2001/REC-SVG-20010904/DTD/svg10.dtd">
<svg version="1.0" xmlns="http://www.w3.org/2000/svg"
 width="3004.000000pt" height="1325.000000pt" viewBox="0 0 3004.000000 1325.000000"
 preserveAspectRatio="xMidYMid meet">
<metadata>
Created by potrace 1.16, written by Peter Selinger 2001-2019
</metadata>
<g transform="translate(0.000000,1325.000000) scale(0.100000,-0.100000)"
fill="#000000" stroke="none">
<path d="M2 12008 l3 -1243 125 -22 c317 -55 764 -74 1055 -44 412 42 829 147
1188 299 64 27 117 46 117 41 0 -5 79 -9 175 -9 l175 0 0 103 1 102 95 58 c83
52 110 62 217 87 383 88 754 232 1071 414 65 38 107 56 130 56 28 0 35 4 38
22 2 16 33 43 103 91 326 221 634 506 883 817 74 93 239 331 301 433 l23 37
-2851 0 -2851 0 2 -1242z"/>
<path d="M27259 13148 l48 -103 -43 -3 -44 -3 0 -159 0 -159 113 -3 112 -3 48
-129 c61 -164 146 -438 154 -496 3 -25 9 -47 13 -50 12 -8 78 -305 110 -492
131 -784 76 -1556 -162 -2272 -96 -288 -256 -641 -424 -933 l-87 -153 -39 0
-38 0 0 -64 c0 -94 -6 -95 -141 -38 -63 27 -122 52 -131 55 -14 5 -18 18 -18
52 l0 45 -129 0 c-91 0 -141 5 -172 16 -92 32 -327 95 -483 128 -192 42 -415
80 -422 73 -3 -3 18 -51 46 -108 28 -57 44 -95 35 -84 -9 11 -32 53 -52 93
-20 39 -48 79 -61 88 -18 12 -21 18 -12 24 10 6 10 15 1 40 -6 18 -11 37 -11
41 0 5 38 9 85 9 l85 0 0 31 c0 28 3 31 23 25 12 -3 97 -11 190 -18 164 -12
167 -12 167 -35 l0 -23 155 0 155 0 0 50 c0 43 3 52 23 60 29 12 3 12 -48 0
-22 -5 -88 -16 -146 -24 -59 -9 -120 -19 -138 -22 -24 -5 -31 -3 -31 10 0 12
-10 16 -37 16 -46 0 -192 19 -258 34 l-50 11 -5 80 -5 80 -117 3 -117 3 -29
42 c-49 70 -88 157 -117 257 -15 52 -33 111 -41 130 -10 23 -11 36 -4 38 5 2
10 32 10 68 0 63 0 64 -27 64 l-28 0 2 277 c2 153 5 306 9 341 6 63 6 63 57
96 77 49 435 227 567 281 63 26 153 67 200 90 153 78 230 120 230 125 0 18
-717 407 -1170 635 -256 128 -540 273 -632 323 l-167 89 -88 -49 c-48 -27
-214 -115 -368 -195 -377 -196 -426 -224 -670 -383 -115 -75 -293 -185 -395
-245 -102 -59 -261 -159 -355 -221 -189 -126 -222 -151 -215 -157 3 -3 110
-57 239 -122 l234 -116 -6 -97 c-5 -99 -22 -160 -82 -302 -27 -63 -33 -95 -54
-298 -6 -60 -19 -112 -35 -150 -21 -46 -22 -53 -7 -34 22 25 25 22 36 -26 5
-26 10 -31 19 -22 7 7 11 75 12 213 0 187 2 206 23 254 13 29 30 58 39 65 14
11 15 9 9 -20 -4 -18 -9 -76 -12 -130 -3 -53 -8 -117 -10 -142 -3 -34 -2 -39
5 -23 11 28 36 21 44 -13 9 -33 -6 -84 -53 -187 -84 -180 -85 -193 -6 -75 42
62 71 121 99 202 12 36 21 4 26 -97 l6 -102 9 85 10 85 5 -75 6 -75 26 55 c25
52 27 65 29 210 2 127 -1 162 -14 194 -19 44 -23 91 -13 153 13 76 26 58 26
-37 0 -73 5 -102 24 -148 32 -78 47 -172 45 -294 -2 -97 15 -286 31 -353 12
-50 25 127 25 338 0 187 0 188 17 150 23 -51 22 -41 -7 89 -32 142 -31 158 6
78 57 -122 71 -190 77 -375 l6 -170 12 80 c7 44 13 97 13 119 1 58 -76 355
-121 465 -46 115 -65 183 -74 274 l-7 68 159 -78 c87 -44 187 -91 221 -105
l62 -27 0 -88 c0 -69 6 -106 28 -173 23 -72 27 -101 27 -190 -1 -70 -7 -122
-18 -155 -9 -27 -27 -102 -41 -165 -56 -272 -137 -407 -373 -623 -40 -37 -62
-64 -58 -73 3 -8 1 -14 -4 -14 -6 0 -10 5 -10 11 0 19 -70 -43 -136 -120 -35
-41 -85 -111 -111 -156 -168 -292 -160 -281 -242 -332 -564 -348 -1072 -804
-1516 -1358 -692 -865 -1186 -1921 -1326 -2840 -27 -177 -37 -535 -20 -685 16
-132 54 -281 98 -384 19 -45 48 -119 65 -166 51 -143 144 -299 207 -346 11 -9
2 -17 -51 -43 -119 -59 -211 -171 -243 -300 -23 -88 -14 -331 15 -415 57 -165
192 -280 366 -308 194 -33 394 76 483 262 l36 75 0 170 c0 188 -17 270 -71
349 -32 47 -24 56 56 56 83 0 300 35 477 75 193 45 546 146 1043 299 481 148
775 232 1072 306 241 60 678 153 686 146 2 -3 -8 -56 -23 -118 -178 -759 -226
-1424 -149 -2073 15 -125 69 -424 93 -512 l12 -43 524 0 c313 0 525 4 525 9 0
5 -11 60 -25 123 -108 500 -132 1082 -69 1658 31 291 83 580 157 882 l43 173
694 6 c726 6 887 14 1199 60 448 65 802 186 1076 366 194 128 348 275 451 430
240 359 468 1071 524 1632 33 338 -5 695 -104 961 -143 387 -246 593 -396 790
l-62 81 57 75 c213 284 601 667 978 968 223 177 510 368 710 471 l117 60 0
2253 0 2252 -1414 0 -1415 0 48 -102z m-2704 -3168 c133 -47 260 -116 298
-161 25 -29 48 -82 92 -211 53 -157 59 -182 62 -273 3 -93 -24 -362 -56 -554
-14 -80 -68 -195 -117 -248 -13 -14 -24 -29 -24 -33 0 -3 -35 -34 -77 -68 -95
-75 -126 -105 -178 -170 -22 -28 -53 -58 -69 -68 -28 -16 -28 -18 -11 -30 11
-8 15 -14 9 -14 -5 0 0 -6 11 -12 11 -7 51 -13 89 -15 40 -2 76 -9 85 -16 9
-8 24 -17 34 -20 9 -4 17 -13 17 -22 0 -17 11 -20 26 -5 18 18 75 -64 89 -130
4 -18 18 -53 30 -76 14 -25 21 -53 18 -66 -4 -18 -1 -17 15 8 11 18 33 40 47
50 15 11 39 30 53 44 l25 25 -6 -35 c-19 -107 -29 -305 -18 -358 6 -31 10 -92
8 -134 -1 -53 2 -81 11 -90 11 -11 12 -2 6 50 -8 71 6 83 26 23 9 -28 10 -47
2 -69 -9 -27 -7 -49 13 -133 6 -22 -6 -41 -73 -125 -44 -54 -92 -112 -107
-129 -15 -16 -82 -95 -150 -175 -169 -201 -317 -338 -439 -405 -47 -26 -54
-27 -155 -23 -58 2 -114 9 -123 14 -21 12 -96 111 -186 247 -86 130 -129 203
-216 369 -72 139 -79 173 -52 259 14 46 32 151 43 257 3 34 10 65 14 68 10 6
28 -36 36 -83 5 -31 13 -40 25 -27 3 3 0 29 -7 57 -15 58 -25 187 -14 187 3 0
9 26 13 59 8 67 14 78 32 53 10 -14 15 -15 25 -4 10 9 11 19 1 45 -18 51 -15
76 11 82 21 6 22 11 23 98 0 51 5 101 12 112 11 20 11 20 12 0 1 -18 1 -19 11
-2 5 9 13 17 17 17 9 0 30 -47 64 -145 l27 -80 1 77 c0 65 -5 88 -30 143 -16
36 -30 71 -30 78 0 7 -4 17 -9 23 -5 5 -12 26 -15 48 -6 32 -5 38 8 33 9 -4
19 1 25 10 7 13 -4 30 -49 75 -64 65 -139 170 -169 238 -31 71 -71 214 -97
350 -13 69 -31 152 -40 185 -25 94 -29 253 -10 378 24 163 65 228 195 314 182
121 392 176 646 169 115 -4 140 -8 220 -36z m-1779 -2265 c-28 -67 -54 -236
-60 -385 l-5 -145 29 115 c15 63 33 142 40 175 18 88 21 94 32 60 5 -19 5 -43
-2 -65 -11 -40 -50 -202 -56 -240 -3 -14 -13 -54 -24 -90 -25 -91 -39 -160
-38 -195 0 -16 -5 -61 -11 -100 -6 -38 -10 -95 -10 -125 0 -52 1 -54 15 -35 8
11 20 19 25 18 5 -2 9 9 9 23 0 14 -4 23 -10 19 -5 -3 -10 1 -10 10 0 25 24
12 28 -14 2 -13 -7 -50 -19 -84 -18 -48 -24 -56 -30 -41 -9 22 -12 12 -9 -28
1 -15 -15 -68 -34 -118 -20 -49 -36 -94 -36 -99 0 -5 -13 -39 -30 -74 -16 -36
-30 -70 -30 -77 0 -10 -79 -175 -112 -235 -55 -99 -82 -143 -97 -160 -10 -11
-38 -51 -63 -90 -54 -83 -134 -172 -145 -161 -4 5 -2 11 5 13 6 3 12 18 12 35
0 29 8 41 106 159 23 28 54 74 70 102 64 120 84 161 84 173 0 7 13 41 29 76
28 60 29 63 10 66 -27 5 -24 24 14 74 40 52 50 77 77 193 12 50 26 94 31 100
5 5 9 19 9 32 0 22 22 91 41 126 6 11 6 17 -1 17 -5 0 -10 12 -10 28 -1 26 -1
26 -19 -10 -10 -20 -21 -48 -25 -63 -11 -44 -115 -249 -143 -281 -13 -16 -23
-24 -20 -19 7 19 118 250 132 278 8 16 15 40 15 53 0 14 4 22 10 19 6 -3 10 1
10 9 0 8 5 27 12 43 6 15 10 36 9 46 -1 9 3 17 8 17 6 0 11 10 11 21 0 33 22
99 33 99 5 0 7 -9 4 -20 -3 -11 -1 -20 4 -20 5 0 11 12 14 28 3 15 10 41 16
59 7 21 7 39 0 50 -6 13 -5 38 4 78 7 33 16 141 19 239 3 99 10 182 14 185 5
3 12 30 15 59 4 34 15 64 33 87 33 44 40 39 20 -10z m-296 -5 c0 -11 -16 -61
-36 -112 -19 -51 -40 -108 -45 -126 -6 -18 -14 -30 -20 -27 -5 4 -5 13 1 25
13 24 13 50 0 50 -5 0 -10 -6 -10 -14 0 -7 -6 -19 -14 -25 -18 -15 -27 -63
-14 -78 6 -8 4 -22 -6 -42 -22 -43 -41 -52 -31 -15 5 16 8 47 7 69 -3 54 25
167 60 240 28 60 28 60 24 20 -5 -47 6 -89 17 -62 3 9 2 17 -3 17 -6 0 -10 7
-10 16 0 12 3 14 13 6 9 -8 17 0 31 34 19 46 36 58 36 24z m172 -127 c-8 -30
-57 -334 -66 -413 -1 -8 -6 -24 -12 -35 -6 -11 -11 -35 -12 -53 -3 -37 -75
-258 -104 -316 -28 -56 -120 -177 -162 -214 -20 -18 -46 -32 -56 -32 -11 0
-20 -7 -20 -16 0 -8 -4 -13 -9 -10 -5 3 -15 -2 -22 -11 -8 -9 -30 -23 -49 -32
-19 -9 -48 -25 -63 -35 -15 -10 -30 -17 -32 -14 -3 3 23 25 57 49 35 24 92 72
127 107 41 40 62 56 58 43 -7 -27 -3 -26 28 6 28 31 34 58 10 49 -22 -8 -19
-2 29 61 63 84 120 189 165 303 25 66 26 80 5 80 -11 0 -15 -6 -11 -20 3 -11
1 -22 -4 -25 -5 -3 -16 -23 -26 -43 -9 -20 -23 -43 -29 -49 -7 -7 -14 -18 -17
-25 -2 -7 -7 -11 -10 -8 -8 7 11 62 40 116 15 29 18 45 11 52 -13 13 -3 43 13
40 6 -2 13 6 15 17 4 26 19 79 56 190 36 110 58 189 64 235 4 31 22 55 33 45
2 -3 -1 -22 -7 -42z m388 -1018 c0 -8 5 -15 10 -15 19 0 10 -28 -27 -84 -58
-85 -157 -191 -182 -193 -24 -2 -28 12 -8 24 8 4 22 20 32 36 9 15 24 27 31
27 8 0 14 7 14 16 0 14 -3 14 -15 4 -20 -17 -20 5 0 44 8 15 15 39 15 52 0 25
7 29 28 15 12 -7 11 -14 -2 -39 -24 -46 -21 -71 4 -40 11 14 24 37 30 52 5 14
16 26 24 26 23 0 40 36 21 44 -13 5 -13 9 -3 26 15 24 28 26 28 5z m15 -201
c-9 -27 -17 -63 -19 -81 -3 -42 -22 -64 -37 -43 -9 12 -10 12 -5 -3 3 -10 6
-22 6 -27 0 -15 39 2 45 20 6 19 34 35 43 25 16 -16 -157 -153 -177 -140 -6 3
-6 18 0 38 10 32 14 39 50 104 11 19 17 38 14 44 -3 5 3 19 14 31 20 21 21 21
22 2 1 -18 1 -18 8 1 10 33 42 87 47 82 3 -3 -2 -27 -11 -53z m1032 -216 c11
-13 23 -44 26 -70 6 -41 4 -49 -15 -63 -27 -18 -52 -19 -70 -2 -7 7 -21 16
-31 20 -22 8 -39 53 -31 81 18 58 82 76 121 34z m3048 -162 c38 -55 48 -86 14
-42 l-21 26 -25 -20 c-14 -11 -36 -20 -50 -20 -18 0 -25 -7 -29 -30 -7 -33
-11 -35 -49 -20 l-26 10 21 -30 c12 -17 41 -47 66 -67 42 -36 44 -38 41 -90
-2 -49 -7 -58 -31 -54 -5 1 -18 -7 -30 -17 -20 -18 -369 -258 -603 -415 -57
-37 -103 -72 -103 -76 0 -5 11 -34 25 -65 27 -61 31 -96 15 -127 -11 -20 -54
-26 -65 -9 -3 6 -16 10 -27 10 -22 0 -86 43 -103 69 -5 9 -10 23 -10 31 0 24
-33 23 -46 -1 -6 -12 -22 -32 -35 -44 -32 -29 -30 -43 8 -82 36 -37 42 -86 15
-127 -20 -30 -74 -46 -107 -30 -14 6 -41 19 -60 28 -20 9 -64 44 -99 76 -34
33 -67 60 -72 60 -21 0 -5 -27 59 -95 38 -41 76 -88 84 -105 18 -36 11 -78
-14 -94 -22 -13 -127 42 -190 100 -49 45 -70 48 -88 13 -6 -10 -10 -25 -10
-34 0 -20 -57 -77 -92 -93 -16 -6 -28 -16 -28 -22 0 -14 -68 -43 -81 -34 -5 3
-21 -2 -35 -10 -17 -12 -30 -14 -42 -7 -9 5 -61 14 -115 21 -92 11 -218 47
-312 90 -32 14 -65 19 -146 19 -57 0 -113 0 -124 0 -11 1 -34 1 -52 1 -17 0
-55 -10 -85 -23 -103 -46 -115 -49 -136 -38 -32 17 -35 14 -27 -36 9 -65 18
-79 34 -59 18 22 31 20 31 -5 0 -27 -17 -58 -52 -93 -22 -24 -36 -30 -66 -29
-48 2 -120 -19 -182 -53 -28 -15 -52 -25 -55 -22 -6 6 43 171 127 428 70 212
187 461 237 503 40 34 146 57 263 58 51 0 131 4 178 9 47 5 137 14 200 20 63
6 153 18 199 26 46 7 111 14 145 14 33 0 90 6 126 14 77 15 147 13 250 -9 l75
-15 472 316 c381 256 475 315 493 309 16 -5 29 0 51 21 25 24 33 27 49 16 14
-8 21 -8 26 -1 4 6 0 15 -7 20 -17 10 -1 29 45 53 28 14 31 14 87 -26 32 -22
74 -63 94 -92z m712 70 c34 -10 64 -25 67 -32 4 -10 -5 -9 -34 6 -47 24 -72
25 -181 5 -102 -19 -189 -47 -288 -92 -61 -28 -79 -32 -98 -24 -27 12 -31 4
-6 -14 15 -11 15 -13 -6 -24 -12 -7 -32 -11 -44 -9 -18 2 -23 12 -28 48 -5 37
-2 48 17 67 60 60 200 90 404 88 97 -1 153 -6 197 -19z"/>
<path d="M24585 9640 c-38 -11 -75 -18 -82 -15 -7 2 -19 -2 -27 -10 -8 -8 -21
-15 -30 -15 -8 0 -18 -4 -21 -10 -3 -5 -17 -10 -30 -10 -27 0 -48 -30 -38 -55
5 -14 14 -16 45 -11 26 4 37 3 33 -4 -3 -5 -1 -10 4 -10 6 0 11 4 11 9 0 8 90
31 255 65 61 12 75 12 113 -1 24 -8 46 -12 49 -9 11 11 -10 43 -45 66 -50 33
-142 37 -237 10z"/>
<path d="M23644 9593 c-31 -15 -85 -93 -65 -93 6 0 26 8 46 17 31 15 46 15
127 5 51 -7 141 -15 201 -18 95 -6 107 -5 107 10 0 9 -8 19 -17 22 -10 3 -35
14 -55 24 -21 11 -57 20 -82 20 -25 0 -55 4 -68 9 -13 5 -54 11 -93 15 -54 4
-77 2 -101 -11z"/>
<path d="M24520 9511 c-28 -9 -126 -99 -117 -107 5 -5 75 41 87 58 8 10 62 29
67 24 3 -2 -10 -12 -29 -20 -36 -18 -108 -81 -108 -95 0 -17 41 2 57 25 20 31
37 30 51 -1 10 -22 18 -25 59 -25 57 0 69 7 78 42 5 17 12 25 21 21 17 -6 18
-35 2 -51 -7 -7 -10 -12 -7 -13 72 -11 156 9 151 38 -2 10 -5 28 -5 40 -1 11
-5 19 -9 17 -4 -3 -18 2 -30 10 -60 38 -201 57 -268 37z"/>
<path d="M23787 9469 c-109 -25 -189 -114 -124 -138 23 -9 97 -13 97 -5 0 2
-6 13 -12 25 -11 17 -10 22 6 35 27 20 31 18 41 -18 8 -28 15 -34 44 -36 51
-5 81 6 91 33 12 31 28 32 39 3 5 -14 17 -22 34 -22 34 -2 34 7 2 33 l-26 20
23 3 c20 3 18 6 -22 38 -38 30 -52 35 -100 36 -30 1 -72 -3 -93 -7z"/>
<path d="M24656 8801 c-8 -12 -233 -52 -286 -51 -50 1 -64 -1 -77 -12 -10 -8
-11 -14 -3 -22 8 -8 13 -7 20 3 6 11 12 12 22 3 10 -8 31 -9 74 -2 63 10 114
9 114 -1 0 -4 -7 -9 -15 -13 -19 -7 -20 -46 -1 -46 25 0 176 122 176 142 0 11
-17 10 -24 -1z"/>
<path d="M9623 12313 l3 -708 33 -105 c57 -183 134 -302 282 -437 95 -86 181
-132 336 -180 l88 -28 875 -5 875 -5 3 -317 2 -317 -25 -18 c-15 -10 -39 -28
-55 -41 l-30 -23 1 -177 1 -177 -56 -45 c-123 -97 -184 -252 -157 -397 26
-142 105 -249 228 -310 65 -32 86 -37 162 -41 182 -9 330 76 407 233 89 183
28 420 -137 526 l-49 32 0 174 c0 158 -2 175 -20 193 -26 26 -88 57 -133 65
l-37 7 2 317 3 316 827 3 827 2 3 -307 c3 -293 2 -308 -16 -325 -11 -10 -23
-18 -27 -18 -4 0 -21 -11 -38 -26 -27 -22 -30 -30 -26 -67 2 -23 7 -101 11
-174 l7 -132 -80 -78 c-114 -111 -152 -206 -140 -349 27 -308 384 -483 644
-315 246 159 263 503 33 688 l-65 52 0 173 0 173 -49 33 c-27 18 -66 35 -87
38 -21 4 -43 12 -49 19 -7 8 -9 116 -8 311 l3 299 790 0 790 0 3 -330 c1 -181
0 -340 -3 -351 -3 -13 -16 -25 -31 -28 -14 -4 -43 -18 -65 -33 l-39 -26 0
-186 0 -187 -44 -31 c-59 -42 -119 -120 -147 -190 -31 -78 -32 -224 -2 -299
80 -204 295 -314 507 -259 78 20 133 54 195 120 96 102 134 232 106 364 -24
116 -73 191 -171 266 l-47 36 2 173 2 173 -38 30 c-21 17 -62 39 -90 49 l-53
19 0 347 0 348 1045 0 1045 0 0 690 c0 591 -2 702 -16 768 -29 143 -116 311
-216 417 -104 111 -237 201 -365 246 -144 51 26 49 -3885 49 l-3648 0 3 -707z
m5312 -122 c37 -21 75 -76 75 -107 0 -23 -3 -24 -64 -24 -49 0 -65 4 -70 16
-10 26 -51 14 -51 -15 0 -21 9 -28 55 -46 80 -31 106 -51 130 -99 26 -54 25
-98 -1 -153 -64 -133 -276 -120 -328 20 -23 60 -18 67 54 67 51 0 65 -3 65
-15 0 -8 11 -22 25 -31 23 -15 27 -15 50 0 50 33 26 72 -62 100 -154 50 -166
248 -18 301 46 17 96 12 140 -14z m-4493 -13 c26 -11 54 -28 62 -37 14 -16 12
-21 -27 -59 l-43 -42 -39 21 c-77 40 -155 9 -189 -75 -19 -45 -19 -47 0 -93
33 -83 128 -114 201 -66 23 16 26 15 68 -27 51 -50 50 -56 -28 -95 -102 -50
-244 -24 -313 58 -49 58 -66 112 -62 192 4 86 39 152 105 199 82 57 168 65
265 24z m2670 0 c26 -11 54 -28 62 -37 14 -16 12 -21 -27 -59 l-43 -42 -39 21
c-77 40 -155 9 -189 -75 -19 -45 -19 -47 0 -93 33 -83 128 -114 201 -66 23 16
26 15 68 -27 51 -50 50 -56 -28 -95 -102 -50 -244 -24 -313 58 -49 58 -66 112
-62 192 4 86 39 152 105 199 82 57 168 65 265 24z m-2214 -231 c45 -140 82
-257 82 -260 0 -4 -29 -7 -66 -7 -63 0 -65 1 -75 30 -11 30 -11 30 -89 30 -78
0 -78 0 -89 -30 -10 -29 -12 -30 -77 -30 -48 0 -65 3 -62 13 3 6 42 123 88
260 l84 247 61 0 61 0 82 -253z m342 230 c24 -12 57 -40 74 -61 28 -34 31 -44
31 -110 0 -64 -3 -77 -28 -109 l-27 -36 33 -53 c18 -29 44 -70 56 -90 l23 -38
-76 0 -75 0 -38 65 c-52 88 -73 88 -73 0 l0 -65 -65 0 -65 0 0 260 0 260 93 0
c79 0 101 -4 137 -23z m540 -37 l0 -60 -110 0 -110 0 0 -40 0 -40 90 0 90 0 0
-60 0 -60 -90 0 -90 0 0 -40 0 -40 110 0 110 0 0 -60 0 -60 -175 0 -175 0 0
260 0 260 175 0 175 0 0 -60z m390 0 l0 -60 -110 0 -110 0 0 -40 0 -40 90 0
90 0 0 -60 0 -60 -90 0 -90 0 0 -40 0 -40 110 0 110 0 0 -60 0 -60 -175 0
-175 0 0 260 0 260 175 0 175 0 0 -60z m280 37 c24 -12 57 -40 74 -61 28 -34
31 -44 31 -110 0 -64 -3 -77 -28 -109 l-27 -36 33 -53 c18 -29 44 -70 56 -90
l23 -38 -76 0 -75 0 -38 65 c-52 88 -73 88 -73 0 l0 -65 -65 0 -65 0 0 260 0
260 93 0 c79 0 101 -4 137 -23z m1118 -3 c93 -46 145 -131 145 -234 0 -149
-112 -260 -263 -260 -150 0 -260 110 -260 260 0 69 16 115 60 170 70 89 212
117 318 64z m302 -145 c0 -101 4 -178 11 -190 25 -48 105 -44 128 7 7 15 11
88 11 189 l0 165 65 0 65 0 0 -162 c-1 -179 -7 -223 -41 -272 -73 -108 -246
-115 -321 -15 -42 56 -48 91 -48 275 l0 174 65 0 65 0 0 -171z m549 29 l76
-136 3 139 3 139 64 0 65 0 0 -260 0 -260 -69 0 -69 0 -79 140 -78 140 -3
-140 -3 -140 -64 0 -65 0 0 260 0 261 72 -3 71 -3 76 -137z m991 82 l0 -60
-110 0 -110 0 0 -40 0 -40 90 0 90 0 0 -60 0 -60 -90 0 -90 0 0 -40 0 -40 110
0 110 0 0 -60 0 -60 -175 0 -175 0 0 260 0 260 175 0 175 0 0 -60z m180 -140
l0 -200 95 0 95 0 0 -60 0 -60 -160 0 -160 0 0 260 0 260 65 0 65 0 0 -200z
m360 0 l0 -200 95 0 95 0 0 -60 0 -60 -160 0 -160 0 0 260 0 260 65 0 65 0 0
-200z m360 -60 l0 -260 -65 0 -65 0 0 260 0 260 65 0 65 0 0 -260z m279 118
l76 -136 3 139 3 139 64 0 65 0 0 -260 0 -260 -69 0 -69 0 -79 140 -78 140 -3
-140 -3 -140 -64 0 -65 0 0 260 0 261 72 -3 71 -3 76 -137z m570 132 c40 -11
101 -51 101 -65 0 -6 -18 -28 -39 -49 l-39 -39 -46 23 c-120 58 -238 -63 -180
-186 17 -35 81 -74 122 -74 34 0 72 18 72 35 0 11 -12 15 -50 15 l-50 0 0 60
0 60 115 0 115 0 0 -145 0 -144 -127 0 c-151 0 -189 9 -249 62 -122 107 -124
282 -4 390 27 24 63 48 82 54 43 14 134 16 177 3z m-3189 -2130 c167 -30 160
-27 160 -54 0 -12 -2 -25 -5 -28 -3 -2 -67 7 -142 21 -135 26 -138 27 -141 54
-2 15 1 27 5 27 5 0 60 -9 123 -20z m-64 -222 c4 -7 7 -30 6 -53 -9 -229 -16
-318 -26 -326 -54 -43 -67 -58 -72 -85 -5 -25 -1 -37 15 -53 28 -28 53 -15 75
39 20 51 36 52 29 1 -5 -34 -2 -41 21 -57 26 -17 28 -16 49 4 14 14 21 33 20
57 -1 47 11 44 26 -5 16 -53 46 -70 74 -41 29 29 14 88 -30 116 -38 24 -40 35
-49 234 l-7 154 39 -8 c49 -9 54 -12 54 -35 0 -13 14 -27 40 -40 104 -53 178
-169 187 -294 7 -89 -7 -149 -50 -221 -79 -132 -235 -204 -380 -175 -79 15
-128 41 -189 98 -72 67 -110 148 -116 243 -8 143 49 255 173 337 52 35 54 38
48 83 -5 38 -5 39 25 39 17 0 34 -5 38 -12z m95 -19 c3 -5 6 -60 8 -122 1 -61
6 -139 11 -172 9 -69 -3 -88 -55 -83 l-30 3 3 140 c2 77 5 160 7 185 2 25 4
51 5 58 0 14 40 7 51 -9z m1535 -59 l27 -11 -6 -152 c-9 -202 -12 -218 -51
-242 -21 -14 -34 -33 -40 -58 -12 -47 0 -71 38 -75 23 -3 29 3 50 50 l24 53
-1 -41 c-1 -49 16 -74 49 -74 33 0 58 40 49 81 -9 39 10 32 20 -8 20 -81 95
-85 95 -5 0 33 -36 82 -68 93 -9 3 -16 47 -22 149 -14 216 -15 210 16 210 36
0 64 -17 64 -40 0 -10 9 -21 20 -25 11 -3 44 -26 74 -51 42 -34 64 -62 93
-121 35 -71 38 -84 38 -163 0 -74 -4 -93 -32 -152 -39 -84 -97 -142 -181 -181
-58 -27 -78 -31 -152 -31 -75 -1 -93 3 -150 30 -83 39 -140 95 -181 180 -30
60 -33 76 -33 153 0 76 4 94 31 153 34 72 95 140 156 173 35 18 37 23 37 67 0
27 2 48 4 48 3 0 17 -5 32 -10z m101 -18 c12 -7 27 -194 28 -337 l0 -40 -40 0
c-47 0 -44 -20 -31 223 8 161 12 174 43 154z"/>
<path d="M13390 12058 c-36 -18 -49 -32 -64 -70 -20 -48 -20 -48 0 -95 15 -39
28 -53 64 -71 109 -56 222 38 190 158 -12 46 -58 85 -110 95 -26 4 -47 0 -80
-17z"/>
<path d="M26520 12884 l0 -114 115 0 115 0 0 115 0 116 -115 -2 -115 -1 0
-114z"/>
<path d="M26930 12140 l0 -81 78 3 77 3 3 78 3 77 -81 0 -80 0 0 -80z"/>
<path d="M18010 11885 l-164 -164 95 -3 94 -3 5 -460 5 -460 132 -2 133 -1 2
461 3 462 93 5 92 5 -162 163 -163 162 -165 -165z"/>
<path d="M3224 11298 c3 -13 5 -65 5 -115 l1 -93 115 0 115 0 0 115 0 115
-120 0 c-119 0 -120 0 -116 -22z"/>
<path d="M1480 10530 l0 -160 165 0 165 0 0 160 0 160 -165 0 -165 0 0 -160z"/>
<path d="M820 10530 l0 -140 145 0 145 0 0 140 0 140 -145 0 -145 0 0 -140z"/>
<path d="M2180 10525 l0 -145 145 0 145 0 0 145 0 145 -145 0 -145 0 0 -145z"/>
<path d="M2897 10633 c-3 -5 -3 -26 -1 -48 1 -22 3 -68 3 -102 l1 -63 105 0
105 0 0 110 0 110 -104 0 c-58 0 -107 -3 -109 -7z"/>
<path d="M182 10528 l3 -103 103 -3 102 -3 0 106 0 105 -105 0 -106 0 3 -102z"/>
<path d="M1217 9943 c-4 -3 -7 -46 -7 -95 l0 -88 95 0 95 0 0 95 0 95 -88 0
c-49 0 -92 -3 -95 -7z"/>
<path d="M1890 9855 l0 -95 95 0 95 0 0 95 0 95 -95 0 -95 0 0 -95z"/>
<path d="M2590 9855 l0 -75 75 0 76 0 -3 73 -3 72 -72 3 -73 3 0 -76z"/>
<path d="M560 9850 l0 -70 70 0 70 0 0 70 0 70 -70 0 -70 0 0 -70z"/>
<path d="M7656 9651 c-70 -24 -155 -80 -191 -127 -14 -19 -38 -60 -53 -92 -24
-50 -27 -69 -27 -157 0 -93 2 -105 33 -167 55 -111 144 -186 258 -217 61 -16
88 -43 130 -128 64 -128 106 -164 194 -165 105 0 188 72 198 171 4 42 -2 62
-37 138 -47 103 -51 142 -20 222 61 160 18 328 -113 445 -94 85 -249 117 -372
77z m268 -80 c105 -51 173 -152 183 -272 5 -45 0 -77 -21 -145 -18 -56 -26
-104 -25 -136 2 -39 -1 -52 -15 -60 -10 -5 -19 -8 -20 -6 -2 1 -29 57 -60 123
-58 121 -69 137 -93 128 -22 -9 -15 -37 42 -159 54 -115 57 -133 20 -134 -14
0 -218 436 -210 449 13 22 31 9 59 -44 29 -56 60 -73 73 -39 7 20 -46 133 -69
145 -32 17 -78 10 -105 -17 -38 -38 -29 -71 86 -306 55 -114 101 -212 101
-217 0 -5 -9 -13 -21 -16 -15 -5 -29 1 -53 24 -18 18 -70 46 -123 66 -75 30
-100 45 -138 86 -60 64 -87 126 -93 214 -5 83 7 134 46 196 95 149 277 199
436 120z m194 -706 c27 -56 28 -100 2 -142 -39 -64 -111 -84 -178 -49 -38 20
-97 126 -74 133 7 3 56 27 110 53 53 27 102 49 108 49 5 1 20 -19 32 -44z"/>
<path d="M25750 9370 l0 -90 85 0 85 0 0 90 0 90 -85 0 -85 0 0 -90z"/>
<path d="M26430 9370 l0 -90 85 0 85 0 0 90 0 90 -85 0 -85 0 0 -90z"/>
<path d="M27130 9370 l0 -70 65 0 65 0 0 70 0 70 -65 0 -65 0 0 -70z"/>
<path d="M26020 8749 l0 -101 103 6 c56 3 126 8 155 12 l52 7 0 88 0 89 -155
0 -155 0 0 -101z"/>
<path d="M26710 8700 l0 -140 145 0 145 0 0 140 0 140 -145 0 -145 0 0 -140z"/>
<path d="M12555 8491 c-31 -18 -59 -45 -75 -71 -47 -78 -50 -80 -118 -85 -36
-2 -76 -11 -95 -22 -61 -36 -82 -117 -52 -203 21 -60 20 -66 -25 -110 -68 -67
-75 -123 -22 -172 46 -44 92 -61 162 -62 l65 -1 5 123 c5 120 6 124 33 148 16
14 41 24 58 24 19 0 45 12 71 33 37 30 45 32 117 32 93 0 151 -24 162 -68 4
-16 11 -88 15 -160 7 -138 18 -177 53 -177 12 0 23 11 30 31 15 44 14 56 -9
79 -15 15 -19 28 -14 48 9 38 13 42 33 42 25 0 36 16 50 72 23 94 11 136 -54
198 -45 43 -60 72 -70 130 -27 164 -185 249 -320 171z"/>
<path d="M15965 8470 c-34 -34 -57 -50 -75 -50 -14 0 -49 -18 -79 -40 -29 -22
-61 -40 -70 -40 -24 0 -49 -30 -57 -66 -7 -36 26 -89 72 -116 25 -15 35 -16
62 -6 27 11 36 9 70 -10 49 -27 77 -28 142 -2 30 12 61 18 76 14 31 -8 59 -47
74 -104 19 -77 21 -80 38 -80 9 0 28 9 42 20 33 26 65 25 84 -2 24 -34 20 -72
-10 -99 -14 -13 -35 -32 -45 -41 -23 -21 -25 -94 -8 -196 l11 -64 464 463
c448 448 463 464 432 467 -29 3 -56 -21 -450 -415 -330 -329 -418 -412 -412
-388 13 59 38 100 69 110 52 17 58 24 51 65 -5 32 -1 43 29 81 25 31 35 54 35
79 0 32 18 52 217 252 214 214 217 218 183 218 -32 0 -51 -16 -232 -197 -190
-190 -198 -197 -225 -187 -27 9 -28 13 -31 79 l-3 69 118 118 118 118 -35 0
c-31 0 -46 -11 -129 -94 l-94 -95 -29 21 c-25 18 -38 19 -91 14 l-62 -7 80 80
80 81 -41 0 c-35 0 -46 -7 -93 -54 -53 -54 -55 -55 -82 -40 -42 21 -71 17
-109 -16 -34 -28 -69 -38 -84 -23 -3 4 22 35 56 70 l62 63 -35 0 c-29 0 -43
-9 -84 -50z"/>
<path d="M16940 8016 l-505 -504 -77 -11 c-55 -9 -78 -17 -78 -27 0 -7 -10
-16 -22 -18 -13 -3 -36 -8 -53 -11 -16 -4 -82 -10 -146 -14 -96 -6 -124 -11
-170 -34 -66 -32 -132 -94 -195 -185 -62 -89 -331 -424 -431 -537 -132 -150
-201 -191 -340 -202 -91 -7 -95 -24 -16 -73 30 -19 75 -59 99 -88 54 -66 55
-77 18 -250 l-4 -22 -863 4 c-525 2 -897 8 -952 14 -49 6 -142 14 -205 17
-153 8 -191 13 -214 30 -21 16 -70 155 -58 166 4 4 120 14 257 24 138 9 258
21 268 26 9 6 17 17 17 27 0 9 -37 128 -82 264 -61 186 -79 251 -71 259 12 12
230 52 247 45 14 -5 -73 -45 -99 -46 -11 0 -38 -9 -60 -20 -27 -13 -32 -18
-15 -14 161 30 276 56 285 65 7 7 4 16 -10 27 -12 10 -21 31 -22 52 -1 19 -21
72 -44 118 -80 164 -223 278 -379 303 -57 9 -66 8 -77 -7 -7 -10 -13 -27 -13
-38 0 -40 -67 -215 -109 -285 -58 -97 -108 -121 -173 -83 -59 34 -88 135 -88
309 l0 92 -37 -6 c-79 -11 -153 -33 -238 -72 -150 -70 -242 -147 -295 -249
-18 -35 -26 -40 -67 -46 -25 -3 -121 -6 -213 -6 -92 0 -201 -3 -242 -6 l-75
-7 79 -231 c43 -127 92 -264 109 -304 27 -65 149 -408 149 -418 0 -2 -583 -4
-1296 -4 -1094 0 -1295 -2 -1291 -14 3 -7 15 -45 27 -85 l21 -71 58 6 c67 7
164 -4 141 -15 -8 -5 -55 -14 -105 -21 -49 -7 -109 -21 -132 -31 -206 -88
-498 -103 -750 -38 -159 41 -172 47 -183 87 -27 95 -135 778 -160 1012 -6 58
-15 123 -20 145 -16 66 -11 106 19 189 36 94 70 146 121 181 45 31 131 65 165
65 18 0 25 5 25 18 0 16 -15 20 -107 33 -60 7 -171 14 -248 14 -120 0 -149 -3
-206 -23 -113 -39 -180 -115 -208 -237 -71 -311 -10 -1569 104 -2150 29 -150
49 -211 74 -225 10 -5 110 -12 222 -15 112 -3 251 -10 309 -15 147 -14 922
-13 1034 1 104 13 136 28 136 65 0 38 -26 91 -54 109 -36 24 -116 43 -230 54
-146 15 -148 13 84 65 327 73 567 113 584 96 5 -5 -30 -90 -87 -208 -53 -110
-168 -353 -256 -539 -88 -187 -186 -393 -218 -459 -33 -65 -70 -145 -82 -176
-13 -31 -31 -64 -42 -74 -10 -9 -19 -24 -19 -33 0 -9 -16 -41 -35 -71 -19 -30
-35 -64 -35 -76 0 -23 135 -144 243 -219 31 -22 85 -59 118 -82 107 -76 110
-45 7 74 -29 32 -48 64 -48 78 0 14 28 66 63 117 442 651 548 801 558 791 4
-4 13 -206 18 -449 10 -389 29 -707 47 -781 4 -13 16 -28 28 -32 31 -12 424
-24 508 -16 l72 7 -45 24 c-25 12 -81 32 -125 43 -44 11 -84 28 -91 37 -17 24
-16 95 2 191 31 160 96 810 126 1278 7 99 12 302 12 450 0 490 -35 670 -143
725 -22 11 -40 24 -40 28 0 12 4967 4 5025 -8 28 -6 89 -29 137 -51 113 -52
196 -69 344 -69 136 0 248 17 430 65 l126 33 13 -32 c7 -17 21 -67 30 -110 22
-99 16 -196 -20 -321 -53 -184 -117 -275 -223 -316 -55 -21 -70 -21 -377 -20
-428 3 -628 -18 -655 -69 -16 -29 -12 -68 8 -79 67 -36 682 -49 1172 -24 157
7 323 15 370 17 111 3 152 21 173 74 66 164 136 775 167 1452 l10 225 335 335
c312 312 335 338 335 370 0 34 -10 25 -335 -300 l-335 -335 0 120 0 120 335
335 c312 312 335 337 335 370 0 34 -9 25 -338 -303 l-339 -339 -6 109 -7 108
345 345 c321 322 345 347 345 380 0 34 -10 25 -350 -315 -192 -192 -351 -347
-352 -345 -2 3 -16 30 -31 60 -15 30 -33 63 -39 73 -11 15 32 62 380 410 366
366 392 394 392 427 0 34 -13 22 -412 -377 l-413 -412 -35 19 c-19 10 -57 24
-84 31 l-48 12 493 493 c477 477 493 494 459 494 -33 0 -66 -31 -525 -489
l-490 -489 -110 -6 -110 -6 495 495 c478 478 494 495 460 495 -33 0 -66 -31
-540 -504z m-930 -876 c9 -5 22 -20 30 -34 12 -23 11 -31 -1 -56 l-14 -31
-148 -2 c-159 -3 -175 2 -163 45 12 47 49 79 101 88 54 9 170 3 195 -10z
m-3281 -260 c9 -4 23 -20 31 -34 12 -23 11 -31 -2 -58 l-15 -32 -109 3 c-60 1
-113 5 -117 8 -5 3 -7 21 -4 39 3 19 2 34 -3 34 -10 0 -22 31 -15 38 20 21
197 22 234 2z"/>
<path d="M8470 8500 c-160 -29 -295 -126 -339 -245 -54 -145 -20 -346 79 -458
59 -67 141 -91 154 -44 13 49 6 75 -26 101 -62 48 -68 56 -68 89 0 42 26 67
68 67 38 0 62 23 62 60 0 19 9 36 27 50 24 19 35 20 103 14 115 -10 240 29
318 99 17 16 25 18 34 9 13 -13 25 -412 14 -486 -9 -58 -43 -99 -109 -133 -53
-26 -71 -26 -182 4 -19 5 -19 4 2 -18 16 -16 37 -23 77 -27 51 -4 56 -7 56
-28 0 -21 5 -24 43 -26 173 -7 350 36 425 105 26 25 28 58 6 134 -11 38 -14
72 -10 107 20 157 20 151 -9 174 -15 12 -40 22 -56 22 -74 0 -116 36 -174 150
-50 99 -105 165 -173 209 -93 60 -225 89 -322 71z"/>
<path d="M6692 7875 c-34 -15 -62 -63 -62 -107 0 -13 -19 -41 -46 -68 -82 -81
-126 -236 -90 -311 9 -19 71 -86 136 -149 l120 -115 6 -82 c4 -46 12 -87 18
-92 13 -10 465 20 484 32 17 11 16 274 -3 571 -12 211 -15 230 -35 252 -26 27
-54 33 -92 21 -19 -6 -33 -4 -52 9 -19 12 -38 15 -68 11 -35 -5 -47 -1 -71 19
-33 28 -66 30 -107 9 -25 -13 -32 -13 -57 0 -34 18 -39 18 -81 0z m212 -48
c13 -10 18 -34 23 -120 3 -59 3 -107 -1 -107 -3 0 -24 12 -46 26 -39 26 -40
28 -40 85 0 31 -3 64 -6 72 -5 15 27 57 44 57 5 0 16 -6 26 -13z m149 -41 c18
-18 30 -152 16 -178 -11 -21 -51 -24 -67 -5 -6 7 -14 46 -18 88 -5 63 -4 78
11 92 20 21 39 22 58 3z m-307 -152 c55 -26 101 -48 103 -50 11 -10 -33 -54
-64 -64 -30 -10 -41 -9 -78 9 -54 26 -67 26 -67 1 0 -12 16 -30 40 -46 41 -27
38 -27 161 -9 39 6 49 4 73 -17 25 -21 29 -34 38 -113 11 -98 22 -123 44 -104
17 14 19 117 3 172 -6 21 -26 56 -45 77 l-35 38 22 16 c17 11 27 12 42 5 11
-6 37 -8 61 -4 43 7 147 7 154 0 11 -11 20 -221 15 -361 l-6 -161 -121 -7
c-67 -3 -156 -9 -198 -13 l-78 -6 0 55 c0 88 -12 107 -134 216 -112 100 -146
146 -146 196 0 45 50 159 83 189 17 15 32 27 33 27 1 0 46 -21 100 -46z"/>
<path d="M2710 7626 c-155 -154 -480 -486 -480 -492 0 -2 78 -4 174 -4 149 0
175 -2 180 -16 3 -9 6 -298 6 -643 l0 -628 163 -6 c89 -4 204 -10 256 -13 l94
-7 -7 640 c-3 352 -4 647 0 656 5 15 27 17 180 17 96 0 174 3 174 8 0 14 -595
602 -610 602 -8 0 -67 -52 -130 -114z"/>
<path d="M17572 6847 c-116 -117 -212 -215 -212 -219 0 -5 15 -8 33 -8 29 0
53 21 220 188 166 166 187 191 187 220 0 17 -3 32 -7 31 -5 0 -104 -96 -221
-212z"/>
<path d="M12060 5753 c-234 -9 -459 -70 -539 -146 -61 -58 -61 -63 -87 -562
-13 -253 -28 -538 -34 -633 -15 -249 -14 -309 6 -316 27 -10 542 -7 549 4 3 5
6 72 5 147 0 165 19 752 26 773 3 9 8 11 12 4 13 -20 50 -34 91 -34 41 0 41 0
41 -37 0 -21 5 -220 11 -443 8 -292 14 -409 23 -418 9 -9 75 -14 247 -17 128
-3 245 -6 258 -7 16 -2 30 6 44 24 19 25 20 43 22 350 2 178 6 373 10 434 l7
112 363 -1 c391 -1 418 3 436 51 24 64 -73 117 -265 144 l-89 13 42 29 c131
91 209 231 226 404 10 91 -1 102 -98 102 -40 0 -153 4 -252 10 -169 9 -911 18
-1055 13z"/>
<path d="M3277 5012 c-193 -193 -198 -200 -195 -235 l3 -37 235 235 235 235
-40 0 c-39 0 -47 -7 -238 -198z"/>
<path d="M3422 4867 c-322 -322 -343 -346 -340 -375 3 -31 15 -20 378 343 364
364 374 375 340 375 -33 0 -58 -23 -378 -343z"/>
<path d="M3567 4722 c-461 -461 -488 -490 -485 -520 3 -31 22 -14 523 488 502
502 519 520 485 520 -33 0 -65 -30 -523 -488z"/>
<path d="M3707 4582 c-594 -594 -628 -630 -625 -660 3 -31 28 -7 663 628 635
635 659 660 625 660 -33 0 -72 -37 -663 -628z"/>
<path d="M3852 4437 c-732 -732 -773 -775 -770 -805 3 -31 35 -1 808 773 773
773 804 805 770 805 -33 0 -79 -43 -808 -773z"/>
<path d="M3992 4297 c-866 -866 -913 -915 -910 -945 3 -31 41 6 948 913 907
907 944 945 910 945 -33 0 -85 -50 -948 -913z"/>
<path d="M4140 4145 c-807 -807 -834 -835 -799 -835 34 0 75 40 837 800 760
757 802 801 802 835 0 19 -1 35 -3 35 -1 0 -378 -376 -837 -835z"/>
<path d="M4295 3990 c-654 -654 -679 -680 -645 -680 33 0 73 38 683 648 613
613 648 650 645 680 -3 31 -29 6 -683 -648z"/>
<path d="M4445 3840 c-518 -518 -529 -530 -494 -530 35 0 61 24 533 496 459
459 496 499 496 530 0 19 -1 34 -3 34 -1 0 -241 -238 -532 -530z"/>
<path d="M4600 3685 c-364 -364 -374 -375 -340 -375 33 0 58 23 378 343 322
322 343 346 340 375 -3 31 -15 20 -378 -343z"/>
<path d="M15284 3726 c-109 -57 -183 -106 -184 -120 0 -4 14 -24 30 -43 46
-52 42 -92 -19 -156 -47 -51 -87 -114 -78 -124 8 -8 82 34 149 85 34 27 74 55
88 62 14 7 41 28 60 46 19 19 53 43 75 55 46 25 95 83 95 113 0 12 -20 43 -45
69 -25 27 -45 52 -45 58 0 17 -25 9 -126 -45z"/>
<path d="M4750 3534 l-225 -224 40 0 c39 0 46 6 228 188 181 181 188 190 185
224 l-3 36 -225 -224z"/>
<path d="M14415 3359 c-77 -10 -141 -18 -142 -18 -1 -1 1 -31 4 -68 5 -62 3
-70 -18 -89 -13 -12 -55 -31 -94 -42 -38 -12 -83 -33 -100 -46 l-30 -25 46 -1
c90 0 521 49 536 62 13 11 15 30 10 114 -4 56 -9 109 -13 118 -7 19 -18 19
-199 -5z"/>
<path d="M12340 3300 c-134 -10 -248 -39 -235 -61 5 -7 48 -9 134 -5 440 20
410 15 411 59 0 15 -11 17 -107 15 -60 -1 -151 -4 -203 -8z"/>
<path d="M11475 3275 c-5 -2 -54 -11 -108 -21 -167 -30 -113 -39 223 -39 313
1 334 4 323 45 -5 19 -15 20 -217 19 -116 0 -215 -2 -221 -4z"/>
<path d="M6110 2430 l0 -80 34 0 c34 0 35 1 38 43 3 39 5 42 36 45 29 3 32 6
32 38 l0 34 -70 0 -70 0 0 -80z"/>
<path d="M6390 2475 l0 -35 150 0 150 0 0 35 0 35 -150 0 -150 0 0 -35z"/>
<path d="M6840 2475 l0 -35 145 0 145 0 0 35 0 35 -145 0 -145 0 0 -35z"/>
<path d="M7280 2475 l0 -35 150 0 150 0 0 35 0 35 -150 0 -150 0 0 -35z"/>
<path d="M7730 2475 l0 -35 145 0 145 0 0 35 0 35 -145 0 -145 0 0 -35z"/>
<path d="M8170 2475 l0 -35 150 0 150 0 0 35 0 35 -150 0 -150 0 0 -35z"/>
<path d="M8620 2475 l0 -35 145 0 145 0 0 35 0 35 -145 0 -145 0 0 -35z"/>
<path d="M9060 2475 l0 -35 150 0 150 0 0 35 0 35 -150 0 -150 0 0 -35z"/>
<path d="M9510 2475 l0 -35 145 0 145 0 0 35 0 35 -145 0 -145 0 0 -35z"/>
<path d="M9950 2475 l0 -35 150 0 150 0 0 35 0 35 -150 0 -150 0 0 -35z"/>
<path d="M10400 2475 l0 -35 145 0 145 0 0 35 0 35 -145 0 -145 0 0 -35z"/>
<path d="M10840 2475 l0 -35 150 0 150 0 0 35 0 35 -150 0 -150 0 0 -35z"/>
<path d="M11280 2475 l0 -35 150 0 150 0 0 35 0 35 -150 0 -150 0 0 -35z"/>
<path d="M11730 2475 l0 -35 150 0 150 0 0 35 0 35 -150 0 -150 0 0 -35z"/>
<path d="M12170 2475 l0 -35 150 0 150 0 0 35 0 35 -150 0 -150 0 0 -35z"/>
<path d="M12620 2475 l0 -35 145 0 145 0 0 35 0 35 -145 0 -145 0 0 -35z"/>
<path d="M13060 2475 l0 -35 150 0 150 0 0 35 0 35 -150 0 -150 0 0 -35z"/>
<path d="M13510 2475 l0 -35 145 0 145 0 0 35 0 35 -145 0 -145 0 0 -35z"/>
<path d="M13950 2475 l0 -35 150 0 150 0 0 35 0 35 -150 0 -150 0 0 -35z"/>
<path d="M14400 2475 l0 -35 145 0 145 0 0 35 0 35 -145 0 -145 0 0 -35z"/>
<path d="M14840 2475 l0 -35 150 0 150 0 0 35 0 35 -150 0 -150 0 0 -35z"/>
<path d="M15290 2475 l0 -35 145 0 145 0 0 35 0 35 -145 0 -145 0 0 -35z"/>
<path d="M15730 2475 l0 -35 150 0 150 0 0 35 0 35 -150 0 -150 0 0 -35z"/>
<path d="M16170 2475 l0 -35 150 0 150 0 0 35 0 35 -150 0 -150 0 0 -35z"/>
<path d="M16620 2475 l0 -35 150 0 150 0 0 35 0 35 -150 0 -150 0 0 -35z"/>
<path d="M17060 2475 l0 -35 150 0 150 0 0 35 0 35 -150 0 -150 0 0 -35z"/>
<path d="M17510 2480 c0 -16 0 -33 0 -37 -1 -5 25 -11 57 -15 32 -4 89 -17
127 -29 67 -20 71 -20 83 -3 27 37 16 52 -54 73 -57 17 -177 41 -205 41 -5 0
-8 -13 -8 -30z"/>
<path d="M17908 2342 l-17 -28 71 -54 c38 -29 82 -68 96 -87 32 -39 41 -41 70
-10 l22 23 -63 61 c-58 57 -142 123 -156 123 -4 0 -14 -13 -23 -28z"/>
<path d="M6110 2050 l0 -150 35 0 35 0 0 150 0 150 -35 0 -35 0 0 -150z"/>
<path d="M4220 2106 c-179 -38 -325 -193 -351 -372 -6 -38 -18 -100 -27 -139
-67 -285 96 -541 374 -587 240 -40 480 136 515 378 6 38 17 100 26 137 54 235
-40 449 -241 547 -99 48 -189 60 -296 36z"/>
<path d="M18205 2043 c-16 -9 -31 -16 -32 -17 -1 -1 11 -28 27 -61 16 -33 37
-91 47 -128 l18 -68 35 6 c19 4 36 8 37 9 7 7 -35 134 -65 198 l-37 77 -30
-16z"/>
<path d="M40 1810 l0 -90 85 0 85 0 0 90 0 90 -85 0 -85 0 0 -90z"/>
<path d="M740 1810 l0 -70 65 0 65 0 0 70 0 70 -65 0 -65 0 0 -70z"/>
<path d="M11630 1765 c-184 -57 -234 -298 -90 -428 62 -56 99 -66 243 -66
l117 0 0 139 0 140 -110 0 -110 0 0 -55 0 -55 50 0 c38 0 50 -4 50 -15 0 -21
-48 -38 -92 -32 -88 12 -143 109 -104 185 39 74 114 101 184 64 l40 -20 38 39
39 40 -28 24 c-29 26 -115 55 -156 54 -14 0 -46 -7 -71 -14z"/>
<path d="M14580 1535 l0 -245 73 0 c121 1 197 43 242 133 49 99 31 205 -48
282 -60 58 -105 75 -201 75 l-66 0 0 -245z m176 100 c82 -63 62 -189 -37 -224
l-29 -10 0 130 c0 145 4 151 66 104z"/>
<path d="M14940 1613 c0 -142 3 -174 19 -208 47 -100 142 -140 238 -100 48 20
71 41 94 87 17 32 19 60 19 213 l0 175 -55 0 -55 0 0 -165 c0 -163 0 -166 -25
-190 -29 -30 -64 -32 -93 -5 -21 20 -22 29 -22 190 l0 170 -60 0 -60 0 0 -167z"/>
<path d="M15517 1766 c-65 -18 -116 -61 -149 -126 -49 -94 -35 -192 39 -271
75 -80 181 -101 279 -55 28 13 55 29 59 36 4 7 -7 27 -29 49 l-37 38 -40 -20
c-118 -58 -234 78 -161 191 33 51 118 68 173 35 l29 -17 38 37 37 38 -28 24
c-26 23 -114 56 -146 54 -9 0 -38 -6 -64 -13z"/>
<path d="M16190 1725 l0 -55 50 0 50 0 0 -190 0 -190 55 0 55 0 0 190 0 190
45 0 45 0 0 55 0 55 -150 0 -150 0 0 -55z"/>
<path d="M16540 1535 l0 -245 60 0 60 0 0 245 0 245 -60 0 -60 0 0 -245z"/>
<path d="M16850 1767 c-49 -16 -133 -102 -148 -153 -29 -98 -8 -178 63 -249
80 -81 179 -98 276 -47 180 94 180 340 0 434 -58 30 -125 36 -191 15z m135
-111 c104 -44 97 -207 -11 -245 -52 -18 -88 -9 -130 33 -62 62 -51 153 25 203
39 27 68 29 116 9z"/>
<path d="M10402 1744 c-190 -94 -188 -361 3 -450 122 -57 263 -8 328 116 26
49 28 63 24 122 -12 182 -195 292 -355 212z m165 -101 c46 -22 73 -67 73 -123
0 -56 -27 -101 -73 -123 -43 -21 -67 -21 -112 -3 -98 41 -100 209 -2 251 43
19 72 18 114 -2z"/>
<path d="M10790 1520 l0 -250 60 0 60 0 0 100 0 100 75 0 75 0 0 55 0 55 -75
0 -75 0 0 40 0 40 95 0 95 0 0 55 0 55 -155 0 -155 0 0 -250z"/>
<path d="M11960 1520 l0 -250 150 0 150 0 0 55 0 55 -90 0 -90 0 0 195 0 195
-60 0 -60 0 0 -250z"/>
<path d="M12412 1744 c-89 -44 -142 -127 -142 -224 0 -97 53 -180 142 -224
121 -61 265 -11 330 113 109 208 -119 440 -330 335z m165 -101 c46 -22 73 -67
73 -123 0 -56 -27 -101 -73 -123 -43 -21 -67 -21 -112 -3 -98 41 -100 209 -2
251 43 19 72 18 114 -2z"/>
<path d="M12800 1520 l0 -250 95 0 c129 0 192 28 231 102 27 53 12 142 -30
177 -11 9 -13 25 -9 64 4 43 1 58 -19 86 -37 55 -79 71 -180 71 l-88 0 0 -250z"/>
<path d="M13315 1758 c-3 -7 -38 -112 -79 -233 -41 -121 -78 -228 -81 -237 -6
-16 0 -18 58 -18 65 0 65 0 72 30 l7 30 78 0 c78 0 78 0 89 -30 10 -29 12 -30
71 -30 59 0 61 1 54 23 -3 12 -36 112 -71 222 -35 110 -68 211 -72 225 -7 22
-14 25 -64 28 -40 2 -59 -1 -62 -10z"/>
<path d="M13620 1520 l0 -250 150 0 150 0 0 55 0 55 -90 0 -90 0 0 195 0 195
-60 0 -60 0 0 -250z"/>
<path d="M14220 1530 l0 -240 160 0 160 0 0 55 0 55 -100 0 -100 0 0 40 0 40
80 0 80 0 0 55 0 55 -80 0 -80 0 0 35 0 35 100 0 100 0 0 55 0 55 -160 0 -160
0 0 -240z"/>
<path d="M15913 1738 c-21 -64 -141 -413 -148 -430 -6 -16 0 -18 54 -18 60 0
62 1 73 30 l10 31 76 -3 c72 -3 76 -4 82 -28 5 -23 11 -25 67 -28 l61 -3 -54
168 c-29 92 -64 200 -77 238 l-24 70 -55 3 c-54 3 -55 2 -65 -30z"/>
<path d="M17200 1530 l0 -240 60 0 59 0 3 131 3 131 73 -131 74 -131 64 0 64
0 0 240 0 240 -60 0 -60 0 0 -137 0 -138 -77 138 -76 137 -64 0 -63 0 0 -240z"/>
<path d="M6110 1610 l0 -150 35 0 35 0 0 150 0 150 -35 0 -35 0 0 -150z"/>
<path d="M6870 1670 l0 -50 45 0 45 0 0 -175 0 -175 50 0 50 0 0 175 0 175 45
0 45 0 0 50 0 50 -140 0 -140 0 0 -50z"/>
<path d="M7190 1495 l0 -225 50 0 50 0 0 85 0 85 65 0 65 0 0 -85 0 -85 55 0
55 0 0 225 0 225 -55 0 -55 0 0 -90 0 -90 -65 0 -65 0 0 90 0 90 -50 0 -50 0
0 -225z"/>
<path d="M7560 1495 l0 -225 145 0 145 0 0 50 0 50 -90 0 -90 0 0 40 0 40 75
0 75 0 0 50 0 50 -75 0 -75 0 0 35 0 35 90 0 90 0 0 50 0 50 -145 0 -145 0 0
-225z"/>
<path d="M8010 1495 l0 -225 50 0 50 0 0 34 c0 31 2 34 40 40 47 7 110 59 134
110 32 68 10 161 -50 218 -40 37 -75 48 -155 48 l-69 0 0 -225z"/>
<path d="M8465 1701 c-148 -68 -180 -257 -64 -368 95 -90 232 -83 321 15 101
112 62 290 -77 353 -51 24 -129 24 -180 0z m149 -100 c38 -26 55 -57 56 -104
0 -72 -52 -127 -120 -127 -60 0 -113 59 -113 125 0 97 100 157 177 106z"/>
<path d="M8781 1658 c11 -35 43 -135 72 -223 l53 -160 57 -3 c42 -2 57 1 57
10 0 7 10 56 22 108 24 105 21 107 59 -37 l21 -83 53 0 52 0 64 220 64 220 3
-220 2 -220 145 0 145 0 0 50 0 50 -90 0 -90 0 0 40 0 40 75 0 75 0 0 50 0 50
-75 0 -75 0 0 35 0 35 90 0 90 0 0 50 0 50 -201 -2 -201 -3 -18 -60 c-10 -33
-26 -87 -36 -120 l-17 -60 -31 120 -32 120 -52 3 c-36 2 -53 -1 -56 -10 -3 -7
-14 -59 -27 -116 -12 -56 -25 -100 -28 -96 -3 3 -22 53 -42 112 l-36 107 -55
3 -56 3 19 -63z"/>
<path d="M9710 1490 l0 -220 50 0 50 0 0 55 c0 48 3 55 19 55 13 0 31 -19 53
-55 l33 -54 63 -1 c48 0 61 3 56 13 -4 6 -27 42 -50 79 -42 65 -42 66 -23 84
48 43 49 139 2 195 -40 47 -95 69 -180 69 l-73 0 0 -220z"/>
<path d="M18298 1633 c-16 -4 -18 -20 -18 -149 l0 -144 40 0 40 0 0 134 c0 74
-3 141 -6 150 -6 16 -22 18 -56 9z"/>
<path d="M6110 1283 c0 -41 19 -151 36 -210 l15 -52 32 11 c18 6 33 12 35 13
1 1 -7 37 -18 80 -11 43 -20 95 -20 116 0 57 -8 69 -46 69 -30 0 -34 -3 -34
-27z"/>
<path d="M320 1140 l0 -140 145 0 145 0 0 140 0 140 -145 0 -145 0 0 -140z"/>
<path d="M1040 1135 l0 -105 105 0 105 0 0 105 0 105 -105 0 -105 0 0 -105z"/>
<path d="M18280 1045 l0 -145 40 0 40 0 0 145 0 145 -40 0 -40 0 0 -145z"/>
<path d="M6251 901 c-21 -16 -22 -21 -11 -42 29 -54 154 -199 172 -199 4 0 15
11 24 24 15 24 14 27 -40 90 -31 36 -67 84 -81 106 -29 45 -31 46 -64 21z"/>
<path d="M18280 626 l0 -126 -110 0 -110 0 0 -40 0 -41 148 3 147 3 0 160 0
160 -37 3 -38 3 0 -125z"/>
<path d="M0 465 l0 -215 170 0 170 0 0 215 0 215 -170 0 -170 0 0 -215z"/>
<path d="M630 460 l0 -170 175 0 175 0 0 170 0 170 -175 0 -175 0 0 -170z"/>
<path d="M6546 600 c-9 -16 -16 -31 -16 -34 0 -17 255 -125 267 -113 2 3 6 20
9 39 6 33 5 34 -44 47 -28 7 -84 30 -125 50 l-74 39 -17 -28z"/>
<path d="M1370 465 l0 -115 115 0 115 0 0 115 0 115 -115 0 -115 0 0 -115z"/>
<path d="M6947 468 c-2 -18 -3 -35 -1 -37 3 -3 70 -7 149 -9 l145 -5 0 42 0
41 -144 0 -144 0 -5 -32z"/>
<path d="M7390 460 l0 -40 144 0 c141 0 144 0 148 23 10 56 9 57 -148 57
l-144 0 0 -40z"/>
<path d="M7832 463 l3 -38 148 -3 147 -3 0 41 0 40 -151 0 -150 0 3 -37z"/>
<path d="M8280 460 l0 -40 145 0 145 0 0 40 0 40 -145 0 -145 0 0 -40z"/>
<path d="M8722 463 l3 -38 145 0 145 0 3 38 3 37 -151 0 -151 0 3 -37z"/>
<path d="M9170 460 l0 -40 145 0 145 0 0 40 0 40 -145 0 -145 0 0 -40z"/>
<path d="M9612 463 l3 -38 145 0 145 0 3 38 3 37 -151 0 -151 0 3 -37z"/>
<path d="M10060 460 l0 -40 145 0 145 0 0 40 0 40 -145 0 -145 0 0 -40z"/>
<path d="M10500 460 l0 -41 148 3 147 3 3 38 3 37 -150 0 -151 0 0 -40z"/>
<path d="M10948 478 c-10 -57 -9 -58 148 -58 l144 0 0 40 0 40 -144 0 c-141 0
-144 0 -148 -22z"/>
<path d="M11390 460 l0 -41 148 3 147 3 3 38 3 37 -150 0 -151 0 0 -40z"/>
<path d="M11832 463 l3 -38 148 -3 147 -3 0 41 0 40 -151 0 -150 0 3 -37z"/>
<path d="M12280 460 l0 -41 148 3 147 3 3 38 3 37 -150 0 -151 0 0 -40z"/>
<path d="M12722 463 l3 -38 148 -3 147 -3 0 41 0 40 -151 0 -150 0 3 -37z"/>
<path d="M13170 460 l0 -40 145 0 145 0 0 40 0 40 -145 0 -145 0 0 -40z"/>
<path d="M13612 463 l3 -38 145 0 145 0 3 38 3 37 -151 0 -151 0 3 -37z"/>
<path d="M14060 460 l0 -40 145 0 145 0 0 40 0 40 -145 0 -145 0 0 -40z"/>
<path d="M14502 463 l3 -38 145 0 145 0 3 38 3 37 -151 0 -151 0 3 -37z"/>
<path d="M14950 460 l0 -40 145 0 145 0 0 40 0 40 -145 0 -145 0 0 -40z"/>
<path d="M15390 460 l0 -41 148 3 147 3 3 38 3 37 -150 0 -151 0 0 -40z"/>
<path d="M15840 460 l0 -40 145 0 145 0 0 40 0 40 -145 0 -145 0 0 -40z"/>
<path d="M16280 460 l0 -41 148 3 147 3 3 38 3 37 -150 0 -151 0 0 -40z"/>
<path d="M16722 463 l3 -38 148 -3 147 -3 0 41 0 40 -151 0 -150 0 3 -37z"/>
<path d="M17170 460 l0 -41 148 3 147 3 3 38 3 37 -150 0 -151 0 0 -40z"/>
<path d="M17612 463 l3 -38 148 -3 147 -3 0 41 0 40 -151 0 -150 0 3 -37z"/>
</g>
</svg>
