<?xml version="1.0" standalone="no"?>
<!DOCTYPE svg PUBLIC "-//W3C//DTD SVG 20010904//EN"
 "http://www.w3.org/TR/2001/REC-SVG-20010904/DTD/svg10.dtd">
<svg version="1.0" xmlns="http://www.w3.org/2000/svg"
 width="3004.000000pt" height="1325.000000pt" viewBox="0 0 3004.000000 1325.000000"
 preserveAspectRatio="xMidYMid meet">
<metadata>
Created by potrace 1.16, written by Peter Selinger 2001-2019
</metadata>
<g transform="translate(0.000000,1325.000000) scale(0.100000,-0.100000)"
fill="#000000" stroke="none">
<path d="M0 6625 l0 -6625 1151 0 1150 0 543 543 c696 694 966 989 1540 1680
108 130 200 237 203 237 3 0 21 -11 39 -25 50 -38 69 -33 84 23 7 26 16 50 20
55 3 4 14 -18 24 -48 14 -47 21 -55 42 -55 18 0 24 -5 24 -22 1 -15 14 -32 40
-50 24 -17 42 -38 46 -55 10 -47 12 -51 33 -63 21 -10 21 -8 21 83 l0 93 -40
34 c-22 18 -40 37 -40 42 0 4 25 8 56 8 l56 0 -8 122 c-4 81 -11 127 -20 136
-18 17 -18 37 1 52 9 7 15 36 18 78 l3 67 2 -66 c1 -45 7 -71 17 -79 18 -15
19 -34 3 -59 -9 -15 -8 -31 6 -75 l18 -56 69 0 69 0 0 40 0 40 156 0 156 0 -6
-27 c-3 -16 -9 -43 -12 -60 l-7 -33 -209 0 -210 0 7 -32 c10 -44 13 -48 36
-48 16 0 19 -7 19 -44 0 -35 -4 -45 -20 -49 -17 -4 -20 -14 -20 -61 l0 -55 50
50 c27 27 50 58 50 69 0 13 8 20 27 22 24 3 30 11 44 58 10 33 19 49 23 40 3
-8 12 -33 19 -55 11 -32 19 -41 40 -43 21 -3 27 -9 27 -27 0 -16 11 -30 33
-44 53 -32 57 -49 60 -245 2 -173 3 -179 25 -194 l22 -14 0 248 0 248 -47 48
-47 48 57 0 57 0 0 121 c0 103 -3 124 -17 134 -15 11 -15 18 -5 51 10 31 10
50 -1 95 l-14 56 24 -5 c13 -2 23 -8 23 -13 0 -5 29 -28 65 -52 l65 -44 -60
-64 c-33 -35 -58 -70 -55 -76 3 -10 51 -13 190 -13 175 0 188 -1 225 -22 39
-22 47 -39 34 -72 -5 -14 -33 -16 -211 -16 l-205 0 6 -31 c3 -17 6 -35 6 -40
0 -5 11 -9 25 -9 23 0 25 -4 25 -45 0 -38 -3 -45 -20 -45 -18 0 -20 -7 -20
-62 l0 -63 20 32 c10 18 33 39 50 48 21 11 30 23 30 40 0 20 5 25 24 25 21 0
27 9 43 57 l19 57 20 -55 c16 -46 23 -54 47 -57 19 -2 27 -9 27 -23 0 -11 20
-39 45 -62 l45 -44 0 -149 0 -149 -30 -17 -30 -17 0 39 c0 30 -5 40 -20 45
-32 10 -40 -3 -40 -66 0 -47 3 -59 16 -59 11 0 14 -5 9 -18 -8 -21 -25 -127
-25 -165 0 -26 9 -32 137 -93 75 -35 138 -62 141 -59 3 2 1 69 -5 148 -11 155
-29 211 -79 238 -13 7 -24 17 -24 23 -1 6 -1 99 -2 206 l0 195 -46 48 -46 47
57 0 57 0 0 119 c0 93 -3 121 -15 131 -17 14 -20 56 -5 65 5 3 10 35 10 71 0
41 4 63 10 59 6 -3 10 -32 10 -63 1 -34 7 -65 15 -76 13 -17 13 -22 0 -43 -15
-22 -13 -33 16 -143 27 -102 34 -119 53 -122 17 -2 21 -10 22 -45 0 -35 -3
-43 -18 -43 -15 0 -18 -8 -18 -56 l0 -56 24 29 c13 16 36 35 50 42 17 9 26 23
26 38 0 17 6 23 23 23 20 0 26 9 42 57 l18 58 19 -57 c17 -49 23 -58 44 -58
18 0 24 -5 24 -22 0 -15 11 -29 30 -40 17 -9 40 -33 51 -53 12 -19 23 -35 25
-35 2 0 4 68 4 150 l0 150 -130 0 -130 0 0 35 0 35 330 0 330 0 0 -60 c0 -53
-2 -60 -20 -60 -17 0 -20 -7 -20 -50 0 -46 -2 -50 -23 -50 -13 0 -29 -6 -36
-12 -11 -11 -12 -6 -7 30 5 34 3 44 -10 49 -23 9 -41 -13 -28 -35 6 -9 9 -32
6 -50 -4 -28 -8 -32 -33 -32 l-29 0 0 -102 c0 -57 -4 -109 -8 -116 -6 -8 -38
-13 -100 -13 l-92 -1 0 -163 0 -162 38 -7 c20 -3 130 -6 245 -6 l207 0 0 -59
c0 -33 -4 -115 -9 -183 -6 -68 -12 -166 -16 -220 l-5 -96 172 -55 c235 -75
215 -71 221 -47 3 11 13 20 24 20 10 0 25 5 33 11 11 7 3 8 -27 4 -27 -4 -43
-3 -43 4 0 14 9 18 57 26 l42 7 -5 -60 -5 -59 59 -17 c32 -9 70 -16 84 -16 15
0 28 -4 30 -8 2 -5 15 -12 31 -16 20 -5 27 -3 27 9 0 12 15 15 81 15 l81 0 -4
55 -5 55 189 0 c116 0 188 4 188 10 0 6 -73 11 -185 12 -248 4 -248 22 0 26
l185 2 0 230 0 230 -237 0 c-188 1 -243 4 -263 15 -32 18 -98 18 -130 0 -14
-8 -43 -14 -65 -15 -22 0 -70 -9 -107 -19 l-66 -19 -6 96 c-3 54 -8 127 -11
164 l-5 67 77 46 78 45 540 0 540 0 79 -46 79 -46 -6 -52 c-3 -28 -11 -99 -18
-159 -8 -70 -16 -107 -24 -107 -6 0 -34 7 -61 15 -27 8 -50 15 -52 15 -1 0 -1
-104 0 -232 2 -168 6 -232 15 -235 8 -3 13 11 15 39 3 39 5 43 28 40 14 -2 25
-5 26 -5 2 -3 -14 -168 -20 -205 l-5 -32 55 0 54 0 0 -55 c0 -51 2 -55 23 -55
21 0 23 4 22 52 l0 53 90 0 90 0 0 -53 c-1 -50 0 -52 27 -52 27 0 28 1 28 55
l0 55 70 0 70 0 -5 28 c-5 29 -25 191 -25 204 0 5 38 8 85 8 l86 0 -7 -115 -7
-115 92 0 91 0 0 -60 0 -60 30 0 30 0 0 60 0 60 91 0 91 0 -3 115 -4 115 32 0
33 0 0 80 c0 90 -15 137 -53 166 -20 15 -26 29 -29 69 l-3 49 85 13 c79 11
452 53 601 68 l67 6 5 42 c2 23 8 50 12 60 5 12 2 17 -8 17 -13 0 -16 20 -19
111 l-3 111 -37 34 c-43 38 -88 45 -138 19 -46 -24 -55 -50 -60 -180 l-5 -120
-52 -3 -53 -3 0 90 c0 81 -2 92 -26 120 -47 57 -137 50 -175 -13 -15 -25 -19
-51 -19 -127 0 -105 -2 -109 -61 -109 l-29 0 0 65 c0 100 -21 136 -91 158 -9
3 -21 19 -27 37 -13 37 -22 33 186 90 321 88 756 160 1107 182 37 3 40 5 43
35 l3 33 737 -3 737 -2 0 -228 0 -227 27 -23 c27 -23 45 -52 59 -96 4 -14 5
110 2 277 l-6 302 62 0 c47 0 63 -4 68 -16 6 -17 -14 -905 -23 -986 l-5 -48
67 0 67 0 -8 300 c-4 165 -8 315 -10 334 -2 18 -5 118 -6 222 l-3 189 339 0
340 0 1 -140 c0 -133 -8 -469 -20 -767 l-5 -138 65 0 64 0 0 108 c0 59 -4 217
-9 352 -6 135 -11 322 -13 415 l-3 170 65 0 65 0 -3 -290 -3 -290 19 41 c11
22 32 50 47 62 l27 22 -3 227 -4 228 743 3 c701 2 743 3 740 20 -3 16 -46 17
-716 16 l-712 -2 0 94 0 94 -190 0 -189 0 -3 -92 -3 -93 -292 -3 -293 -2 0 95
0 95 -195 0 -195 0 0 -97 0 -96 -272 6 c-149 4 -471 7 -715 7 l-443 0 0 90 0
90 533 0 532 1 74 44 75 44 -40 3 c-21 2 411 3 961 3 550 0 980 -2 956 -5
l-45 -5 51 -42 51 -43 536 0 536 0 0 -64 c0 -62 7 -76 40 -76 4 0 11 41 15 90
6 76 10 93 29 105 11 9 22 11 24 6 2 -5 -1 -51 -7 -102 -5 -52 -8 -95 -6 -97
1 -1 25 -5 52 -8 l49 -6 11 133 c8 83 8 139 2 150 -21 41 -81 31 -93 -16 -9
-34 -46 -35 -46 -1 0 31 -25 56 -54 56 -26 0 -40 -14 -48 -47 -5 -17 -1 -23
16 -26 15 -3 12 -5 -10 -6 l-31 -1 -6 71 c-4 53 -12 78 -27 94 -26 27 -25 31
5 58 23 21 25 34 40 196 l16 174 -25 26 -25 25 29 25 c30 26 30 28 46 200 l16
173 -26 26 -25 26 30 25 c30 26 30 27 46 199 l16 172 -24 26 -24 26 28 22 c28
23 29 27 44 190 16 167 16 167 -6 190 -28 29 -27 37 9 61 22 15 30 29 33 60
l4 40 1 -42 c2 -38 5 -43 26 -43 19 0 26 6 29 28 l4 27 2 -27 c1 -21 8 -29 27
-34 14 -4 29 -3 33 2 5 5 11 42 14 82 l6 72 -34 0 c-33 0 -34 -2 -37 -42 l-3
-43 -5 48 -5 47 46 0 45 0 21 233 21 232 -24 26 -24 25 35 32 c25 23 35 41 35
62 0 25 4 30 23 29 15 -1 17 -3 6 -6 -16 -4 -32 -57 -21 -68 3 -3 18 -5 34 -5
24 0 28 4 28 29 0 16 -6 32 -12 35 -7 4 23 4 66 1 43 -3 91 -5 105 -5 22 -1
24 -2 9 -11 -11 -6 -18 -22 -18 -39 0 -26 4 -30 29 -30 23 0 31 5 34 23 4 21
4 21 6 1 1 -26 49 -43 62 -22 7 10 9 10 9 1 0 -8 14 -13 35 -13 32 0 35 2 35
30 0 26 -3 30 -29 30 -20 0 -31 -6 -34 -17 -3 -13 -5 -12 -6 5 -1 20 -6 23
-41 20 -22 -1 -43 1 -46 5 -4 4 13 7 37 6 53 -1 171 -15 147 -18 -14 -1 -18
-10 -18 -36 0 -32 2 -35 30 -35 26 0 30 3 30 29 0 16 -6 32 -12 34 -19 8 78 6
147 -3 61 -7 51 -13 -17 -10 -36 1 -38 0 -38 -29 0 -28 3 -31 29 -31 23 0 31
5 34 23 4 19 4 18 6 -5 1 -24 5 -28 31 -28 22 0 30 5 31 18 0 13 2 14 6 2 9
-23 22 -28 67 -28 23 0 48 -2 56 -4 10 -2 16 7 18 29 3 28 0 32 -25 36 -15 2
-3 4 27 4 30 0 45 -2 33 -4 -19 -4 -23 -11 -23 -39 0 -31 2 -34 31 -34 30 0
31 2 27 35 -2 19 0 35 4 35 4 0 8 -16 8 -35 0 -21 9 -48 21 -64 l21 -28 -29
-29 c-29 -29 -29 -31 -47 -234 -9 -113 -19 -215 -22 -227 -3 -17 0 -23 13 -23
14 0 15 -2 5 -9 -8 -5 -16 -38 -19 -84 -6 -76 -6 -77 18 -77 13 0 41 -3 62 -6
35 -6 37 -5 38 22 2 26 2 27 6 5 3 -13 18 -38 34 -55 l29 -31 -27 -24 c-27
-23 -29 -30 -44 -190 l-16 -166 24 -29 24 -29 -30 -26 c-29 -25 -29 -29 -41
-171 -6 -80 -13 -155 -15 -167 -3 -13 4 -33 20 -51 l25 -30 -28 -20 c-28 -20
-28 -23 -44 -199 l-17 -178 25 -26 25 -26 -30 -24 c-30 -24 -30 -25 -45 -197
l-16 -173 22 -30 22 -30 -26 -22 c-26 -21 -28 -30 -39 -148 -6 -70 -10 -132
-7 -139 6 -19 246 169 478 375 138 122 452 434 542 537 l50 58 -61 0 c-57 0
-61 1 -61 23 0 13 -9 32 -20 42 -30 27 -70 7 -70 -35 l0 -30 -130 0 -130 0 0
54 0 53 288 7 c158 4 291 12 297 17 5 5 -108 9 -288 9 l-297 0 0 265 0 265 30
0 c27 0 30 3 30 30 0 25 4 30 25 30 20 0 25 5 25 25 0 21 5 25 30 25 27 0 30
3 30 30 l0 30 80 0 c73 0 80 -2 80 -20 0 -13 7 -20 20 -20 13 0 20 7 20 20 0
16 7 20 35 20 31 0 35 -3 35 -25 0 -21 5 -25 30 -25 27 0 30 -3 30 -30 0 -25
4 -30 25 -30 21 0 25 -5 25 -30 0 -25 4 -30 25 -30 l25 0 2 -257 3 -258 56 70
c31 39 79 102 108 141 l51 71 -15 38 c-37 87 25 175 124 175 l39 0 92 152
c535 893 762 1889 649 2863 -127 1099 -669 2146 -1566 3026 -81 80 -181 174
-221 210 l-73 66 178 129 c620 450 1150 909 1738 1505 394 400 711 755 1009
1132 l77 97 -9881 0 -9880 0 0 -6625z m10530 5570 c28 -88 61 -189 74 -225
l22 -65 237 0 c130 0 237 -2 237 -5 -1 -3 -86 -63 -190 -134 -105 -71 -190
-132 -190 -135 0 -4 32 -101 70 -216 39 -115 69 -213 68 -217 -2 -5 -89 55
-193 131 l-190 139 -45 -32 c-25 -18 -111 -81 -192 -139 -82 -59 -148 -104
-148 -101 0 4 32 103 71 221 39 118 67 218 63 222 -17 15 -349 243 -361 248
-37 14 8 18 224 18 l238 0 74 227 c41 125 76 226 77 225 2 -1 26 -74 54 -162z
m-1955 -605 l71 -215 237 -5 237 -5 -182 -125 c-100 -69 -186 -128 -191 -131
-5 -4 22 -101 63 -223 40 -120 70 -219 67 -222 -2 -2 -89 58 -192 135 l-189
139 -105 -78 c-187 -136 -276 -199 -278 -196 -2 1 29 97 67 212 39 115 69 215
68 221 -2 7 -88 71 -192 143 l-190 130 240 0 240 0 56 173 c31 94 64 198 74
231 10 32 21 52 23 45 3 -8 37 -111 76 -229z m3953 22 c35 -108 68 -210 74
-225 l11 -28 233 3 c129 2 234 0 234 -3 0 -3 -68 -52 -150 -109 -83 -56 -168
-115 -189 -131 l-39 -28 73 -218 c40 -120 71 -220 69 -222 -3 -4 -38 21 -241
171 -73 54 -137 98 -143 98 -6 0 -95 -61 -197 -135 -103 -74 -188 -134 -189
-132 -2 2 30 101 71 220 l74 217 -97 68 c-53 38 -139 97 -189 132 -51 35 -93
66 -93 70 0 3 105 4 234 2 l235 -3 73 226 c40 123 75 225 78 225 3 0 33 -89
68 -198z m-5468 -1255 c0 -7 31 -106 69 -222 l70 -210 235 0 c130 0 236 -2
236 -5 0 -3 -86 -63 -190 -135 -105 -71 -190 -130 -190 -132 0 -1 32 -98 70
-214 39 -116 70 -215 68 -219 -2 -4 -88 55 -191 131 l-188 139 -42 -29 c-23
-17 -109 -79 -192 -139 -82 -60 -151 -109 -152 -108 -2 1 29 96 67 211 39 115
70 215 70 221 0 14 -18 27 -224 169 -80 55 -146 102 -146 105 0 3 103 4 229 2
220 -3 230 -2 240 17 14 25 141 414 141 430 0 7 5 9 10 6 6 -3 10 -12 10 -18z
m6938 -222 l72 -225 236 -2 236 -3 -58 -40 c-100 -68 -257 -177 -290 -201
l-32 -23 74 -223 c41 -122 74 -223 74 -225 0 -1 -85 60 -190 137 -104 77 -194
140 -200 140 -5 0 -94 -61 -197 -135 -103 -74 -188 -133 -189 -132 -1 1 31
100 71 219 66 198 71 218 56 231 -9 7 -94 67 -189 133 l-174 119 236 3 236 2
72 225 c40 124 75 225 78 225 3 0 38 -101 78 -225z m835 -2200 c130 0 237 -2
237 -5 0 -3 -31 -25 -68 -50 -158 -106 -307 -211 -310 -219 -2 -5 29 -104 68
-221 39 -117 69 -215 66 -217 -2 -2 -77 51 -167 117 -90 67 -175 129 -189 139
l-25 19 -193 -139 c-105 -76 -192 -134 -192 -129 0 5 32 102 70 216 39 115 70
210 70 213 0 3 -86 65 -190 136 -104 72 -189 132 -190 135 0 3 107 5 237 5
l238 0 32 95 c17 52 50 156 74 230 l43 135 75 -230 76 -230 238 0z m-8237 228
l69 -218 240 -5 240 -5 -130 -91 c-71 -50 -158 -109 -192 -132 l-61 -42 13
-42 c7 -24 30 -92 50 -153 67 -201 83 -255 73 -249 -6 4 -83 60 -172 126 -228
169 -202 155 -234 131 -99 -73 -352 -253 -356 -253 -3 0 108 343 138 426 3 7
-14 25 -37 41 -23 16 -109 76 -192 134 l-150 104 239 5 240 5 70 218 c38 119
73 217 76 217 3 0 37 -98 76 -217z m530 -2005 l69 -217 233 -3 234 -3 -186
-129 c-102 -71 -186 -133 -186 -137 0 -4 32 -103 70 -220 39 -117 69 -213 68
-215 -2 -1 -41 26 -88 60 -260 192 -294 215 -304 208 -6 -5 -60 -44 -121 -87
-60 -43 -143 -103 -184 -134 -41 -30 -72 -48 -69 -40 19 51 138 418 138 427 0
5 -84 68 -186 138 l-186 129 234 3 234 2 62 188 c33 103 67 206 74 229 7 23
15 37 18 30 4 -7 38 -110 76 -229z m6880 -10 l68 -208 240 0 c192 -1 238 -3
224 -13 -9 -7 -95 -66 -192 -132 -96 -66 -176 -125 -176 -130 0 -6 31 -107 70
-225 38 -118 70 -216 70 -217 0 -1 -86 61 -191 138 -105 77 -196 138 -202 136
-7 -3 -93 -64 -192 -135 -99 -72 -181 -129 -183 -127 -3 2 111 357 135 422 3
6 -82 71 -187 145 l-192 133 238 5 238 5 73 220 c40 121 73 222 73 225 2 11
21 -43 86 -242z m-5943 144 c76 -79 90 -118 62 -173 -35 -68 -37 -69 -161 -69
l-112 0 -26 30 c-28 34 -42 87 -30 122 4 12 36 53 72 90 89 92 105 92 195 0z
m-2837 -389 c24 -16 44 -35 44 -43 0 -21 -86 -74 -108 -65 -31 11 -82 50 -82
61 0 10 86 73 99 74 2 0 23 -12 47 -27z m2826 15 c-8 -8 -12 -58 -12 -157 l0
-146 156 -460 c86 -253 160 -472 164 -487 l9 -28 -190 0 c-104 0 -189 -3 -189
-6 0 -4 8 -13 18 -20 16 -13 16 -13 0 -14 -12 0 -18 -8 -18 -24 l0 -24 189 2
188 1 25 -147 c19 -107 31 -155 48 -178 28 -39 50 -111 50 -162 0 -22 5 -49
12 -61 6 -12 14 -48 19 -82 4 -33 17 -86 29 -119 11 -32 19 -65 16 -72 -4 -10
-43 -13 -174 -12 l-169 0 5 24 c2 13 2 24 0 24 -3 0 -59 -22 -124 -50 l-119
-49 113 -1 c93 0 112 -3 112 -15 0 -13 27 -15 180 -15 l180 0 0 -207 c0 -199
1 -206 18 -190 10 10 23 17 28 17 5 0 14 10 19 23 6 12 20 26 33 32 12 5 22
14 22 19 0 5 7 18 17 28 12 14 31 18 77 18 l61 0 63 -64 c57 -57 63 -66 53
-85 -10 -18 -9 -21 10 -21 16 0 20 4 15 18 -5 11 2 9 20 -9 22 -23 24 -30 15
-48 -10 -18 -9 -21 7 -21 32 0 45 -27 45 -89 0 -69 -10 -92 -29 -67 -12 17
-13 16 -24 -3 -9 -18 -8 -21 10 -21 11 0 20 -7 20 -16 0 -8 -4 -13 -9 -9 -6 3
-15 -4 -22 -17 l-12 -22 -18 22 -18 22 -16 -22 c-10 -13 -19 -18 -21 -13 -10
23 -26 39 -30 30 -16 -37 -22 -39 -42 -15 l-19 24 -7 -22 c-9 -28 -18 -28 -35
0 l-13 21 -18 -23 -18 -23 -12 23 -12 23 -18 -23 -18 -23 -12 23 -12 23 -18
-23 -18 -23 -12 23 -12 23 -18 -23 -18 -23 -11 22 c-7 12 -16 19 -21 16 -5 -3
0 -21 11 -39 18 -30 19 -49 17 -212 l-3 -179 -27 -3 c-20 -2 -28 -9 -28 -23 0
-19 1 -19 22 -5 35 25 94 20 123 -9 14 -13 25 -30 25 -37 0 -7 14 4 31 25 26
32 36 37 73 37 33 0 49 -6 70 -26 14 -15 26 -34 26 -43 0 -9 8 -3 20 16 36 60
108 73 154 27 28 -29 35 -64 11 -64 -8 0 -15 5 -15 10 0 19 -40 50 -64 50 -15
0 -34 -12 -49 -30 -33 -39 -79 -41 -95 -6 -21 46 -88 47 -112 1 -10 -19 -21
-25 -47 -25 -18 0 -33 5 -33 10 0 19 -40 50 -64 50 -28 0 -76 -55 -76 -86 0
-11 9 -37 20 -58 19 -38 19 -38 26 -12 10 40 68 86 109 86 43 0 101 -48 110
-92 l7 -30 18 39 c50 111 163 111 214 0 l13 -29 13 31 c16 41 68 84 92 78 10
-3 18 -1 18 4 0 5 -11 9 -24 9 -23 0 -25 5 -28 48 -3 40 -6 47 -26 50 -21 3
-23 8 -20 60 l3 57 158 3 157 3 0 64 0 65 -185 0 -185 0 -6 25 c-3 14 -3 41 0
60 4 19 3 35 -1 35 -16 0 -183 -73 -183 -81 0 -4 38 -5 84 -3 l84 4 1 -123 0
-122 -34 -2 -35 -3 0 81 c0 60 -3 80 -12 77 -8 -3 -15 -32 -18 -79 l-5 -74
-37 -2 -38 -3 0 81 c0 60 -3 80 -12 77 -8 -3 -15 -34 -19 -84 l-5 -79 -2 83
c-2 65 1 84 13 88 12 5 15 25 15 88 l0 83 167 6 c91 4 214 7 273 7 98 0 109
-2 122 -21 13 -20 16 -18 98 64 143 142 341 255 600 340 216 71 503 132 717
151 l62 6 6 -52 c3 -29 9 -84 13 -123 7 -69 7 -70 38 -73 29 -3 35 -10 68 -83
21 -45 41 -92 46 -105 5 -13 14 -24 20 -24 5 0 10 -17 10 -39 l0 -38 -107 -7
c-445 -30 -941 -139 -1270 -280 -131 -56 -292 -139 -297 -153 -3 -7 -3 -19 0
-27 4 -10 27 -1 92 35 324 182 846 324 1392 379 58 6 124 12 148 15 l42 5 0
-38 c0 -38 -1 -38 -52 -52 -37 -9 -65 -25 -93 -52 l-40 -39 3 -126 c4 -142 3
-143 -65 -143 l-43 0 0 88 c0 109 -12 154 -51 186 -42 36 -90 43 -135 19 -61
-31 -74 -69 -74 -205 0 -131 8 -118 -77 -132 l-33 -5 0 85 c0 109 -17 148 -75
176 -53 26 -86 19 -132 -27 l-33 -33 0 -120 0 -120 -50 -11 c-28 -6 -53 -11
-54 -11 -2 0 -6 38 -7 85 -4 76 -7 87 -30 111 -18 18 -41 28 -71 31 -40 5 -49
2 -79 -25 l-34 -30 -3 -114 -4 -113 -114 -31 -114 -30 0 89 c0 85 1 90 29 118
l29 29 -32 0 c-23 0 -41 -9 -61 -30 -27 -28 -29 -37 -33 -124 l-4 -94 -52 2
c-43 1 -59 -4 -89 -26 -60 -46 -70 -40 -100 61 -15 50 -27 101 -27 115 0 15
-4 26 -9 26 -14 0 -20 63 -8 82 8 12 7 21 -2 32 -19 23 -44 1 -38 -32 8 -41
-11 -92 -34 -92 -20 0 -69 -41 -69 -58 0 -6 15 -13 34 -16 31 -6 34 -9 27 -34
-7 -24 -12 -26 -44 -24 -48 4 -75 -12 -95 -56 -14 -32 -17 -34 -20 -15 -2 12
-10 23 -18 25 -21 5 17 63 58 88 l33 20 -31 0 c-23 0 -34 6 -42 25 -26 56
-100 58 -128 3 -14 -27 -14 -33 -3 -37 21 -6 79 -70 79 -87 0 -8 -7 -14 -15
-14 -9 0 -15 -9 -16 -22 0 -22 -1 -22 -10 2 -29 73 -102 94 -153 44 -14 -15
-26 -35 -26 -45 0 -16 -8 -19 -55 -19 -41 0 -55 4 -55 14 0 19 -48 76 -65 76
-7 0 -16 7 -19 16 -5 13 -20 15 -81 12 l-75 -3 -2 130 -3 130 -27 3 -28 3 0
-133 0 -133 -75 0 -75 0 -29 75 c-15 41 -54 144 -86 228 l-59 154 -76 -224
c-48 -140 -83 -224 -92 -226 -10 -2 -38 60 -97 215 -46 120 -86 222 -89 227
-3 5 -34 -74 -69 -175 -84 -243 -94 -271 -100 -265 -3 3 32 113 78 245 46 133
86 238 90 233 3 -4 46 -110 94 -237 48 -126 89 -231 90 -233 1 -1 37 100 80
225 92 270 90 266 103 233 93 -251 166 -437 173 -445 5 -5 9 109 9 288 l0 297
-367 0 -368 0 1 -122 0 -123 -3 115 c-3 75 -8 117 -16 122 -9 6 -9 8 1 8 7 0
10 5 7 10 -4 6 -11 8 -16 5 -5 -3 -6 1 -2 11 5 15 7 15 15 0 8 -14 49 -16 378
-16 l370 0 6 25 c3 14 4 32 0 40 -5 13 17 15 162 15 184 0 248 12 231 43 -6 9
-17 17 -25 17 -8 0 -17 6 -20 14 -4 10 -16 11 -47 6 -23 -4 -139 -6 -257 -5
-118 1 -340 3 -492 4 l-278 1 3 40 c1 22 6 40 11 40 5 0 6 3 3 7 -4 3 3 17 15
30 28 30 13 51 -23 33 -23 -11 -23 -10 -5 4 23 18 32 20 41 6 3 -5 23 -1 48
11 31 16 48 33 65 68 12 25 22 52 22 59 0 6 3 11 8 10 4 -1 17 3 29 10 19 11
26 7 70 -41 l48 -54 44 49 c23 26 46 48 51 48 12 0 74 -61 87 -84 10 -18 15
-16 60 34 56 61 66 60 122 -8 l32 -40 49 52 49 51 -47 7 c-26 5 -57 6 -69 3
-23 -5 -23 -4 -23 95 0 93 -1 100 -20 100 -19 0 -20 -7 -20 -98 l0 -99 -45 1
-45 1 0 98 c0 90 -1 97 -20 97 -18 0 -20 -8 -23 -102 l-3 -103 -2 106 c-2 87
1 108 13 113 12 4 15 26 15 106 l0 100 129 0 130 0 20 29 c45 63 59 109 53
179 -2 37 -13 84 -24 105 -11 21 -70 91 -133 155 -91 95 -118 129 -137 177
-32 80 -53 81 -82 3 -18 -46 -41 -78 -122 -160 -136 -139 -165 -184 -174 -265
-7 -73 12 -147 47 -186 16 -17 43 -76 43 -93 0 -1 -78 -2 -172 -1 -171 2 -173
2 -176 25 -2 12 8 47 22 78 14 31 26 73 26 93 1 20 8 54 16 76 9 22 20 71 24
108 6 45 19 87 38 120 22 39 32 76 41 147 20 158 -7 140 205 140 l184 0 16 25
c20 31 21 84 1 91 -8 4 -15 10 -15 15 0 5 7 9 15 9 12 0 15 13 15 55 l0 55
-40 0 c-22 0 -40 5 -40 10 0 6 18 10 40 10 l40 0 0 415 0 415 -45 0 -45 0 0
148 c0 102 -4 152 -12 160 -9 9 11 12 92 12 81 0 101 -3 92 -12z m-4262 -143
l0 -145 -200 0 -200 0 0 145 0 145 200 0 200 0 0 -145z m1445 -260 c30 -19 55
-39 55 -45 0 -5 -25 -26 -55 -46 l-55 -37 -60 39 c-33 22 -60 42 -60 47 0 8
100 76 113 76 4 1 32 -15 62 -34z m85 -500 c0 -13 -19 -32 -58 -57 -56 -37
-57 -37 -64 -15 -3 12 -6 57 -7 100 l-1 77 65 -42 c44 -29 65 -49 65 -63z
m-1360 -85 l0 -120 35 0 35 0 0 -395 c0 -371 1 -396 18 -393 14 2 18 -5 20
-39 l3 -43 -428 1 -428 1 325 33 c179 19 361 37 405 41 44 5 68 10 53 12 l-28
3 -2 387 -3 387 -2 -387 -3 -388 -370 0 -370 0 -2 388 -3 387 -2 -387 -3 -388
-30 0 -30 0 0 390 0 390 35 0 35 0 0 115 0 115 188 3 c103 1 269 3 370 5 l182
2 0 -120z m8614 -315 l34 -110 146 -3 c95 -2 146 1 146 8 0 6 45 10 120 10
l120 0 0 -80 0 -80 -60 0 -60 0 0 -102 0 -103 -30 -17 c-24 -14 -30 -24 -30
-50 0 -39 7 -51 38 -67 20 -11 22 -19 22 -101 0 -62 -4 -90 -12 -90 -24 0 -48
-34 -48 -67 0 -27 6 -37 30 -51 27 -15 30 -22 30 -64 l0 -48 -402 0 -401 0 6
98 c8 119 38 239 80 312 43 76 147 176 242 233 87 51 224 102 303 113 l49 6 2
64 c1 42 -2 64 -9 64 -6 0 -9 -4 -6 -8 2 -4 -10 -8 -29 -8 -20 0 -32 4 -29 11
3 5 -1 2 -10 -9 -13 -16 -24 -18 -92 -12 -43 4 -81 9 -86 12 -4 3 -20 -4 -34
-15 -15 -11 -30 -18 -35 -15 -5 3 -9 1 -9 -4 0 -10 -79 -26 -88 -18 -3 3 6 10
19 16 l24 11 -25 -6 c-14 -4 -45 -11 -69 -16 -60 -12 -65 -20 -10 -15 24 2 32
1 16 -1 -15 -2 -25 -7 -23 -11 2 -4 -13 -8 -35 -10 -21 -1 -51 -8 -66 -14 -16
-6 -36 -10 -47 -9 -10 2 -16 -2 -12 -7 3 -5 -6 -7 -20 -4 -19 3 -22 7 -12 14
8 5 2 6 -17 2 -16 -3 -35 -13 -41 -20 -6 -8 -14 -11 -18 -7 -4 4 -14 8 -22 9
-14 2 -14 0 -1 -14 8 -9 18 -23 22 -31 10 -17 11 -18 -153 94 l-131 90 234 3
234 2 41 133 c23 72 56 176 73 231 l32 98 38 -118 c20 -66 53 -168 71 -229z
m-7301 183 c98 -66 98 -71 15 -127 l-63 -41 -6 33 c-9 41 -18 177 -12 177 2 0
32 -19 66 -42z m91 -251 l7 -78 -76 51 c-41 28 -75 54 -75 59 0 5 28 27 63 49
72 48 69 52 81 -81z m1242 -7 c28 0 43 -4 39 -10 -3 -5 -24 -10 -46 -10 l-39
0 0 -72 c0 -52 4 -76 17 -90 15 -17 15 -18 0 -18 -19 0 -24 -54 -7 -65 13 -8
13 -52 1 -60 -6 -3 3 -37 20 -77 26 -63 45 -87 157 -202 155 -159 177 -198
176 -306 0 -61 -5 -85 -27 -125 -45 -86 -63 -100 -207 -159 l-135 -55 128 -1
127 0 0 -58 c0 -54 -4 -65 -60 -153 -34 -52 -65 -95 -69 -97 -9 -3 -67 88 -63
101 1 4 -2 7 -6 7 -5 0 -18 17 -29 38 -16 29 -22 63 -28 160 l-7 122 -117 1
c-191 1 -176 -5 -228 99 -23 44 -28 69 -28 125 0 103 24 144 180 305 116 120
134 142 154 199 19 52 21 68 12 84 -10 15 -9 24 3 42 20 31 21 89 1 105 -8 7
-15 16 -15 21 0 5 7 6 15 3 12 -5 15 5 15 60 l0 66 -39 0 c-22 0 -43 5 -46 10
-4 6 12 10 39 10 38 0 46 3 46 18 0 30 15 36 18 8 3 -24 7 -26 48 -26z m-1272
-87 c26 -18 46 -40 46 -50 -1 -17 -108 -93 -130 -93 -6 0 -10 17 -10 38 0 20
-3 68 -7 107 l-6 69 31 -19 c17 -11 51 -35 76 -52z m-231 -66 l-8 -87 -62 41
c-38 24 -63 48 -63 58 0 11 26 36 68 63 78 52 76 54 65 -75z m9478 13 c16 0
49 -39 49 -60 0 -11 -10 -30 -21 -41 -19 -19 -21 -30 -17 -90 4 -54 2 -69 -8
-69 -11 0 -14 -41 -14 -220 l0 -220 170 0 c169 0 193 -5 150 -32 -13 -9 -18
-19 -14 -35 8 -30 -10 -36 -97 -36 -38 -1 -69 -4 -69 -8 0 -4 14 -13 30 -21
21 -9 30 -20 30 -35 l0 -23 -200 0 -200 0 0 23 c0 16 10 27 33 37 31 14 31 14
-52 18 l-83 3 4 29 c3 22 -2 36 -19 51 l-23 22 24 22 c19 17 22 26 13 41 -6
10 -13 21 -17 24 -30 22 -7 159 38 224 35 51 129 112 197 127 l53 12 7 67 c6
61 5 70 -14 89 -28 28 -26 57 4 85 19 17 25 35 27 67 l2 44 3 -47 c2 -27 8
-48 14 -48z m-3081 24 c0 -12 11 -29 25 -38 31 -21 33 -65 5 -91 -19 -17 -20
-26 -14 -87 6 -59 4 -68 -10 -68 -14 0 -16 -23 -16 -220 l0 -220 170 0 c168 0
193 -5 151 -32 -14 -9 -18 -19 -14 -42 l5 -31 -81 2 c-45 1 -81 -1 -81 -5 0
-14 24 -32 42 -32 13 0 18 -8 18 -25 l0 -25 -202 2 c-202 3 -203 3 -206 26 -3
16 2 22 16 22 11 0 25 7 32 15 10 12 1 15 -67 17 l-78 3 1 30 c0 18 -7 35 -18
43 -23 17 -23 23 3 51 20 21 20 23 3 49 -41 62 -19 180 47 256 44 50 115 92
189 111 l45 11 3 72 c2 40 -1 72 -6 72 -5 0 -14 12 -21 26 -10 22 -9 31 4 50
8 13 20 24 25 24 6 0 10 19 10 43 0 31 3 38 10 27 5 -8 10 -25 10 -36z m-970
-146 c23 -73 52 -163 65 -200 l22 -66 -26 11 c-14 6 -31 15 -38 20 -12 9 -48
-5 -55 -22 -1 -4 -29 -10 -60 -13 -54 -4 -58 -3 -58 16 0 18 -2 19 -11 6 -9
-12 -10 -11 -4 5 13 40 115 367 115 371 0 22 15 -18 50 -128z m-5131 -61 c7
-65 11 -120 9 -123 -3 -2 -122 72 -146 92 -2 1 -6 20 -8 41 -5 37 -4 39 58 79
35 23 66 39 69 35 3 -3 12 -59 18 -124z m-368 73 c78 -54 79 -76 7 -120 -29
-17 -64 -38 -77 -47 l-24 -17 7 64 c12 117 19 160 23 160 2 0 31 -18 64 -40z
m47 -192 l-3 -43 99 -3 98 -3 -6 46 c-4 25 -5 45 -2 45 3 0 36 -20 73 -44 37
-23 84 -46 103 -49 19 -3 61 -15 93 -27 l57 -21 0 -77 c-1 -48 -8 -96 -19
-127 -17 -49 -17 -51 5 -119 13 -38 21 -72 18 -77 -3 -5 -1 -9 4 -9 5 0 12 -9
15 -20 5 -20 0 -20 -214 -20 l-219 0 0 45 0 45 -202 1 c-112 1 -206 1 -209 1
-3 -1 1 24 9 53 l15 55 189 0 188 0 0 125 0 125 -207 0 -208 1 50 20 c28 11
72 24 98 30 26 6 73 28 105 50 31 21 60 39 65 39 4 0 6 -19 5 -42z m4273 -123
c27 -14 32 -14 59 2 29 17 32 17 63 0 21 -12 43 -16 58 -12 17 4 30 1 38 -9
11 -13 8 -18 -23 -32 -34 -17 -37 -16 -69 1 -31 16 -35 16 -65 1 -30 -15 -34
-15 -64 0 -30 15 -34 15 -65 -1 -32 -17 -35 -18 -69 -1 -30 14 -34 19 -23 32
8 10 21 13 40 9 18 -4 37 -1 51 9 28 20 32 20 69 1z m-69 -96 c30 18 33 18 65
3 32 -15 37 -15 65 1 29 17 32 17 65 -3 34 -20 35 -20 71 -1 l37 19 47 -25
c48 -25 61 -49 33 -59 -8 -3 -29 3 -47 14 l-32 21 -37 -21 -38 -21 -32 21
c-30 19 -34 19 -66 4 -30 -14 -36 -14 -66 0 -32 15 -36 15 -65 -4 l-32 -20
-36 21 -36 21 -33 -20 c-32 -20 -69 -18 -62 4 2 6 23 22 48 37 l44 26 38 -19
c38 -19 39 -19 69 1z m-5282 -334 l0 -265 -163 0 -164 0 -86 99 c-49 56 -87
109 -87 120 0 13 -6 21 -17 21 -17 0 -55 40 -95 99 -12 17 -18 45 -18 84 0 42
-4 57 -12 55 -7 -3 -13 -19 -13 -36 0 -17 -3 -33 -6 -36 -3 -3 -26 24 -52 59
l-47 65 380 0 380 0 0 -265z m5080 228 c27 -16 31 -16 64 2 35 19 37 19 67 1
30 -18 32 -18 71 0 37 17 41 17 68 1 26 -16 30 -16 58 0 28 16 32 16 70 -1 37
-17 41 -17 72 -1 31 16 35 16 71 0 36 -17 40 -17 65 0 26 17 28 17 41 -1 19
-26 18 -27 -31 -47 -42 -17 -46 -17 -77 -2 -29 16 -34 16 -68 0 -35 -15 -40
-15 -74 1 -36 17 -39 17 -67 0 -29 -16 -31 -16 -60 0 -28 17 -31 17 -66 0 -36
-16 -39 -16 -70 0 -31 17 -34 17 -72 0 -37 -17 -42 -17 -63 -2 -13 9 -31 16
-41 16 -15 0 -16 3 -6 25 13 30 12 30 48 8z m-5 -93 l33 -20 36 21 36 21 34
-21 34 -21 35 20 c33 20 36 20 65 3 30 -17 32 -17 61 0 29 17 32 17 68 -2 37
-19 38 -19 75 0 37 19 38 19 70 -1 32 -19 32 -19 66 1 32 18 36 19 58 4 13 -8
24 -24 24 -35 0 -22 -7 -24 -29 -11 -10 6 -27 3 -52 -10 -37 -19 -38 -19 -71
0 -32 19 -34 19 -68 1 -34 -17 -36 -17 -72 1 -35 18 -38 18 -67 1 -30 -16 -33
-16 -62 1 -31 17 -33 17 -66 -3 l-35 -20 -34 21 -34 21 -36 -21 -36 -21 -34
20 c-26 17 -37 19 -54 10 -18 -9 -20 -8 -20 14 0 14 8 30 18 35 22 14 20 14
57 -9z m3 -97 c29 -16 32 -16 65 2 35 18 36 18 71 0 34 -18 36 -18 68 -1 32
17 36 18 66 2 31 -16 34 -16 62 0 27 17 31 17 68 0 37 -17 41 -17 72 -1 31 16
35 16 70 0 35 -16 40 -16 69 0 40 20 73 12 69 -18 -2 -13 -9 -21 -18 -19 -7 2
-31 -4 -52 -14 -36 -16 -40 -16 -71 1 -31 17 -35 17 -66 0 -32 -16 -36 -16
-71 0 -35 16 -40 16 -69 1 -29 -16 -34 -16 -61 0 -27 17 -31 17 -68 0 -39 -18
-41 -18 -71 0 -30 18 -32 18 -67 -1 -34 -18 -36 -18 -69 -1 -19 10 -40 16 -48
13 -18 -7 -29 27 -14 42 15 15 31 14 65 -6z m4076 -33 c82 0 126 -4 134 -12 7
-7 12 -43 12 -90 l0 -78 -103 0 c-77 0 -108 4 -125 16 -12 8 -28 14 -35 11 -6
-2 38 -37 98 -78 106 -71 109 -74 77 -77 -22 -2 -30 -7 -25 -15 8 -13 6 -250
-3 -364 -10 -121 -24 -82 -24 67 0 159 -9 188 -63 217 -42 22 -117 22 -151 0
-47 -31 -53 -53 -60 -206 -5 -132 -9 -162 -20 -150 -2 2 -5 104 -7 226 l-4
223 -22 0 c-13 0 -23 3 -23 8 0 4 48 38 106 77 59 38 101 71 95 73 -6 2 -23
-3 -36 -12 -18 -12 -50 -16 -125 -16 l-101 0 3 83 3 82 133 3 c117 2 132 5
133 20 0 10 3 12 6 5 3 -10 38 -13 127 -13z m-2359 -36 l13 -31 -124 -17
c-566 -79 -1013 -251 -1271 -490 -55 -51 -72 -62 -77 -50 -13 33 -5 65 24 97
18 21 30 46 30 63 0 26 1 27 14 8 24 -32 32 -5 10 34 -17 29 -23 62 -29 160
l-7 122 144 -1 143 0 -46 -22 c-26 -12 -45 -27 -43 -33 7 -16 -64 -46 -84 -35
-11 5 -31 2 -57 -10 l-40 -18 123 0 c122 -1 123 -1 122 -23 -1 -13 -2 -26 -1
-30 1 -4 56 20 124 52 207 99 467 176 752 224 259 44 262 44 280 0z m2873 24
c7 -7 12 -43 12 -90 l0 -78 -109 0 -109 0 -7 75 c-5 54 -3 80 5 90 16 19 190
21 208 3z m182 -69 c0 -73 -1 -79 -16 -65 -8 9 -20 16 -25 16 -5 0 -9 8 -9 18
0 11 -8 18 -20 19 -14 1 -20 -4 -20 -18 0 -10 -2 -19 -4 -19 -2 0 -13 -3 -23
-6 -15 -5 -15 -4 -3 5 8 6 10 11 4 11 -14 0 -15 90 -1 108 5 7 32 12 63 12
l54 0 0 -81z m-1255 -14 l0 -80 -112 -3 -113 -3 0 79 c0 43 3 82 7 86 4 3 54
5 112 4 l106 -3 0 -80z m-7180 -5 c41 -28 75 -54 75 -58 -1 -10 -99 -116 -104
-111 -5 6 -53 219 -49 219 2 0 37 -23 78 -50z m3660 31 c29 -18 31 -18 68 1
38 19 39 19 71 0 32 -19 33 -19 70 0 35 18 39 18 63 3 24 -16 28 -16 63 0 35
16 38 16 70 -4 l33 -20 37 22 37 21 33 -21 33 -21 34 20 c43 26 51 18 23 -21
-17 -25 -28 -31 -59 -31 -20 0 -42 5 -49 12 -9 9 -18 9 -37 0 -31 -14 -80 -15
-104 -2 -12 6 -29 5 -49 -2 -25 -10 -39 -9 -67 1 -28 10 -39 10 -50 1 -9 -8
-30 -10 -57 -6 -55 8 -65 8 -111 0 -39 -7 -67 9 -88 48 -12 23 -2 23 36 -1z
m2097 -234 c-3 -161 -8 -227 -16 -224 -17 6 -31 443 -15 463 10 12 15 13 25 2
9 -10 10 -69 6 -241z m134 232 c2 -5 2 -162 -2 -349 l-7 -340 -39 0 c-30 0
-38 4 -38 18 0 9 -2 164 -5 345 l-6 327 22 8 c25 10 66 4 75 -9z m332 8 c8 -9
9 -116 5 -355 l-6 -342 -142 0 -143 0 -4 343 c-3 211 -1 347 5 355 14 18 270
17 285 -1z m144 -10 c5 -6 6 -29 3 -50 -3 -21 -5 -173 -6 -337 l0 -300 -43 0
-43 0 -6 343 c-6 377 -8 368 55 361 18 -2 36 -10 40 -17z m74 -4 c8 -29 -3
-443 -11 -451 -3 -3 -8 -3 -11 0 -8 9 -18 421 -10 451 8 35 24 34 32 0z m2394
-112 c0 -179 -11 -344 -23 -332 -11 11 -23 430 -13 456 5 14 9 15 21 5 12 -10
15 -38 15 -129z m471 118 c6 -12 8 -35 5 -52 -3 -17 -6 -167 -6 -334 l-1 -303
-143 0 -143 0 -7 338 c-4 186 -4 346 0 355 5 15 23 17 145 17 131 0 139 -1
150 -21z m212 -227 c-5 -133 -12 -223 -18 -225 -15 -3 -27 443 -13 461 9 11
13 11 25 -1 11 -11 12 -54 6 -235z m-548 171 c-1 -35 -2 -191 -3 -348 l-2
-285 -44 0 -44 0 -4 343 c-2 188 -2 346 0 350 2 4 25 7 50 5 l47 -3 0 -62z
m470 57 c3 -5 3 -163 -1 -350 l-7 -340 -39 0 c-24 0 -38 5 -38 13 0 6 -2 159
-6 339 -3 180 -3 332 1 338 8 13 82 13 90 0z m-7695 -124 c0 -12 6 -38 12 -57
l12 -34 11 58 10 59 113 -116 c62 -64 109 -116 105 -116 -4 0 -2 -5 4 -11 7
-7 8 -21 2 -43 -5 -17 -7 -43 -4 -58 5 -21 2 -28 -17 -33 -53 -16 -75 -58 -37
-70 43 -14 12 -30 -64 -32 -78 -2 -90 4 -61 28 14 11 13 15 -7 30 -21 16 -24
16 -45 1 l-22 -17 20 -21 20 -22 -113 -1 c-88 -1 -116 3 -130 15 -15 13 -18
13 -33 -1 -11 -12 -14 -24 -9 -43 4 -15 8 -45 8 -67 l0 -40 -385 0 -385 0 -3
68 -3 67 382 0 c363 0 381 1 367 18 -18 20 -51 82 -44 82 3 0 11 -11 18 -25 9
-17 17 -22 27 -16 11 7 10 15 -8 40 -12 17 -27 31 -32 31 -13 0 -11 77 3 103
l12 22 5 -23 c6 -21 7 -22 29 -6 21 14 23 22 18 58 -5 34 -3 46 12 60 19 16
20 16 26 -20 l7 -36 25 23 c21 20 24 29 19 64 -6 34 -3 43 19 64 l26 24 1 -29
c1 -29 1 -29 16 9 13 31 21 37 44 37 24 0 29 -4 29 -24z m-3160 -161 l0 -55
-93 0 -93 0 -54 55 -54 55 147 0 147 0 0 -55z m1635 0 c-26 -30 -50 -55 -53
-55 -8 0 -162 101 -162 106 0 2 59 4 131 4 l131 0 -47 -55z m-889 -81 c0 0
-41 -26 -89 -58 -49 -31 -87 -53 -84 -49 8 15 20 48 23 63 2 8 13 49 25 92
l21 76 53 -61 c29 -34 52 -62 51 -63z m1009 6 c19 -57 35 -108 35 -112 0 -7
-138 79 -164 103 -5 5 11 32 39 64 26 31 49 54 51 52 3 -2 20 -51 39 -107z
m-262 33 l68 -44 -51 -59 c-29 -33 -53 -60 -55 -60 -2 0 -13 42 -25 93 -11 50
-24 100 -27 111 -6 21 -11 23 90 -41z m7262 -87 c0 0 -1 -63 -3 -138 l-3 -138
-185 0 -184 0 0 140 0 139 138 4 c113 3 237 -1 237 -7z m915 -131 l0 -145
-185 0 -185 0 0 88 c0 48 -3 110 -6 139 l-7 52 94 4 c52 1 138 4 192 5 l97 2
0 -145z m-7792 -212 c-2 -8 -40 11 -95 48 l-93 61 57 65 57 65 38 -113 c21
-63 37 -120 36 -126z m-1259 168 l51 -58 -86 -57 c-46 -31 -89 -54 -94 -51
-13 8 -13 5 7 -65 l16 -60 179 0 c141 0 178 -3 172 -12 -6 -10 -3 -9 9 0 21
18 61 11 65 -10 3 -17 -12 -18 -207 -18 l-211 0 6 -27 7 -27 -31 23 c-31 22
-32 24 -32 103 0 65 -4 85 -20 105 -19 24 -19 28 -5 49 9 14 15 47 15 84 0 38
4 59 10 55 6 -3 10 -32 10 -64 0 -38 5 -63 14 -70 12 -10 17 -2 32 46 9 32 18
64 20 71 4 21 13 42 18 42 2 0 27 -26 55 -59z m261 -45 c-11 -43 -20 -86 -20
-95 0 -9 -5 -23 -10 -31 -9 -12 -19 -5 -60 39 -28 30 -50 58 -50 62 0 7 152
110 157 106 1 -2 -7 -38 -17 -81z m2496 23 c0 -18 -1 -19 -12 -4 -12 15 -21
13 -108 -22 -53 -21 -96 -41 -96 -44 0 -3 41 -4 90 -3 l90 3 0 -120 c0 -111
-1 -119 -19 -119 -11 0 -26 -3 -35 -6 -14 -5 -16 5 -16 76 0 61 -3 81 -12 78
-9 -3 -14 -31 -16 -81 l-3 -76 -39 2 -40 1 0 79 c0 58 -3 78 -12 75 -8 -3 -15
-34 -19 -84 l-5 -79 -2 83 c-2 65 1 84 13 88 12 5 15 25 15 90 l0 84 113 0
c107 0 113 -1 113 -21z m-452 -131 c-4 -7 -16 -25 -26 -40 l-19 -28 -165 0
-164 0 0 40 0 40 191 0 c149 0 189 -3 183 -12z m77 -249 c12 -6 27 -25 34 -42
8 -18 14 -25 15 -16 0 8 13 27 28 42 39 37 99 38 136 1 14 -15 26 -34 26 -43
1 -13 3 -12 12 4 26 48 51 65 93 65 49 0 85 -28 85 -65 0 -32 -14 -32 -28 -1
-21 46 -93 46 -114 1 -16 -35 -70 -35 -86 -1 -21 46 -93 46 -114 1 -9 -19 -19
-25 -45 -25 -18 0 -33 5 -33 10 0 19 -40 50 -65 50 -16 0 -32 -11 -47 -30 -12
-16 -28 -30 -35 -30 -22 0 -14 30 16 61 32 31 84 39 122 18z m-150 -116 c17
-15 37 -41 44 -58 l13 -30 7 27 c11 42 69 88 110 88 41 0 99 -46 110 -88 l7
-27 19 37 c52 100 159 104 208 6 l19 -38 12 30 c21 52 30 44 30 -27 0 -67 -1
-69 -30 -80 -20 -7 -35 -24 -45 -47 -15 -34 -17 -36 -65 -36 -37 0 -50 4 -50
14 0 8 -12 28 -26 45 -35 42 -93 44 -129 5 -14 -15 -25 -35 -25 -45 0 -16 -8
-19 -55 -19 -41 0 -55 4 -55 14 0 8 -12 28 -26 45 -20 25 -34 31 -64 31 -30 0
-39 4 -43 22 -8 27 -1 38 24 38 10 0 19 5 19 10 0 12 -37 50 -65 66 -12 6 -16
16 -12 27 9 24 31 21 68 -10z m1659 -213 l0 -30 -175 0 c-110 0 -175 4 -175
10 0 6 -128 10 -365 10 -237 0 -365 4 -365 10 0 6 128 10 365 10 237 0 365 4
365 10 0 6 65 10 175 10 l175 0 0 -30z m346 -374 c-21 -199 -39 -353 -43 -366
-8 -23 -22 20 -24 74 -2 32 3 51 15 65 18 20 18 21 -6 30 -23 9 -25 16 -41
153 -23 197 -28 183 44 141 l61 -37 -6 -60z m402 -113 c-3 -65 -7 -121 -7
-125 -1 -5 -30 -8 -66 -8 -36 0 -82 -7 -102 -15 -20 -8 -37 -14 -38 -13 -1 2
-8 48 -14 103 -7 55 -15 117 -18 138 l-6 37 129 0 129 0 -7 -117z"/>
<path d="M8349 3456 c-21 -10 -24 -19 -27 -79 -3 -61 0 -71 23 -98 14 -17 25
-36 25 -43 0 -11 39 -36 55 -36 3 0 5 53 5 119 0 83 -4 121 -12 128 -24 18
-45 21 -69 9z"/>
<path d="M10605 3243 c-79 -10 -75 -4 -75 -101 l0 -88 65 10 65 9 0 89 c0 64
-3 88 -12 87 -7 -1 -26 -4 -43 -6z"/>
<path d="M9885 3057 l-60 -22 -3 -68 c-2 -37 0 -67 3 -67 3 0 35 9 70 21 l65
21 0 69 c0 38 -3 69 -7 68 -5 0 -35 -10 -68 -22z"/>
<path d="M8615 2325 c-14 -13 -25 -29 -25 -35 0 -5 -12 -10 -26 -10 -27 0 -27
0 7 -23 19 -12 43 -40 54 -62 l20 -40 20 40 c11 22 34 49 51 61 30 19 31 22
18 47 -28 52 -80 62 -119 22z"/>
<path d="M3452 5878 c-8 -8 -12 -48 -12 -115 l0 -103 35 0 35 0 0 109 c0 90
-3 110 -16 115 -22 8 -28 8 -42 -6z"/>
<path d="M3567 5883 c-4 -3 -7 -55 -7 -115 l0 -108 35 0 35 0 0 103 c0 67 -4
107 -12 115 -13 13 -41 16 -51 5z"/>
<path d="M3682 5878 c-8 -8 -12 -46 -12 -115 l0 -103 35 0 36 0 -3 113 c-3
103 -5 112 -23 115 -11 1 -26 -3 -33 -10z"/>
<path d="M3496 4684 c-65 -20 -146 -101 -169 -168 -47 -137 13 -284 143 -352
49 -26 191 -26 240 0 177 93 213 314 75 453 -79 78 -177 101 -289 67z m166 -4
c61 -17 128 -71 160 -128 103 -181 -25 -402 -233 -402 -98 0 -185 52 -235 142
-25 46 -29 63 -29 128 0 85 20 133 77 189 72 71 166 97 260 71z"/>
<path d="M11444 3384 c-47 -23 -54 -49 -54 -209 l0 -144 89 -3 c133 -5 121
-19 121 147 0 161 -7 186 -55 210 -41 19 -62 19 -101 -1z"/>
<path d="M11439 2961 c-32 -33 -36 -58 -14 -100 16 -32 33 -41 79 -41 72 0
105 92 51 145 -34 35 -78 33 -116 -4z"/>
<path d="M14523 3386 c-17 -8 -36 -23 -42 -35 -7 -11 -11 -82 -11 -170 l0
-151 60 -1 c33 0 77 -1 98 -1 l37 -1 0 163 c0 162 0 163 -25 181 -35 26 -79
32 -117 15z"/>
<path d="M14535 2978 c-49 -26 -60 -86 -24 -132 28 -36 89 -37 124 -1 68 67
-17 179 -100 133z"/>
<path d="M13340 2915 l0 -75 145 0 145 0 0 75 0 75 -145 0 -145 0 0 -75z"/>
<path d="M6975 2325 c-14 -13 -25 -29 -25 -35 0 -5 -12 -10 -26 -10 -27 0 -27
0 7 -23 19 -12 43 -40 54 -62 l20 -40 20 40 c11 22 34 49 51 61 30 19 31 22
18 47 -28 52 -80 62 -119 22z"/>
<path d="M7215 2325 c-33 -32 -31 -46 7 -70 18 -11 41 -38 52 -61 l20 -41 20
41 c12 22 36 51 55 63 l34 23 -32 0 c-17 0 -31 5 -31 10 0 21 -49 60 -75 60
-14 0 -37 -11 -50 -25z"/>
<path d="M24002 12123 c3 -562 4 -569 27 -638 35 -108 87 -193 165 -271 78
-77 163 -130 271 -166 l70 -23 2188 -3 2188 -2 -3 567 c-3 562 -4 569 -27 638
-35 108 -87 193 -165 271 -78 77 -163 130 -271 166 l-70 23 -2188 3 -2188 2 3
-567z m4403 492 c33 -9 89 -30 125 -48 89 -43 214 -168 257 -257 63 -128 63
-132 63 -707 l0 -523 -2143 0 c-2364 0 -2188 -5 -2327 63 -89 43 -214 168
-257 257 -63 128 -63 132 -63 707 l0 523 2143 0 c1899 0 2150 -2 2202 -15z"/>
<path d="M28181 12460 c-18 -5 -50 -24 -69 -44 -31 -30 -36 -43 -40 -93 -3
-49 0 -64 20 -93 84 -124 278 -69 278 80 0 101 -90 172 -189 150z"/>
<path d="M24402 12302 c1 -4 63 -117 136 -249 l132 -241 0 -196 0 -196 150 0
150 0 0 198 -1 197 -143 245 -143 245 -143 3 c-78 1 -140 -1 -138 -6z"/>
<path d="M24730 12295 c0 -4 256 -432 265 -443 2 -2 61 92 132 209 70 117 132
219 136 226 6 11 -43 13 -263 13 -148 0 -270 -2 -270 -5z"/>
<path d="M27774 12230 c-117 -12 -190 -68 -220 -167 -26 -83 -5 -160 58 -219
42 -40 74 -56 168 -84 92 -28 146 -54 154 -75 24 -64 -18 -120 -89 -120 -59 0
-96 29 -114 88 l-14 46 -86 -5 c-47 -3 -92 -7 -98 -10 -32 -9 5 -128 59 -189
55 -63 107 -80 243 -80 101 0 115 2 168 29 133 65 186 235 113 360 -41 70
-113 109 -281 152 -68 18 -95 37 -95 68 0 27 9 40 37 55 51 27 129 -6 140 -59
5 -29 7 -30 63 -30 31 0 77 3 102 6 l45 6 -9 42 c-32 143 -147 206 -344 186z"/>
<path d="M26852 12205 c-7 -14 -12 -31 -12 -36 0 -14 100 -159 110 -159 6 0
130 203 130 215 0 3 -49 5 -108 5 -107 0 -109 0 -120 -25z"/>
<path d="M26462 12093 c44 -71 96 -152 114 -181 19 -29 34 -56 34 -61 0 -5
-58 -99 -130 -209 -71 -110 -130 -203 -130 -206 0 -3 53 -6 119 -6 l118 0 68
110 c38 61 71 113 75 115 3 2 37 -47 76 -108 l70 -112 122 -3 122 -3 -76 118
c-42 65 -158 243 -257 396 l-180 277 -113 0 -114 0 82 -127z"/>
<path d="M27227 12214 c-4 -4 -7 -150 -7 -324 l0 -317 50 -71 51 -72 49 0 50
0 -2 393 -3 392 -90 3 c-50 1 -94 0 -98 -4z"/>
<path d="M25676 11830 c-71 -210 -126 -383 -123 -386 3 -3 54 -7 114 -7 l108
-2 17 50 16 50 118 0 118 0 15 -47 15 -48 117 0 117 0 -127 383 -128 382 -124
3 -124 2 -129 -380z m293 -8 c17 -62 31 -115 31 -117 0 -3 -34 -5 -76 -5 -57
0 -75 3 -72 13 3 6 20 65 38 130 19 64 37 112 41 105 4 -7 21 -64 38 -126z"/>
<path d="M25110 11790 l0 -60 195 0 195 0 0 60 0 60 -195 0 -195 0 0 -60z"/>
<path d="M19642 8342 c-165 -59 -256 -234 -207 -398 35 -120 124 -199 278
-250 115 -38 137 -50 153 -91 31 -73 -25 -143 -113 -143 -51 0 -99 36 -111 83
l-8 32 -129 3 -128 3 6 -52 c9 -71 55 -165 108 -218 24 -24 73 -58 109 -75 59
-28 74 -31 160 -31 88 0 101 3 162 33 83 41 158 120 187 197 45 121 20 268
-61 360 -55 62 -94 85 -218 130 -58 20 -115 46 -127 58 -29 26 -30 70 -3 97
36 36 125 19 136 -27 6 -23 8 -23 136 -23 l130 0 -7 43 c-9 58 -46 136 -84
180 -79 89 -252 131 -369 89z"/>
<path d="M20190 8210 l0 -130 110 0 110 0 0 -430 0 -430 125 0 125 0 0 430 0
430 110 0 110 0 0 130 0 130 -345 0 -345 0 0 -130z"/>
<path d="M20992 7938 l3 -403 31 -65 c58 -121 143 -194 268 -232 171 -52 360
17 463 170 72 107 73 116 73 549 l0 383 -125 0 -125 0 0 -346 c0 -221 -4 -361
-11 -389 -21 -83 -108 -137 -195 -121 -47 9 -111 68 -124 114 -6 22 -10 182
-10 390 l0 352 -125 0 -126 0 3 -402z"/>
<path d="M21950 7781 l0 -561 148 0 c241 0 349 37 478 165 112 111 164 233
164 390 0 242 -150 450 -386 537 -50 18 -86 22 -231 26 l-173 4 0 -561z m347
279 c63 -28 137 -102 164 -163 16 -38 23 -72 23 -122 1 -126 -71 -230 -191
-275 -90 -34 -83 -58 -83 280 l0 300 23 0 c12 0 41 -9 64 -20z"/>
<path d="M22720 8337 c0 -2 73 -156 161 -343 89 -186 174 -366 189 -400 l28
-61 -45 -109 c-25 -60 -53 -130 -64 -156 l-19 -48 139 0 139 0 226 554 c124
305 226 557 226 560 0 3 -62 6 -137 6 l-138 0 -94 -235 c-52 -129 -97 -235
-101 -235 -3 0 -55 105 -116 233 l-110 232 -142 3 c-78 1 -142 1 -142 -1z"/>
<path d="M24120 7780 l0 -560 125 0 125 0 0 560 0 560 -125 0 -125 0 0 -560z"/>
<path d="M25168 8015 l-3 -324 -180 319 -179 320 -138 0 -138 0 0 -555 0 -555
125 0 125 0 1 323 c0 306 1 321 17 298 9 -14 91 -158 182 -320 l165 -296 138
-3 137 -3 0 561 0 560 -125 0 -125 0 -2 -325z"/>
<path d="M19437 6683 c-4 -3 -7 -408 -7 -900 l0 -893 580 0 580 0 0 205 0 205
-370 0 -370 0 0 145 0 145 300 0 300 0 0 205 0 205 -300 0 -300 0 0 140 0 140
370 0 370 0 0 205 0 205 -573 0 c-316 0 -577 -3 -580 -7z"/>
<path d="M20803 6073 c4 -691 0 -654 78 -813 33 -67 60 -103 123 -166 130
-130 265 -191 446 -201 126 -7 218 13 339 73 167 82 294 234 357 424 17 50 19
109 22 678 l3 622 -211 0 -210 0 0 -592 0 -593 -24 -51 c-42 -89 -143 -154
-241 -154 -98 0 -194 61 -239 152 l-26 52 0 593 0 593 -210 0 -211 0 4 -617z"/>
<path d="M24547 6680 c-348 -63 -619 -305 -723 -645 -25 -81 -28 -105 -28
-245 0 -140 3 -164 28 -245 93 -306 315 -528 621 -621 81 -25 105 -28 245 -28
140 0 164 3 243 27 193 59 362 173 473 320 56 74 135 236 160 327 14 49 18
102 18 220 0 182 -11 234 -83 385 -75 157 -165 262 -301 355 -152 103 -297
150 -480 155 -69 2 -147 0 -173 -5z m256 -415 c163 -42 292 -163 346 -323 15
-44 21 -87 21 -152 0 -427 -499 -648 -806 -358 -108 102 -154 209 -154 358 0
149 46 256 154 358 118 112 286 157 439 117z"/>
<path d="M25710 5791 l0 -901 210 0 210 0 0 144 0 143 65 7 c87 9 184 40 280
89 112 58 244 190 302 302 70 136 88 210 88 360 0 108 -4 143 -24 205 -80 256
-258 436 -516 521 -64 21 -92 23 -342 27 l-273 4 0 -901z m557 448 c68 -33
119 -85 155 -158 19 -38 23 -62 23 -146 0 -112 -15 -157 -80 -233 -38 -44
-134 -97 -197 -108 l-38 -6 0 347 0 347 38 -6 c20 -4 65 -20 99 -37z"/>
<path d="M27087 6683 c-4 -3 -7 -408 -7 -900 l0 -893 580 0 580 0 0 205 0 205
-370 0 -370 0 0 145 0 145 300 0 300 0 0 205 0 205 -300 0 -300 0 0 140 0 140
370 0 370 0 0 205 0 205 -573 0 c-316 0 -577 -3 -580 -7z"/>
<path d="M22410 5786 l0 -896 210 0 210 0 0 225 0 225 23 5 c13 4 43 5 67 3
l43 -3 141 -227 141 -228 243 0 243 0 -12 22 c-7 12 -85 139 -173 283 -89 143
-172 276 -184 296 l-22 37 52 55 c67 69 122 162 151 252 29 93 31 263 3 345
-65 191 -185 325 -371 415 -151 73 -174 77 -487 82 l-278 5 0 -896z m568 449
c76 -35 110 -62 143 -113 33 -52 39 -129 15 -185 -17 -40 -67 -91 -120 -122
-34 -20 -146 -54 -178 -55 -5 0 -8 115 -8 256 l0 256 48 -7 c26 -3 71 -17 100
-30z"/>
<path d="M15876 5207 c-20 -20 -24 -38 -30 -118 -4 -52 -9 -108 -12 -125 l-6
-31 69 -6 c37 -3 69 -4 71 -3 7 8 24 238 18 259 -5 23 -42 47 -72 47 -8 0 -25
-10 -38 -23z"/>
<path d="M15570 5053 c-33 -30 -49 -79 -50 -150 0 -49 -1 -48 116 -58 l71 -6
7 38 c16 102 2 164 -45 189 -41 21 -65 17 -99 -13z"/>
<path d="M16131 5004 c-35 -29 -51 -76 -51 -150 l0 -51 91 -7 c50 -4 93 -5 95
-3 3 2 7 41 11 85 l6 81 -36 36 c-42 42 -74 45 -116 9z"/>
<path d="M15312 4569 c-12 -5 -24 -18 -26 -31 -11 -46 -26 -249 -21 -258 5 -8
93 -15 96 -7 8 19 24 258 18 273 -9 25 -36 34 -67 23z"/>
<path d="M15447 4546 c-8 -8 -17 -43 -20 -78 -3 -35 -9 -95 -13 -134 l-6 -71
48 -6 c27 -3 51 -4 52 -2 2 2 9 64 15 138 9 110 8 138 -2 151 -17 20 -55 21
-74 2z"/>
<path d="M15606 4537 c-15 -11 -21 -40 -31 -147 -8 -74 -12 -137 -10 -139 3
-2 27 -6 53 -9 l49 -4 7 98 c4 55 10 115 13 135 4 29 1 41 -16 58 -24 24 -40
26 -65 8z"/>
<path d="M15747 4516 c-9 -9 -17 -48 -21 -103 -4 -48 -9 -109 -13 -135 l-6
-48 52 0 c59 0 56 -7 69 150 8 84 7 109 -5 128 -15 25 -54 29 -76 8z"/>
<path d="M15912 4511 c-18 -11 -29 -66 -38 -188 -6 -99 -6 -103 13 -103 11 0
34 -3 50 -6 l29 -6 13 137 c11 126 10 139 -5 156 -18 20 -41 24 -62 10z"/>
<path d="M16050 4485 c-6 -8 -17 -73 -24 -145 l-12 -130 32 -6 c67 -12 68 -12
81 131 7 83 8 136 2 147 -12 22 -62 24 -79 3z"/>
<path d="M16207 4476 c-8 -8 -17 -43 -20 -78 -3 -35 -9 -96 -13 -135 l-7 -73
36 0 c19 0 42 -2 50 -6 15 -5 16 5 33 197 5 63 4 78 -11 92 -20 21 -49 22 -68
3z"/>
<path d="M16361 4463 c-18 -16 -23 -36 -33 -146 -6 -70 -9 -129 -6 -132 2 -3
25 -8 49 -11 l45 -6 13 138 c12 138 12 139 -10 157 -12 9 -25 17 -29 17 -4 0
-17 -8 -29 -17z"/>
<path d="M15258 4113 c-11 -12 -19 -59 -27 -147 -7 -70 -11 -129 -9 -131 2 -1
24 -5 49 -9 45 -7 47 -6 52 21 3 16 9 79 13 141 7 121 1 142 -41 142 -12 0
-29 -8 -37 -17z"/>
<path d="M15411 4103 c-17 -15 -22 -37 -32 -147 -13 -144 -12 -146 52 -146 34
0 37 2 42 38 3 20 9 82 13 138 6 98 6 101 -17 118 -29 20 -32 20 -58 -1z"/>
<path d="M17185 4098 c-11 -6 -23 -16 -27 -22 -4 -6 -8 -77 -8 -158 0 -92 -4
-148 -10 -148 -5 0 -10 -11 -10 -25 0 -28 6 -29 109 -19 50 6 61 10 61 25 0
11 -4 19 -10 19 -6 0 -10 56 -10 148 0 129 -2 151 -17 164 -26 23 -55 29 -78
16z"/>
<path d="M15556 4078 c-11 -19 -41 -267 -33 -274 1 -1 23 -4 50 -6 56 -6 51
-16 66 147 11 124 2 155 -44 155 -15 0 -30 -9 -39 -22z"/>
<path d="M15712 4072 c-14 -14 -21 -47 -31 -146 -7 -71 -10 -130 -8 -132 2 -2
24 -7 49 -10 54 -8 53 -11 64 146 9 121 8 131 -14 148 -22 17 -39 15 -60 -6z"/>
<path d="M15861 4057 c-11 -14 -31 -167 -31 -244 l0 -43 48 0 48 0 12 132 c7
86 7 138 1 150 -11 21 -61 24 -78 5z"/>
<path d="M16016 4047 c-15 -11 -21 -39 -31 -148 -7 -74 -12 -135 -11 -135 2
-2 96 -12 97 -10 0 0 7 60 14 131 11 111 11 133 -1 153 -16 25 -42 28 -68 9z"/>
<path d="M16162 4027 c-12 -14 -38 -264 -29 -274 3 -3 26 -8 50 -10 l44 -5 13
136 c10 108 10 139 0 151 -15 18 -64 20 -78 2z"/>
<path d="M16312 4017 c-11 -13 -32 -176 -32 -247 l0 -40 49 0 48 0 7 88 c4 48
9 108 12 133 5 35 2 49 -11 62 -19 20 -58 22 -73 4z"/>
<path d="M15218 3663 c-11 -12 -20 -59 -28 -146 -7 -70 -11 -130 -8 -132 2 -3
25 -8 50 -11 l45 -6 6 38 c4 22 9 87 13 145 6 101 6 107 -14 118 -29 15 -46
14 -64 -6z"/>
<path d="M15371 3653 c-17 -15 -22 -37 -31 -122 -5 -57 -10 -118 -10 -137 0
-34 0 -34 49 -34 l48 0 6 53 c3 28 9 91 13 138 6 83 6 87 -17 103 -29 20 -32
20 -58 -1z"/>
<path d="M15518 3633 c-10 -12 -18 -49 -22 -103 -4 -47 -9 -106 -13 -131 l-5
-46 48 -6 c27 -3 51 -3 53 -1 2 2 10 61 16 131 10 107 10 132 -2 151 -16 27
-54 29 -75 5z"/>
<path d="M15672 3623 c-17 -15 -22 -38 -32 -146 -7 -71 -9 -131 -6 -134 3 -3
25 -8 49 -10 42 -5 44 -4 50 25 3 16 9 82 13 145 6 110 6 115 -14 126 -28 15
-36 14 -60 -6z"/>
<path d="M15820 3605 c-7 -8 -16 -57 -21 -108 -5 -50 -11 -111 -14 -135 l-5
-43 53 3 52 3 11 125 c10 105 10 129 -2 148 -17 25 -55 29 -74 7z"/>
<path d="M15975 3596 c-16 -11 -21 -37 -31 -147 -7 -74 -12 -134 -11 -135 1
-1 23 -4 48 -7 45 -6 47 -5 52 22 3 16 9 81 13 144 6 110 6 115 -14 126 -27
14 -34 14 -57 -3z"/>
<path d="M16121 3577 c-12 -16 -36 -249 -28 -272 5 -10 20 -15 50 -15 l44 0
11 131 c8 90 9 137 2 150 -12 22 -62 26 -79 6z"/>
<path d="M16271 3566 c-7 -8 -16 -59 -21 -113 -5 -54 -11 -114 -14 -135 l-4
-36 49 -4 c27 -1 49 -3 50 -3 0 0 7 59 14 130 11 111 11 133 -1 153 -16 25
-55 29 -73 8z"/>
<path d="M15177 3212 c-12 -13 -20 -54 -28 -145 -7 -70 -9 -130 -6 -133 3 -4
26 -9 50 -11 l44 -5 6 53 c20 173 20 219 2 239 -22 25 -47 25 -68 2z"/>
<path d="M15320 3195 c-12 -14 -41 -271 -31 -280 2 -3 26 -5 53 -5 37 0 48 4
48 16 0 9 5 69 11 135 9 94 9 122 -1 134 -16 19 -64 19 -80 0z"/>
<path d="M15478 3183 c-11 -13 -20 -58 -28 -146 -7 -71 -10 -130 -8 -131 1 -2
24 -6 49 -10 45 -7 46 -6 52 22 3 17 9 82 13 145 6 110 6 115 -14 126 -29 15
-46 14 -64 -6z"/>
<path d="M15631 3173 c-17 -15 -22 -38 -32 -146 -14 -144 -13 -147 52 -147 36
0 37 1 42 48 4 26 9 88 13 138 6 88 6 92 -17 108 -29 20 -32 20 -58 -1z"/>
<path d="M15776 3148 c-8 -13 -17 -64 -20 -118 -4 -52 -9 -109 -12 -126 l-6
-32 50 -3 c60 -5 57 -11 68 159 5 84 4 115 -6 127 -19 22 -57 18 -74 -7z"/>
<path d="M15932 3142 c-15 -15 -21 -47 -30 -147 -7 -70 -11 -129 -10 -131 2
-1 24 -5 49 -9 l46 -7 6 39 c4 21 9 86 13 144 6 101 6 107 -14 118 -28 15 -39
14 -60 -7z"/>
<path d="M16080 3125 c-6 -8 -17 -73 -24 -146 -13 -146 -15 -143 50 -137 l39
3 7 75 c3 41 9 100 12 131 5 45 3 60 -9 73 -20 20 -59 21 -75 1z"/>
<path d="M16230 3115 c-10 -12 -45 -275 -37 -281 3 -2 97 -12 98 -10 0 0 6 59
13 129 13 143 8 170 -35 175 -14 2 -31 -4 -39 -13z"/>
<path d="M15432 2728 c-9 -12 -32 -195 -32 -259 0 -25 3 -27 49 -31 l49 -3 5
50 c17 150 19 225 7 240 -15 18 -64 20 -78 3z"/>
<path d="M15587 2717 c-14 -9 -20 -41 -30 -149 l-13 -136 49 -6 c27 -4 51 -6
52 -4 3 4 25 225 25 255 0 44 -48 67 -83 40z"/>
<path d="M15730 2688 c-5 -13 -14 -77 -20 -142 -12 -133 -11 -136 51 -136 34
0 37 2 42 38 16 101 19 232 7 247 -20 24 -69 19 -80 -7z"/>
<path d="M15887 2686 c-8 -8 -17 -43 -20 -78 -3 -35 -9 -95 -13 -134 l-6 -72
51 -3 c30 -3 51 0 51 6 0 6 5 68 12 139 11 122 10 130 -7 142 -24 18 -50 18
-68 0z"/>
<path d="M16046 2677 c-15 -11 -21 -39 -31 -148 -7 -74 -12 -135 -11 -136 0 0
22 -4 47 -8 55 -8 54 -12 65 145 9 121 8 131 -14 148 -20 15 -34 15 -56 -1z"/>
<path d="M16187 2656 c-9 -9 -17 -48 -21 -103 -4 -48 -9 -109 -13 -135 l-6
-48 35 0 c63 0 70 14 81 148 8 96 8 124 -3 136 -16 20 -54 21 -73 2z"/>
<path d="M11377 2340 c-48 -42 -57 -79 -57 -232 0 -107 2 -128 15 -128 13 0
15 22 15 140 0 154 8 185 55 210 64 34 144 6 165 -57 6 -18 11 -74 10 -125 -3
-139 -1 -168 10 -168 6 0 10 58 10 155 l0 155 -34 37 c-30 33 -39 37 -93 41
-56 4 -62 2 -96 -28z"/>
<path d="M14544 2360 c-11 -4 -33 -22 -47 -40 -27 -31 -27 -33 -27 -186 0 -96
4 -154 10 -154 9 0 15 36 11 68 -1 6 3 12 9 12 6 0 10 -8 9 -17 -3 -35 1 -54
11 -48 6 3 10 22 10 41 0 27 4 34 19 34 12 0 21 -8 24 -22 l4 -23 8 23 c9 26
42 30 48 5 4 -17 5 -17 6 0 1 10 9 17 21 17 15 0 20 -7 20 -29 0 -52 20 -46
21 6 1 50 1 209 0 231 -1 9 -27 12 -96 12 l-95 0 -1 -62 c-1 -35 -1 -84 0
-110 1 -27 -3 -48 -9 -48 -6 0 -9 40 -7 103 3 119 17 150 77 168 78 23 152
-32 149 -111 0 -19 -1 -83 0 -142 1 -89 4 -108 16 -108 13 0 15 21 15 128 0
152 -9 190 -56 231 -29 26 -43 31 -82 30 -26 0 -56 -4 -68 -9z"/>
<path d="M12122 2296 l-37 -34 -3 -141 c-3 -122 -1 -141 12 -141 13 0 16 21
19 138 l3 137 2 -137 c1 -76 5 -138 8 -138 4 0 12 7 19 16 10 14 13 14 26 2
13 -13 16 -13 29 1 13 14 15 14 18 -2 4 -21 9 -21 30 0 16 16 17 16 20 0 2 -9
10 -17 17 -17 11 0 15 24 18 108 l3 107 2 -107 c3 -158 22 -138 22 22 0 146
-10 179 -60 205 -16 8 -47 15 -70 15 -32 0 -48 -7 -78 -34z"/>
<path d="M13808 2314 c-48 -26 -58 -59 -58 -204 0 -80 4 -130 10 -130 9 0 14
97 11 200 -1 19 3 42 9 50 7 11 10 -24 9 -114 -2 -90 2 -131 9 -134 7 -2 12 3
12 11 0 7 7 14 15 14 8 0 15 -6 15 -14 0 -18 10 -16 26 5 12 16 13 16 19 0 9
-23 23 -23 27 -1 3 16 4 16 20 0 9 -9 20 -17 25 -17 4 0 7 62 6 137 -1 82 2
130 7 118 5 -11 9 -73 9 -137 1 -72 5 -118 11 -118 17 0 13 256 -5 290 -29 55
-117 77 -177 44z"/>
<path d="M11448 2292 l-78 -3 0 -150 c0 -98 4 -148 10 -144 6 3 10 22 10 41 0
27 4 34 20 34 14 0 20 -7 21 -22 l0 -23 11 23 c13 27 26 28 44 5 13 -17 13
-17 14 0 0 10 8 17 20 17 16 0 20 -7 20 -35 0 -19 5 -35 10 -35 9 0 12 35 12
175 -1 108 -1 113 -19 116 -10 2 -53 3 -95 1z"/>
<path d="M15238 2273 c-11 -12 -19 -59 -27 -147 -7 -70 -11 -130 -9 -131 2 -2
24 -6 49 -10 55 -8 54 -12 65 145 9 121 8 131 -14 148 -22 17 -46 15 -64 -5z"/>
<path d="M15399 2261 c-19 -15 -23 -35 -34 -147 -7 -71 -10 -132 -8 -136 2 -5
26 -8 52 -8 l48 0 12 130 c12 138 8 163 -29 173 -11 3 -29 -2 -41 -12z"/>
<path d="M15536 2238 c-7 -13 -17 -63 -20 -113 -4 -49 -10 -107 -13 -127 l-6
-38 44 0 c24 0 49 4 55 8 6 4 16 63 22 132 10 111 10 126 -5 142 -22 25 -60
23 -77 -4z"/>
<path d="M15702 2233 c-17 -15 -23 -37 -30 -118 -6 -55 -9 -101 -7 -103 2 -2
25 11 53 28 l50 30 7 72 c7 67 6 73 -15 90 -28 22 -33 22 -58 1z"/>
<path d="M10881 2175 l-31 -36 0 -128 c0 -143 2 -141 -77 -141 l-33 0 0 113
c0 122 -12 158 -65 193 -35 23 -100 22 -133 -3 -46 -33 -62 -79 -62 -170 l0
-83 34 0 c58 0 106 -53 122 -134 l7 -39 90 7 c50 3 114 6 144 6 l53 0 0 225
c0 126 -4 225 -9 225 -5 0 -23 -16 -40 -35z"/>
<path d="M10938 1673 l-3 -538 -62 -3 -63 -3 0 -100 0 -100 905 1 c764 1 905
3 905 15 0 8 -5 17 -10 20 -6 4 -9 1 -8 -5 2 -7 -5 -14 -16 -15 -14 -3 -11 4
15 31 34 35 52 46 28 17 -11 -13 -11 -17 -1 -20 6 -3 12 -13 12 -24 0 -18 9
-19 127 -19 69 0 124 3 120 6 -9 9 19 34 37 34 8 0 18 -5 22 -11 4 -7 0 -9
-14 -5 -13 4 -22 1 -26 -9 -3 -8 -1 -15 3 -15 5 0 12 6 14 13 4 9 6 8 6 -2 1
-11 4 -11 15 -1 8 6 12 19 9 27 -4 10 -2 14 4 10 7 -5 9 0 6 13 -4 14 0 20 11
20 9 0 16 -4 16 -10 0 -5 5 -10 11 -10 5 0 7 5 3 12 -4 7 -3 8 4 4 6 -4 9 -13
6 -20 -3 -7 2 -16 11 -20 10 -3 14 -2 10 5 -4 5 -1 16 5 24 9 10 32 14 86 12
71 -3 74 -2 74 20 0 12 5 25 10 28 6 3 10 11 10 16 0 6 -5 7 -12 3 -7 -4 -8
-3 -4 4 8 13 -3 16 -43 12 -13 -1 -28 4 -32 12 -7 10 -9 10 -9 1 0 -7 -5 -13
-11 -13 -5 0 -7 6 -3 13 6 9 4 9 -7 1 -18 -14 -142 -18 -134 -4 6 9 -28 15
-67 11 -10 -1 -18 2 -18 7 0 6 90 9 222 8 191 -1 223 -3 223 -16 1 -8 7 -14
14 -12 7 1 10 -2 6 -8 -3 -5 -1 -10 6 -10 7 0 20 -7 30 -16 16 -14 23 -14 86
3 56 15 69 22 71 40 3 22 0 22 -110 25 l-113 3 -5 355 c-4 283 -8 361 -20 385
-26 55 -70 113 -99 134 -27 20 -33 20 -88 8 l-58 -14 -3 -131 -3 -132 -121 0
-121 0 6 49 c3 28 14 65 23 83 25 50 74 108 90 108 8 0 14 5 14 10 0 6 7 10
15 10 24 0 17 17 -10 24 -45 11 -103 -45 -148 -142 -21 -45 -22 -64 -27 -397
l-5 -350 -110 -3 -110 -3 3 -49 4 -50 -171 0 -171 0 0 50 0 50 -100 0 -100 0
0 540 0 540 -80 0 -80 0 0 -162 c0 -145 2 -166 21 -206 19 -39 24 -80 40 -365
10 -177 18 -350 19 -384 l0 -63 -171 0 -171 0 6 53 c3 28 10 142 16 252 5 110
12 228 15 263 l6 62 -151 0 -150 0 0 -260 c0 -230 -2 -260 -16 -268 -13 -7
-16 -19 -12 -56 l6 -46 -172 0 -171 0 2 47 c2 27 10 188 18 358 8 171 18 326
21 345 7 46 42 106 71 125 22 15 23 20 23 160 l0 145 -75 0 -75 0 -2 -537z
m2102 -213 l0 -80 -40 0 -40 0 0 -120 c0 -113 -1 -120 -20 -120 -18 0 -20 7
-20 70 l0 70 -45 0 -45 0 0 -70 c0 -56 -3 -70 -15 -70 -13 0 -15 29 -15 200
l0 200 120 0 120 0 0 -80z"/>
<path d="M14080 1740 c0 -291 4 -470 10 -470 14 0 64 23 71 33 4 5 10 88 14
185 9 224 18 312 39 353 13 26 16 65 16 201 l0 168 -75 0 -75 0 0 -470z"/>
<path d="M14990 2203 c-1 -5 -1 -70 -1 -146 1 -138 1 -139 27 -160 35 -27 64
-92 64 -144 0 -47 11 -59 40 -43 19 10 20 20 20 255 l0 245 -75 0 c-41 0 -75
-3 -75 -7z"/>
<path d="M7888 1999 c-15 -8 -18 -24 -18 -84 l0 -75 50 0 50 0 0 63 c0 90 -31
126 -82 96z"/>
<path d="M8028 1999 c-15 -8 -18 -24 -18 -84 l0 -75 50 0 50 0 0 69 c0 91 -28
122 -82 90z"/>
<path d="M8236 1988 c-11 -15 -16 -45 -16 -85 l0 -63 50 0 50 0 0 75 c0 63 -3
76 -19 85 -30 16 -48 12 -65 -12z"/>
<path d="M11390 1954 l-74 -54 147 0 c81 0 147 2 147 4 0 5 -111 85 -135 98
-5 4 -44 -18 -85 -48z"/>
<path d="M14535 1957 l-70 -52 78 -3 c43 -2 109 -2 147 0 l70 3 -72 50 c-40
28 -75 51 -78 52 -3 1 -36 -22 -75 -50z"/>
<path d="M7440 1755 l0 -25 365 0 365 0 0 25 0 25 -365 0 -365 0 0 -25z"/>
<path d="M12090 1705 l0 -65 69 0 69 0 6 31 c3 17 6 47 6 65 l0 34 -75 0 -75
0 0 -65z"/>
<path d="M13840 1705 l0 -65 75 0 75 0 0 65 0 65 -75 0 -75 0 0 -65z"/>
<path d="M6713 1734 c-37 -18 -70 -65 -79 -113 l-6 -31 141 0 c140 0 141 0
141 23 0 36 -42 98 -80 118 -42 23 -75 24 -117 3z"/>
<path d="M14461 1598 c1 -35 4 -91 8 -124 l6 -62 145 62 145 61 3 63 3 62
-156 0 -155 0 1 -62z"/>
<path d="M10884 1579 c-29 -30 -29 -31 -32 -165 l-4 -134 41 0 41 0 0 165 c0
91 -4 165 -8 165 -5 0 -21 -14 -38 -31z"/>
<path d="M10656 1448 c3 -84 9 -156 11 -160 2 -5 20 -8 39 -8 l34 0 0 110 c0
123 -12 166 -53 193 -15 9 -29 17 -32 17 -4 0 -3 -69 1 -152z"/>
<path d="M10189 1574 c-49 -32 -59 -62 -59 -183 l0 -111 109 0 109 0 6 31 c3
17 6 73 6 123 0 89 -1 93 -29 120 -37 36 -103 45 -142 20z"/>
<path d="M9883 1563 c-12 -2 -36 -20 -53 -39 -29 -34 -30 -37 -30 -139 l0
-105 110 0 110 0 0 100 c0 133 -17 168 -90 182 -14 3 -35 3 -47 1z"/>
<path d="M6530 1469 l0 -80 38 -16 c20 -9 100 -40 177 -69 l140 -52 3 28 c5
47 -22 86 -73 105 l-45 18 0 73 0 74 -120 0 -120 0 0 -81z"/>
<path d="M7989 984 c12 -15 21 -33 21 -40 0 -12 48 -14 265 -14 l265 0 0 40 0
40 -286 0 -285 0 20 -26z"/>
<path d="M9584 689 c486 -43 1324 -43 1771 1 44 4 -356 7 -890 7 -539 0 -931
-3 -881 -8z"/>
</g>
</svg>
