<?xml version="1.0" standalone="no"?>
<!DOCTYPE svg PUBLIC "-//W3C//DTD SVG 20010904//EN"
 "http://www.w3.org/TR/2001/REC-SVG-20010904/DTD/svg10.dtd">
<svg version="1.0" xmlns="http://www.w3.org/2000/svg"
 width="3004.000000pt" height="1325.000000pt" viewBox="0 0 3004.000000 1325.000000"
 preserveAspectRatio="xMidYMid meet">
<metadata>
Created by potrace 1.16, written by Peter Selinger 2001-2019
</metadata>
<g transform="translate(0.000000,1325.000000) scale(0.100000,-0.100000)"
fill="#000000" stroke="none">
<path d="M0 6625 l0 -6625 9010 0 9010 0 0 86 0 85 -109 -3 -109 -3 -22 75
c-39 133 -110 322 -170 447 l-59 123 30 0 29 0 0 145 0 145 -117 0 -118 0 -67
88 c-37 48 -96 119 -132 159 -56 60 -66 77 -66 107 0 35 -1 36 -36 36 -30 0
-52 12 -128 74 -111 90 -204 154 -304 209 -59 32 -72 42 -57 47 14 3 20 14 20
33 1 24 -3 27 -32 27 -29 0 -33 -3 -33 -26 0 -17 -4 -24 -12 -21 -93 41 -183
70 -250 80 l-82 13 -84 144 c-180 310 -424 655 -631 895 -131 152 -352 368
-489 479 -67 54 -122 100 -122 102 0 2 28 39 62 80 209 259 404 636 502 971
78 270 111 505 111 803 0 229 -11 347 -51 553 -132 682 -531 1318 -1084 1730
-113 84 -125 94 -83 73 104 -52 227 -56 545 -15 234 30 326 29 481 -5 71 -15
131 -26 134 -23 8 9 -173 193 -272 275 -167 140 -394 277 -608 366 -111 47
-358 130 -421 141 -20 4 -38 11 -41 15 -5 9 143 107 185 123 24 9 47 -2 214
-97 387 -221 389 -222 805 -213 268 6 430 22 452 44 12 12 -153 118 -374 242
-245 137 -297 156 -564 211 -107 22 -197 40 -199 40 -19 0 8 28 74 78 120 91
109 89 211 43 106 -48 355 -143 432 -165 157 -46 311 -48 604 -11 221 28 225
29 225 47 0 31 -516 285 -648 319 -75 19 -268 38 -396 40 -120 1 -122 6 -41
83 84 79 89 80 241 32 249 -79 296 -88 484 -93 142 -4 207 -1 340 16 170 23
240 37 240 49 0 12 -395 176 -559 232 -105 36 -251 53 -368 44 -67 -5 -83 -4
-83 7 0 21 105 129 125 129 9 0 67 -16 129 -35 239 -74 295 -86 431 -92 79 -3
160 -1 205 6 104 16 230 52 230 65 0 15 -95 74 -205 129 -195 96 -290 122
-491 134 -63 3 -114 9 -114 12 0 3 25 32 55 65 42 45 58 57 72 51 169 -71 365
-110 512 -103 118 6 431 67 431 83 0 13 -98 60 -245 118 -138 54 -223 68 -407
66 -87 -1 -161 1 -165 4 -7 8 81 113 107 127 13 7 39 2 97 -20 151 -55 302
-72 443 -50 123 20 320 72 320 86 0 17 -109 77 -188 104 -57 19 -188 37 -420
58 l-82 7 46 53 c31 35 53 52 69 52 13 0 64 -13 113 -30 127 -42 212 -41 403
5 208 51 219 55 219 66 0 15 -96 55 -192 80 -61 16 -123 23 -233 27 -82 2
-156 8 -163 12 -20 10 105 113 127 104 136 -56 297 -67 470 -32 63 13 116 28
118 34 5 14 -94 66 -177 93 -53 17 -234 51 -275 51 -17 0 67 79 95 88 20 7 40
4 85 -14 99 -41 198 -56 306 -49 121 9 130 14 87 50 -67 57 -182 95 -289 95
-27 0 -49 4 -49 9 0 15 65 61 100 71 23 7 44 5 74 -6 22 -8 50 -18 61 -21 11
-2 51 -14 89 -25 55 -16 85 -19 146 -15 155 12 148 32 -42 110 -82 34 -148 65
-148 70 0 9 124 67 144 67 6 0 27 -13 46 -29 71 -57 171 -93 270 -94 92 -1 80
17 -71 110 -60 36 -109 72 -109 80 0 16 74 52 107 53 14 0 31 -13 47 -36 33
-48 77 -77 164 -105 87 -28 106 -20 74 33 -27 44 -67 79 -125 113 -26 15 -45
31 -41 36 3 5 36 18 75 30 l69 21 41 -36 c22 -20 51 -41 65 -46 28 -11 137
-14 147 -4 14 14 -31 58 -101 98 -70 41 -73 45 -53 56 38 20 61 69 61 133 0
62 -10 74 -53 63 -22 -5 -73 -78 -115 -161 -27 -54 -62 -85 -106 -92 -41 -6
-43 -1 -25 73 13 49 -1 124 -22 124 -43 0 -113 -98 -131 -185 -12 -57 -41 -95
-74 -95 -21 0 -22 4 -26 108 -3 96 -6 113 -28 146 l-25 37 -55 -113 c-43 -90
-55 -125 -58 -173 -2 -33 -8 -70 -14 -82 -10 -20 -105 -80 -113 -71 -2 2 5 42
17 88 17 72 19 95 10 151 -11 72 -30 120 -49 127 -8 2 -38 -48 -78 -130 -61
-124 -66 -140 -74 -228 -11 -116 -14 -124 -56 -150 -45 -28 -69 -27 -60 3 3
12 9 68 12 124 5 85 2 112 -16 171 -36 118 -56 115 -124 -21 -50 -100 -61
-159 -54 -296 7 -116 1 -142 -32 -168 -32 -24 -38 -14 -45 73 -4 48 -17 114
-30 148 -25 71 -102 189 -119 183 -18 -6 -47 -61 -63 -119 -21 -80 -17 -193
11 -328 28 -133 28 -133 -32 -184 -37 -31 -38 -30 -48 74 -14 138 -54 230
-145 333 -77 85 -80 82 -100 -75 -14 -115 1 -240 46 -379 19 -58 34 -112 34
-119 0 -14 -100 -133 -107 -127 -2 3 -8 47 -14 98 -12 113 -30 173 -76 258
-36 65 -176 221 -198 221 -19 0 -25 -33 -32 -170 -7 -143 3 -190 82 -402 59
-158 58 -205 -8 -266 l-25 -24 -11 74 c-24 154 -32 185 -71 266 -39 81 -150
253 -209 322 l-29 35 -13 -30 c-7 -19 -12 -91 -13 -200 -1 -203 10 -263 90
-471 63 -165 67 -203 25 -245 -16 -16 -34 -29 -40 -29 -5 0 -13 21 -16 48 -22
153 -87 301 -193 438 -70 89 -227 252 -236 243 -2 -2 -10 -51 -16 -109 -29
-244 14 -407 191 -721 32 -58 59 -113 59 -123 0 -16 -99 -130 -107 -122 -2 2
-19 60 -38 128 -43 158 -70 218 -150 338 -59 89 -197 252 -279 330 -31 29 -38
32 -46 20 -16 -25 -12 -357 5 -455 28 -160 96 -310 214 -475 34 -47 61 -93 61
-103 0 -23 -110 -141 -121 -130 -5 5 -26 76 -48 158 -57 216 -103 325 -208
483 -77 117 -286 332 -323 332 -17 0 -19 -35 -9 -212 19 -376 74 -559 254
-858 37 -61 66 -113 64 -115 -27 -26 -154 -123 -157 -120 -3 3 -9 52 -13 110
-14 171 -85 351 -216 546 -102 154 -256 329 -354 405 l-57 44 -7 -39 c-6 -37
9 -398 21 -495 19 -153 137 -433 265 -632 33 -50 59 -98 59 -106 0 -22 -232
-170 -245 -156 -2 2 -8 75 -14 163 -12 194 -31 266 -112 435 -122 253 -285
458 -489 614 -97 75 -140 93 -140 59 0 -9 7 -55 16 -102 17 -89 16 -221 -6
-476 -16 -198 -13 -349 11 -437 30 -110 80 -182 230 -330 117 -115 128 -128
110 -137 -11 -6 -133 -65 -273 -132 l-253 -120 -160 12 c-1041 79 -2053 -431
-2621 -1323 -84 -132 -212 -389 -269 -543 l-44 -120 -1 148 0 147 -80 0 -80 0
0 -1055 0 -1055 -35 0 -35 0 0 205 0 205 -35 0 -35 0 0 70 c0 68 1 70 25 70
l25 0 0 215 0 215 -337 1 c-186 1 -326 4 -310 6 27 4 27 4 27 89 l0 84 -30 0
-30 0 0 -90 c0 -89 0 -90 -25 -90 -25 0 -25 1 -25 90 l0 90 -29 0 c-15 0 -56
3 -90 6 l-61 7 0 -97 c0 -96 0 -96 -25 -96 -25 0 -25 1 -25 90 l0 90 -96 0
-95 0 3 -90 c3 -88 2 -90 -19 -90 -22 0 -23 3 -23 90 l0 90 -95 0 -95 0 0 -90
c0 -83 -1 -90 -20 -90 -19 0 -20 7 -20 90 l0 90 -95 0 -95 0 0 -90 c0 -89 0
-90 -25 -90 -25 0 -25 0 -25 95 l0 95 -90 0 -90 0 0 -95 c0 -95 0 -95 -25 -95
-25 0 -25 0 -25 95 l0 95 -29 0 c-15 0 -56 -3 -90 -6 l-61 -7 0 -88 c0 -88 0
-89 -25 -89 -25 0 -25 1 -25 90 l0 91 -92 -3 -93 -3 0 -88 c0 -84 -1 -87 -22
-87 -22 0 -23 3 -23 90 l0 90 -34 0 c-18 0 -61 3 -95 6 l-61 7 0 -97 c0 -89
-1 -96 -20 -96 -19 0 -20 7 -20 95 l0 95 -95 0 -95 0 0 -90 c0 -83 -1 -90 -20
-90 -18 0 -20 7 -21 68 -2 118 8 107 -96 110 l-93 3 0 -96 c0 -95 0 -95 -25
-95 -25 0 -25 1 -25 89 l0 89 -31 6 c-17 3 -58 6 -90 6 l-59 0 0 -95 c0 -95 0
-95 -25 -95 -25 0 -25 0 -25 95 l0 95 -195 0 -195 0 0 -35 0 -35 165 0 165 0
0 -55 0 -55 -267 -1 c-148 -1 -281 -2 -298 -3 -16 -1 -47 -3 -67 -4 -35 -2
-38 -4 -38 -31 0 -27 4 -30 35 -33 20 -2 35 -6 35 -10 0 -5 0 -30 0 -58 l0
-50 -35 0 c-33 0 -35 -2 -35 -35 0 -33 2 -35 35 -35 l35 0 0 -50 c0 -27 0 -53
0 -57 0 -5 -15 -9 -35 -11 -33 -3 -35 -5 -35 -39 l0 -36 60 6 60 5 0 -69 0
-69 -60 7 c-40 4 -60 2 -60 -5 0 -25 20 -60 38 -64 16 -4 18 -14 17 -59 -1
-30 4 -74 11 -99 7 -25 18 -79 24 -120 7 -41 23 -127 36 -190 13 -63 24 -136
24 -162 0 -26 5 -59 11 -75 5 -15 17 -71 25 -124 8 -53 23 -124 33 -157 11
-33 32 -123 47 -201 24 -120 26 -144 14 -151 -8 -5 -18 -6 -22 -4 -4 3 -8 -2
-8 -11 0 -9 4 -14 9 -11 5 3 9 -4 9 -17 1 -12 3 -44 6 -72 3 -27 10 -121 16
-207 15 -205 6 -242 -76 -317 -31 -29 -68 -58 -83 -65 -35 -18 -137 -45 -158
-42 -10 2 -24 -4 -32 -11 -10 -11 -16 -12 -21 -3 -5 8 -9 8 -11 2 -6 -15 -83
-21 -96 -7 -8 9 -6 15 7 23 14 9 20 8 23 -1 5 -11 6 -6 11 36 1 6 12 11 25 11
25 -2 51 16 51 35 0 6 7 11 15 11 9 0 15 10 16 28 2 24 2 23 9 -8 5 -24 8 -28
9 -12 0 12 8 25 16 28 8 4 15 13 15 21 0 9 6 13 15 9 9 -3 15 0 15 9 0 8 5 26
12 40 11 24 13 25 19 8 7 -15 8 -15 8 6 1 16 5 21 16 17 10 -4 15 1 15 14 0
11 4 20 8 20 11 0 32 45 32 66 0 9 9 29 21 45 14 20 16 29 7 29 -12 0 -136
-75 -165 -100 -7 -5 -16 -10 -20 -10 -5 0 -25 -11 -46 -25 -30 -21 -37 -23
-37 -10 0 9 4 14 9 11 5 -3 14 1 21 9 7 9 27 22 44 30 37 18 105 74 91 75 -6
0 -21 -10 -35 -23 -14 -13 -49 -36 -79 -52 -47 -26 -64 -30 -139 -30 -83 0
-86 1 -92 25 -4 17 -8 21 -14 12 -13 -22 -26 -2 -21 31 6 30 5 31 -9 12 -8
-11 -12 -23 -10 -27 3 -5 0 -8 -6 -8 -6 0 -8 10 -4 24 3 13 1 27 -5 30 -7 5
-8 1 -4 -11 6 -16 5 -16 -10 -5 -14 12 -17 10 -23 -13 -5 -20 -9 -23 -15 -13
-5 7 -6 22 -3 33 5 18 4 18 -13 -2 -14 -17 -27 -22 -55 -20 -21 1 -38 7 -38
12 0 6 -5 3 -10 -5 -7 -11 -10 -11 -10 -2 0 7 -5 10 -11 6 -7 -4 -9 1 -7 12 2
11 10 18 16 16 7 -1 21 2 31 8 16 8 18 7 14 -13 -3 -16 -2 -18 5 -8 8 11 12
10 21 -5 11 -18 11 -18 26 0 8 11 15 26 15 34 0 7 5 10 12 6 8 -5 9 -2 5 9 -3
10 -2 17 4 17 6 0 7 5 4 10 -12 19 -24 10 -31 -24 -3 -19 -12 -37 -20 -40 -18
-7 -18 5 1 30 8 10 15 22 15 27 0 10 -23 4 -32 -8 -5 -7 -8 -6 -8 0 0 14 -38
17 -45 4 -8 -12 -25 -12 -25 2 0 5 4 8 9 5 5 -4 7 4 3 16 -3 12 -7 17 -10 10
-2 -7 -8 -10 -13 -6 -5 3 -9 -9 -9 -25 0 -24 -4 -31 -20 -31 -11 0 -20 4 -20
10 0 5 8 6 18 3 14 -6 15 -4 4 9 -11 14 -10 19 8 36 20 19 82 24 98 7 4 -3 3
-5 -3 -3 -5 1 -11 0 -12 -4 -2 -5 -1 -8 2 -8 3 0 10 0 15 0 6 0 10 11 10 25 0
14 5 25 11 25 5 0 7 5 3 11 -4 8 0 8 15 0 16 -9 21 -9 21 0 0 6 9 9 20 6 11
-3 20 -1 20 5 0 6 11 8 25 6 13 -3 27 0 30 6 3 8 7 7 11 -1 8 -18 25 -16 18 2
-4 11 1 15 17 16 21 0 15 8 -8 12 -15 1 -35 27 -31 38 3 8 10 6 21 -5 16 -16
17 -16 18 1 0 16 1 16 9 -2 7 -17 9 -17 9 -2 1 9 6 17 11 17 6 0 10 4 10 10 0
5 -8 7 -17 4 -12 -3 -11 -1 3 6 11 7 26 26 32 44 16 43 15 50 -3 34 -35 -31
-45 -38 -45 -30 0 5 -7 9 -15 9 -8 0 -15 -3 -15 -7 0 -11 -44 -6 -52 5 -5 6
-8 5 -8 -2 0 -17 -22 -16 -46 2 -16 13 -17 16 -4 25 12 8 13 13 2 30 -8 14 -9
20 -1 20 7 0 9 10 4 28 -5 21 -4 24 6 15 9 -10 18 -6 38 18 16 18 43 34 66 39
45 11 71 13 63 5 -9 -9 51 -67 62 -60 16 10 12 23 -14 46 -15 13 -22 28 -19
40 5 19 7 19 24 3 11 -9 19 -24 20 -33 0 -11 4 -9 11 7 6 12 15 22 20 22 5 0
7 4 3 9 -3 5 0 13 6 17 8 4 9 3 5 -4 -4 -7 -2 -12 3 -12 6 0 11 3 11 8 0 4 12
15 26 25 l25 19 -7 -27 c-6 -25 -5 -26 15 -13 11 7 21 16 21 20 0 3 8 9 18 11
16 4 16 5 0 6 -10 0 -18 6 -18 12 0 5 5 7 12 3 8 -5 9 0 6 14 -4 12 -2 25 3
28 5 3 9 10 9 16 0 6 -3 8 -7 5 -3 -4 -12 1 -19 10 -11 16 -11 14 -7 -9 3 -14
0 -34 -6 -45 -10 -17 -10 -17 -11 0 0 10 -11 33 -25 51 -14 18 -25 40 -25 49
0 10 -4 17 -9 17 -5 0 -13 10 -17 22 -8 25 -45 81 -56 86 -5 2 -8 10 -8 17 0
20 -39 26 -50 7 -8 -13 -9 -10 -4 13 4 17 12 33 18 37 8 5 8 12 0 25 -8 13
-22 17 -52 15 -24 -2 -45 3 -54 11 -17 17 -65 19 -71 3 -3 -7 5 -11 22 -10 34
1 52 -6 45 -18 -4 -6 2 -8 15 -3 16 5 20 3 15 -9 -3 -9 -1 -16 5 -16 6 0 11 4
11 10 0 5 7 7 15 4 8 -4 13 -10 10 -14 -3 -5 1 -10 7 -13 9 -3 6 -12 -10 -30
-22 -24 -25 -24 -54 -10 -23 12 -27 18 -17 24 11 7 10 9 -3 9 -15 0 -46 39
-39 48 2 2 1 6 -2 8 -2 3 -7 -2 -10 -11 -4 -8 -2 -15 3 -15 6 0 10 -6 10 -12
0 -7 14 -42 32 -78 17 -36 32 -71 34 -79 1 -8 8 -17 14 -21 7 -4 8 -10 3 -13
-12 -7 -39 23 -48 54 -4 13 -10 26 -14 29 -8 7 -26 37 -47 78 -9 17 -20 32
-25 32 -5 0 -9 7 -9 15 0 8 -4 15 -9 15 -4 0 -16 21 -25 48 -10 26 -22 55 -27
65 -5 10 -7 23 -3 29 5 7 2 8 -6 3 -10 -6 -12 -4 -7 7 3 9 -2 23 -13 33 -19
17 -19 16 -11 -13 5 -17 7 -33 3 -36 -3 -3 0 -6 6 -6 7 0 12 -5 12 -11 0 -6
11 -33 25 -60 13 -27 21 -49 17 -49 -4 0 -1 -4 6 -9 7 -4 14 -18 15 -29 1 -12
4 -22 8 -22 7 0 35 -82 31 -93 -1 -4 6 -7 15 -7 13 0 14 -3 5 -12 -8 -8 -7
-15 6 -27 18 -17 29 -46 13 -37 -5 4 -11 2 -13 -4 -2 -6 -8 -6 -18 0 -13 9
-13 11 0 21 13 9 13 10 0 6 -8 -2 -15 -14 -14 -26 0 -14 -4 -20 -12 -17 -9 3
-11 -1 -7 -11 5 -13 2 -15 -11 -10 -20 8 -66 -1 -66 -13 0 -4 8 -7 18 -6 14 1
17 -7 17 -42 0 -23 3 -42 8 -42 4 0 7 4 7 10 0 5 7 7 15 4 18 -7 20 -21 3 -21
-7 0 -30 -3 -50 -7 -26 -5 -38 -3 -41 6 -2 7 -3 5 -2 -4 2 -10 -9 -31 -23 -46
-15 -16 -27 -35 -27 -42 0 -7 -7 -15 -15 -17 -11 -3 -12 -2 -3 4 7 5 11 19 9
30 -3 15 0 20 9 17 7 -3 16 -1 20 5 4 7 0 8 -11 4 -13 -5 -15 -3 -9 8 8 12 6
12 -8 1 -19 -16 -41 -77 -33 -91 3 -5 -1 -11 -9 -15 -10 -4 -15 1 -15 15 0 19
-1 19 -16 4 -9 -8 -13 -23 -10 -32 6 -14 4 -14 -10 -2 -16 13 -17 11 -11 -16
l7 -30 -15 25 c-9 15 -14 19 -15 10 0 -13 -1 -13 -11 0 -8 11 -9 5 -5 -25 5
-32 4 -37 -6 -23 -11 15 -13 14 -30 -7 -10 -13 -18 -29 -18 -37 0 -10 -3 -9
-11 2 -9 12 -10 10 -6 -8 4 -18 2 -22 -9 -18 -8 3 -14 -1 -14 -8 0 -9 -7 -12
-19 -9 -13 3 -20 -2 -25 -21 -3 -14 -11 -26 -17 -26 -8 0 -8 -4 0 -14 10 -12
6 -14 -21 -13 -29 2 -34 -2 -43 -31 -5 -18 -14 -31 -21 -28 -7 3 -10 -4 -8
-17 2 -12 2 -16 -2 -9 -8 17 -24 15 -24 -2 0 -8 -4 -18 -10 -21 -6 -3 -7 1 -4
9 3 9 2 16 -4 16 -17 0 -22 -29 -5 -38 11 -7 13 -17 8 -41 -8 -36 -22 -41 -28
-9 l-4 23 -2 -22 c0 -13 -5 -23 -10 -23 -5 0 -8 -8 -7 -17 0 -10 -5 -18 -12
-18 -8 0 -20 -8 -27 -18 -10 -14 -14 -15 -19 -5 -3 7 -4 -1 -2 -18 3 -27 1
-31 -19 -28 -18 2 -22 -2 -17 -14 5 -15 3 -15 -10 -4 -14 11 -17 10 -23 -8 -5
-16 -10 -19 -20 -10 -10 8 -16 7 -23 -6 -8 -15 -11 -14 -26 7 -9 13 -16 19
-16 13 0 -5 7 -19 15 -30 8 -12 11 -24 7 -28 -3 -4 1 -4 11 0 9 3 17 11 17 18
0 6 7 -2 15 -18 19 -36 19 -47 0 -22 -15 20 -15 20 -15 0 0 -16 -2 -17 -10 -4
-7 10 -10 11 -10 2 0 -15 48 -35 67 -28 9 4 11 1 7 -6 -5 -8 -2 -9 10 -5 11 4
15 3 11 -4 -4 -6 -13 -8 -20 -5 -8 3 -17 -3 -20 -13 -13 -42 -41 -62 -80 -57
-20 3 -45 12 -54 20 -10 9 -21 13 -26 9 -4 -5 -1 2 6 15 8 12 17 22 20 22 4 0
9 9 12 20 3 13 0 20 -9 20 -8 0 -14 9 -14 21 0 13 4 18 13 13 6 -4 8 -3 4 1
-4 5 -14 10 -23 11 -11 2 -13 -3 -8 -19 3 -12 10 -26 14 -31 12 -12 -11 -58
-27 -52 -7 3 -17 -3 -22 -12 -6 -10 -11 -12 -11 -4 0 6 -7 12 -15 12 -8 0 -15
5 -15 11 0 5 -4 7 -10 4 -5 -3 -10 -14 -9 -23 0 -10 3 -12 5 -5 3 7 12 9 20 6
28 -11 13 -20 -28 -16 -22 2 -44 0 -47 -5 -3 -6 -13 -11 -21 -13 -25 -5 -80
12 -80 24 0 7 -5 6 -11 -3 -8 -11 -12 -12 -16 -3 -3 10 -10 10 -25 2 -12 -6
-18 -7 -14 -1 3 5 -2 16 -11 23 -15 12 -16 12 -10 -3 8 -22 -28 -25 -40 -4 -4
8 -12 16 -18 18 -5 2 -9 9 -9 15 1 9 -6 11 -22 7 -55 -14 -83 -11 -86 10 -2
10 -12 20 -22 22 -28 4 -39 -5 -25 -22 10 -12 9 -13 -5 -8 -9 3 -16 16 -16 28
0 19 -2 18 -19 -8 l-19 -29 1 44 c1 34 -2 45 -16 47 -9 2 -17 -1 -17 -7 0 -6
5 -11 10 -11 6 0 9 -12 9 -27 -1 -20 -3 -22 -6 -9 -4 15 -7 16 -14 5 -6 -10
-10 -6 -15 17 -6 30 -24 38 -52 20 -6 -4 -17 -4 -22 -1 -6 4 -17 1 -25 -5 -10
-8 -15 -9 -15 -2 0 6 9 14 20 17 11 3 20 11 20 18 0 8 3 8 12 -1 7 -7 17 -8
27 -3 9 5 20 9 25 10 5 0 11 15 13 33 3 30 2 31 -11 13 -8 -11 -13 -22 -11
-26 2 -3 -2 -6 -10 -6 -9 0 -14 7 -13 15 2 10 -8 16 -32 18 -78 7 -90 9 -90
17 0 4 14 6 30 3 18 -2 36 1 44 10 11 11 15 11 19 1 2 -6 8 -9 12 -5 12 11 -1
21 -28 23 -12 1 -22 7 -22 12 0 6 -4 15 -9 20 -5 4 -7 -1 -4 -14 4 -13 0 -24
-8 -27 -12 -5 -19 10 -16 35 1 4 -9 5 -21 2 -18 -4 -19 -3 -7 6 12 9 9 10 -12
5 -17 -4 -28 -2 -28 4 0 6 -3 17 -6 26 -8 21 14 21 38 -1 11 -9 18 -11 18 -5
0 7 -5 12 -11 12 -6 0 -9 7 -6 15 4 8 1 17 -5 21 -7 4 -8 3 -4 -4 4 -7 3 -12
-3 -12 -5 0 -12 6 -14 13 -4 9 -6 9 -6 -1 -1 -7 -5 -11 -10 -8 -15 10 -24 -46
-9 -56 8 -5 4 -7 -12 -4 -14 2 -30 -1 -37 -6 -7 -5 -14 -5 -18 2 -7 12 -25 14
-25 3 0 -14 49 -32 53 -20 2 6 6 4 9 -4 3 -8 -1 -24 -9 -34 -14 -17 -15 -17
-10 -2 7 19 -20 37 -32 21 -3 -5 -12 -9 -18 -10 -49 -4 -48 -3 -27 -20 18 -15
18 -15 -3 -4 -20 9 -23 42 -5 38 15 -3 42 15 36 23 -3 6 0 17 8 26 11 14 10
15 -12 8 -25 -8 -25 -8 -6 14 17 19 18 21 2 21 -9 0 -14 5 -11 10 4 6 15 10
24 8 10 -2 26 4 36 12 11 9 16 10 11 3 -7 -12 14 -19 39 -13 6 1 24 4 40 6 17
2 40 6 52 9 29 7 39 5 35 -6 -1 -5 2 -9 8 -9 5 0 10 7 10 16 0 12 7 14 31 9
55 -12 64 -13 82 -3 10 5 17 5 17 -1 0 -6 11 -6 28 -2 30 9 53 4 64 -13 5 -7
8 -4 8 7 0 9 5 17 10 17 6 0 10 -4 10 -9 0 -6 12 -6 30 -1 33 9 41 -3 13 -19
-15 -9 -14 -10 7 -7 14 2 24 9 22 16 -4 17 21 32 29 18 4 -6 12 -7 20 -2 8 5
21 7 30 6 12 -2 16 4 15 20 -1 20 -24 46 -35 39 -2 -1 -8 3 -12 11 -7 11 -11
10 -18 -2 -5 -8 -7 -18 -5 -22 3 -4 -3 -5 -12 -1 -11 4 -13 8 -6 11 7 2 12 10
12 18 0 9 -4 12 -10 9 -13 -8 -80 5 -80 15 0 5 10 6 23 3 18 -4 19 -3 7 6 -8
6 -23 11 -32 11 -10 0 -18 5 -18 10 0 6 4 10 9 10 5 0 16 3 25 6 11 4 16 1 16
-11 0 -9 4 -13 10 -10 5 3 10 1 10 -5 0 -6 4 -8 10 -5 6 3 10 1 10 -5 0 -6 4
-9 9 -5 5 3 12 1 16 -5 3 -5 19 -10 35 -10 23 0 28 -4 24 -17 -3 -10 2 -6 11
10 16 28 28 37 19 14 -3 -10 9 -12 53 -9 32 1 90 4 128 5 76 3 100 11 88 30
-4 7 5 4 20 -6 15 -10 32 -15 37 -12 6 3 10 1 10 -5 0 -7 6 -5 15 4 8 8 15 19
15 25 0 6 5 11 10 11 6 0 9 -5 8 -11 -2 -6 3 -14 10 -16 8 -3 12 7 12 32 0 32
3 37 20 32 11 -3 20 0 20 6 0 7 -16 12 -37 12 -25 0 -37 4 -35 13 1 6 -1 11
-5 10 -8 -3 -13 5 -13 17 0 3 10 1 22 -6 17 -9 20 -9 16 3 -3 7 2 24 12 36
l19 23 3 -33 c3 -35 20 -42 27 -11 4 20 38 53 56 53 6 0 17 -6 24 -12 11 -11
12 -9 7 9 -6 19 -4 21 24 17 17 -3 30 -1 30 5 0 6 -3 10 -7 10 -23 -4 -33 3
-33 22 0 21 0 21 -20 -2 -11 -14 -19 -18 -20 -11 0 7 -4 10 -10 7 -15 -9 -35
41 -23 57 12 16 3 52 -14 56 -7 1 -13 -5 -13 -14 0 -9 5 -12 12 -8 8 5 9 2 5
-10 -4 -10 -7 -22 -7 -27 0 -5 -4 -9 -10 -9 -5 0 -10 15 -10 34 0 31 -2 33
-27 30 -16 -2 -22 -1 -15 2 6 3 11 15 11 27 -1 17 -2 18 -6 5 -7 -27 -49 -23
-57 5 -10 37 -7 57 10 57 12 0 14 -8 10 -35 -5 -27 -2 -35 9 -35 13 0 15 9 10
48 -2 26 -2 42 1 35 4 -8 13 -9 28 -3 24 9 46 -3 46 -24 0 -6 -5 -4 -10 4 -8
12 -10 10 -11 -10 l-1 -25 -8 25 -8 25 -1 -26 c-1 -27 24 -48 32 -26 3 9 7 9
19 0 8 -7 18 -10 21 -6 11 10 8 33 -4 33 -5 0 -7 -4 -4 -10 3 -5 2 -10 -3 -10
-6 0 -12 15 -14 34 -2 21 0 32 7 30 6 -3 10 14 10 45 0 27 -3 47 -8 44 -4 -2
-7 1 -7 8 0 7 11 10 30 7 37 -5 39 -1 5 12 -14 5 -25 16 -25 24 0 7 -7 19 -15
26 -20 17 -19 0 2 -29 16 -23 16 -24 -5 -19 -11 3 -23 1 -25 -5 -2 -6 -6 -1
-9 11 -4 12 -2 20 3 16 5 -3 9 0 9 5 0 6 -7 11 -16 11 -12 0 -15 -7 -12 -25 3
-13 1 -22 -3 -19 -5 3 -9 11 -9 19 0 7 -7 15 -15 19 -8 3 -15 17 -15 33 1 27
1 27 15 9 17 -22 52 -29 59 -11 2 7 -3 12 -11 11 -12 -1 -16 10 -18 42 -3 55
-15 67 -16 16 -1 -21 -3 -30 -6 -19 -2 11 -6 31 -9 44 -3 13 -8 20 -12 16 -7
-7 -9 -13 -11 -47 -1 -28 -9 -20 -16 19 -3 18 -1 35 5 38 5 3 10 11 10 16 0 6
-4 8 -9 4 -5 -3 -12 -1 -16 4 -3 5 -14 8 -25 6 -11 -2 -20 1 -20 7 0 6 12 8
31 4 17 -3 35 -6 40 -6 5 0 9 -6 9 -14 0 -8 7 -16 15 -20 8 -3 15 -1 15 4 0 6
-5 10 -10 10 -6 0 -5 6 2 14 11 12 15 9 26 -18 11 -28 12 -29 7 -3 -3 15 -1
27 5 27 5 0 10 14 10 30 0 32 -14 40 -24 14 -3 -8 -2 -12 4 -9 6 3 10 1 10 -6
0 -6 -8 -9 -20 -6 -14 3 -20 0 -20 -11 0 -8 -3 -12 -7 -8 -8 8 -9 10 -12 44
-2 15 -3 14 -10 -3 -5 -11 -7 -23 -4 -27 2 -4 -3 -5 -11 -2 -9 3 -16 12 -16
20 0 8 -4 14 -10 14 -5 0 -7 -8 -5 -17 3 -10 -1 -4 -9 12 -8 17 -15 24 -16 16
0 -11 -4 -9 -14 5 -14 18 -15 18 -21 1 -6 -14 -10 -15 -21 -6 -11 9 -15 8 -20
-5 -3 -9 -11 -13 -18 -9 -7 4 -7 1 1 -8 10 -13 10 -16 -2 -16 -8 0 -15 8 -15
17 0 9 -7 17 -15 17 -18 0 -20 -13 -2 -20 9 -4 9 -6 0 -6 -15 -1 -18 -31 -3
-31 6 0 10 4 10 9 0 12 43 1 53 -13 4 -6 5 7 2 29 -5 28 -3 36 3 26 6 -8 20
-15 32 -16 18 -1 23 -8 25 -34 2 -20 -1 -30 -9 -28 -6 2 -10 11 -8 19 1 9 -4
18 -13 22 -18 7 -20 -15 -2 -33 9 -11 9 -14 0 -18 -10 -4 -10 -10 -1 -26 10
-20 10 -21 -6 -8 -10 8 -15 23 -12 34 3 12 0 17 -9 14 -7 -3 -18 0 -25 6 -10
10 -10 8 -1 -10 16 -31 14 -40 -4 -17 -8 10 -15 15 -15 9 -1 -5 -5 -1 -10 10
l-9 20 0 -20 c-1 -17 -3 -17 -11 -5 -8 13 -10 12 -10 -2 0 -11 -8 -18 -20 -18
-23 0 -27 -15 -5 -24 19 -7 47 3 39 15 -3 5 0 9 5 9 6 0 11 -9 11 -21 0 -11
-4 -18 -9 -14 -5 3 -17 -3 -27 -12 -12 -13 -19 -14 -22 -5 -2 6 -8 12 -13 12
-6 0 -7 -5 -4 -10 3 -6 -1 -10 -9 -10 -12 0 -16 -10 -16 -35 0 -24 5 -35 15
-35 8 0 15 -5 15 -11 0 -7 -8 -6 -22 4 -13 8 -22 23 -21 33 2 21 -26 45 -46
39 -10 -4 -9 2 4 21 16 25 16 27 0 21 -9 -4 -19 -7 -21 -7 -2 0 -4 -9 -4 -20
0 -11 -4 -20 -10 -20 -5 0 -10 -4 -10 -10 0 -6 9 -6 26 0 27 10 48 5 39 -10
-8 -13 -75 -8 -75 6 0 6 -7 18 -17 25 -15 13 -16 11 -9 -13 3 -16 2 -28 -3
-28 -5 0 -11 9 -14 20 -6 23 -24 27 -24 5 0 -8 4 -12 9 -9 4 3 8 0 8 -5 0 -6
-6 -11 -14 -11 -8 0 -22 -7 -30 -16 -9 -9 -16 -11 -16 -4 0 6 -5 8 -10 5 -6
-4 -8 -9 -6 -13 4 -7 -26 -39 -31 -34 -9 8 -23 -1 -23 -15 0 -13 -4 -11 -20 7
l-20 23 0 -22 c0 -14 4 -20 12 -15 7 4 8 3 4 -5 -4 -6 -12 -8 -18 -5 -7 5 -9
1 -5 -9 3 -9 3 -18 -1 -21 -4 -3 -9 5 -9 16 -2 25 -27 44 -31 24 -4 -20 -49
-38 -56 -23 -3 9 -5 8 -5 -1 -1 -7 -5 -11 -10 -7 -5 3 -13 0 -17 -6 -4 -8 -3
-9 4 -5 7 4 12 3 12 -2 0 -9 -23 -22 -36 -22 -3 0 -2 10 1 21 6 19 5 20 -8 8
-8 -8 -12 -18 -9 -23 3 -5 0 -6 -6 -2 -6 3 -14 2 -17 -4 -9 -15 -37 9 -31 27
3 7 1 13 -4 13 -5 0 -11 -10 -13 -23 l-4 -22 -2 23 c-1 24 -8 27 -31 12 -10
-6 -11 -10 -2 -10 6 0 12 -4 12 -10 0 -5 -7 -10 -15 -10 -8 0 -15 5 -15 11 0
5 -5 7 -10 4 -6 -3 -11 4 -11 17 -1 17 -3 18 -6 6 -2 -10 -9 -18 -14 -18 -6 0
-7 6 -4 12 4 7 0 5 -8 -4 -11 -14 -17 -15 -29 -5 -9 6 -18 19 -21 27 -4 10 -6
8 -6 -6 -1 -21 -28 -41 -39 -29 -3 3 0 5 7 5 7 0 9 5 6 10 -3 5 -2 10 3 10 6
0 9 10 8 23 -1 21 -26 36 -26 15 0 -4 -9 -8 -21 -8 -23 0 -42 -16 -52 -44 -6
-15 -10 -16 -23 -5 -13 10 -17 10 -24 -1 -4 -7 -6 -19 -3 -26 3 -8 -2 -11 -14
-10 -10 2 -24 -1 -31 -7 -7 -5 -16 -7 -20 -3 -4 4 0 13 9 19 9 7 14 17 12 23
-2 6 6 36 18 65 11 30 30 81 40 114 11 33 28 79 39 102 11 24 20 47 20 52 0
15 53 125 67 139 7 7 13 11 13 8 0 -3 9 3 20 14 12 12 18 26 15 33 -4 7 1 3 9
-7 9 -12 16 -14 16 -7 0 9 5 8 16 -3 14 -15 17 -14 33 5 l17 22 17 -34 c9 -19
17 -26 17 -17 0 24 18 32 38 16 15 -12 16 -11 3 4 -10 13 -10 18 -1 18 6 0 14
-9 17 -21 4 -14 11 -18 22 -13 9 3 23 6 31 4 68 -8 109 2 80 20 -12 8 -10 10
7 10 17 0 21 -4 16 -17 -5 -16 -4 -15 9 1 10 13 17 16 22 7 5 -8 12 -7 23 5
14 13 14 20 4 36 -7 11 -10 23 -7 26 3 3 6 1 6 -5 0 -16 58 -35 66 -22 3 6 12
8 20 5 8 -3 14 -1 14 4 0 6 -9 10 -19 10 -11 0 -23 5 -26 10 -4 6 -11 8 -16 5
-5 -4 -9 -2 -9 4 0 6 16 8 38 5 27 -4 33 -3 22 5 -12 8 -12 13 4 30 10 11 23
18 27 15 5 -3 9 0 9 5 0 6 7 11 15 11 8 0 15 -5 15 -11 0 -6 7 -4 15 4 8 8 43
18 77 22 35 4 70 9 78 10 17 3 124 14 200 20 24 2 94 7 155 10 100 5 108 5 91
-10 -11 -8 -16 -15 -12 -15 4 0 0 -7 -9 -17 -14 -14 -18 -14 -26 -2 -8 13 -13
6 -10 -14 1 -4 -11 -4 -25 -1 -21 5 -25 4 -20 -7 4 -8 0 -5 -8 5 -9 11 -16 15
-16 9 0 -12 -37 -26 -58 -23 -11 1 -12 -9 -7 -42 4 -24 7 -48 8 -55 0 -7 6
-14 14 -17 9 -4 13 4 13 28 0 29 3 33 19 29 20 -5 18 -43 -3 -43 -6 0 -4 -4 4
-9 19 -13 29 -5 23 18 -3 13 2 21 16 26 29 9 44 -3 38 -31 -2 -12 0 -29 4 -36
6 -9 9 -8 9 7 0 15 2 17 9 6 5 -8 18 -12 31 -8 13 3 20 1 17 -6 -2 -7 -10 -12
-18 -12 -14 0 -19 -6 -19 -26 0 -6 7 -9 15 -5 19 7 32 -39 16 -57 -8 -10 -7
-14 4 -14 10 0 15 10 15 27 0 15 3 30 7 34 11 11 11 126 0 126 -4 0 -5 5 -2
10 15 25 27 8 21 -30 -3 -22 -2 -40 3 -40 5 0 8 -8 7 -17 -1 -13 6 -18 22 -17
15 0 21 -4 18 -12 -3 -8 -1 -16 4 -19 6 -4 10 1 10 9 0 9 6 16 13 16 6 1 0 8
-16 16 -15 8 -27 20 -27 27 0 8 4 7 10 -3 9 -13 11 -13 20 0 8 13 10 13 10 -1
0 -9 6 -19 14 -22 8 -3 13 -14 11 -24 -1 -10 5 -27 14 -38 15 -19 15 -19 -4
-5 -19 15 -19 15 -1 -14 15 -23 16 -30 5 -37 -10 -6 -10 -9 -2 -9 7 0 12 -10
11 -22 0 -13 0 -32 1 -43 1 -17 3 -18 11 -5 6 9 10 10 10 3 0 -6 -7 -18 -15
-27 -16 -16 -21 -41 -6 -32 5 3 15 -2 22 -12 12 -15 12 -16 -1 -5 -10 8 -21 9
-30 3 -13 -8 -13 -10 1 -10 9 0 22 -7 29 -15 10 -12 9 -16 -4 -21 -9 -3 -16
-14 -16 -23 0 -9 -7 -28 -14 -43 -8 -16 -11 -28 -6 -28 5 0 7 -7 4 -15 -4 -8
-1 -15 4 -15 6 0 13 8 15 18 4 13 5 12 6 -4 1 -28 21 -35 51 -19 34 18 54 -3
40 -40 -9 -23 -8 -26 5 -22 8 4 18 1 22 -6 6 -9 14 -7 30 9 l22 20 -29 -4
c-18 -3 -30 0 -30 7 0 6 4 11 9 11 6 0 8 9 6 20 -2 11 0 20 6 20 5 0 9 -4 9
-9 0 -4 11 -6 25 -3 23 4 36 22 16 22 -5 0 -7 9 -4 20 3 12 12 19 22 18 12 -2
15 3 12 22 -1 14 -6 27 -11 30 -4 3 -10 16 -14 30 -3 14 -3 19 0 13 3 -7 10
-13 15 -13 6 0 7 6 3 13 -4 6 1 5 12 -4 20 -16 64 -13 67 6 1 6 6 9 10 7 4 -1
3 7 -3 18 -6 11 -8 26 -4 32 4 7 3 8 -4 4 -17 -11 -14 35 3 58 8 11 15 15 15
10 0 -6 -6 -16 -12 -23 -11 -11 -9 -12 7 -4 11 6 26 8 33 6 6 -3 12 0 12 6 0
6 -4 11 -10 11 -5 0 -10 5 -10 10 0 6 10 10 23 10 12 0 27 4 32 8 14 10 18 35
4 26 -8 -4 -9 0 -4 16 6 20 4 22 -13 18 -14 -4 -19 -2 -16 7 3 7 14 11 25 8
10 -3 19 -1 19 5 0 6 8 9 18 7 9 -1 16 -8 14 -14 -1 -6 3 -11 9 -11 6 0 8 9 4
20 -3 11 -8 40 -10 64 -8 81 -25 138 -48 157 -12 10 -17 18 -11 19 12 0 15 60
2 60 -4 0 -8 5 -8 10 0 15 26 12 40 -5 10 -12 10 -15 -1 -15 -12 0 -12 -2 0
-9 8 -5 10 -14 6 -21 -5 -8 -3 -11 5 -8 27 9 18 50 -17 81 -40 35 -42 47 -7
47 14 0 33 4 42 9 9 5 31 11 49 14 17 3 37 8 42 12 6 3 14 -2 18 -12 3 -10 14
-36 23 -58 10 -22 21 -50 24 -62 8 -24 32 -37 41 -23 4 6 -1 10 -9 10 -9 0
-16 5 -16 11 0 5 4 8 9 4 5 -3 13 0 17 6 5 8 1 10 -13 7 -15 -4 -22 2 -31 25
-11 28 -10 28 7 13 17 -15 31 -13 31 6 0 5 -6 6 -12 2 -9 -5 -8 -2 1 10 17 20
32 5 25 -27 -2 -11 0 -16 4 -13 7 7 8 11 11 37 0 5 5 8 10 5 5 -4 5 9 1 30 -5
20 -6 33 -3 30 3 -3 12 2 20 12 12 16 13 15 7 -3 -6 -16 -4 -17 5 -9 10 9 10
17 1 34 -8 15 -8 20 -1 16 12 -8 14 1 13 51 -1 18 3 35 8 38 6 4 8 11 4 16 -3
5 -10 7 -15 4 -5 -4 -9 -1 -9 5 0 6 -4 8 -10 5 -18 -11 -11 4 13 25 14 14 17
21 7 19 -8 -2 -31 7 -50 19 -19 12 -31 22 -26 22 5 0 2 8 -5 17 -12 15 -12 16
1 8 24 -15 39 -14 33 1 -3 7 -8 13 -11 12 -23 -2 -24 5 -2 18 15 9 18 13 6 9
-17 -5 -17 -4 -5 12 13 15 12 16 -8 11 -13 -4 -23 -2 -23 3 0 5 6 9 14 9 8 0
18 5 21 10 4 6 1 9 -7 8 -7 -2 -12 3 -10 10 1 6 -2 12 -8 12 -5 0 -7 7 -4 15
4 8 11 12 18 8 6 -3 2 4 -9 17 -11 13 -14 20 -6 15 9 -5 12 -3 9 6 -3 8 -11
13 -18 11 -11 -3 -11 0 0 12 10 13 10 16 0 16 -9 0 -9 4 1 17 9 11 10 14 2 9
-9 -5 -11 -2 -7 8 3 9 11 16 18 16 6 0 4 5 -5 10 -11 6 -15 18 -11 36 3 19 -1
31 -13 40 -15 11 -16 16 -5 29 11 13 10 14 -4 9 -11 -4 -16 -1 -16 10 0 9 -7
16 -17 16 -9 0 -13 3 -9 7 4 5 13 8 18 8 6 0 13 6 16 13 2 6 -2 12 -8 12 -9 0
-9 5 1 17 8 9 13 18 12 20 -2 1 -3 12 -3 23 0 14 5 18 18 14 14 -5 14 -4 2 4
-10 8 -19 7 -29 -1 -12 -10 -13 -7 -8 18 3 20 0 36 -11 49 -16 18 -16 19 5 14
16 -4 20 -2 16 8 -3 8 -10 14 -15 14 -6 0 0 9 13 21 13 11 18 18 11 14 -7 -4
-20 -1 -29 7 -15 11 -16 11 -9 -7 5 -15 4 -17 -5 -8 -6 6 -8 17 -3 25 11 18
14 38 5 38 -10 0 -7 38 4 47 4 5 5 2 1 -4 -4 -7 -2 -13 3 -13 14 0 14 6 -1 29
-9 15 -16 17 -30 10 -12 -6 -18 -6 -18 1 0 5 7 10 15 10 17 0 38 34 27 45 -12
11 -10 75 2 76 6 1 0 5 -14 9 -17 5 -19 8 -7 9 19 1 23 21 6 38 -8 8 -8 13 0
17 8 5 8 13 0 29 -7 11 -12 34 -11 49 0 15 -4 28 -9 28 -6 0 -7 -5 -3 -12 4
-7 3 -8 -5 -4 -9 6 -8 14 4 33 10 14 12 22 6 19 -13 -8 -14 4 -2 23 5 8 3 24
-5 40 -15 29 -18 45 -6 38 4 -3 7 8 7 24 0 16 -2 29 -5 29 -3 0 -6 14 -6 32
-1 18 -6 34 -13 36 -13 4 -15 38 -3 46 8 4 63 -200 150 -553 23 -91 27 -101
34 -76 4 16 5 45 3 65 -3 19 -7 51 -9 70 -8 73 -35 188 -60 253 -14 37 -23 67
-21 67 2 0 22 -34 45 -75 37 -66 63 -101 59 -78 -1 4 0 13 1 18 5 25 1 202 -6
223 -4 13 -2 22 4 22 7 0 7 12 0 37 -12 42 -4 102 18 145 11 22 12 33 4 43 -8
10 -4 30 16 79 l26 66 144 0 144 0 0 35 0 35 -125 0 c-69 0 -125 2 -125 5 0 3
10 21 23 40 24 38 87 63 180 73 37 4 47 8 47 23 0 14 25 31 93 63 63 30 106
58 130 86 22 23 37 34 37 25 0 -13 39 -15 290 -15 l290 0 0 35 0 35 -284 0
c-218 0 -286 -3 -290 -12 -3 -7 -3 -1 0 13 8 37 -20 34 -65 -8 -36 -33 -64
-46 -42 -19 8 10 9 16 1 21 -5 3 -10 1 -10 -6 0 -7 -3 -9 -6 -6 -4 4 1 18 10
33 23 33 16 39 -17 14 -48 -38 -40 -20 14 30 30 28 66 56 81 63 19 8 26 17 23
29 -3 9 -1 19 5 23 16 10 2 25 -17 18 -12 -5 -14 -3 -8 7 10 17 -11 5 -43 -24
-17 -15 -40 -21 -90 -24 -37 -2 -73 -9 -80 -15 -8 -6 -48 -11 -91 -12 -42 -1
-83 -5 -90 -9 -26 -16 -71 -8 -90 16 -19 23 -19 23 7 40 46 30 143 57 235 64
85 6 117 19 117 46 0 13 -150 4 -159 -9 -11 -15 -125 -62 -169 -69 -24 -4 -50
-13 -58 -21 -8 -8 -14 -10 -14 -5 0 5 -18 12 -39 15 -28 3 -48 15 -70 38 -36
41 -42 84 -10 76 11 -3 43 3 72 13 l52 17 -102 -1 c-57 0 -103 -3 -103 -6 0
-3 9 -12 19 -19 11 -8 17 -20 14 -27 -3 -7 2 -27 10 -44 9 -16 12 -32 7 -35
-5 -3 -4 -20 1 -38 13 -44 12 -70 -3 -61 -7 5 -9 2 -5 -8 4 -11 -1 -18 -14
-21 -10 -3 -19 -12 -19 -21 0 -59 -66 73 -101 202 -23 86 -34 104 -43 74 -11
-35 2 -101 34 -169 16 -36 27 -69 24 -74 -3 -5 -2 -8 3 -7 5 2 22 -12 38 -30
l30 -32 45 14 c25 8 75 28 112 45 76 36 97 40 51 10 -18 -12 -33 -25 -33 -29
0 -4 -9 -6 -20 -3 -12 3 -22 -1 -26 -11 -3 -9 -10 -14 -14 -11 -5 3 -12 0 -17
-8 -4 -7 -21 -18 -36 -25 -17 -7 -27 -18 -24 -25 5 -12 0 -13 -45 -8 -11 1
-75 102 -96 151 -11 25 -38 83 -60 130 -73 153 -79 236 -25 351 27 58 61 98
133 158 20 17 21 20 5 14 -11 -4 -24 -11 -30 -15 -5 -5 -23 -18 -39 -30 -53
-40 -142 -202 -150 -273 -1 -12 -6 -26 -10 -33 -4 -6 -9 -30 -12 -52 -3 -22
-8 -50 -13 -62 -4 -12 -4 -40 0 -62 6 -39 13 -84 23 -166 l4 -35 -19 42 c-65
142 -38 387 66 593 35 70 47 110 21 75 -12 -17 -15 -17 -29 -3 -9 9 -14 18
-11 20 10 10 14 54 8 85 -6 32 -6 32 -29 15 -13 -9 -20 -21 -17 -27 3 -6 1 -6
-4 -2 -5 5 -9 19 -9 32 -1 14 1 22 4 20 2 -3 9 1 15 9 6 7 47 32 91 56 44 23
86 47 93 52 6 6 12 7 12 4 0 -4 9 -2 21 4 11 7 18 18 15 25 -3 9 0 12 10 8 8
-3 14 1 14 10 0 8 7 18 16 21 10 4 13 13 9 26 -4 12 -2 20 5 20 6 0 8 -4 5
-10 -8 -13 26 -13 45 1 13 9 12 10 -3 5 -17 -5 -17 -5 0 19 12 15 24 22 36 19
30 -9 18 17 -13 27 -38 14 -38 28 0 64 16 16 43 56 58 89 27 57 38 68 170 165
78 58 142 108 142 112 0 17 -113 49 -173 49 l-62 0 7 98 c10 142 8 359 -4 417
-5 28 -14 67 -18 89 -4 21 -17 50 -29 65 -12 14 -26 38 -32 53 -6 15 -20 30
-32 33 -38 11 -67 28 -67 40 0 12 -106 65 -130 65 -14 0 -195 181 -211 211 -7
14 -16 18 -29 14 -12 -4 -26 1 -39 14 -41 41 -159 68 -176 41 -3 -6 -39 -10
-78 -10 -84 0 -194 -28 -264 -66 -208 -115 -300 -181 -425 -305 l-86 -85 -51
202 c-29 112 -72 273 -96 358 -25 86 -45 160 -45 165 0 5 15 12 34 15 36 7 79
48 91 87 13 39 -4 86 -42 119 -31 28 -41 31 -82 28 -25 -2 -52 -6 -59 -9 -10
-3 -42 78 -111 281 -292 850 -616 1573 -1050 2342 l-109 193 -1181 3 -1181 2
0 -6625z m4945 2795 c3 -5 19 -10 34 -10 15 0 31 -4 37 -9 12 -11 94 -19 94
-9 0 5 4 8 9 8 12 0 22 -44 11 -48 -6 -2 -10 -8 -10 -13 0 -6 4 -8 10 -4 18
11 53 -35 103 -140 42 -86 43 -147 4 -224 -9 -19 -17 -44 -17 -57 0 -48 -7
-53 -53 -37 -66 23 -154 25 -191 5 -17 -9 -38 -17 -46 -18 -8 -1 -25 -2 -36
-3 -12 0 -32 -10 -45 -21 -27 -22 -30 -22 64 2 49 12 72 9 200 -29 46 -13 48
-16 45 -46 -3 -32 -26 -60 -40 -51 -7 5 -10 -4 -7 -22 1 -8 -22 -24 -34 -24
-4 0 -6 3 -6 8 4 21 -3 30 -19 26 -9 -3 -26 3 -37 14 -11 10 -36 24 -54 30
-40 14 -111 16 -111 3 0 -5 10 -7 21 -4 15 4 20 2 17 -7 -2 -8 13 -29 35 -49
l39 -35 19 23 c16 20 20 21 25 7 10 -25 -3 -46 -23 -40 -13 4 -11 0 7 -16 l24
-22 -24 -18 -25 -18 26 -7 c15 -4 32 -18 38 -31 14 -31 15 -26 -14 -60 -13
-15 -27 -40 -30 -54 -7 -31 -61 -100 -78 -100 -7 0 -17 -8 -23 -18 -7 -10 -31
-24 -55 -32 -24 -8 -61 -31 -81 -52 -21 -21 -50 -41 -65 -44 -16 -4 -74 -26
-130 -50 -57 -24 -103 -41 -103 -38 0 2 -14 -3 -31 -12 -24 -12 -30 -12 -26
-2 2 7 9 12 15 11 6 -2 9 4 6 12 -4 8 -2 15 4 15 15 0 74 64 62 68 -5 2 -10
10 -10 18 0 9 -4 13 -9 9 -5 -3 -13 0 -17 6 -5 8 0 10 18 6 35 -9 176 32 212
62 23 19 21 72 -3 78 -11 3 -22 11 -25 19 -3 8 -12 14 -19 14 -8 0 -20 7 -27
15 -7 8 -16 12 -21 10 -4 -3 -23 7 -41 23 -18 15 -42 34 -52 42 -18 14 -19 14
-7 -7 6 -13 20 -27 31 -33 11 -6 20 -17 20 -24 0 -8 7 -19 15 -26 9 -7 13 -21
10 -31 -5 -15 -3 -17 11 -12 28 10 11 -20 -21 -37 -21 -12 -29 -12 -32 -2 -6
16 -124 132 -135 132 -4 0 -13 9 -20 20 -7 11 -20 20 -29 20 -9 0 -22 7 -29
15 -7 8 -17 15 -22 15 -5 0 -28 19 -49 42 -30 31 -37 43 -27 49 17 11 26 11
33 -1 3 -5 19 -7 35 -4 33 7 83 -19 138 -70 17 -16 32 -25 32 -19 0 6 -10 17
-22 26 -13 8 -41 31 -63 52 -47 45 -91 65 -144 65 -45 0 -53 -12 -44 -67 9
-56 30 -93 54 -93 23 0 109 -83 109 -105 0 -8 11 -22 25 -31 26 -17 65 -73 65
-93 0 -6 -8 -11 -17 -11 -16 -1 -16 -2 -2 -13 14 -11 14 -14 -3 -32 -18 -19
-21 -19 -63 -3 -56 19 -62 2 -13 -36 31 -24 32 -25 14 -45 -18 -20 -15 -41 8
-41 6 0 17 -5 23 -11 21 -21 -77 -82 -150 -94 -18 -3 -44 -8 -59 -11 -17 -3
-28 -1 -28 5 0 6 -14 11 -32 11 -17 0 -28 3 -25 7 4 3 -14 30 -41 59 -72 80
-73 82 -77 132 -9 128 71 487 125 563 10 14 34 57 53 95 64 127 185 238 262
240 22 1 48 4 57 8 13 6 15 3 12 -12 -4 -13 4 -27 26 -45 38 -33 56 -34 71 -5
11 21 12 21 25 3 8 -10 14 -26 14 -35 0 -9 9 -25 21 -36 19 -17 19 -14 -6 41
-29 68 -47 88 -101 119 -34 19 -56 56 -33 56 6 0 7 5 4 10 -3 6 -2 10 4 10 5
0 18 14 28 30 9 17 25 33 35 36 27 8 79 -29 108 -75 14 -23 29 -41 35 -41 6 0
16 -14 23 -30 8 -17 17 -28 22 -25 5 3 10 0 12 -6 4 -11 38 -2 38 11 0 5 -6
15 -12 22 -7 7 -19 25 -27 41 -8 15 -41 53 -74 84 -47 44 -57 60 -50 72 9 14
62 45 173 102 38 20 135 26 145 9z m313 -1154 c-12 -9 -14 -16 -7 -23 15 -15
8 -24 -43 -59 -23 -16 -53 -39 -67 -52 -28 -26 -142 -84 -149 -77 -3 3 2 13
11 23 10 10 17 23 17 29 0 5 14 22 30 36 17 15 30 31 30 36 0 4 21 19 47 32
26 13 54 30 61 37 14 13 32 16 32 6 0 -4 -8 -13 -17 -21 -17 -14 -17 -14 0 -9
10 3 23 6 29 6 6 0 7 7 4 16 -6 16 23 48 34 37 3 -2 -3 -10 -12 -17z m8543
-85 c37 -52 103 -130 146 -173 l78 -80 -90 45 c-111 55 -294 128 -397 158 -43
12 -78 25 -78 29 0 12 234 119 254 117 12 -1 46 -39 87 -96z m-8875 -267 c-5
-12 -2 -15 10 -10 12 4 14 1 9 -14 -4 -11 -7 -60 -9 -108 -1 -48 -6 -94 -11
-102 -13 -21 -15 -69 -4 -75 5 -4 9 -14 8 -23 0 -14 -2 -13 -9 3 -7 17 -9 16
-9 -10 -1 -33 -21 -74 -21 -43 0 9 -6 18 -12 20 -9 3 -14 34 -16 96 -4 89 11
168 42 227 10 20 12 26 15 45 0 6 4 10 7 10 3 0 3 -7 0 -16z m-2354 -146 c3
-97 0 -177 -11 -383 -5 -82 -8 -151 -7 -152 0 0 159 -8 351 -17 193 -9 381
-18 420 -20 116 -6 341 16 331 33 -3 4 -1 13 5 21 7 12 9 10 9 -8 0 -21 4 -23
38 -20 33 3 37 6 38 33 1 17 3 32 4 35 1 3 2 8 1 13 0 4 4 7 10 7 5 0 8 4 5 8
-3 5 2 27 10 51 8 23 15 53 16 67 1 13 10 27 21 30 13 4 15 9 8 18 -11 13 9
61 40 94 10 12 19 26 19 32 0 5 4 9 9 7 5 -1 17 7 27 18 19 20 74 29 71 11 -1
-5 4 -11 12 -14 8 -3 11 0 7 7 -4 6 -3 11 3 11 5 0 12 -9 16 -20 7 -22 -17
-64 -31 -52 -4 4 -3 0 4 -9 9 -12 10 -24 2 -43 -13 -34 -13 -56 0 -36 10 16
15 8 23 -40 3 -17 5 -14 6 13 l1 37 20 -20 c11 -11 25 -20 32 -20 6 0 4 -6 -6
-13 -21 -15 -12 -42 14 -42 27 0 34 -76 18 -197 -1 -10 -10 -18 -19 -18 -12 0
-15 -7 -11 -25 2 -15 0 -25 -7 -25 -7 0 -11 -8 -10 -17 1 -10 0 -21 -1 -25 -4
-13 -7 -28 -9 -39 0 -5 -5 -8 -10 -5 -13 8 -4 -26 49 -204 11 -36 40 -132 64
-215 24 -82 86 -285 136 -450 51 -165 95 -310 97 -322 4 -15 17 -24 48 -32 24
-6 50 -18 59 -26 8 -8 31 -15 51 -15 46 0 85 -36 85 -80 0 -17 9 -39 21 -51
19 -19 21 -29 15 -75 -3 -30 -2 -54 3 -54 5 0 14 -13 20 -28 10 -24 8 -38 -10
-88 -12 -32 -33 -76 -47 -97 -14 -20 -23 -40 -20 -43 10 -9 48 48 59 88 12 47
16 45 39 -19 9 -27 20 -55 24 -64 7 -15 -42 -69 -160 -177 -46 -41 -77 -52
-89 -32 -3 6 -1 10 5 10 12 0 80 70 80 82 0 4 -10 4 -22 0 -43 -16 -82 9 -40
25 9 4 22 12 27 18 6 6 21 24 35 39 l25 28 -25 -7 c-38 -13 -80 -7 -117 16
-44 28 -39 50 15 66 24 6 52 22 62 35 21 25 27 49 8 30 -13 -13 -54 -16 -60
-4 -1 4 -22 17 -46 30 -35 19 -46 21 -64 11 -45 -24 -265 -8 -283 21 -3 5 3
18 14 29 19 19 19 19 -5 25 -34 9 -22 22 28 31 42 7 42 7 15 15 -42 13 -96 58
-114 96 -19 40 -30 43 -43 12 -5 -13 -9 -19 -9 -14 -1 5 -10 1 -20 -8 -11 -10
-26 -19 -35 -20 -9 -1 -26 -12 -40 -25 l-23 -22 5 26 c3 18 23 38 61 64 97 65
167 101 198 101 23 0 78 27 110 54 4 3 -34 116 -78 231 -23 61 -48 127 -55
148 -60 161 -108 274 -121 285 -9 6 -12 12 -6 12 8 0 9 9 3 28 -19 63 -32 92
-40 87 -4 -3 -6 4 -3 15 3 11 1 26 -4 33 -6 6 -18 36 -28 65 -9 28 -21 50 -26
46 -5 -3 -9 -3 -9 0 0 2 -3 13 -6 23 -5 15 -4 15 5 3 6 -8 11 -10 11 -4 0 5
-11 25 -25 44 -14 19 -25 39 -25 44 1 6 7 0 15 -14 8 -14 14 -20 15 -14 0 6
-11 28 -25 49 -14 20 -38 71 -52 113 -14 43 -31 80 -36 84 -16 10 -108 8 -102
-3 4 -5 -1 -9 -9 -9 -9 0 -16 6 -16 13 0 7 -3 8 -8 2 -4 -6 -84 -10 -202 -10
-285 0 -1611 -25 -1640 -31 -19 -3 -22 -2 -10 6 8 5 36 10 61 10 26 0 63 7 83
15 31 13 81 15 331 10 397 -7 1046 10 1060 28 6 8 23 17 39 21 15 4 27 9 24
11 -2 2 -267 -5 -588 -15 -322 -11 -592 -20 -602 -20 -15 0 -15 3 2 37 10 21
16 41 14 44 -2 4 3 20 11 35 8 16 15 55 15 87 0 44 6 66 24 95 14 20 39 73 56
116 53 135 122 217 234 278 53 29 56 26 58 -64z m10528 -438 c0 -38 2 -40 30
-40 28 0 30 -3 30 -35 l0 -35 -135 0 -135 0 0 34 c0 32 3 35 33 38 29 3 32 6
35 41 l3 37 70 0 69 0 0 -40z m-240 -610 l0 -70 -70 0 -70 0 0 70 0 70 70 0
70 0 0 -70z m158 3 l-3 -68 -64 -3 c-35 -2 -67 1 -70 6 -3 6 -4 37 -3 71 l4
61 69 0 70 0 -3 -67z m162 -3 l0 -71 -72 3 -73 3 -3 54 c-5 79 -3 81 78 81
l70 0 0 -70z m158 3 l-3 -68 -70 0 -70 0 -3 68 -3 67 76 0 76 0 -3 -67z m-478
-153 l0 -70 -70 0 -70 0 0 70 0 70 70 0 70 0 0 -70z m160 0 l0 -70 -69 0 c-38
0 -71 4 -73 10 -1 5 -1 37 0 70 l4 60 69 0 69 0 0 -70z m160 0 l0 -70 -75 0
-75 0 0 63 c0 35 3 67 7 70 3 4 37 7 75 7 l68 0 0 -70z m158 -2 l3 -68 -76 0
-75 0 0 63 c0 35 3 67 7 71 4 4 37 6 73 4 l65 -3 3 -67z m-11259 -200 c56
-109 68 -144 35 -100 -13 16 -14 16 -7 -3 3 -11 2 -16 -2 -12 -5 4 -9 20 -10
34 0 15 -5 28 -12 30 -7 3 -10 -3 -6 -15 2 -11 -1 -23 -8 -28 -9 -5 -11 -2 -6
9 4 11 1 17 -9 17 -11 0 -13 -7 -8 -26 5 -19 4 -25 -5 -20 -6 4 -11 0 -11 -10
0 -16 2 -15 21 2 20 18 21 18 34 0 8 -11 19 -15 27 -11 11 7 11 5 0 -6 -7 -8
-28 -12 -50 -11 -25 2 -33 0 -23 -6 16 -11 6 -32 -15 -32 -19 0 -18 -9 4 -34
16 -20 16 -20 -2 -6 -18 14 -19 13 -14 -6 3 -12 1 -29 -4 -38 -6 -11 -5 -16 4
-16 10 0 10 -2 -1 -9 -7 -5 -11 -13 -7 -19 3 -6 2 -13 -4 -17 -16 -10 -11 -25
9 -25 10 0 24 -7 31 -15 9 -11 16 -13 24 -5 5 5 16 10 23 10 19 0 55 -39 47
-51 -4 -8 -9 -7 -14 1 -5 8 -13 9 -23 4 -16 -9 -17 -11 -17 -41 0 -16 -2 -16
-11 -3 -8 12 -9 11 -7 -5 2 -12 -9 -32 -29 -51 -18 -17 -33 -34 -33 -37 0 -3
-10 -17 -22 -31 -42 -45 -51 -61 -63 -106 -1 -3 -7 -18 -14 -35 -8 -20 -9 -31
-2 -33 14 -5 14 -29 1 -34 -6 -2 -12 -12 -14 -23 -2 -11 -7 -27 -11 -36 -3 -9
1 -22 11 -30 14 -12 20 -9 46 24 17 20 36 37 44 37 8 0 13 5 11 12 -1 7 5 12
13 13 8 0 15 8 15 17 0 9 4 20 8 24 4 4 7 1 7 -6 0 -8 15 3 34 23 18 20 39 37
47 37 7 0 20 7 30 16 17 15 19 15 34 0 10 -9 13 -21 8 -28 -8 -14 -9 -19 -11
-57 -2 -16 -6 -21 -17 -17 -8 3 -14 0 -12 -6 1 -6 -20 -19 -47 -28 -51 -18
-88 -42 -115 -72 -9 -10 -21 -18 -27 -18 -10 0 -44 -52 -44 -65 0 -1 12 0 28
3 15 2 45 19 67 37 22 17 78 56 125 86 129 83 180 103 195 79 4 -6 12 -8 18
-4 7 3 4 -1 -5 -9 -10 -8 -18 -17 -18 -20 0 -3 8 -4 18 -2 9 1 21 0 25 -2 9
-5 -29 -36 -56 -46 -10 -4 -16 -11 -12 -16 3 -5 0 -13 -6 -17 -7 -4 -9 -3 -5
4 4 6 -1 10 -12 9 -11 0 -19 -8 -18 -17 1 -8 -6 -14 -16 -14 -10 1 -15 -2 -13
-7 3 -4 -8 -15 -25 -24 -17 -9 -28 -20 -25 -24 3 -5 -2 -12 -11 -15 -10 -4
-13 -1 -9 7 3 6 -2 2 -11 -10 -9 -13 -23 -23 -31 -23 -8 0 -12 -4 -9 -9 3 -5
-1 -15 -10 -22 -16 -13 -88 -114 -113 -159 -35 -63 -49 -98 -51 -130 -7 -123
-12 -132 -19 -35 -7 90 -11 76 85 253 37 68 68 134 69 146 3 24 3 24 -26 7
-16 -9 -29 -21 -29 -28 0 -6 -8 -14 -17 -17 -10 -3 -40 -26 -68 -50 -27 -25
-53 -42 -57 -40 -4 3 -5 -2 -2 -10 3 -8 1 -23 -4 -33 -30 -53 -36 231 -8 366
10 46 29 120 42 165 14 44 27 119 30 166 6 114 9 134 46 363 17 109 35 194 38
190 4 -4 35 -61 69 -125z m11297 81 c-19 -23 -26 -42 -26 -75 l0 -44 130 0
c109 0 130 -2 130 -15 0 -17 4 -17 -147 -17 l-113 0 0 -43 0 -43 66 -7 c36 -4
87 -5 113 -1 54 7 81 1 81 -20 0 -11 -26 -14 -131 -14 l-132 0 5 -85 4 -85
-328 0 -328 0 0 85 0 85 -123 0 c-124 0 -145 4 -128 24 6 7 53 11 130 10 l121
-1 0 47 0 48 -112 0 c-145 0 -138 0 -138 17 0 13 21 15 125 15 l125 0 0 47 c0
37 -6 53 -27 75 l-27 28 378 0 378 0 -26 -31z m-1538 -294 c191 -47 460 -112
597 -146 138 -34 254 -65 260 -71 6 -6 4 -19 -8 -39 -9 -17 -17 -43 -17 -59 0
-16 -7 -30 -15 -34 -8 -3 -14 -11 -13 -18 3 -12 1 -13 -74 -23 -48 -6 -56 -16
-39 -44 8 -12 15 -13 33 -4 18 8 30 7 49 -3 23 -13 22 -13 -26 -15 l-50 -3 48
-3 47 -4 2 -372 c2 -338 3 -396 7 -449 1 -15 37 -16 428 -18 323 0 429 -4 435
-13 4 -7 8 -85 8 -174 l0 -163 -524 0 -523 0 5 -25 4 -25 -1182 0 -1182 0 7
28 c3 15 11 29 16 30 5 2 9 8 9 13 0 6 12 36 26 67 15 31 37 80 50 109 13 28
24 55 24 58 0 10 50 109 58 115 29 22 35 85 39 448 l5 372 47 2 46 2 -50 4
c-48 3 -49 4 -26 17 19 9 31 10 49 2 24 -11 41 1 42 29 0 13 -45 24 -96 24
-27 0 -34 4 -34 20 0 11 -4 20 -10 20 -5 0 -10 14 -10 30 0 17 -10 44 -22 60
-13 18 -18 33 -12 38 5 5 133 39 284 75 151 37 419 103 595 146 176 44 326 80
333 80 7 1 169 -37 360 -84z m1517 -457 c3 -19 23 -197 58 -536 l2 -23 -384 1
c-212 0 -387 2 -389 5 -4 3 40 432 54 533 l6 42 324 0 324 0 5 -22z m-9507
-179 c-18 -12 19 -89 42 -89 10 0 34 -13 55 -30 21 -16 44 -30 52 -30 18 0 48
-64 39 -85 -6 -17 -15 -17 -106 0 -25 4 -110 -22 -110 -34 0 -11 34 -36 64
-46 44 -15 32 -30 -21 -28 -88 4 -93 5 -93 19 0 8 -4 14 -9 14 -5 0 -11 10
-13 23 -2 12 -7 22 -13 22 -5 0 -23 9 -38 19 -15 10 -31 16 -35 12 -8 -9 31
-163 55 -214 21 -45 67 -115 87 -131 8 -7 29 -14 48 -17 31 -5 35 -3 57 36 27
48 36 46 27 -4 -8 -43 -50 -79 -80 -70 -72 21 -122 60 -131 102 -5 23 -21 61
-45 100 -11 18 -18 38 -15 43 4 5 -1 12 -9 15 -9 3 -13 10 -10 15 3 5 0 9 -6
9 -6 0 -9 4 -5 9 3 5 -2 16 -10 24 -11 12 -12 17 -2 20 6 3 3 6 -8 7 l-20 1
20 9 c18 8 18 9 -5 10 -23 1 -23 2 -5 10 17 6 14 9 -17 15 -44 8 -69 -2 -45
-20 11 -7 13 -16 6 -26 -7 -11 -9 -11 -9 4 0 11 -8 17 -22 17 -19 0 -20 2 -8
11 12 8 9 10 -12 6 -16 -2 -28 0 -28 4 0 5 -8 9 -17 9 -14 0 -15 -2 -5 -9 16
-10 -16 -21 -61 -21 -19 0 -26 -4 -21 -12 4 -7 3 -8 -4 -4 -7 4 -12 16 -12 27
0 10 -2 19 -4 19 -2 0 -12 3 -22 7 -14 5 -16 3 -10 -13 6 -15 5 -16 -5 -7 -15
14 -39 0 -39 -23 0 -8 -5 -14 -11 -14 -13 0 -8 -42 6 -52 6 -4 1 -8 -10 -8
-16 0 -17 -2 -5 -10 16 -10 13 -11 -35 -24 -11 -3 0 -3 25 -1 32 3 39 1 25 -5
-19 -8 -18 -9 5 -11 24 -2 24 -2 3 -6 -31 -6 -31 -43 -1 -51 21 -5 21 -6 2
-14 -13 -6 -8 -7 16 -3 25 4 31 2 20 -5 -8 -5 -10 -10 -5 -11 6 0 -3 -7 -20
-14 -16 -8 -24 -14 -17 -15 7 0 10 -4 7 -10 -3 -5 1 -10 9 -10 9 0 15 5 14 11
-2 6 3 14 11 17 8 2 11 0 7 -6 -3 -6 0 -13 6 -15 7 -3 4 -6 -7 -7 l-20 -1 20
-10 c16 -7 14 -8 -10 -4 -32 5 -48 -2 -53 -24 -2 -9 3 -11 13 -7 9 3 13 2 10
-4 -3 -6 0 -10 7 -10 7 -1 2 -7 -12 -15 -14 -8 -19 -14 -12 -15 6 0 12 -7 12
-15 0 -8 -6 -15 -12 -15 -9 0 -9 -3 1 -9 8 -5 16 -19 18 -30 1 -11 4 -26 5
-33 2 -8 -6 -13 -19 -12 -13 0 -20 -4 -16 -10 3 -6 -3 -2 -14 9 -15 14 -18 24
-10 33 7 9 6 11 -8 6 -13 -5 -16 -4 -11 4 4 7 2 12 -4 12 -6 0 -8 5 -5 10 3 6
2 10 -4 10 -5 0 -8 9 -6 20 2 11 -1 20 -6 20 -6 0 -8 4 -5 9 4 5 2 11 -3 13
-5 1 -11 10 -13 18 -2 8 -6 18 -11 21 -4 3 -10 16 -12 29 -2 13 -8 26 -13 29
-5 3 -8 14 -6 24 1 9 -2 17 -7 17 -5 0 -9 -6 -9 -14 0 -30 71 -190 109 -247
22 -33 36 -59 32 -59 -21 0 -56 40 -78 89 -14 31 -36 80 -49 108 -13 29 -26
64 -30 78 -3 14 -13 25 -23 25 -14 0 -14 2 -1 10 13 9 13 11 0 20 -8 5 -10 10
-5 10 6 0 3 5 -5 11 -11 8 -12 12 -2 16 6 2 12 14 12 24 0 11 -4 17 -10 14 -5
-3 -10 2 -10 11 0 15 -2 16 -12 5 -11 -10 -9 -15 6 -27 18 -13 18 -14 2 -14
-12 0 -16 -6 -12 -17 2 -10 7 -45 10 -78 l5 -60 -14 55 c-8 30 -15 102 -16
159 l-2 103 -18 -38 c-16 -33 -23 -38 -21 -13 1 3 -5 6 -13 6 -8 0 -12 -4 -9
-9 4 -5 0 -8 -7 -7 -24 5 -69 -11 -69 -24 0 -8 -4 -7 -10 3 -14 21 -13 -5 0
-30 8 -16 7 -18 -4 -14 -9 3 -18 14 -21 24 -3 10 -13 21 -22 24 -13 5 -13 9
-2 22 11 14 10 18 -6 30 -22 17 -33 10 -16 -10 10 -12 9 -20 -4 -40 -16 -24
-34 -38 -20 -16 3 6 1 10 -4 10 -6 0 -11 5 -11 10 0 6 8 10 18 10 10 0 13 3 6
8 -18 12 -12 112 7 123 9 5 20 20 23 34 7 28 18 30 83 13 42 -10 44 -12 28
-24 -29 -21 -11 -27 25 -9 32 17 96 12 85 -6 -12 -18 30 5 47 27 40 50 155 71
216 40 23 -12 38 -12 97 -1 39 7 96 16 128 20 56 6 59 6 53 -13 -5 -15 -1 -22
15 -27 24 -8 36 4 45 45 3 14 7 30 9 36 5 16 83 36 115 29 23 -5 31 -1 50 25
21 30 23 30 40 13 9 -10 13 -21 8 -24z m-1332 -30 c3 -6 1 -15 -6 -19 -7 -5
-2 -7 14 -7 15 0 30 -3 33 -7 8 -8 -49 -52 -62 -48 -5 2 -7 1 -3 -3 3 -4 0
-21 -7 -40 -8 -18 -11 -36 -7 -40 4 -5 1 -5 -6 -1 -8 5 -18 -7 -31 -37 -11
-25 -24 -48 -30 -51 -6 -4 -11 -12 -11 -17 0 -6 5 -7 12 -3 7 4 8 3 4 -4 -10
-16 -17 -49 -22 -102 -2 -24 -6 -50 -8 -57 -3 -7 -1 -15 4 -18 5 -3 7 -12 4
-19 -3 -7 2 -21 12 -30 9 -9 14 -20 10 -23 -3 -3 0 -13 6 -21 7 -7 13 -22 15
-33 6 -37 8 -44 18 -51 6 -5 5 -12 -3 -20 -6 -6 -12 -20 -12 -30 0 -10 -4 -18
-10 -18 -5 0 -10 7 -10 15 0 9 -8 19 -17 23 -12 4 -19 19 -20 41 0 20 -8 38
-17 43 -9 5 -14 13 -11 19 4 5 2 9 -4 9 -5 0 -10 8 -10 18 0 50 -10 87 -23 84
-10 -2 -9 1 2 10 10 9 15 30 14 68 -1 30 2 65 7 76 5 14 2 29 -8 43 -8 12 -12
25 -8 29 3 3 10 0 15 -8 7 -11 10 -8 10 13 0 15 -5 27 -12 27 -6 0 -8 -3 -5
-7 4 -3 -2 -12 -13 -20 -11 -8 -20 -20 -20 -27 0 -7 -9 -21 -20 -31 -17 -16
-18 -19 -3 -33 14 -14 13 -16 -6 -24 -11 -4 -21 -9 -21 -11 0 -2 -9 -39 -21
-83 -42 -158 -53 -241 -54 -402 0 -98 -6 -126 -18 -81 -10 37 11 290 33 403
44 227 93 341 161 374 30 15 39 17 35 6 -3 -8 -1 -14 4 -14 6 0 10 5 10 11 0
5 4 7 10 4 6 -3 7 1 4 9 -3 9 -10 16 -15 16 -4 0 -6 7 -3 15 4 8 10 12 15 9 8
-5 13 9 10 29 0 4 4 7 10 7 7 0 9 -9 5 -24 -4 -15 -1 -26 7 -29 9 -4 8 -8 -3
-16 -8 -6 -10 -11 -5 -11 6 1 19 7 29 15 16 12 17 15 4 15 -12 0 -16 9 -14 34
1 19 -2 32 -6 30 -4 -3 -5 2 -2 10 9 23 58 33 70 15z m-151 -51 c-99 -76 -230
-223 -181 -205 20 8 21 -7 1 -23 -8 -7 -12 -16 -10 -21 3 -4 -3 -13 -14 -18
-14 -8 -21 -8 -25 2 -3 6 -3 2 -1 -9 4 -13 -1 -29 -11 -39 -13 -13 -14 -19 -5
-25 9 -5 10 -10 2 -14 -6 -4 -11 -16 -11 -27 0 -10 -4 -19 -10 -19 -5 0 -14
-19 -20 -42 -29 -116 -55 -198 -62 -198 -4 0 -8 2 -8 4 0 20 93 384 105 409
37 78 137 182 215 223 57 30 73 30 35 2z m413 -23 c3 -2 0 -11 -6 -18 -7 -8
-8 -18 -4 -22 4 -5 2 -5 -4 -2 -7 4 -17 0 -24 -8 -10 -12 -10 -18 0 -30 11
-13 10 -14 -2 -10 -15 6 -27 -10 -34 -45 -20 -92 -23 -174 -11 -265 5 -33 9
-69 8 -80 0 -10 5 -25 11 -32 9 -11 6 -12 -12 -5 -15 5 -24 18 -25 32 -1 13
-7 26 -13 28 -7 2 -12 10 -12 18 0 9 5 13 13 9 6 -4 5 -1 -3 7 -9 7 -16 29
-15 50 0 20 -4 34 -9 30 -5 -3 -6 8 -3 26 5 25 2 35 -16 48 -20 15 -20 16 -2
12 15 -4 20 1 21 19 2 22 1 23 -12 6 -12 -16 -13 -15 -13 17 0 53 23 106 58
135 19 17 31 36 31 51 0 14 -4 22 -10 19 -5 -3 -10 3 -10 13 0 18 4 19 47 11
25 -5 48 -11 51 -14z m1489 -1405 c14 -11 29 -18 33 -15 9 6 24 -24 21 -42 -1
-7 3 -13 9 -13 5 0 10 -7 10 -15 0 -18 37 -20 42 -3 9 25 28 -6 28 -45 0 -23
4 -37 8 -32 9 13 62 19 62 7 0 -5 9 -12 20 -15 13 -3 18 -10 14 -21 -3 -9 -10
-14 -14 -11 -4 3 -11 -5 -15 -18 -7 -21 -8 -20 -14 8 -5 25 -8 27 -14 12 -4
-11 -5 -23 -1 -28 3 -5 0 -9 -5 -9 -6 0 -11 7 -11 15 0 8 -4 15 -10 15 -5 0
-7 -8 -4 -17 5 -17 5 -17 -6 0 -6 9 -8 22 -5 27 3 6 1 10 -4 10 -6 0 -11 -8
-12 -17 0 -11 -3 -13 -6 -5 -11 29 -23 8 -25 -45 -1 -55 -1 -55 -7 19 -7 81
-16 102 -31 78 -7 -11 -5 -19 7 -27 13 -10 14 -13 2 -13 -12 0 -12 -2 1 -10
10 -6 11 -10 3 -10 -7 0 -12 -3 -12 -7 4 -22 -3 -32 -16 -27 -8 4 -15 14 -15
24 0 11 -4 22 -10 25 -12 8 -13 62 -1 69 5 4 7 -3 4 -14 -3 -13 0 -20 9 -20
14 0 23 39 10 41 -43 5 -52 4 -52 -7 0 -13 -29 -28 -38 -19 -3 3 0 5 6 5 6 0
9 8 6 18 -5 14 -4 15 5 2 9 -12 11 -11 11 8 0 12 -5 22 -11 22 -5 0 -7 5 -4
10 3 6 -1 10 -9 10 -9 0 -16 6 -16 14 0 17 38 28 43 12 2 -6 6 1 9 17 3 15 1
30 -5 34 -5 3 -7 1 -3 -5 3 -6 1 -14 -5 -18 -7 -4 -9 -3 -6 2 3 6 2 16 -4 24
-6 11 -9 8 -9 -12 0 -29 -13 -37 -26 -16 -4 7 -3 8 4 4 8 -5 12 2 12 18 0 31
13 33 47 6z m-1386 -180 c4 0 11 5 14 10 4 7 13 7 24 0 12 -6 22 -5 31 3 8 7
10 7 7 1 -7 -12 80 -64 107 -64 9 0 16 -6 16 -12 0 -9 4 -8 11 2 7 11 8 6 4
-20 -8 -38 -51 -103 -65 -95 -4 2 -13 -2 -20 -10 -10 -12 -10 -15 1 -15 10 0
10 -3 1 -12 -8 -8 -8 -17 0 -32 8 -15 8 -21 -1 -24 -6 -2 -9 -8 -5 -13 3 -5
-3 -20 -13 -33 -15 -19 -23 -22 -37 -14 -9 5 -24 7 -32 4 -9 -3 -14 1 -14 12
0 10 -3 13 -8 7 -12 -17 -32 -16 -33 3 0 14 -2 14 -9 -3 -8 -19 -9 -19 -9 3
-1 12 -5 22 -10 22 -15 0 -54 89 -48 110 3 10 1 20 -4 22 -6 2 -10 21 -10 43
1 60 3 75 13 69 4 -3 8 0 8 6 0 7 7 9 16 6 13 -5 15 -2 11 14 -3 12 -1 17 5
14 5 -3 12 4 15 17 l6 23 10 -22 c6 -12 14 -22 18 -22z m2514 -821 c-4 -6 -1
-9 6 -8 8 1 27 -1 43 -6 16 -4 49 -8 73 -9 25 0 42 -5 40 -11 -2 -5 -12 -9
-21 -9 -9 1 -16 -3 -16 -10 0 -6 -5 -4 -10 4 -6 10 -10 11 -10 3 0 -7 -8 -13
-18 -13 -10 0 -28 -9 -39 -19 -12 -11 -24 -17 -27 -14 -3 4 -6 1 -6 -5 0 -7
-11 -12 -24 -12 -14 0 -28 -5 -31 -10 -4 -6 -11 -8 -16 -5 -5 4 -9 2 -9 -3 0
-9 -8 -11 -55 -14 -14 -1 -25 -8 -25 -15 0 -7 -7 -10 -15 -7 -8 4 -26 -1 -39
-9 -17 -12 -26 -13 -35 -4 -8 8 -11 5 -12 -14 0 -22 -1 -22 -9 -4 -6 14 -9 15
-10 5 -1 -10 -4 -9 -10 5 -8 19 -9 19 -9 -1 -1 -27 -30 -41 -32 -16 -1 9 -5 4
-9 -13 -6 -25 -8 -26 -9 -7 -1 21 -3 22 -16 8 -8 -8 -15 -21 -15 -28 0 -10 -2
-10 -9 1 -8 12 -12 12 -25 2 -13 -11 -16 -11 -16 0 0 12 -2 12 -9 0 -5 -8 -16
-11 -25 -8 -9 4 -19 -1 -25 -11 -9 -15 -11 -14 -20 8 -8 22 -10 22 -11 5 l-1
-20 -9 20 c-8 18 -9 18 -9 2 -1 -10 -5 -15 -11 -12 -5 3 -10 -2 -11 -12 0 -10
-3 -13 -6 -6 -3 9 -10 10 -24 3 -10 -6 -19 -8 -19 -4 0 4 -9 -1 -20 -11 -19
-17 -20 -17 -20 -1 0 11 -4 14 -12 9 -18 -11 -42 -10 -50 2 -4 6 -8 1 -8 -10
0 -17 -2 -17 -10 -5 -5 8 -10 10 -10 5 0 -6 -10 -11 -22 -11 -13 -1 -41 -4
-63 -8 -133 -25 -123 -10 25 38 66 22 118 41 116 44 -2 2 -48 -11 -102 -28
-54 -17 -135 -36 -179 -41 -90 -10 -282 -12 -272 -3 3 4 59 8 124 10 100 4
142 9 238 30 6 1 46 16 89 34 44 17 102 36 130 41 28 5 52 13 54 18 2 5 38 22
80 37 42 15 79 30 82 33 3 3 23 7 44 8 22 0 45 7 50 15 6 7 31 14 56 15 25 1
60 5 78 8 17 3 44 7 60 9 78 13 108 21 120 33 16 16 26 17 17 2z m8075 -384
l140 140 140 -140 140 -140 137 138 138 137 137 -137 138 -138 -137 -137 -138
-138 138 -138 137 -137 -137 -138 -138 -137 138 -137 137 -138 -137 -137 -138
-138 -137 137 -138 138 -140 -140 -140 -140 -140 140 -140 140 -138 -138 -137
-137 -138 138 -137 137 137 138 138 137 -138 137 -137 138 137 137 138 138
-138 137 -137 138 137 137 138 138 137 -137 138 -138 140 140z"/>
<path d="M4425 5698 c-10 -6 -48 -12 -85 -13 -68 -2 -160 -23 -172 -39 -4 -6
-2 -16 4 -24 9 -10 8 -16 -3 -23 -9 -5 9 -8 51 -8 36 1 86 -2 113 -6 32 -5 47
-4 47 4 0 6 6 11 13 11 20 1 65 43 76 71 14 39 -4 50 -44 27z"/>
<path d="M13200 2345 l-135 -135 135 -135 135 -135 135 135 135 135 -135 135
-135 135 -135 -135z"/>
<path d="M13750 2345 l-135 -135 135 -135 135 -135 135 135 135 135 -135 135
-135 135 -135 -135z"/>
<path d="M13192 1787 l-133 -133 136 -134 136 -133 137 136 137 137 -130 130
c-71 71 -134 130 -140 130 -6 0 -70 -60 -143 -133z"/>
<path d="M13745 1790 l-130 -130 136 -136 135 -135 138 132 137 132 -133 134
c-73 73 -137 133 -143 133 -6 0 -69 -59 -140 -130z"/>
<path d="M24002 12123 c3 -562 4 -569 27 -638 35 -108 87 -193 165 -271 78
-77 163 -130 271 -166 l70 -23 2188 -3 2188 -2 -3 567 c-3 562 -4 569 -27 638
-35 108 -87 193 -165 271 -78 77 -163 130 -271 166 l-70 23 -2188 3 -2188 2 3
-567z m4403 492 c33 -9 89 -30 125 -47 88 -43 213 -168 257 -258 63 -128 63
-132 63 -707 l0 -523 -2143 0 c-2364 0 -2188 -5 -2327 63 -89 43 -214 168
-257 257 -63 128 -63 132 -63 707 l0 523 2143 0 c1899 0 2150 -2 2202 -15z"/>
<path d="M28181 12460 c-18 -5 -50 -24 -69 -44 -31 -30 -36 -43 -40 -93 -3
-49 0 -64 20 -93 84 -125 278 -69 278 80 0 101 -90 172 -189 150z"/>
<path d="M24402 12302 c1 -4 63 -117 136 -249 l132 -241 0 -196 0 -196 150 0
150 0 0 198 -1 197 -143 245 -143 245 -143 3 c-78 1 -140 -1 -138 -6z"/>
<path d="M24730 12295 c0 -4 256 -432 265 -443 2 -2 61 92 132 209 70 117 132
219 136 226 6 11 -43 13 -263 13 -148 0 -270 -2 -270 -5z"/>
<path d="M27774 12229 c-116 -11 -190 -67 -220 -166 -26 -83 -5 -160 58 -219
42 -40 74 -56 168 -84 92 -28 146 -54 154 -75 24 -64 -18 -120 -89 -120 -59 0
-96 29 -114 88 l-14 46 -86 -5 c-47 -3 -92 -7 -98 -10 -32 -9 5 -128 59 -189
55 -63 107 -80 243 -80 101 0 115 2 168 29 133 65 186 235 113 360 -41 70
-113 109 -281 152 -68 18 -95 37 -95 68 0 27 9 40 37 55 51 27 129 -6 140 -59
5 -30 6 -30 72 -29 36 0 82 3 102 7 l36 7 -12 47 c-35 137 -147 196 -341 177z"/>
<path d="M26848 12198 c-15 -32 -14 -32 40 -110 30 -43 58 -78 62 -78 7 0 130
204 130 215 0 3 -49 5 -108 5 l-108 0 -16 -32z"/>
<path d="M26462 12093 c44 -71 96 -152 114 -181 19 -29 34 -56 34 -61 0 -5
-58 -99 -130 -209 -71 -110 -130 -203 -130 -206 0 -3 53 -6 119 -6 l118 0 68
110 c38 61 71 113 75 115 3 2 37 -47 76 -108 l70 -112 123 -3 123 -3 -19 28
c-11 15 -127 193 -257 396 l-238 367 -114 0 -114 0 82 -127z"/>
<path d="M27227 12214 c-4 -4 -7 -150 -7 -324 l0 -317 50 -71 51 -72 49 0 50
0 -2 393 -3 392 -90 3 c-50 1 -94 0 -98 -4z"/>
<path d="M25676 11830 c-70 -210 -126 -383 -123 -386 3 -3 54 -7 114 -7 l108
-2 17 50 16 50 118 0 118 0 15 -47 15 -48 117 0 117 0 -127 383 -128 382 -124
3 -124 3 -129 -381z m293 -8 c17 -62 31 -115 31 -117 0 -3 -34 -5 -76 -5 -57
0 -75 3 -72 13 3 6 20 65 38 130 19 64 37 112 41 105 4 -7 21 -64 38 -126z"/>
<path d="M25110 11790 l0 -60 195 0 195 0 0 60 0 60 -195 0 -195 0 0 -60z"/>
<path d="M4595 10453 c-64 -16 -113 -92 -99 -155 15 -72 62 -108 140 -108 41
0 51 5 85 39 34 34 39 44 39 85 0 64 -23 104 -73 127 -43 19 -56 21 -92 12z"/>
<path d="M5523 10439 c-46 -14 -83 -62 -83 -110 0 -80 49 -129 128 -129 45 0
84 26 107 70 31 61 5 132 -59 161 -46 21 -48 21 -93 8z"/>
<path d="M6455 10398 c-32 -18 -44 -40 -45 -80 0 -28 7 -42 31 -62 35 -30 58
-32 98 -11 77 40 46 166 -41 165 -13 0 -32 -6 -43 -12z"/>
<path d="M5945 9581 c-81 -36 -133 -129 -122 -214 8 -59 55 -127 107 -154 37
-20 56 -24 111 -21 77 4 123 29 163 91 88 136 -11 317 -174 317 -25 0 -63 -9
-85 -19z"/>
<path d="M6879 9517 c-45 -30 -74 -100 -65 -153 11 -53 68 -109 123 -118 56
-10 125 20 153 66 27 44 27 120 0 163 -40 65 -146 86 -211 42z"/>
<path d="M7845 9445 c-30 -30 -32 -64 -4 -99 26 -33 79 -36 109 -6 30 30 27
83 -6 109 -35 28 -69 26 -99 -4z"/>
<path d="M6419 8721 c-14 -5 -36 -14 -50 -21 -27 -14 -99 -80 -99 -92 0 -4 50
-44 110 -88 l110 -82 0 -119 0 -119 -225 0 c-143 0 -225 -4 -225 -10 0 -6 103
-9 293 -8 160 1 265 4 232 7 l-60 6 40 8 c90 19 180 96 203 175 15 48 15 125
2 173 -14 52 -85 128 -145 155 -51 24 -132 31 -186 15z"/>
<path d="M7355 8631 c-45 -20 -92 -70 -101 -107 -13 -51 1 -131 30 -168 82
-108 250 -93 312 26 20 39 21 126 1 163 -46 90 -152 127 -242 86z"/>
<path d="M8320 8547 c-65 -33 -65 -126 1 -161 40 -22 78 -17 109 14 43 43 32
118 -21 145 -34 18 -56 19 -89 2z"/>
<path d="M16612 8412 c-165 -59 -256 -234 -207 -398 35 -120 124 -199 278
-250 115 -38 137 -50 153 -91 31 -73 -25 -143 -113 -143 -51 0 -99 36 -111 83
l-8 32 -129 3 -128 3 6 -52 c9 -71 55 -165 108 -218 24 -24 73 -58 109 -75 59
-28 74 -31 160 -31 88 0 101 3 162 33 84 41 158 120 188 200 18 47 21 72 18
142 -5 99 -27 157 -84 220 -53 58 -92 81 -214 125 -58 20 -115 46 -127 58 -29
26 -30 70 -3 97 36 36 125 19 136 -27 6 -23 8 -23 136 -23 l130 0 -7 43 c-9
58 -46 136 -84 180 -79 89 -252 131 -369 89z"/>
<path d="M17160 8280 l0 -130 110 0 110 0 0 -430 0 -430 125 0 125 0 0 430 0
430 110 0 110 0 0 130 0 130 -345 0 -345 0 0 -130z"/>
<path d="M17962 8008 l3 -403 31 -65 c58 -121 143 -194 268 -232 171 -52 360
17 463 170 72 107 73 116 73 549 l0 383 -125 0 -125 0 0 -346 c0 -221 -4 -361
-11 -389 -21 -83 -108 -137 -195 -121 -47 9 -111 68 -124 114 -6 22 -10 182
-10 390 l0 352 -125 0 -126 0 3 -402z"/>
<path d="M18920 7851 l0 -561 148 0 c241 0 349 37 478 165 112 111 164 233
164 390 0 242 -150 450 -386 537 -50 18 -86 22 -231 26 l-173 4 0 -561z m347
279 c63 -28 137 -102 164 -163 16 -38 23 -72 23 -122 1 -126 -71 -230 -191
-275 -90 -34 -83 -58 -83 280 l0 300 23 0 c12 0 41 -9 64 -20z"/>
<path d="M19690 8406 c0 -2 38 -83 85 -181 47 -97 85 -178 85 -179 0 -2 37
-79 81 -172 45 -93 92 -192 104 -220 l23 -51 -45 -109 c-25 -60 -53 -130 -64
-156 l-19 -48 139 0 139 0 226 554 c124 305 226 557 226 560 0 3 -62 6 -137 6
l-138 0 -94 -235 c-52 -129 -98 -235 -101 -235 -4 0 -23 35 -43 78 -19 42 -69
148 -111 235 l-76 157 -140 0 c-77 0 -140 -2 -140 -4z"/>
<path d="M21090 7850 l0 -560 125 0 125 0 0 560 0 560 -125 0 -125 0 0 -560z"/>
<path d="M22138 8085 l-3 -324 -180 319 -179 320 -138 0 -138 0 0 -555 0 -555
125 0 125 0 1 323 c0 306 1 321 17 298 9 -14 91 -158 182 -320 l165 -296 138
-3 137 -3 0 561 0 560 -125 0 -125 0 -2 -325z"/>
<path d="M6076 8025 l36 -35 254 0 254 0 0 35 0 35 -290 0 -290 0 36 -35z"/>
<path d="M5986 8005 c5 -11 16 -34 26 -52 28 -46 38 -87 48 -192 10 -91 9 -95
-20 -161 -29 -66 -36 -90 -25 -90 3 0 21 10 40 23 24 15 37 32 41 56 20 103
-33 349 -88 406 -22 22 -27 25 -22 10z"/>
<path d="M6191 7838 c5 -18 9 -34 9 -35 0 -2 95 -3 210 -3 l210 0 0 35 0 35
-219 0 -220 0 10 -32z"/>
<path d="M6890 7811 c-120 -39 -197 -132 -207 -251 -11 -116 60 -233 169 -280
73 -31 185 -25 251 13 197 116 185 408 -21 500 -50 21 -152 31 -192 18z"/>
<path d="M9804 7753 c5 -10 -6 -13 -44 -13 l-52 0 29 -34 28 -35 112 0 112 -1
25 33 25 32 -106 3 c-65 2 -113 8 -122 15 -12 9 -13 9 -7 0z"/>
<path d="M7812 7699 c-25 -13 -55 -39 -70 -61 l-26 -40 3 -314 c2 -255 0 -314
-11 -315 -7 0 -48 0 -90 0 l-78 0 0 -34 0 -35 -225 0 -225 0 0 -105 0 -105
624 0 c605 0 716 -3 716 -21 0 -5 -22 -9 -50 -9 l-50 0 0 -84 0 -84 56 -4 c36
-2 64 2 75 10 50 35 64 132 28 191 -13 22 -37 40 -70 54 l-49 21 0 68 0 68
-225 0 -225 0 0 35 0 35 -90 0 -90 0 0 206 0 206 38 -5 c20 -3 58 -10 83 -17
38 -9 53 -8 90 6 24 9 54 16 67 16 12 0 22 6 22 13 0 7 10 34 21 60 73 165
-89 323 -249 244z"/>
<path d="M6220 7666 c0 -8 -3 -21 -6 -30 -5 -14 16 -16 200 -16 l206 0 0 30 0
30 -200 0 c-166 0 -200 -2 -200 -14z"/>
<path d="M8795 7609 c-49 -28 -59 -78 -24 -123 44 -55 139 -21 139 51 0 58
-66 100 -115 72z"/>
<path d="M6200 7474 c-6 -14 -10 -30 -10 -35 0 -5 88 -9 215 -9 l215 0 0 35 0
35 -205 0 -205 0 -10 -26z"/>
<path d="M9740 7395 l0 -35 135 0 135 0 0 35 0 35 -135 0 -135 0 0 -35z"/>
<path d="M6070 7299 c6 -10 10 -27 10 -38 0 -21 4 -21 270 -21 l270 0 0 35 0
35 -257 1 c-142 1 -268 3 -280 4 -19 2 -21 -1 -13 -16z"/>
<path d="M9590 7200 l0 -50 290 0 290 0 0 50 0 50 -290 0 -290 0 0 -50z"/>
<path d="M9714 6913 l1 -58 50 -3 c28 -2 101 -1 163 3 l112 7 0 54 0 54 -164
0 -164 0 2 -57z"/>
<path d="M6333 6933 l-293 -3 0 -30 0 -30 290 0 290 0 0 -60 0 -60 -290 0
-290 0 0 -35 0 -35 290 0 290 0 0 -60 0 -60 -290 0 -290 0 0 -35 0 -35 290 0
290 0 0 -60 0 -60 -290 0 -290 0 0 -35 0 -35 289 0 c222 0 290 -3 294 -12 7
-20 91 28 138 79 125 136 128 340 6 479 -34 40 -114 95 -131 92 -6 -2 -143 -4
-303 -5z"/>
<path d="M7177 6653 c-4 -3 -7 -42 -7 -85 l0 -78 95 0 95 0 0 85 0 85 -88 0
c-49 0 -92 -3 -95 -7z"/>
<path d="M7404 6647 c-3 -8 -4 -45 -2 -83 l3 -69 93 -3 92 -3 0 86 0 85 -90 0
c-67 0 -92 -4 -96 -13z"/>
<path d="M7640 6576 l0 -86 90 0 90 0 0 80 0 80 -59 0 c-32 0 -73 3 -90 6
l-31 7 0 -87z"/>
<path d="M8168 6653 l-68 -4 0 -79 0 -80 95 0 96 0 -3 83 c-3 94 7 87 -120 80z"/>
<path d="M7870 6570 l0 -80 90 0 90 0 0 80 0 80 -90 0 -90 0 0 -80z"/>
<path d="M5471 6529 c-6 -18 -11 -34 -11 -35 0 -2 72 -4 160 -4 l160 0 0 35 0
35 -149 0 -149 0 -11 -31z"/>
<path d="M18540 6499 c0 -5 72 -227 159 -492 88 -265 188 -569 222 -674 l63
-193 158 0 c87 0 158 3 158 6 0 8 140 625 147 649 5 16 112 -364 177 -628 l7
-28 156 3 156 3 193 660 c107 363 197 670 200 683 l6 22 -164 0 -165 0 -98
-337 c-54 -186 -102 -353 -107 -371 -5 -19 -12 -32 -14 -29 -4 3 -141 514
-185 685 l-13 52 -155 -2 -155 -3 -83 -365 c-45 -201 -83 -367 -83 -370 -1
-21 -35 72 -137 382 l-117 358 -163 0 c-107 0 -163 -4 -163 -11z"/>
<path d="M20690 6355 l0 -155 245 0 c135 0 245 -3 245 -6 0 -6 -104 -203 -390
-734 -75 -140 -145 -270 -154 -287 l-17 -33 541 0 540 0 0 155 0 155 -275 0
c-151 0 -275 3 -275 6 0 3 52 104 116 223 64 119 153 284 197 366 45 83 118
219 164 304 46 84 83 155 83 157 0 2 -229 4 -510 4 l-510 0 0 -155z"/>
<path d="M27450 5824 l0 -686 208 4 c191 4 213 7 287 31 208 69 367 224 436
427 30 90 38 260 15 362 -31 140 -120 290 -222 373 -157 128 -314 175 -581
175 l-143 0 0 -686z m428 336 c66 -29 155 -120 188 -193 25 -54 29 -74 29
-152 0 -77 -4 -98 -27 -147 -48 -104 -163 -191 -269 -205 l-39 -6 0 368 0 367
38 -7 c20 -3 56 -15 80 -25z"/>
<path d="M17190 6110 c0 -214 -3 -390 -7 -390 -5 1 -105 174 -223 385 l-215
385 -172 0 -173 0 0 -675 0 -675 155 0 155 0 0 392 c0 271 3 389 10 382 6 -6
106 -181 223 -390 l212 -379 173 -3 172 -2 0 680 0 680 -155 0 -155 0 0 -390z"/>
<path d="M17650 5820 l0 -680 435 0 435 0 0 155 0 155 -280 0 -280 0 0 110 0
110 230 0 230 0 0 155 0 155 -230 0 -230 0 0 105 0 105 280 0 280 0 0 155 0
155 -435 0 -435 0 0 -680z"/>
<path d="M21870 5820 l0 -680 435 0 435 0 0 155 0 155 -280 0 -280 0 0 110 0
110 230 0 230 0 0 155 0 155 -230 0 -230 0 0 105 0 105 280 0 280 0 0 155 0
155 -435 0 -435 0 0 -680z"/>
<path d="M23267 6483 c-3 -10 -80 -238 -172 -508 -91 -269 -193 -568 -225
-662 l-59 -173 167 0 168 0 24 83 25 82 216 3 215 2 24 -77 c13 -43 27 -81 30
-86 4 -4 79 -6 167 -5 l161 3 -218 675 -217 675 -150 3 c-137 2 -151 1 -156
-15z m207 -704 c25 -80 46 -149 46 -152 0 -4 -48 -7 -106 -7 -81 0 -105 3
-101 13 2 6 26 78 53 159 26 81 51 144 55 140 4 -4 28 -73 53 -153z"/>
<path d="M24100 5820 l0 -680 405 0 405 0 0 155 0 155 -250 0 -250 0 0 525 0
525 -155 0 -155 0 0 -680z"/>
<path d="M25397 6483 c-3 -10 -80 -238 -172 -508 -91 -269 -193 -568 -225
-662 l-59 -173 167 0 168 0 24 83 25 82 216 3 216 2 25 -82 26 -83 165 -3 165
-2 -13 42 c-7 24 -36 115 -65 203 -28 88 -71 221 -95 295 -24 74 -67 207 -95
295 -28 88 -78 241 -109 340 l-58 180 -150 3 c-137 2 -151 1 -156 -15z m207
-704 c25 -80 46 -149 46 -153 0 -3 -48 -6 -106 -6 -81 0 -105 3 -101 13 2 6
26 78 53 159 26 81 51 144 55 140 4 -4 28 -73 53 -153z"/>
<path d="M27020 6110 c0 -214 -3 -390 -7 -390 -5 1 -105 174 -223 385 l-215
385 -172 0 -173 0 0 -675 0 -675 155 0 155 0 0 392 c0 281 3 389 11 381 6 -6
106 -181 222 -389 l212 -379 173 -3 172 -2 0 680 0 680 -155 0 -155 0 0 -390z"/>
<path d="M7138 6453 l-88 -4 0 -84 0 -85 680 0 680 0 0 85 0 85 -278 0 c-153
0 -420 2 -593 4 -173 2 -353 2 -401 -1z"/>
<path d="M5460 6335 l0 -35 160 0 160 0 0 35 0 35 -160 0 -160 0 0 -35z"/>
<path d="M6860 6155 l0 -85 870 0 870 0 0 85 0 85 -870 0 -870 0 0 -85z"/>
<path d="M5458 6150 l-5 -30 164 0 163 0 0 30 0 30 -159 0 -159 0 -4 -30z"/>
<path d="M6040 6150 l0 -30 290 0 290 0 0 30 0 30 -290 0 -290 0 0 -30z"/>
<path d="M6660 5945 l0 -85 1065 0 1065 0 0 85 0 85 -1065 0 -1065 0 0 -85z"/>
<path d="M5510 5965 l0 -35 135 0 135 0 0 35 0 35 -135 0 -135 0 0 -35z"/>
<path d="M6040 5965 l0 -35 290 0 290 0 0 35 0 35 -290 0 -290 0 0 -35z"/>
<path d="M6580 5819 c-74 -4 -226 -7 -337 -8 l-203 -1 0 -35 0 -35 220 0 220
0 0 -45 0 -45 1250 0 1250 0 0 85 0 85 -477 1 c-263 0 -773 1 -1133 3 -360 1
-716 -1 -790 -5z"/>
<path d="M17810 1850 l0 -100 100 0 100 0 0 100 0 100 -100 0 -100 0 0 -100z"/>
<path d="M17380 1850 l0 -90 90 0 90 0 0 90 0 90 -90 0 -90 0 0 -90z"/>
<path d="M18270 1850 l0 -90 90 0 90 0 0 90 0 90 -90 0 -90 0 0 -90z"/>
<path d="M18740 1850 l0 -70 65 0 65 0 0 70 0 70 -65 0 -65 0 0 -70z"/>
<path d="M16960 1845 l0 -66 63 3 62 3 3 63 3 62 -66 0 -65 0 0 -65z"/>
<path d="M17770 1405 l0 -145 145 0 145 0 0 145 0 145 -145 0 -145 0 0 -145z"/>
<path d="M17340 1405 l0 -125 125 0 125 0 0 125 0 125 -125 0 -125 0 0 -125z"/>
<path d="M18230 1405 l0 -125 130 0 130 0 0 125 0 125 -130 0 -130 0 0 -125z"/>
<path d="M18710 1405 l0 -95 95 0 95 0 0 95 0 95 -95 0 -95 0 0 -95z"/>
<path d="M17740 955 l0 -175 175 0 175 0 0 175 0 175 -175 0 -175 0 0 -175z"/>
<path d="M18210 955 l0 -145 150 0 150 0 0 145 0 145 -150 0 -150 0 0 -145z"/>
<path d="M18700 955 l0 -105 105 0 105 0 0 105 0 105 -105 0 -105 0 0 -105z"/>
<path d="M17770 510 l0 -150 145 0 145 0 0 150 0 150 -145 0 -145 0 0 -150z"/>
<path d="M18230 510 l0 -130 130 0 130 0 0 130 0 130 -130 0 -130 0 0 -130z"/>
<path d="M18710 510 l0 -90 95 0 95 0 0 90 0 90 -95 0 -95 0 0 -90z"/>
<path d="M18270 80 l0 -80 90 0 90 0 0 80 0 80 -90 0 -90 0 0 -80z"/>
<path d="M18740 65 l0 -65 70 0 70 0 0 65 0 65 -70 0 -70 0 0 -65z"/>
</g>
</svg>
