<?xml version="1.0" standalone="no"?>
<!DOCTYPE svg PUBLIC "-//W3C//DTD SVG 20010904//EN"
 "http://www.w3.org/TR/2001/REC-SVG-20010904/DTD/svg10.dtd">
<svg version="1.0" xmlns="http://www.w3.org/2000/svg"
 width="3004.000000pt" height="1325.000000pt" viewBox="0 0 3004.000000 1325.000000"
 preserveAspectRatio="xMidYMid meet">
<metadata>
Created by potrace 1.16, written by Peter Selinger 2001-2019
</metadata>
<g transform="translate(0.000000,1325.000000) scale(0.100000,-0.100000)"
fill="#000000" stroke="none">
<path d="M0 6625 l0 -6625 4474 0 4475 0 89 128 c187 266 429 651 552 877 24
44 44 81 45 83 2 2 50 7 107 11 115 10 92 0 368 144 269 139 515 225 800 281
268 52 138 50 3360 56 l3025 5 40 22 c78 44 117 91 136 167 26 105 -29 217
-129 264 l-57 27 -3015 0 c-3229 0 -3097 2 -3406 -50 -342 -58 -625 -152 -999
-333 l-200 -97 -415 0 -415 0 -205 102 c-416 206 -722 299 -1185 361 -106 14
-403 16 -2566 19 l-2446 4 -18 102 c-23 133 -32 296 -23 457 8 148 26 258 69
416 30 109 31 112 68 129 l38 17 54 -41 c130 -99 374 -151 707 -151 233 0 212
-4 1137 235 314 81 943 233 1100 265 329 68 702 71 1055 9 620 -109 1218 -406
1810 -900 69 -57 222 -199 340 -316 119 -116 228 -217 243 -222 17 -7 127 -11
280 -11 294 0 289 -1 307 88 19 91 66 167 160 260 623 613 1343 973 2150 1076
687 88 2018 -15 3353 -259 217 -39 804 -158 850 -171 14 -5 17 -1 13 18 -192
847 -177 788 -227 843 -65 70 -107 82 -379 110 -132 14 -271 30 -308 35 -89
13 -740 145 -747 151 -2 3 -6 396 -7 874 l-3 869 -250 198 c-137 109 -262 208
-277 219 l-28 20 0 -89 0 -90 172 -128 172 -129 -172 -3 -172 -2 0 -60 0 -60
-275 0 -275 0 0 -631 0 -631 27 -50 c21 -38 29 -46 35 -33 8 12 34 15 153 15
l145 0 0 -46 0 -45 -142 4 c-83 2 -219 14 -323 30 -272 40 -456 50 -740 44
-245 -6 -387 -20 -534 -52 -40 -9 -80 -14 -88 -10 -9 3 -21 1 -28 -5 -13 -11
-61 -4 -69 9 -2 3 6 7 17 7 42 3 66 8 64 14 -1 3 3 6 8 7 6 1 9 -5 7 -13 -2
-8 1 -14 6 -14 5 0 9 10 8 22 -1 16 -8 23 -23 24 -12 1 -20 -2 -18 -7 6 -9
-34 -24 -53 -20 -8 1 -20 -3 -28 -10 -10 -8 -14 -8 -14 0 0 6 -5 11 -12 11 -6
0 -8 -3 -4 -7 4 -4 -8 -15 -26 -26 -18 -10 -26 -16 -18 -14 8 3 22 -3 30 -11
13 -14 12 -15 -3 -9 -9 3 -19 2 -22 -3 -3 -5 -34 -18 -68 -29 -140 -44 -357
-139 -511 -226 l-66 -37 0 551 0 551 -224 0 -223 0 -7 78 c-9 95 -31 146 -84
194 -74 67 -164 61 -237 -16 -72 -75 -68 -15 -72 -1081 l-4 -961 -87 -95 c-48
-52 -99 -110 -114 -129 l-27 -35 -1 65 c0 36 -3 95 -7 132 l-6 68 -768 0 -769
0 0 -47 c0 -27 -4 -53 -8 -59 -4 -6 -38 22 -84 73 l-78 82 0 1381 0 1380 145
0 145 0 0 255 0 255 -70 0 -70 0 0 219 c0 121 -3 221 -7 223 -5 2 -97 2 -205
0 l-198 -3 0 -80 c0 -64 3 -79 15 -79 13 0 15 -47 15 -365 0 -318 -2 -365 -15
-365 -20 0 -20 -56 0 -64 13 -5 15 -89 15 -671 0 -582 -2 -666 -15 -671 -20
-8 -20 -64 0 -64 13 0 15 -69 15 -565 0 -536 -1 -565 -17 -556 -10 5 -29 21
-43 36 -14 15 -47 43 -75 63 -27 20 -58 44 -68 53 -25 26 -285 197 -399 263
l-98 57 -2 432 -3 432 -65 0 -65 0 -3 378 -2 377 -590 0 -590 0 0 -381 0 -381
-70 7 -70 7 0 -271 0 -271 -95 0 -95 0 -2 53 c-1 35 -2 42 -5 20 l-4 -33 -90
0 -89 0 0 35 0 35 95 0 95 0 -2 93 c-1 50 -3 75 -5 55 l-4 -38 -90 0 -89 0 0
40 0 40 95 0 95 0 0 148 0 147 -95 -3 -95 -3 0 41 0 41 95 -3 95 -3 -1 70 c0
39 -3 64 -6 58 -3 -9 -32 -13 -94 -13 l-89 0 0 35 0 35 89 0 c85 0 90 -1 94
-22 2 -13 4 27 4 87 0 61 -2 95 -4 78 l-4 -33 -90 0 -89 0 0 41 0 40 95 -3 95
-3 0 548 0 547 280 0 280 0 0 125 0 125 -60 0 -60 0 0 230 c0 198 -2 230 -15
230 -12 0 -15 19 -15 115 l0 115 -204 0 -205 0 -3 48 -3 47 -92 -3 -92 -4 -3
264 -3 265 -30 49 c-19 30 -49 60 -79 79 -43 26 -58 30 -117 29 -124 -2 -218
-79 -239 -195 -6 -31 -9 -152 -8 -270 l3 -214 48 -3 47 -3 0 233 c0 215 2 236
20 266 31 51 76 74 130 66 24 -3 58 -15 73 -26 52 -37 57 -66 57 -313 0 -146
4 -225 10 -225 7 0 9 -80 8 -232 l-3 -233 -22 -3 -23 -3 0 235 0 236 -40 0
-40 0 0 -230 c0 -196 -2 -231 -15 -236 -9 -4 -15 -19 -15 -40 0 -24 5 -34 15
-34 13 0 15 -64 15 -515 0 -451 -2 -515 -15 -515 -10 0 -15 -10 -15 -34 0 -21
6 -36 15 -40 22 -8 23 -1486 1 -1486 -10 0 -16 -13 -18 -37 -3 -38 -3 -38 -58
-45 -222 -26 -483 -84 -735 -163 -175 -54 -467 -135 -492 -135 -37 0 -176 576
-232 965 -69 473 -74 1045 -15 1535 57 470 171 932 346 1394 37 100 46 131 36
138 -7 4 -108 8 -223 7 -184 -2 -215 0 -248 16 -74 35 -118 128 -97 206 13 46
72 117 105 125 22 5 23 9 18 83 -8 110 13 169 86 242 86 85 200 112 314 73 59
-20 139 -91 167 -148 l21 -44 36 19 c21 11 58 19 84 19 35 0 49 4 53 17 4 9
43 78 88 153 457 761 1083 1416 1813 1895 225 149 365 229 615 354 734 366
1515 571 2332 610 93 4 171 10 174 13 12 13 -294 473 -484 728 -172 231 -400
511 -543 668 l-39 42 -4185 0 -4185 0 0 -6625z m1652 6216 c359 -94 620 -355
720 -719 31 -111 31 -363 0 -474 -100 -364 -357 -621 -720 -720 -112 -31 -364
-31 -474 0 -184 51 -332 135 -458 262 -177 177 -275 397 -287 650 -23 492 318
923 805 1015 106 20 312 13 414 -14z m3758 -6246 l0 -515 -25 0 -25 0 0 515 0
515 25 0 25 0 0 -515z m2760 50 c0 -358 0 -365 -20 -365 -20 0 -20 7 -20 365
0 358 0 365 20 365 20 0 20 -7 20 -365z m0 -1100 c0 -668 0 -675 -20 -675 -20
0 -20 7 -20 675 0 668 0 675 20 675 20 0 20 -7 20 -675z m-2762 -282 l2 -743
-25 0 -25 0 0 746 0 745 23 -3 22 -3 3 -742z m8302 422 l0 -45 -150 0 -150 0
0 38 c0 21 3 42 7 45 3 4 71 7 150 7 l143 0 0 -45z m302 35 c38 0 38 0 38 -40
l0 -40 -145 0 -145 0 0 47 0 46 107 -6 c58 -4 123 -7 145 -7z m378 -40 l0 -40
-145 0 -145 0 0 40 0 40 145 0 145 0 0 -40z m-682 -152 l-3 -43 -145 0 -145 0
-3 43 -3 42 151 0 151 0 -3 -42z m2 -153 l0 -46 -147 3 -148 3 -3 43 -3 42
150 0 151 0 0 -45z m335 0 l0 -40 -142 -3 -143 -3 0 46 0 46 143 -3 142 -3 0
-40z m345 0 l0 -46 -142 3 -143 3 -3 43 -3 42 145 0 146 0 0 -45z m-3980 -879
l0 -894 -55 -47 -55 -47 2 907 3 907 37 34 c73 67 68 134 68 -860z m3300 729
l0 -45 -150 0 -150 0 0 38 c0 21 3 42 7 45 3 4 71 7 150 7 l143 0 0 -45z m302
35 c38 0 38 0 38 -40 l0 -40 -145 0 -145 0 0 47 0 46 107 -6 c58 -4 123 -7
145 -7z m378 -40 l0 -40 -145 0 -145 0 0 40 0 40 145 0 145 0 0 -40z m-680
-155 l0 -46 -147 3 -148 3 -3 43 -3 42 150 0 151 0 0 -45z m680 5 l0 -40 -145
0 -145 0 0 40 0 40 145 0 145 0 0 -40z m-345 -155 l0 -40 -142 -3 -143 -3 0
46 0 46 143 -3 142 -3 0 -40z m345 -1 l0 -45 -142 3 -143 3 -3 28 c-7 57 -5
58 148 56 l140 -1 0 -44z m-688 -4 l-4 -40 -139 0 -139 0 0 40 0 40 143 0 143
0 -4 -40z m-5532 -710 c0 -603 0 -610 -20 -610 -20 0 -20 7 -20 610 0 603 0
610 20 610 20 0 20 -7 20 -610z m5538 563 l3 -43 -150 0 -151 0 0 38 c0 21 3
42 7 46 4 3 70 5 147 4 l141 -3 3 -42z m304 37 c38 0 38 0 38 -40 l0 -40 -145
0 -145 0 0 47 0 46 107 -6 c58 -4 123 -7 145 -7z m-302 -195 l0 -46 -147 3
-148 3 -3 43 -3 42 150 0 151 0 0 -45z m340 5 c0 -40 0 -40 -38 -40 -22 0 -87
-3 -145 -7 l-107 -6 0 46 0 47 145 0 145 0 0 -40z m340 0 l0 -40 -145 0 -145
0 0 40 0 40 145 0 145 0 0 -40z m0 -160 l0 -40 -145 0 -145 0 0 40 0 40 145 0
145 0 0 -40z m0 -150 l0 -40 -88 0 c-49 0 -114 5 -145 11 -53 11 -57 14 -57
40 l0 29 145 0 145 0 0 -40z m-5623 -1179 c61 -32 72 -111 22 -160 -17 -17
-34 -31 -39 -31 -5 0 -15 -3 -23 -6 -11 -4 -36 21 -81 82 -36 48 -66 91 -66
95 0 11 38 31 75 39 33 7 79 -1 112 -19z m995 -293 c-28 -51 -31 -53 -77 -56
-71 -5 -104 34 -75 89 9 16 22 19 96 19 l86 0 -30 -52z m-42 -73 c0 -3 -26
-50 -58 -103 -32 -53 -69 -116 -82 -139 l-24 -43 -275 0 -276 0 -27 49 c-15
26 -55 89 -88 140 -33 50 -60 94 -60 96 0 3 200 5 445 5 245 0 445 -2 445 -5z"/>
<path d="M1255 12775 c-98 -17 -203 -56 -293 -107 -106 -59 -271 -224 -330
-330 -161 -286 -161 -620 0 -906 59 -106 224 -271 330 -330 286 -161 620 -161
906 0 106 59 271 224 330 330 161 286 161 620 0 906 -59 106 -224 271 -330
330 -187 106 -409 145 -613 107z"/>
<path d="M24232 12003 c3 -562 4 -569 27 -638 35 -108 87 -193 165 -271 78
-77 163 -130 271 -166 l70 -23 2188 -3 2188 -2 -3 567 c-3 562 -4 569 -27 638
-35 108 -87 193 -165 271 -78 77 -163 130 -271 166 l-70 23 -2188 3 -2188 2 3
-567z m4403 492 c33 -9 89 -30 125 -48 89 -43 214 -168 257 -257 63 -128 63
-132 63 -707 l0 -523 -2143 0 c-2364 0 -2188 -5 -2327 63 -89 43 -214 168
-257 257 -63 128 -63 132 -63 707 l0 523 2143 0 c1899 0 2150 -2 2202 -15z"/>
<path d="M28411 12340 c-18 -5 -50 -24 -69 -44 -31 -30 -36 -43 -40 -93 -3
-49 0 -64 20 -93 84 -125 278 -69 278 80 0 101 -90 172 -189 150z"/>
<path d="M24632 12182 c1 -4 63 -117 136 -249 l132 -241 0 -196 0 -196 150 0
150 0 0 198 -1 197 -143 245 -143 245 -143 3 c-78 1 -140 -1 -138 -6z"/>
<path d="M24960 12175 c0 -4 256 -432 265 -443 2 -2 61 92 132 209 70 117 132
219 136 226 6 11 -43 13 -263 13 -148 0 -270 -2 -270 -5z"/>
<path d="M28005 12109 c-104 -11 -159 -43 -202 -117 -22 -37 -27 -58 -27 -111
0 -74 15 -110 66 -157 42 -40 74 -56 168 -84 92 -28 146 -54 154 -75 24 -64
-18 -120 -89 -120 -59 0 -96 29 -114 88 l-14 46 -86 -5 c-47 -3 -92 -7 -98
-10 -32 -9 5 -128 59 -189 55 -63 107 -80 243 -80 101 0 115 2 168 29 133 65
186 235 113 360 -41 70 -113 109 -281 152 -68 18 -95 37 -95 68 0 27 9 40 37
55 51 27 129 -6 140 -59 5 -29 7 -30 63 -30 31 0 77 3 102 6 l45 6 -9 42 c-32
143 -149 207 -343 185z"/>
<path d="M27082 12085 c-7 -14 -12 -31 -12 -36 0 -14 100 -159 110 -159 6 0
130 203 130 215 0 3 -49 5 -108 5 -107 0 -109 0 -120 -25z"/>
<path d="M26692 11973 c44 -71 96 -152 114 -181 19 -29 34 -56 34 -61 0 -5
-58 -99 -130 -209 -71 -110 -130 -203 -130 -206 0 -3 53 -6 119 -6 l118 0 68
110 c38 61 71 113 75 115 3 2 37 -47 76 -108 l70 -112 122 -3 122 -3 -76 118
c-42 65 -158 243 -257 396 l-180 277 -113 0 -114 0 82 -127z"/>
<path d="M27457 12094 c-4 -4 -7 -150 -7 -324 l0 -317 50 -71 51 -72 49 0 50
0 -2 393 -3 392 -90 3 c-50 1 -94 0 -98 -4z"/>
<path d="M25906 11710 c-71 -210 -126 -383 -123 -386 3 -3 54 -7 114 -7 l108
-2 17 50 16 50 118 0 118 0 15 -47 15 -48 117 0 117 0 -127 383 -128 382 -124
3 -124 2 -129 -380z m293 -8 c17 -62 31 -115 31 -117 0 -3 -34 -5 -76 -5 -57
0 -75 3 -72 13 3 6 20 65 38 130 19 64 37 112 41 105 4 -7 21 -64 38 -126z"/>
<path d="M25340 11670 l0 -60 195 0 195 0 0 60 0 60 -195 0 -195 0 0 -60z"/>
<path d="M5251 9425 c-5 -25 -37 -581 -34 -587 2 -5 20 -8 39 -8 26 0 34 4 34
18 0 30 -30 536 -34 562 -2 14 -4 21 -5 15z"/>
<path d="M11553 9323 c-10 -3 -13 -38 -13 -127 0 -114 1 -123 23 -141 l22 -20
-22 -3 c-22 -3 -23 -7 -23 -110 0 -96 2 -109 21 -125 22 -19 19 -53 -7 -73
-11 -9 -14 -45 -14 -162 0 -144 1 -151 21 -157 13 -5 18 -12 14 -22 -4 -12 -2
-13 8 -5 7 6 53 13 103 15 l89 3 -97 2 -98 2 0 165 c0 152 1 164 18 158 15 -6
14 -3 -3 17 -11 13 -15 20 -8 17 18 -11 25 9 8 23 -12 10 -15 38 -15 131 0
111 1 118 21 124 16 6 18 9 8 15 -7 5 -17 6 -21 4 -4 -3 -8 58 -8 135 0 78 -3
141 -7 140 -5 0 -14 -3 -20 -6z"/>
<path d="M19032 8792 c-165 -59 -256 -234 -207 -398 35 -120 124 -199 278
-250 115 -38 137 -50 153 -91 31 -73 -25 -143 -113 -143 -51 0 -99 36 -111 83
l-8 32 -129 3 -128 3 6 -52 c9 -71 55 -165 108 -218 24 -24 73 -58 109 -75 59
-28 74 -31 160 -31 88 0 101 3 162 33 83 41 158 120 187 197 45 121 20 268
-61 360 -55 62 -94 85 -218 130 -58 20 -115 46 -127 58 -29 26 -30 70 -3 97
36 36 125 19 136 -27 6 -23 8 -23 136 -23 l130 0 -7 43 c-9 58 -46 136 -84
180 -79 89 -252 131 -369 89z"/>
<path d="M19580 8660 l0 -130 110 0 110 0 0 -430 0 -430 125 0 125 0 0 430 0
430 110 0 110 0 0 130 0 130 -345 0 -345 0 0 -130z"/>
<path d="M20382 8388 l3 -403 31 -65 c58 -121 143 -194 268 -232 171 -52 360
17 463 170 72 107 73 116 73 549 l0 383 -125 0 -125 0 0 -346 c0 -221 -4 -361
-11 -389 -21 -83 -108 -137 -195 -121 -47 9 -111 68 -124 114 -6 22 -10 182
-10 390 l0 352 -125 0 -126 0 3 -402z"/>
<path d="M21340 8231 l0 -561 148 0 c241 0 349 37 478 165 112 111 164 233
164 390 0 242 -150 450 -386 537 -50 18 -86 22 -231 26 l-173 4 0 -561z m347
279 c63 -28 137 -102 164 -163 16 -38 23 -72 23 -122 1 -126 -71 -230 -191
-275 -90 -34 -83 -58 -83 280 l0 300 23 0 c12 0 41 -9 64 -20z"/>
<path d="M22110 8787 c0 -2 73 -156 161 -343 89 -186 174 -366 189 -400 l28
-61 -45 -109 c-25 -60 -53 -130 -64 -156 l-19 -48 139 0 139 0 226 554 c124
305 226 557 226 560 0 3 -62 6 -137 6 l-138 0 -94 -235 c-52 -129 -97 -235
-101 -235 -3 0 -55 105 -116 233 l-110 232 -142 3 c-78 1 -142 1 -142 -1z"/>
<path d="M23510 8230 l0 -560 125 0 125 0 0 560 0 560 -125 0 -125 0 0 -560z"/>
<path d="M24558 8465 l-3 -324 -180 319 -179 320 -138 0 -138 0 0 -555 0 -555
125 0 125 0 1 323 c0 306 1 321 17 298 9 -14 91 -158 182 -320 l165 -296 138
-3 137 -3 0 561 0 560 -125 0 -125 0 -2 -325z"/>
<path d="M8570 8615 l0 -95 -60 0 -60 0 0 -314 c0 -197 4 -317 10 -321 5 -3 7
0 4 9 -4 10 2 17 18 21 13 3 263 5 556 3 l532 -3 0 302 0 302 -62 3 -63 3 3
93 4 92 -441 0 -441 0 0 -95z"/>
<path d="M5175 8532 c-74 -36 -125 -109 -125 -178 0 -17 8 -13 48 26 58 56
112 73 184 60 64 -12 99 -32 138 -77 l33 -37 -5 53 c-6 58 -24 89 -81 135 -49
39 -131 47 -192 18z"/>
<path d="M4830 7605 l0 -45 90 0 90 0 0 45 0 45 -90 0 -90 0 0 -45z"/>
<path d="M12510 7310 l0 -240 115 0 115 0 0 -35 c0 -32 2 -35 30 -35 l30 0 0
-125 0 -125 -30 0 c-28 0 -30 -2 -30 -40 0 -38 2 -40 30 -40 l30 0 0 -130 0
-130 -30 0 c-28 0 -30 -2 -30 -40 l0 -40 -164 0 c-140 0 -165 2 -170 16 -3 9
-6 49 -6 90 l0 74 -165 0 -165 0 0 -295 1 -295 100 0 99 0 0 -32 c0 -18 -3
-44 -7 -58 l-7 -25 -7 25 c-7 24 -7 24 -8 3 -1 -22 -5 -23 -80 -23 -48 0 -81
4 -83 11 -2 6 -4 -15 -4 -48 l0 -58 93 0 c51 0 93 4 93 8 0 5 3 6 8 4 4 -3 8
36 10 87 2 50 7 95 12 100 7 7 10 -218 10 -620 l0 -631 332 -6 c182 -4 385 -7
450 -7 l118 0 -2 848 -3 847 -52 3 -53 3 0 365 0 364 -50 0 -50 0 0 235 0 235
-240 0 -240 0 0 -240z m190 0 l0 -160 -45 0 -45 0 0 160 0 160 45 0 45 0 0
-160z m188 -2 l3 -158 -46 0 -45 0 0 161 0 160 43 -3 42 -3 3 -157z m92 -433
l0 -125 -45 0 -45 0 0 125 0 125 45 0 45 0 0 -125z m0 -335 l0 -130 -45 0 -45
0 0 130 0 130 45 0 45 0 0 -130z m-470 -635 l0 -355 -45 0 -45 0 0 355 0 355
45 0 45 0 0 -355z m180 0 l0 -355 -40 0 -40 0 0 355 0 355 40 0 40 0 0 -355z
m195 0 l0 -350 -42 -3 -43 -3 0 356 0 356 43 -3 42 -3 0 -350z m185 -1 l0
-355 -42 3 -43 3 -3 340 c-1 187 0 346 3 352 2 8 22 13 45 13 l40 0 0 -356z
m-560 -829 l0 -355 -45 0 -45 0 0 355 0 355 45 0 45 0 0 -355z m180 0 l0 -355
-40 0 -40 0 0 355 0 355 40 0 40 0 0 -355z m198 -2 l2 -353 -45 0 -45 0 0 356
0 355 43 -3 42 -3 3 -352z m182 1 l0 -355 -42 3 -43 3 -3 340 c-1 187 0 346 3
352 2 8 22 13 45 13 l40 0 0 -356z"/>
<path d="M4830 7420 l0 -50 90 0 90 0 0 50 0 50 -90 0 -90 0 0 -50z"/>
<path d="M13322 7314 l3 -76 -48 4 c-47 3 -47 3 -47 -29 0 -17 6 -34 13 -36
10 -4 10 -6 0 -6 -7 -1 -13 -8 -13 -17 0 -8 5 -12 11 -8 13 8 29 -13 29 -38 0
-11 -8 -18 -20 -18 -17 0 -20 -7 -20 -40 0 -31 4 -40 18 -40 9 0 184 -1 387
-3 l370 -2 2 28 2 27 -363 0 -364 0 -4 40 -3 40 372 2 c205 2 373 -1 373 -5 0
-4 8 -3 19 2 10 6 21 7 25 3 4 -3 6 18 4 48 l-3 55 -49 -3 -48 -4 3 74 4 73
-328 3 -329 2 4 -76z"/>
<path d="M10096 7229 l-86 -82 0 -151 c0 -148 7 -185 29 -172 7 5 12 -10 13
-46 l1 -53 7 65 c4 36 7 57 8 48 2 -17 32 -18 485 -18 273 0 488 4 496 9 12 8
13 14 3 36 -7 15 -8 24 -2 20 5 -3 10 -2 10 4 0 5 -6 12 -12 14 -10 4 -10 6 0
6 9 1 12 48 12 201 l0 200 -439 0 -439 0 -86 -81z"/>
<path d="M4830 7240 l0 -50 90 0 90 0 0 50 0 50 -90 0 -90 0 0 -50z"/>
<path d="M4830 7057 l0 -54 90 -1 90 -1 0 55 0 54 -90 0 -90 0 0 -53z"/>
<path d="M21883 7080 c-220 -40 -407 -207 -476 -425 -28 -91 -30 -251 -3 -340
42 -141 133 -269 249 -347 76 -52 149 -84 324 -143 198 -66 253 -116 253 -230
0 -54 -16 -88 -62 -132 -68 -65 -170 -80 -256 -37 -53 26 -109 89 -117 132 -3
12 -7 33 -10 47 l-5 25 -240 0 -240 0 6 -57 c14 -138 49 -238 120 -344 212
-320 659 -404 991 -187 130 84 244 245 279 394 21 89 21 239 0 328 -35 145
-143 303 -268 387 -76 52 -135 78 -305 134 -180 60 -212 78 -241 137 -28 55
-24 93 15 138 64 76 224 51 261 -41 l15 -39 240 0 239 0 -6 48 c-37 273 -187
450 -451 531 -80 25 -232 35 -312 21z"/>
<path d="M18882 6338 c3 -695 4 -715 25 -789 74 -264 266 -466 525 -552 86
-28 104 -31 233 -31 105 0 156 4 204 18 242 67 440 239 535 463 56 134 56 129
56 896 l0 707 -240 0 -240 0 0 -680 c0 -653 -1 -681 -20 -732 -23 -62 -91
-133 -160 -169 -68 -36 -185 -34 -262 4 -65 32 -121 89 -152 156 -21 45 -21
55 -24 734 l-3 687 -240 0 -240 0 3 -712z"/>
<path d="M24102 6923 c-81 -239 -483 -1417 -575 -1686 l-95 -277 255 2 255 3
42 120 43 120 328 0 329 0 40 -122 40 -123 254 0 c199 0 253 3 249 13 -2 6
-64 197 -136 422 -73 226 -163 505 -201 620 -38 116 -119 365 -180 555 -61
190 -120 373 -131 408 l-21 62 -228 0 -228 0 -40 -117z m351 -1001 l75 -232
-168 0 -169 0 43 123 c24 67 62 180 86 252 33 98 45 124 51 109 4 -12 41 -125
82 -252z"/>
<path d="M4830 6870 l0 -50 90 0 90 0 0 50 0 50 -90 0 -90 0 0 -50z"/>
<path d="M4830 6690 l0 -50 90 0 90 0 0 50 0 50 -90 0 -90 0 0 -50z"/>
<path d="M4830 6500 l0 -50 90 0 90 0 0 50 0 50 -90 0 -90 0 0 -50z"/>
<path d="M4830 6320 l0 -50 90 0 90 0 0 50 0 50 -90 0 -90 0 0 -50z"/>
<path d="M4830 6130 l0 -50 90 0 90 0 0 50 0 50 -90 0 -90 0 0 -50z"/>
<path d="M4830 5950 l0 -50 90 0 90 0 0 50 0 50 -90 0 -90 0 0 -50z"/>
<path d="M5892 5918 l3 -47 708 -6 707 -7 0 56 0 57 -710 -3 -711 -3 3 -47z"/>
<path d="M11570 5845 c0 -51 10 -69 25 -45 3 6 42 9 88 8 l82 -2 -85 -6 -85
-7 92 0 c80 0 91 2 84 15 -5 8 -6 33 -4 54 l6 38 -102 0 -101 0 0 -55z"/>
<path d="M4830 5765 l0 -55 90 0 90 0 0 55 0 55 -90 0 -90 0 0 -55z"/>
<path d="M11583 5745 c-7 -8 -13 -32 -13 -55 l0 -40 104 0 c103 0 104 0 99 23
-4 18 -3 19 7 7 9 -12 10 -10 4 10 -4 14 -8 34 -9 45 -1 18 -10 20 -91 22 -67
2 -92 -1 -101 -12z"/>
<path d="M10304 5670 c-111 -44 -193 -153 -216 -288 l-12 -72 -178 0 c-163 0
-178 -1 -178 -17 0 -17 15 -18 204 -15 l203 3 6 53 c7 74 49 156 103 206 58
53 99 70 172 70 140 0 259 -121 278 -283 l7 -57 183 0 184 0 0 25 0 25 -158 0
-158 0 -11 64 c-21 122 -91 223 -188 273 -69 36 -170 41 -241 13z"/>
<path d="M4830 5580 l0 -50 90 0 90 0 0 50 0 50 -90 0 -90 0 0 -50z"/>
<path d="M11570 5603 c0 -7 6 -13 13 -13 9 0 14 -12 15 -30 0 -20 -4 -30 -14
-30 -8 0 -14 -5 -14 -11 0 -5 4 -8 9 -5 4 3 57 6 117 7 60 2 101 4 92 6 -10 3
-15 10 -11 19 5 13 7 13 15 2 7 -9 8 -8 5 7 -2 11 -9 19 -15 18 -15 -4 -15 10
0 25 7 7 8 12 3 12 -6 0 -56 1 -113 3 -76 1 -102 -1 -102 -10z"/>
<path d="M4830 5400 l0 -50 90 0 90 0 0 50 0 50 -90 0 -90 0 0 -50z"/>
<path d="M20849 5436 c-97 -34 -159 -125 -159 -231 0 -170 156 -282 324 -233
55 16 140 101 155 154 25 89 9 169 -46 234 -67 78 -180 110 -274 76z"/>
<path d="M23019 5436 c-97 -34 -159 -125 -159 -231 0 -171 155 -283 324 -233
55 16 140 101 155 154 28 99 8 179 -62 248 -73 73 -166 95 -258 62z"/>
<path d="M11570 5273 c1 -44 3 -54 11 -40 8 14 25 17 109 17 85 0 99 -2 94
-15 -5 -11 -1 -14 15 -12 11 2 24 7 28 12 5 4 3 5 -3 2 -15 -9 -39 19 -24 28
5 3 10 1 10 -4 0 -6 3 -11 8 -11 4 0 6 18 4 39 l-4 39 -124 1 -124 2 0 -58z"/>
<path d="M4830 5210 l0 -50 90 0 90 0 0 50 0 50 -90 0 -90 0 0 -50z"/>
<path d="M11571 5135 l-2 -53 136 -1 135 -2 0 25 c0 16 -7 27 -20 31 -11 3
-20 12 -20 20 0 7 -6 16 -12 18 -8 4 -7 6 3 6 9 1 19 -8 22 -19 3 -11 11 -20
17 -20 9 0 10 3 1 13 -6 8 -8 17 -5 20 4 3 -6 9 -22 13 -18 5 -29 3 -32 -4 -2
-8 -33 -11 -95 -10 l-92 2 90 6 90 7 -96 0 -96 1 -2 -53z"/>
<path d="M4830 5030 l0 -50 90 0 90 0 0 50 0 50 -90 0 -90 0 0 -50z"/>
<path d="M11570 4891 c0 -5 6 -12 13 -14 10 -4 10 -6 0 -6 -8 -1 -13 -15 -13
-36 l0 -35 139 0 140 0 -5 38 c-3 28 -2 32 5 17 8 -17 10 -14 10 15 -1 19 -3
29 -6 23 -3 -10 -38 -12 -131 -11 l-127 2 125 6 125 6 -137 2 c-79 1 -138 -2
-138 -7z"/>
<path d="M4830 4840 l0 -50 90 0 90 0 0 50 0 50 -90 0 -90 0 0 -50z"/>
<path d="M11583 4753 c-7 -2 -13 -10 -13 -16 0 -9 39 -12 137 -12 105 0 137
-3 141 -13 3 -11 -22 -13 -137 -10 -138 3 -142 2 -137 -17 3 -11 6 -23 6 -27
0 -5 61 -8 136 -8 104 0 135 3 132 13 -3 8 -39 13 -124 15 -65 1 -122 6 -126
10 -4 4 14 6 40 5 145 -8 220 -7 215 1 -4 5 -1 6 5 2 6 -4 9 -13 6 -20 -3 -8
-1 -16 3 -19 11 -7 11 34 0 51 -5 6 -6 12 -2 12 3 0 1 9 -5 20 -10 18 -21 20
-138 19 -70 0 -133 -3 -139 -6z"/>
<path d="M4830 4660 l0 -50 90 0 90 0 0 50 0 50 -90 0 -90 0 0 -50z"/>
<path d="M11572 4569 l3 -52 129 2 c70 1 135 5 144 8 9 4 13 2 9 -4 -4 -7 -1
-10 8 -9 19 3 19 4 6 39 -15 39 -13 47 4 17 l15 -25 -3 25 c-4 45 -14 48 -170
49 l-148 2 3 -52z"/>
<path d="M11570 4424 l0 -54 55 0 c52 0 61 5 56 33 -1 4 10 12 24 19 23 10 26
28 4 28 -6 0 -8 -4 -5 -9 3 -5 -1 -12 -10 -15 -11 -4 -15 -2 -11 8 5 12 -5 16
-41 19 -26 2 8 4 76 5 77 1 122 6 122 12 0 7 -47 10 -135 9 l-135 -1 0 -54z"/>
<path d="M9722 4328 l-2 -48 -542 -2 -543 -3 -3 -23 -3 -22 568 2 c540 3 568
4 571 21 2 12 -4 20 -17 24 -16 4 -21 15 -24 52 l-3 46 -2 -47z"/>
<path d="M8560 3593 l0 -56 482 6 c265 4 553 7 640 7 l158 0 0 45 0 45 -222 1
c-123 0 -411 3 -640 5 l-418 4 0 -57z"/>
</g>
</svg>
