<?xml version="1.0" standalone="no"?>
<!DOCTYPE svg PUBLIC "-//W3C//DTD SVG 20010904//EN"
 "http://www.w3.org/TR/2001/REC-SVG-20010904/DTD/svg10.dtd">
<svg version="1.0" xmlns="http://www.w3.org/2000/svg"
 width="3004.000000pt" height="1325.000000pt" viewBox="0 0 3004.000000 1325.000000"
 preserveAspectRatio="xMidYMid meet">
<metadata>
Created by potrace 1.16, written by Peter Selinger 2001-2019
</metadata>
<g transform="translate(0.000000,1325.000000) scale(0.100000,-0.100000)"
fill="#000000" stroke="none">
<path d="M0 12989 l0 -261 30 -28 29 -27 28 40 c29 42 44 77 72 172 12 42 25
64 41 72 12 6 26 17 31 24 32 52 13 -225 -20 -289 -11 -21 -23 -55 -27 -77 -6
-33 -5 -37 10 -32 15 6 16 1 10 -53 -4 -37 -3 -60 3 -60 5 0 10 -12 10 -28 0
-15 3 -40 7 -55 l7 -28 26 31 c14 17 28 28 31 26 3 -3 22 10 44 29 21 19 42
35 47 35 4 0 12 -13 17 -30 l9 -30 54 50 c30 28 56 50 58 50 2 0 -22 -36 -52
-80 -53 -75 -56 -82 -46 -112 6 -18 13 -46 16 -62 5 -24 8 -26 18 -13 7 8 22
18 34 22 19 5 25 1 34 -22 26 -64 32 -74 43 -63 17 17 32 11 44 -15 7 -14 20
-25 31 -25 13 0 29 -16 47 -45 14 -25 29 -45 34 -45 4 0 10 23 13 51 4 28 11
57 16 63 6 7 7 23 4 36 -5 20 -3 22 16 17 22 -5 22 -4 15 50 l-7 56 38 -6 38
-6 -7 57 c-3 31 -12 79 -18 105 -14 56 -4 70 47 62 17 -2 52 -7 78 -10 l48 -6
-21 41 c-11 22 -20 46 -18 53 1 7 -6 26 -15 44 -13 24 -14 33 -4 36 8 3 6 11
-9 28 -12 13 -32 47 -45 74 -35 73 -111 184 -158 230 -23 21 -41 43 -41 47 0
4 16 8 35 8 38 0 95 -31 134 -74 14 -14 30 -26 37 -26 7 0 19 -8 26 -17 12
-17 79 -53 97 -53 4 0 8 14 9 31 0 17 3 34 7 37 3 3 27 -5 53 -17 26 -13 62
-27 81 -32 28 -6 34 -4 38 12 6 21 16 24 41 10 10 -5 37 -10 62 -12 25 -2 69
-14 98 -27 29 -13 55 -22 58 -19 3 2 -11 23 -31 47 -19 23 -35 45 -35 49 0 4
-18 26 -41 50 -30 33 -37 46 -27 52 9 6 5 16 -17 39 -25 26 -27 32 -15 40 13
8 13 13 -2 37 l-17 28 -640 3 -641 2 0 -261z"/>
<path d="M2778 13229 c-33 -24 -36 -39 -8 -39 28 0 26 -5 -20 -58 -24 -27 -38
-52 -35 -60 3 -8 -2 -25 -10 -38 -9 -13 -13 -24 -10 -24 3 0 -1 -13 -10 -30
-20 -39 -19 -43 8 -34 12 4 40 8 62 10 22 1 64 5 94 9 l54 8 -7 -43 c-4 -24
-16 -66 -27 -94 -60 -148 -67 -171 -45 -159 9 5 32 7 52 5 35 -4 35 -5 29 -41
-19 -108 -20 -101 14 -101 29 0 30 -2 29 -36 -1 -24 4 -41 15 -49 13 -9 17
-28 17 -78 0 -36 4 -68 8 -71 5 -3 27 19 48 49 21 30 45 55 51 55 7 0 20 14
29 32 16 30 17 31 30 13 17 -23 26 -15 49 48 10 26 20 47 23 47 3 0 20 -11 38
-25 l33 -25 15 22 c8 13 18 35 21 51 4 15 11 30 17 33 5 3 4 12 -3 20 -9 11
-9 13 2 9 10 -4 19 12 32 55 16 55 20 61 40 54 12 -3 54 -32 93 -64 l72 -58 6
36 c3 21 6 49 6 65 0 15 5 27 10 27 6 0 10 23 10 51 0 43 3 50 16 45 14 -5 16
-1 10 26 -4 18 -11 76 -16 128 -10 101 -18 165 -26 218 l-5 32 -111 0 c-100 0
-110 -2 -105 -17 3 -10 28 -78 56 -151 52 -137 85 -246 78 -265 -2 -6 -27 54
-57 134 -30 79 -69 178 -86 219 -32 73 -34 75 -71 78 l-38 3 -47 -158 c-26
-87 -50 -171 -54 -186 -4 -15 -8 -26 -11 -24 -2 3 15 79 38 171 23 92 40 169
37 171 -2 2 -87 -29 -189 -71 -101 -41 -193 -77 -204 -80 -31 -8 88 54 205
106 58 25 116 51 130 57 20 9 -16 12 -165 12 -176 0 -192 -1 -217 -20z"/>
<path d="M3750 13227 c0 -12 6 -31 13 -42 8 -11 17 -34 20 -52 4 -18 14 -41
24 -51 10 -10 23 -27 30 -38 12 -18 14 -17 42 15 36 41 44 37 97 -50 40 -67
87 -110 92 -86 6 30 31 26 52 -9 12 -18 27 -34 33 -34 19 0 81 -64 118 -122
l34 -53 3 34 c2 19 0 46 -4 60 -9 30 -10 39 -19 145 -6 69 -5 78 9 73 20 -8
20 -8 -12 90 l-27 81 42 7 c47 7 48 8 33 36 -10 17 -22 19 -135 19 l-124 0 6
-65 c4 -46 2 -65 -6 -65 -6 0 -11 17 -11 43 0 91 7 87 -161 87 -148 0 -149 0
-149 -23z"/>
<path d="M7307 13213 c35 -47 77 -112 86 -135 4 -12 -2 -18 -29 -22 -39 -8
-42 -19 -14 -61 24 -36 25 -55 5 -55 -17 0 -20 -16 -4 -26 6 -3 8 -15 5 -27
-3 -11 2 -36 10 -55 14 -35 19 -72 8 -72 -3 0 -19 9 -35 21 -36 25 -36 20 -2
-43 25 -47 73 -85 92 -74 4 3 11 31 14 63 4 32 20 118 37 192 16 74 33 157 36
185 6 51 6 52 -40 99 l-47 47 -75 0 -76 0 29 -37z"/>
<path d="M7555 13163 c-8 -100 -29 -224 -51 -298 -19 -63 -34 -179 -27 -205 4
-16 14 -20 52 -20 52 0 121 17 121 29 0 5 -10 12 -22 16 -18 6 -11 9 32 14 31
3 68 14 83 24 14 9 34 17 43 17 9 0 32 16 51 35 39 39 164 86 224 85 19 0 49
2 68 6 l33 7 -8 -34 c-15 -66 -11 -94 14 -97 13 -2 37 2 54 9 24 10 28 16 24
35 -3 12 -2 26 4 29 7 4 6 13 -1 26 -6 12 -9 22 -7 24 5 5 91 -24 102 -35 5
-5 14 -6 21 -4 12 5 40 -24 77 -76 14 -21 19 -22 27 -11 8 12 14 7 31 -22 19
-31 25 -35 41 -26 11 5 29 30 41 54 12 24 25 42 30 39 4 -3 8 3 8 14 0 10 16
41 35 68 20 28 35 61 35 77 0 24 -21 118 -61 270 l-10 37 -290 0 c-191 0 -288
-3 -284 -10 3 -5 -3 -10 -14 -10 -26 0 -26 -13 -1 -67 10 -24 15 -43 9 -43 -5
0 -2 -17 7 -37 9 -21 18 -47 19 -58 2 -11 10 -36 18 -55 8 -19 17 -51 20 -70
l6 -35 -62 66 c-58 61 -132 117 -149 112 -4 -2 -26 15 -49 37 -33 32 -45 37
-56 28 -8 -6 -12 -17 -9 -25 3 -7 -1 -13 -11 -13 -9 0 -55 41 -102 90 -48 50
-91 90 -98 90 -6 0 -13 -34 -18 -87z"/>
<path d="M8685 13198 c4 -29 15 -97 26 -151 10 -54 19 -107 19 -117 0 -10 9
-21 19 -25 11 -3 34 -19 52 -36 17 -16 32 -28 33 -27 0 2 9 17 18 33 10 17 23
41 30 55 7 14 18 29 25 33 7 4 13 21 13 38 0 16 7 46 15 66 14 34 45 153 45
174 0 5 -64 9 -151 9 l-151 0 7 -52z"/>
<path d="M9162 13210 c-5 -81 -52 -277 -82 -348 -17 -40 -28 -77 -25 -83 4 -5
1 -25 -5 -44 -18 -54 -4 -60 51 -20 27 19 49 30 49 25 0 -6 21 5 46 25 26 19
50 35 53 36 3 0 17 2 31 4 14 2 43 8 65 14 62 16 68 15 50 -12 -8 -13 -13 -26
-10 -29 3 -3 -2 -21 -10 -41 -26 -63 -19 -77 18 -35 17 20 46 43 62 51 17 8
43 30 59 47 l28 33 -48 43 c-26 24 -57 44 -69 44 -32 0 32 39 78 46 20 4 37
10 37 15 0 5 20 9 44 9 28 0 46 5 49 14 3 8 28 15 60 19 30 3 67 13 81 22 l25
17 -27 30 c-15 17 -26 34 -24 39 1 5 -11 9 -27 9 -16 0 -36 6 -43 13 -7 7 -25
20 -40 30 -16 10 -25 23 -22 31 11 29 -33 36 -243 36 l-208 0 -3 -40z"/>
<path d="M16533 13228 c-20 -26 -78 -36 -69 -12 3 8 4 14 2 14 -10 0 -66 -33
-76 -45 -7 -8 -18 -15 -25 -15 -8 0 -15 -4 -17 -8 -3 -9 -89 -55 -93 -50 -13
16 -31 66 -27 77 8 23 -75 -42 -93 -73 -12 -19 -20 -24 -25 -16 -8 12 -29 -26
-50 -93 -8 -27 -15 -36 -23 -28 -7 7 -17 -6 -34 -42 l-24 -52 -20 25 c-10 14
-24 40 -31 58 -7 17 -18 32 -25 32 -8 0 -13 13 -13 34 0 50 -14 52 -35 6 -10
-22 -21 -40 -25 -40 -4 0 -13 -20 -20 -46 -8 -29 -17 -43 -26 -40 -12 5 -17
-20 -26 -129 -2 -18 -8 -29 -15 -28 -9 2 -13 -13 -13 -50 0 -29 -4 -57 -9 -63
-5 -5 -4 -43 1 -89 13 -108 5 -178 -27 -250 -36 -83 -41 -90 -57 -87 -13 3 28
-35 71 -65 24 -17 25 -16 65 28 38 43 58 75 181 285 53 91 117 179 195 269 89
101 274 294 287 299 37 15 13 -24 -75 -121 -213 -236 -307 -359 -398 -523 -70
-127 -126 -214 -167 -257 l-30 -32 49 -55 c27 -31 53 -56 58 -56 4 0 92 33
195 74 102 41 224 89 271 106 192 71 344 88 430 49 25 -11 85 -25 135 -30 128
-14 211 -42 283 -96 46 -34 33 -40 -20 -10 -66 38 -132 57 -255 72 -62 8 -129
21 -150 30 -52 22 -143 20 -243 -4 -116 -27 -173 -48 -412 -148 l-207 -88 22
-27 c12 -15 111 -137 219 -272 109 -134 202 -247 208 -251 5 -3 56 -13 112
-21 254 -37 685 -144 703 -175 7 -11 -20 -6 -206 36 -138 32 -412 84 -523 101
l-50 7 89 -109 c86 -104 244 -294 255 -304 3 -3 39 -43 80 -90 115 -131 46
-65 -153 148 -99 106 -184 189 -187 185 -8 -9 -83 -371 -101 -483 -12 -73 -29
-117 -29 -72 0 62 77 538 95 583 4 12 -14 40 -57 90 -73 84 -310 375 -352 432
-16 20 -31 37 -35 37 -14 0 -188 -290 -262 -435 -90 -179 -134 -311 -194 -585
-25 -112 -45 -206 -45 -207 0 -2 -5 -3 -11 -3 -14 0 -6 72 28 240 71 353 180
618 381 925 l71 108 -30 41 c-16 23 -55 70 -87 105 l-58 64 -49 -35 c-76 -54
-557 -308 -582 -308 -5 0 57 37 137 83 119 68 441 268 460 285 3 2 -28 35 -69
72 l-74 68 -18 -23 c-48 -60 -153 -70 -309 -30 -113 29 -121 30 -113 9 5 -13
-6 -15 -81 -12 -55 2 -89 -1 -94 -8 -4 -6 -18 -15 -32 -19 -14 -4 -32 -13 -40
-20 -8 -7 -28 -17 -45 -23 l-30 -10 33 -13 c18 -8 30 -19 28 -26 -3 -7 19 -26
50 -44 54 -31 55 -32 37 -51 -28 -31 -84 -56 -142 -64 -29 -4 -58 -12 -64 -18
-7 -6 -25 -17 -40 -24 -15 -6 -26 -16 -23 -21 3 -4 -7 -14 -22 -21 -20 -9 -23
-14 -12 -18 8 -3 27 -15 42 -28 l28 -23 -38 -29 c-20 -16 -42 -32 -48 -35 -14
-8 -74 11 -74 24 0 5 -16 9 -36 9 -19 0 -42 7 -50 15 -9 8 -29 15 -47 15 -17
0 -50 9 -73 21 -52 24 -49 41 10 71 22 11 43 23 46 27 3 3 18 12 33 20 15 8
26 20 23 26 -2 6 16 22 40 34 24 13 44 28 44 33 0 5 16 24 35 41 19 17 35 35
35 41 0 5 8 18 18 29 16 20 16 20 -3 13 -49 -18 -198 -30 -189 -15 5 9 -14 10
-71 4 l-78 -7 5 31 c4 28 3 30 -21 25 -14 -4 -46 -18 -71 -33 -25 -14 -50 -26
-57 -26 -6 0 -23 -11 -37 -24 l-26 -24 -2 44 c-1 24 -1 54 0 66 l1 22 -37 -25
c-20 -13 -44 -27 -53 -30 -8 -3 -26 -23 -39 -44 -13 -21 -27 -37 -31 -34 -10
6 -53 -72 -73 -133 -12 -35 -32 -66 -64 -98 l-47 -46 -27 32 c-15 18 -46 75
-68 126 -42 95 -73 153 -149 275 -22 37 -41 69 -41 71 0 2 18 10 40 17 47 16
51 26 11 35 -16 3 -41 17 -55 30 -14 13 -41 29 -61 36 -19 7 -36 17 -36 21 -1
4 -2 14 -3 20 0 7 -21 24 -46 38 -92 51 -86 44 -66 75 10 15 16 28 14 30 -18
15 -115 36 -144 31 -21 -5 -34 -3 -34 4 0 6 -15 8 -40 4 -22 -4 -40 -3 -40 1
0 5 11 23 25 41 14 18 25 36 25 40 0 4 7 15 16 25 14 16 10 17 -73 15 -49 -2
-99 -8 -111 -15 -13 -7 -28 -11 -35 -8 -16 5 -94 -29 -135 -60 -50 -37 -112
-61 -167 -64 l-50 -3 -3 47 c-2 27 8 103 23 170 23 111 55 419 47 461 -2 10
-11 16 -20 14 -15 -3 -18 -25 -23 -168 -5 -122 -13 -198 -33 -289 -14 -68 -26
-143 -26 -167 0 -38 -3 -44 -21 -44 -35 0 -87 64 -105 128 -30 108 -35 121
-47 116 -8 -3 -21 16 -34 46 -13 30 -28 50 -37 50 -9 0 -16 5 -16 10 0 6 -8
13 -17 17 -10 3 -26 13 -35 21 -16 14 -18 13 -18 -1 0 -9 -5 -39 -11 -67 -14
-64 -29 -64 -88 -2 -26 26 -64 56 -86 66 -22 10 -42 20 -45 21 -3 2 -5 -12 -4
-31 2 -40 -3 -41 -56 -14 -22 11 -40 17 -39 13 3 -20 -2 -24 -18 -12 -9 8 -42
14 -77 15 -34 1 -79 5 -101 8 l-40 7 31 -21 c28 -18 84 -89 84 -106 0 -3 11
-15 25 -26 20 -16 23 -23 14 -34 -15 -18 41 -84 85 -100 17 -7 31 -18 32 -25
0 -20 15 -51 32 -71 14 -16 13 -18 -6 -18 -11 0 -24 -5 -27 -10 -4 -7 -33 -8
-79 -4 -45 4 -76 3 -79 -3 -4 -6 -23 -7 -47 -3 -22 4 -42 4 -45 0 -2 -4 -25
-6 -49 -4 -25 2 -60 -3 -78 -10 l-33 -14 28 -13 c15 -7 27 -16 27 -21 0 -4 14
-27 30 -50 l31 -42 -28 -23 c-15 -12 -50 -29 -76 -37 -26 -8 -61 -25 -78 -37
-30 -21 -30 -21 -10 -36 31 -21 25 -34 -34 -76 -52 -36 -68 -57 -44 -57 18 0
-73 -79 -123 -108 -27 -15 -48 -29 -48 -32 0 -9 73 -9 145 0 42 6 72 5 75 0 4
-6 19 -6 40 0 58 17 73 13 68 -15 -5 -22 -2 -25 22 -25 14 0 53 11 86 24 108
43 109 43 123 -14 7 -28 14 -50 15 -50 1 0 24 8 51 18 53 18 74 32 163 102 49
38 64 45 105 46 53 1 58 -8 33 -67 -22 -51 -136 -153 -216 -194 -48 -25 -110
-85 -87 -85 25 0 21 -10 -23 -60 -22 -25 -35 -47 -29 -51 6 -3 4 -11 -6 -19
-8 -7 -15 -20 -15 -29 0 -9 -7 -25 -15 -35 -17 -22 -20 -40 -5 -31 5 3 55 8
111 11 l101 5 -7 -23 c-4 -13 -19 -48 -33 -78 -14 -30 -26 -59 -27 -65 -1 -5
-9 -24 -18 -42 -19 -36 -23 -68 -6 -58 6 4 25 4 43 1 29 -6 32 -9 28 -36 -2
-17 -8 -33 -13 -36 -5 -3 -9 -16 -9 -29 0 -17 6 -25 23 -27 18 -2 22 -9 22
-41 0 -21 6 -41 13 -46 8 -5 12 -19 10 -32 -3 -21 -10 -25 -54 -30 -29 -4 -57
-10 -63 -13 -6 -4 -11 -2 -11 4 0 12 -54 -13 -82 -37 -9 -8 -22 -12 -27 -8 -6
3 -24 -3 -40 -14 -16 -12 -33 -21 -38 -21 -5 0 -27 -18 -48 -41 -22 -22 -52
-50 -67 -61 -31 -22 -146 -54 -156 -43 -4 4 -8 102 -8 218 -2 227 -19 486 -34
501 -14 14 -40 -1 -40 -24 0 -11 8 -66 17 -123 12 -74 17 -165 17 -334 l1
-233 -22 0 c-38 0 -94 60 -131 140 -40 88 -52 106 -62 90 -4 -6 -20 11 -38 40
-18 29 -38 50 -45 47 -6 -2 -17 3 -22 10 -6 8 -17 15 -25 17 -8 1 -24 7 -36
13 -20 11 -21 9 -22 -54 -1 -37 -4 -68 -7 -71 -10 -11 -59 11 -95 44 -22 20
-45 37 -52 38 -7 1 -17 4 -23 7 -5 4 -28 10 -50 13 -32 6 -38 5 -27 -5 6 -7
12 -23 12 -36 0 -26 -10 -28 -65 -8 -50 18 -50 18 -34 -2 13 -15 11 -16 -16
-9 -16 4 -38 9 -47 12 -10 3 -18 1 -18 -5 0 -7 -30 -11 -80 -11 -78 0 -105
-12 -55 -24 25 -6 105 -80 105 -97 0 -4 14 -16 31 -24 23 -12 28 -19 20 -29
-8 -9 0 -22 28 -49 44 -42 76 -56 129 -58 30 -2 32 -3 10 -6 -34 -5 -34 -6 -3
-47 l25 -33 -24 -17 c-15 -10 -46 -16 -78 -16 -63 0 -100 -9 -92 -21 3 -5 -20
-9 -50 -9 -31 0 -56 -4 -56 -9 0 -4 -20 -11 -44 -14 -47 -7 -116 -36 -116 -49
0 -4 12 -8 28 -8 20 -1 39 -14 71 -51 l44 -50 -34 -36 c-19 -19 -50 -42 -69
-50 -36 -15 -90 -60 -90 -75 0 -4 6 -8 14 -8 7 0 19 -7 26 -16 11 -13 5 -23
-41 -70 -38 -39 -50 -57 -41 -62 9 -6 4 -16 -18 -37 -16 -15 -27 -32 -24 -36
3 -5 -22 -30 -56 -55 -33 -26 -60 -50 -60 -54 0 -10 95 5 165 25 43 13 60 14
63 6 2 -7 8 -8 15 -3 7 5 33 16 60 25 l47 16 0 -30 c0 -27 2 -29 28 -23 15 4
44 17 65 28 81 45 102 55 115 56 7 0 23 -23 36 -51 13 -28 27 -46 31 -40 3 6
25 19 47 30 22 10 80 58 128 106 82 82 90 87 134 90 25 1 46 1 46 -1 0 -3 -16
-37 -36 -77 -46 -91 -114 -180 -168 -218 -22 -17 -54 -47 -69 -67 -27 -36 -27
-37 -8 -40 12 -2 21 -5 21 -8 0 -2 -16 -27 -35 -55 -37 -54 -42 -69 -24 -69 8
0 8 -4 -1 -15 -6 -8 -13 -24 -15 -37 -3 -13 -7 -36 -11 -52 -6 -23 -4 -27 7
-20 29 19 78 31 82 21 2 -6 15 -4 32 5 17 9 46 18 65 22 l35 6 -3 -45 -4 -44
88 29 c48 17 89 29 90 27 2 -1 -45 -29 -104 -62 -90 -51 -107 -64 -108 -85 -1
-14 -6 -35 -12 -47 -17 -31 -16 -79 1 -65 6 5 27 7 45 5 l34 -6 -7 -67 -7 -67
31 5 c30 4 31 3 31 -31 0 -23 6 -39 20 -48 15 -11 22 -30 27 -77 3 -34 9 -65
13 -67 3 -2 24 23 44 55 21 33 43 58 48 57 6 -1 16 13 22 32 10 29 13 31 25
17 18 -22 27 -14 46 44 9 28 19 50 21 50 11 0 49 -24 56 -34 18 -27 56 60 82
184 15 68 25 68 128 1 40 -27 74 -48 75 -47 1 1 3 29 5 64 1 34 6 62 10 62 5
0 8 20 8 45 0 25 4 45 9 45 23 0 -12 359 -46 463 -13 44 -22 81 -20 84 3 3 22
-1 42 -8 29 -11 45 -28 76 -79 21 -37 39 -75 39 -87 0 -11 6 -26 14 -32 7 -6
16 -24 19 -40 4 -16 24 -48 46 -70 37 -38 60 -53 47 -32 -3 4 5 22 18 39 22
31 24 31 40 13 9 -10 31 -39 49 -64 18 -25 45 -55 60 -68 l28 -22 16 23 15 22
30 -36 c16 -20 36 -36 44 -36 16 0 144 -125 144 -141 0 -5 4 -9 9 -9 10 0 9 4
-15 105 -10 39 -19 84 -20 100 -2 17 -7 45 -10 64 -6 29 -4 33 10 28 20 -8 20
-5 1 40 -17 41 -14 63 10 63 20 0 21 77 1 125 -8 18 -12 36 -8 39 3 4 -6 19
-20 34 -14 15 -30 36 -36 48 -11 20 -7 22 64 38 42 9 80 14 85 11 31 -20 -12
72 -51 110 -17 16 -30 35 -30 42 0 7 -18 22 -39 32 -21 11 -38 27 -37 36 0 8
-21 32 -49 53 -63 48 -100 99 -84 118 6 8 30 14 53 14 92 0 176 13 176 26 0
10 16 14 61 14 37 0 58 4 54 10 -3 6 2 10 12 10 26 0 84 22 113 43 13 9 31 17
40 18 8 0 -14 9 -49 19 -35 10 -66 22 -70 28 -3 6 -24 14 -46 18 -37 7 -81 34
-55 34 26 0 -4 20 -53 34 -28 9 -62 22 -74 29 -21 12 -22 14 -8 41 9 16 13 32
9 35 -3 3 -48 6 -100 5 -52 -1 -94 3 -94 8 0 5 -9 4 -19 -2 -21 -11 -61 -14
-61 -5 0 3 9 22 19 43 19 37 21 43 21 62 0 6 5 10 10 10 6 0 10 -17 10 -37 l1
-38 45 50 c25 28 49 49 54 48 5 -2 17 11 26 29 l16 32 13 -24 12 -23 16 24 c9
13 21 36 28 52 15 33 19 33 52 3 24 -22 27 -23 40 -7 21 23 47 88 39 97 -4 4
-2 4 5 1 7 -5 17 11 28 43 9 27 21 52 26 56 12 7 41 -11 106 -70 28 -26 54
-43 56 -39 3 5 8 29 12 56 4 26 11 47 15 47 4 0 11 20 15 45 4 28 10 43 17 39
7 -5 8 52 3 189 -5 142 -4 215 6 266 7 39 14 71 16 71 3 0 19 -11 38 -25 38
-29 65 -91 91 -207 10 -43 21 -78 25 -78 3 0 12 -13 19 -30 7 -16 15 -30 18
-30 3 0 19 12 35 28 28 27 29 27 44 7 8 -11 25 -40 38 -65 12 -25 32 -56 43
-70 20 -24 21 -24 40 -7 20 18 21 18 33 -5 7 -12 36 -46 66 -73 29 -28 53 -57
53 -65 0 -8 -16 -30 -35 -49 -40 -38 -44 -52 -15 -44 11 3 44 -5 74 -17 54
-22 54 -22 44 -53 -6 -18 -23 -48 -38 -67 -31 -41 -50 -103 -28 -95 7 3 19 1
27 -4 12 -8 12 -16 -2 -53 -20 -52 -22 -82 -5 -72 8 5 9 2 5 -10 -4 -10 -10
-29 -13 -42 -8 -30 -25 -31 -50 -3 l-19 21 -8 -34 c-5 -18 -11 -52 -14 -75 -3
-24 -7 -43 -10 -43 -16 0 -56 31 -105 81 -32 34 -65 59 -76 59 -12 0 -24 5
-27 10 -11 18 -20 10 -21 -20 -2 -42 -7 -44 -53 -21 -45 23 -55 26 -46 11 8
-13 -11 -13 -38 1 -12 7 -46 13 -77 14 -30 1 -75 6 -100 9 l-45 8 25 -21 c14
-11 28 -21 31 -21 8 0 64 -89 64 -101 0 -5 10 -16 23 -24 24 -18 29 -41 10
-47 -8 -3 -2 -16 17 -35 17 -17 35 -39 41 -49 6 -10 25 -23 43 -28 17 -5 30
-14 28 -20 -2 -6 6 -30 18 -52 l22 -42 -25 -12 c-18 -8 -53 -9 -109 -5 -54 5
-83 4 -83 -3 0 -6 -13 -7 -37 -1 -39 8 -152 1 -154 -10 -7 -41 -3 -90 9 -109
14 -21 16 -21 38 -8 16 11 24 12 26 4 3 -8 23 0 58 22 34 22 55 30 57 23 3 -9
12 -9 29 -2 29 11 114 12 98 1 -6 -4 -14 -21 -17 -38 -6 -31 -5 -32 36 -39 23
-4 54 -7 70 -6 46 4 87 -9 80 -25 -3 -8 1 -14 11 -14 9 0 16 -5 16 -11 0 -5 5
-7 10 -4 16 10 90 13 95 5 3 -4 30 -11 61 -15 54 -6 56 -7 49 -33 -4 -15 -10
-28 -15 -30 -5 -2 -24 -13 -42 -26 -18 -12 -41 -25 -51 -29 -10 -4 -16 -11
-13 -16 5 -8 -31 -24 -122 -56 -7 -3 -11 -9 -7 -15 7 -11 -46 -40 -75 -40 -11
0 -20 -4 -20 -9 0 -5 -31 -16 -68 -25 -85 -21 -104 -44 -67 -80 29 -29 58 -46
78 -46 8 0 48 25 90 55 65 46 80 53 101 45 13 -5 33 -6 45 -3 28 7 27 -9 -3
-73 -14 -29 -40 -64 -61 -80 l-38 -28 34 -9 c19 -5 42 -17 52 -28 27 -29 77
-53 77 -36 0 7 -6 19 -12 26 -11 11 -9 12 11 6 13 -4 35 -8 50 -10 51 -6 72
-14 112 -46 37 -29 98 -58 126 -59 8 0 10 26 7 91 l-4 90 22 -15 c12 -9 32
-16 44 -16 12 0 27 -6 34 -14 6 -8 17 -13 24 -10 7 3 20 -4 30 -15 10 -11 23
-18 27 -15 23 14 70 -41 117 -139 60 -126 128 -197 188 -197 l36 0 -6 38 c-3
20 -10 134 -15 252 -8 191 -13 234 -46 382 -21 93 -35 175 -31 183 8 21 43 19
50 -3 3 -9 12 -67 21 -127 8 -61 19 -135 25 -165 6 -30 15 -152 20 -270 8
-194 18 -281 34 -297 10 -11 144 38 183 66 22 16 54 47 72 69 32 41 32 42 17
84 l-14 43 71 5 c40 3 80 1 90 -3 15 -7 17 -3 15 23 -1 17 -6 34 -10 36 -4 3
-8 12 -8 20 0 9 -12 31 -26 49 -14 19 -23 39 -20 44 4 5 -10 22 -29 37 -23 18
-34 32 -30 42 4 10 -11 32 -39 61 -25 25 -54 64 -65 86 -18 38 -18 40 -1 52
14 10 30 11 62 4 83 -18 178 -23 178 -11 0 9 17 10 60 5 35 -4 60 -3 60 2 0 5
25 10 57 11 43 1 62 7 80 24 l23 22 -27 12 c-16 6 -37 20 -48 31 -11 10 -40
30 -65 44 -28 16 -44 31 -42 41 1 10 -15 26 -45 44 -27 15 -59 35 -71 45 l-24
18 25 25 24 24 -38 18 c-32 14 -39 22 -39 46 0 15 5 28 11 28 7 0 9 11 5 31
-5 27 -4 30 16 23 20 -6 21 -4 15 46 l-6 51 37 -3 c34 -2 37 -1 36 22 -3 51
-12 106 -23 149 -7 23 -10 46 -7 49 3 3 44 1 91 -4 47 -5 85 -9 85 -8 0 1 -9
23 -19 47 -11 25 -17 47 -15 50 3 3 -4 20 -15 38 -15 24 -17 35 -8 41 8 5 5
13 -10 30 -12 13 -30 43 -41 68 -25 58 -120 195 -166 239 -20 19 -36 39 -36
43 0 4 16 8 36 8 40 0 114 -39 143 -76 10 -13 23 -24 29 -24 5 0 15 -6 21 -14
13 -15 86 -56 100 -56 4 0 8 16 9 36 1 20 3 38 5 40 1 2 36 -13 77 -31 85 -39
108 -43 106 -17 0 10 5 16 14 15 78 -12 161 -33 188 -47 56 -29 57 -13 3 51
-28 33 -51 63 -51 67 0 3 -12 17 -26 32 -21 20 -24 28 -13 34 10 7 7 15 -15
35 -23 21 -26 28 -15 41 9 11 9 20 0 41 -10 21 -9 28 1 35 21 14 53 5 52 -15
-2 -20 8 -21 56 -6 19 6 50 12 69 14 21 2 46 15 65 34 29 28 65 43 52 22 -3
-5 28 -8 68 -6 l74 2 -9 -25 c-5 -14 -8 -31 -5 -38 3 -8 -23 -54 -56 -104 -49
-73 -59 -93 -48 -100 12 -7 8 -16 -16 -47 -43 -53 -58 -83 -43 -83 7 0 4 -10
-8 -22 -28 -31 -59 -104 -67 -161 l-7 -47 30 30 c21 21 39 30 58 29 15 -1 58
1 94 5 l65 8 11 -61 c10 -51 9 -72 -6 -134 -10 -41 -14 -82 -10 -93 4 -10 8
-32 8 -48 1 -28 2 -28 20 -12 23 21 75 18 78 -4 1 -8 5 -49 8 -90 7 -88 16
-110 38 -92 18 15 27 -2 27 -56 0 -20 7 -46 15 -56 11 -14 15 -46 15 -111 0
-51 3 -95 6 -98 11 -11 124 209 124 242 0 10 7 24 16 32 13 10 17 10 25 -2 6
-10 9 -5 9 18 0 17 9 56 21 86 l21 55 29 -17 c16 -9 29 -20 29 -26 0 -5 9 7
20 28 12 21 20 56 20 83 0 31 3 43 11 38 8 -5 10 0 6 17 -3 13 2 56 11 94 l17
70 35 -12 c19 -6 46 -12 59 -12 14 -1 33 -8 43 -18 17 -16 18 -15 17 18 0 19
4 59 10 89 6 30 9 62 6 70 -2 8 -7 47 -10 85 -2 39 -11 106 -19 150 l-14 80
29 30 c16 17 29 41 29 53 0 13 6 22 15 22 16 0 110 -109 119 -137 27 -97 50
-242 50 -330 1 -57 4 -103 8 -103 5 0 8 -15 8 -32 0 -18 4 -40 10 -48 7 -12
12 -12 29 5 12 10 23 16 25 14 2 -2 13 -35 25 -74 24 -82 33 -97 51 -93 8 2
18 -11 23 -29 5 -18 15 -33 22 -33 7 0 18 -13 25 -29 6 -16 20 -37 31 -47 18
-16 19 -16 19 0 0 34 33 116 46 116 8 0 14 8 14 18 0 23 57 142 68 142 17 0
98 -94 127 -147 15 -29 34 -53 40 -53 7 0 18 -13 24 -29 7 -15 28 -43 47 -62
l34 -33 0 25 c0 16 13 38 35 59 38 37 36 37 88 -18 41 -45 77 -76 80 -71 2 2
9 16 17 32 16 33 20 33 66 2 29 -20 44 -24 73 -19 32 5 44 1 81 -28 52 -40 55
-65 15 -127 -25 -38 -43 -121 -27 -121 10 0 9 -76 -1 -87 -4 -3 -7 3 -7 13 0
21 -17 44 -32 44 -5 0 -32 -21 -60 -47 -32 -30 -53 -43 -55 -36 -3 9 -19 1
-47 -22 -24 -19 -46 -35 -50 -35 -3 0 -6 32 -6 70 0 43 -4 70 -11 70 -6 0 -8
9 -5 20 3 11 9 30 12 42 7 22 6 22 -29 -5 -20 -15 -39 -27 -43 -27 -5 0 -25
-17 -46 -37 -21 -20 -38 -31 -38 -23 0 22 -40 -20 -73 -78 -19 -34 -34 -51
-43 -48 -8 3 -20 -6 -28 -23 -14 -27 -14 -29 25 -64 22 -21 37 -37 34 -37 -3
0 1 -10 9 -22 20 -29 21 -44 1 -28 -12 10 -21 10 -38 2 -12 -6 -46 -21 -74
-33 -29 -12 -53 -25 -53 -30 0 -5 19 -28 43 -50 23 -23 41 -46 39 -51 -1 -5 9
-24 22 -41 l25 -33 -43 -19 -44 -20 17 -25 c21 -30 81 -138 81 -145 0 -2 -7
-2 -15 1 -22 9 -19 -38 5 -68 10 -14 17 -28 13 -32 -6 -5 3 -30 48 -131 22
-51 32 -85 25 -85 -4 0 -33 25 -66 55 -33 30 -66 55 -74 55 -7 0 -19 7 -26 15
-7 8 -22 15 -34 15 -12 0 -35 13 -51 30 -22 23 -32 27 -42 19 -7 -6 -13 -17
-13 -24 0 -26 -43 -1 -122 72 l-81 75 -18 -38 c-10 -20 -16 -41 -13 -45 3 -5
-2 -9 -10 -9 -20 0 -98 77 -113 113 -7 15 -16 27 -21 27 -5 0 -18 21 -30 48
-27 59 -105 135 -154 149 -21 6 -38 7 -38 3 0 -51 28 -181 56 -258 19 -54 48
-133 63 -177 16 -44 36 -97 45 -117 14 -34 14 -38 1 -38 -17 0 -19 -21 -6 -67
6 -20 6 -33 -1 -35 -6 -2 -6 -27 0 -71 5 -37 7 -67 6 -67 -3 0 -89 41 -144 68
-67 33 -90 14 -90 -75 0 -24 -5 -43 -12 -46 -8 -3 -8 -6 -2 -6 7 -1 8 -16 3
-48 -4 -27 -8 -52 -9 -58 -2 -31 -17 -35 -56 -16 -41 20 -54 19 -54 -4 0 -8
-5 -37 -11 -65 -10 -48 -12 -50 -28 -36 -25 23 -28 21 -35 -24 -4 -24 -11 -38
-16 -35 -6 4 -24 -25 -42 -64 -17 -39 -35 -71 -39 -71 -5 0 -11 12 -15 28 -16
75 -36 120 -54 125 -14 3 -21 17 -26 47 -7 43 -10 44 -56 25 -20 -8 -21 3 -18
98 l1 47 -37 0 c-22 0 -46 -7 -57 -17 -19 -18 -19 -17 -16 30 3 29 0 46 -6 43
-5 -1 -9 -10 -7 -18 1 -10 -9 -20 -26 -26 -32 -11 -122 -95 -142 -131 -11 -22
-11 -23 6 -16 41 17 65 16 106 -3 24 -10 64 -27 91 -36 26 -10 47 -18 47 -19
0 -1 -9 -30 -19 -64 -13 -43 -34 -80 -68 -120 -35 -41 -53 -72 -60 -106 -9
-42 -8 -47 5 -42 25 9 83 -17 76 -35 -30 -75 -64 -174 -64 -187 0 -10 6 -14
20 -10 23 6 26 -12 9 -45 -6 -12 -13 -41 -14 -65 -2 -23 -22 -82 -44 -131 -47
-102 -49 -113 -18 -85 12 11 42 31 67 46 25 14 74 53 109 86 67 64 81 72 81
44 0 -13 6 -9 19 12 10 17 39 49 63 73 l44 43 19 -39 20 -40 33 26 c18 14 42
43 53 64 11 21 23 38 28 38 5 0 14 12 20 28 14 31 101 129 101 113 0 -6 23
-27 50 -47 28 -20 50 -43 50 -52 1 -18 1 -18 52 56 13 19 31 41 41 50 9 9 17
23 17 32 1 8 8 33 17 55 8 22 34 94 57 160 39 113 43 120 73 127 18 5 39 18
47 29 31 44 58 0 72 -117 9 -72 -52 -289 -112 -402 -25 -46 -40 -81 -35 -77
15 8 14 1 -4 -42 -17 -41 -13 -75 7 -55 7 7 20 12 30 12 14 0 17 -6 14 -22
-31 -145 -33 -183 -12 -175 11 4 15 -12 21 -71 11 -131 10 -130 62 -72 34 37
50 49 64 45 11 -4 19 -2 19 4 0 10 119 111 132 111 12 0 38 -96 48 -179 5 -45
11 -85 14 -89 3 -5 12 -53 21 -107 13 -82 21 -106 49 -144 19 -25 55 -59 81
-76 l47 -29 -40 -17 c-22 -10 -48 -29 -57 -43 -16 -24 -16 -28 -1 -51 37 -56
57 -60 358 -63 l277 -3 -5 -262 c-13 -755 -46 -1465 -95 -2064 l-12 -142 -22
15 c-22 14 -22 13 -29 -32 -3 -26 -6 -62 -6 -80 0 -19 -4 -34 -9 -34 -5 0 -12
-29 -16 -64 -5 -53 -9 -64 -22 -59 -13 5 -15 0 -10 -28 4 -19 13 -86 21 -149
9 -63 20 -140 25 -170 6 -39 4 -101 -6 -210 -9 -85 -17 -156 -18 -158 -7 -8
-65 30 -84 54 l-21 27 -1 -24 c0 -13 -2 -37 -4 -54 -2 -16 -12 -104 -22 -195
-13 -127 -19 -155 -23 -123 -4 24 -9 45 -12 48 -12 12 -58 -72 -58 -107 0 -19
-4 -57 -9 -84 -14 -74 -16 -133 -6 -135 6 -1 26 26 46 61 22 37 39 58 44 51 3
-7 11 -40 15 -74 6 -43 15 -67 30 -79 14 -11 20 -28 20 -54 0 -43 -69 -566
-75 -572 -3 -3 -7 3 -11 12 -4 11 -18 16 -44 16 -21 0 -45 3 -54 6 -19 7 -22
34 -4 34 8 0 9 3 1 11 -5 5 -36 13 -67 16 -31 3 -56 10 -56 14 0 13 -77 11
-101 -2 -23 -12 -62 -3 -41 10 7 4 -1 12 -23 20 -35 12 -35 12 -35 75 l0 62
59 29 c65 31 124 74 102 75 -25 0 18 38 58 51 39 13 73 38 66 49 -2 4 8 13 22
19 43 20 97 67 128 111 27 39 29 64 3 42 -18 -15 -73 -18 -89 -6 -8 6 -42 21
-77 34 -34 12 -64 25 -66 29 -2 3 3 29 11 58 10 34 34 74 67 115 29 35 53 70
54 78 0 8 4 33 8 55 6 34 5 38 -7 28 -11 -9 -22 -8 -46 2 l-33 14 35 98 c36
98 38 128 10 117 -18 -7 -19 4 -4 43 6 15 12 47 14 70 2 24 22 82 44 130 22
48 38 89 36 92 -3 2 -14 -4 -24 -13 -11 -10 -38 -27 -60 -39 -22 -12 -69 -50
-105 -85 -62 -59 -86 -74 -86 -52 0 6 -27 -17 -60 -51 -59 -60 -61 -61 -80
-44 -11 10 -20 26 -20 37 0 10 -2 18 -5 18 -12 0 -93 -88 -99 -108 -4 -12 -11
-20 -16 -17 -4 3 -13 -9 -19 -25 -8 -26 -15 -30 -45 -30 -35 0 -36 -1 -36 -37
0 -55 -12 -69 -35 -43 -10 11 -33 30 -51 41 -18 11 -36 30 -40 41 -6 21 -7 21
-23 -8 -34 -63 -63 -104 -71 -99 -5 3 -12 -10 -16 -30 l-6 -35 -109 0 -108 0
15 53 c9 28 33 85 54 125 20 39 34 72 29 72 -4 0 -1 16 7 35 7 19 14 43 14 54
0 18 -3 19 -26 10 -15 -5 -29 -7 -32 -5 -3 3 0 31 7 62 6 32 11 74 11 95 0 31
-3 37 -16 32 -13 -5 -15 1 -9 41 5 31 4 46 -4 46 -6 0 -11 18 -11 43 0 23 -5
49 -10 57 -6 9 -10 10 -10 3 0 -16 -78 -88 -95 -88 -7 0 -19 -6 -28 -14 -13
-10 -14 -16 -4 -32 17 -27 -5 -49 -32 -32 -15 10 -25 7 -52 -13 -18 -13 -36
-24 -40 -24 -4 0 -16 32 -26 71 -17 66 -21 73 -73 111 -30 23 -109 94 -175
158 -66 64 -136 127 -155 140 -19 13 -52 39 -72 59 l-38 35 -35 -34 c-20 -19
-67 -81 -106 -137 -39 -56 -99 -135 -134 -176 -88 -103 -325 -311 -325 -284 0
1 76 79 168 172 127 128 185 196 237 275 38 58 91 129 119 157 l49 53 -28 40
c-16 23 -32 43 -37 46 -4 3 -91 -20 -192 -50 -245 -74 -297 -86 -384 -86 -53
0 -83 5 -112 20 -22 11 -73 27 -114 35 -83 15 -174 56 -207 91 -13 13 -17 24
-11 24 6 0 14 -5 17 -10 14 -22 111 -62 193 -80 48 -10 104 -26 124 -34 47
-20 151 -20 241 -1 58 12 406 121 415 130 3 3 -157 243 -263 394 -37 54 -38
55 -155 82 -173 39 -513 156 -484 166 6 2 69 -15 140 -37 132 -42 426 -122
431 -117 4 4 -128 195 -224 324 -45 62 -81 113 -79 113 2 0 32 -35 65 -77 157
-199 185 -233 191 -233 6 0 104 335 116 397 4 18 10 31 14 28 8 -5 -45 -247
-84 -382 l-23 -81 25 -32 c13 -17 80 -113 149 -213 68 -100 127 -183 131 -184
8 -3 148 188 217 297 83 129 130 244 210 513 37 124 49 98 14 -32 -80 -301
-174 -494 -355 -729 -35 -45 -64 -85 -64 -89 0 -10 113 -164 119 -161 3 2 49
24 101 50 90 44 336 148 349 148 5 -1 -115 -63 -372 -191 -70 -35 -69 -39 34
-131 40 -35 134 -121 209 -193 76 -71 152 -138 169 -148 30 -18 31 -18 31 1 0
11 -7 36 -15 55 -8 20 -15 53 -15 74 -1 21 -7 52 -14 68 l-14 30 -9 -23 c-6
-16 -26 -30 -60 -42 -51 -18 -51 -18 -56 4 -22 87 -29 109 -47 138 -11 18 -20
27 -20 21 0 -7 -13 -19 -29 -28 -29 -14 -30 -14 -50 21 -12 20 -19 40 -16 45
11 18 112 9 185 -16 80 -27 105 -31 95 -14 -5 7 14 8 64 3 52 -5 71 -3 71 5 0
7 6 11 13 9 16 -3 87 24 87 33 0 4 -7 9 -15 13 -8 3 -15 11 -15 18 0 7 -16 23
-35 36 -19 12 -35 26 -35 31 0 16 85 51 122 51 36 0 98 25 98 40 0 4 10 11 23
14 22 7 22 7 2 15 -12 5 -27 16 -34 25 -11 13 -6 19 35 46 26 16 43 30 36 30
-23 0 -12 18 23 39 19 11 34 25 33 30 -2 5 19 34 46 66 50 58 55 76 14 54 -12
-7 -57 -14 -98 -14 -41 -1 -85 -5 -97 -9 -18 -6 -23 -3 -23 9 0 26 -111 15
-152 -15 -21 -15 -33 -19 -36 -12 -2 7 -24 12 -53 12 -27 0 -49 3 -49 8 0 28
25 80 58 120 46 55 60 78 44 68 -22 -14 -12 8 19 40 17 17 31 38 33 45 1 8 14
34 30 58 15 24 30 59 34 79 5 35 5 36 -12 19 -14 -13 -35 -17 -97 -17 l-79 0
0 54 c0 29 7 73 15 96 8 23 15 58 15 77 0 33 -1 34 -37 31 l-38 -3 -3 83 c-3
75 -5 83 -21 77 -16 -5 -19 3 -26 57 -4 35 -6 92 -5 128 l1 65 -25 -35 c-14
-19 -42 -68 -61 -108 -20 -40 -39 -70 -44 -68 -4 3 -18 -19 -30 -49 -13 -30
-27 -55 -32 -55 -5 0 -17 8 -27 18 -18 18 -19 18 -34 -17 -8 -20 -18 -54 -22
-76 -4 -22 -14 -61 -22 -86 l-15 -46 -42 11 c-23 6 -47 14 -53 18 -24 16 -39
-73 -37 -223 2 -124 0 -149 -13 -160 -9 -7 -20 -23 -25 -36 -11 -31 -28 -22
-66 35 -38 57 -54 157 -51 328 1 113 -6 152 -24 120 -14 -25 -26 -19 -33 17
-18 86 -26 106 -40 101 -10 -4 -15 0 -15 14 0 12 -5 24 -10 27 -6 3 -18 22
-29 42 l-18 36 -18 -46 c-10 -26 -23 -47 -29 -48 -6 0 -24 -27 -40 -60 l-28
-61 -28 27 c-15 15 -40 49 -55 77 -15 28 -36 59 -46 69 -11 11 -19 24 -19 30
0 6 -9 22 -20 36 -13 17 -20 21 -20 11 0 -9 -15 -27 -33 -41 l-33 -25 -22 23
c-12 13 -22 27 -22 33 0 5 -10 16 -22 24 -20 14 -24 13 -39 -6 l-17 -21 -32
23 c-17 13 -40 22 -49 19 -20 -5 -41 5 -94 47 -21 16 -40 26 -44 23 -3 -4 2
-36 11 -71 10 -36 15 -69 12 -75 -4 -6 0 -24 9 -41 15 -30 15 -30 -10 -30 -14
0 -25 -3 -25 -6 0 -4 14 -31 31 -60 l30 -54 -26 -10 c-14 -5 -35 -10 -46 -10
-16 0 -19 -4 -14 -22 13 -43 49 -88 71 -88 94 0 154 -58 108 -104 -11 -12 -20
-13 -34 -6 -27 14 -34 12 -20 -5 11 -13 10 -18 -6 -29 -19 -14 -166 -56 -194
-56 -8 0 6 -21 33 -48 26 -26 47 -51 47 -55 0 -4 16 -22 36 -39 27 -24 32 -33
22 -40 -9 -7 -10 -11 -2 -14 7 -3 38 -21 70 -41 33 -20 84 -50 114 -67 105
-61 169 -105 227 -157 32 -29 59 -56 61 -60 2 -5 -14 -15 -35 -24 -32 -14 -48
-15 -108 -5 -38 6 -85 20 -103 31 -19 10 -37 17 -42 14 -4 -3 -21 2 -36 10
-16 8 -55 15 -86 15 l-57 0 14 -46 14 -47 -97 5 c-125 6 -148 1 -144 -35 3
-26 1 -27 -41 -27 -24 0 -65 -6 -91 -14 -32 -10 -72 -13 -120 -10 l-71 6 25
-21 c14 -11 40 -26 58 -32 17 -6 32 -14 32 -18 0 -4 16 -13 35 -20 19 -7 35
-16 35 -22 0 -5 15 -15 34 -23 40 -17 54 -35 35 -47 -10 -6 -9 -10 6 -15 11
-4 50 -19 86 -33 l65 -26 -17 -40 -18 -40 35 -10 c19 -6 38 -15 42 -21 4 -6
23 -10 42 -10 19 0 47 -3 62 -7 l27 -7 -31 -53 c-17 -28 -31 -58 -31 -65 0 -7
-11 -15 -24 -18 -36 -9 -19 -21 49 -32 130 -22 147 -23 180 -6 29 15 33 15 43
0 11 -14 19 -14 83 -1 40 9 89 13 110 9 35 -5 38 -8 34 -34 -2 -15 -21 -45
-43 -66 -21 -21 -39 -43 -39 -49 0 -6 -11 -22 -25 -35 -15 -14 -23 -30 -20
-41 3 -10 -8 -33 -30 -59 -20 -24 -34 -49 -31 -56 3 -7 -2 -18 -10 -24 -8 -7
-14 -19 -14 -27 0 -7 -7 -25 -16 -38 -9 -13 -14 -30 -11 -37 2 -7 0 -24 -5
-37 l-9 -24 33 25 c18 13 59 35 91 47 31 13 61 29 65 35 11 16 42 16 42 -1 0
-11 9 -9 43 9 23 13 44 25 47 28 18 18 38 6 53 -31 9 -23 14 -45 11 -50 -2 -5
7 -31 21 -58 30 -60 31 -68 8 -73 -15 -3 -10 -11 22 -48 41 -46 143 -178 250
-324 52 -72 165 -273 165 -296 0 -4 -24 -10 -52 -12 -38 -3 -64 1 -91 14 -74
37 -142 86 -175 127 -18 23 -37 39 -41 37 -4 -3 -27 15 -52 40 -24 24 -49 42
-55 40 -6 -2 -28 6 -47 20 -56 38 -64 33 -72 -42 -6 -51 -11 -64 -22 -60 -46
18 -60 17 -75 -6 -9 -13 -25 -33 -37 -45 -20 -21 -20 -23 -4 -32 49 -28 49
-28 23 -55 -13 -15 -20 -26 -15 -26 4 0 -11 -14 -33 -30 -23 -17 -42 -33 -42
-38 0 -12 108 -64 119 -57 21 12 11 -12 -15 -38 -50 -50 -97 -67 -189 -67
l-85 0 0 89 0 89 -222 7 c-123 4 -250 5 -283 4 -59 -4 -60 -5 -63 -34 -5 -61
-13 -95 -22 -95 -6 0 -10 8 -10 19 0 12 -9 20 -25 23 -18 4 -25 1 -25 -10 0
-8 -3 -12 -7 -9 -3 4 -12 2 -20 -4 -10 -9 -13 -6 -13 15 0 25 -2 26 -37 22
-21 -3 -41 -5 -45 -5 -5 -1 -8 -19 -8 -42 l0 -41 -48 7 c-39 5 -52 3 -74 -14
-22 -18 -42 -21 -154 -23 l-129 -3 -3 -27 c-3 -22 -9 -28 -27 -28 -27 0 -77
-24 -68 -33 3 -4 2 -7 -3 -7 -14 0 -17 -147 -4 -155 6 -3 8 -10 5 -15 -2 -4
18 -6 45 -3 l50 5 0 -206 0 -206 -69 50 c-62 45 -128 79 -135 69 -1 -2 -21
-35 -45 -73 -31 -51 -39 -71 -30 -77 7 -4 17 -5 22 -2 5 3 21 -6 35 -20 15
-13 39 -31 54 -38 14 -8 58 -39 97 -69 l71 -55 0 -252 0 -253 -23 0 c-13 0
-77 30 -143 66 -160 88 -421 219 -571 284 -67 30 -120 57 -117 62 3 5 21 15
40 23 21 8 33 19 29 25 -5 8 -15 6 -32 -5 -36 -24 -84 -12 -131 33 -22 21 -58
46 -81 57 -27 12 -41 24 -39 34 3 14 22 16 126 15 99 0 122 2 118 13 -4 10 -1
11 12 4 9 -5 33 -11 52 -13 l35 -3 7 55 c4 30 12 102 17 160 6 58 13 121 17
142 6 36 6 36 -52 64 -33 16 -66 29 -74 31 -8 1 -29 18 -46 39 -17 20 -36 34
-42 30 -6 -4 -16 3 -22 14 -6 12 -16 18 -23 13 -6 -4 -24 -8 -39 -10 -26 -3
-28 1 -49 70 -12 39 -25 74 -30 77 -4 3 -9 30 -11 60 l-3 55 -85 3 c-47 2 -90
8 -95 12 -17 14 -309 14 -313 1 -2 -7 -40 -11 -103 -11 l-99 0 0 90 0 90 -57
2 c-32 1 -89 2 -128 4 l-69 2 -13 53 c-7 30 -12 61 -13 70 0 23 80 39 131 26
58 -14 145 16 109 38 -23 14 -10 43 23 50 87 18 108 26 105 42 -2 12 7 19 29
24 18 3 39 11 45 17 7 5 36 13 63 17 105 13 106 14 35 45 -36 16 -69 30 -75
30 -26 1 -85 22 -81 29 3 4 -22 13 -55 20 -32 6 -59 15 -59 19 0 4 7 17 15 29
15 21 14 22 -32 29 -27 4 -66 8 -88 9 -22 1 -56 3 -75 3 l-35 2 4 47 c2 27 8
54 15 62 9 12 7 13 -10 9 -12 -3 -39 -2 -60 1 -23 4 -56 2 -79 -5 -22 -7 -78
-22 -124 -33 -74 -18 -87 -18 -105 -5 -11 7 -29 14 -39 14 -36 0 -12 32 52 71
93 56 210 99 271 99 27 0 50 5 50 10 0 6 10 10 23 10 12 0 29 5 37 10 13 8 12
11 -4 23 -18 13 -15 16 43 42 41 19 60 33 57 42 -3 7 -2 13 2 13 4 0 27 18 52
40 l43 39 -42 7 c-24 4 -45 13 -48 20 -3 8 -13 14 -22 14 -10 0 -38 7 -64 16
l-47 16 26 34 c30 39 34 36 -77 64 l-74 19 116 -1 116 -1 51 48 c46 44 69 77
42 60 -11 -7 -70 31 -70 44 0 5 12 21 27 37 15 16 33 39 40 52 10 19 9 22 -8
22 -27 0 -33 21 -15 54 11 21 12 33 4 45 -8 13 -4 31 17 74 16 31 25 60 21 64
-3 4 -31 -5 -61 -20 -30 -15 -61 -24 -68 -21 -7 2 -22 -4 -32 -16 -23 -25 -35
-26 -35 0 0 28 -12 25 -60 -15 -23 -19 -45 -35 -49 -35 -4 0 -13 16 -21 35 -8
19 -19 35 -25 35 -14 0 -69 -47 -135 -114 -32 -34 -52 -47 -64 -43 -9 4 -34
45 -56 92 -22 47 -41 85 -43 85 -2 0 -18 -23 -36 -50 -18 -28 -37 -48 -42 -45
-5 4 -9 1 -9 -5 0 -22 -41 -69 -54 -64 -10 4 -16 -5 -21 -28 -4 -18 -23 -55
-41 -81 -43 -60 -112 -213 -131 -292 -8 -33 -19 -71 -25 -85 l-10 -25 -24 30
c-27 34 -39 98 -30 153 22 132 25 162 20 202 -9 72 -9 72 -49 49 -20 -12 -38
-19 -41 -16 -9 9 -24 80 -24 118 0 20 -5 50 -11 67 -9 27 -14 30 -38 26 -27
-6 -28 -4 -34 36 -3 24 -10 46 -15 49 -6 3 -14 19 -17 34 -4 15 -11 30 -16 33
-5 3 -10 24 -10 47 -1 23 -5 56 -8 72 l-7 30 -17 -39 c-9 -21 -17 -49 -17 -62
0 -12 -4 -26 -10 -29 -5 -3 -10 -17 -10 -31 0 -14 -7 -27 -15 -30 -8 -4 -15
-17 -15 -31 0 -13 -5 -33 -11 -44 -8 -16 -13 -18 -25 -8 -11 9 -14 8 -14 -2 0
-8 -5 -31 -11 -52 -9 -32 -13 -36 -34 -31 -19 5 -27 0 -41 -28 -24 -46 -36
-104 -35 -166 1 -29 -1 -56 -4 -62 -7 -11 -134 33 -146 51 -14 22 -22 2 -22
-53 1 -104 7 -143 26 -171 14 -20 16 -31 8 -40 -7 -10 -4 -30 14 -73 25 -64
28 -75 26 -116 -1 -35 -29 -37 -77 -7 -33 20 -34 20 -34 1 0 -56 14 -112 27
-112 12 0 14 -10 8 -51 l-7 -51 36 4 c42 5 45 -5 21 -71 -8 -22 -12 -41 -10
-41 2 0 -3 -19 -11 -42 -22 -63 -16 -68 76 -68 44 0 80 -3 80 -7 0 -5 -8 -21
-18 -38 -50 -82 -34 -102 65 -79 77 18 111 17 178 -3 40 -13 55 -22 55 -35 0
-27 -35 -92 -97 -180 -47 -67 -52 -78 -34 -78 24 0 82 74 137 175 l37 67 24
-24 c27 -28 43 -105 35 -176 -5 -48 -5 -49 53 -27 13 5 4 -8 -22 -36 -40 -42
-56 -68 -33 -54 6 4 10 -15 10 -49 0 -35 5 -60 15 -70 8 -8 15 -19 15 -24 0
-5 9 -20 21 -33 l21 -24 -82 -5 c-77 -6 -84 -8 -111 -38 -27 -30 -29 -38 -29
-115 1 -52 6 -91 15 -107 35 -61 2 -122 -60 -114 -19 2 -73 8 -122 13 -48 6
-164 19 -258 30 -207 25 -474 46 -780 62 -398 21 -1325 0 -1666 -37 -46 -5
-60 -11 -77 -34 -19 -25 -31 -29 -74 -21 -5 0 -8 8 -8 16 0 22 -74 20 -307
-10 -431 -55 -819 -128 -1228 -232 -121 -31 -228 -56 -239 -57 -15 -1 -31 27
-75 129 -32 72 -72 154 -90 183 -18 29 -31 59 -28 67 3 7 26 17 51 20 40 6 56
3 118 -28 40 -19 104 -62 143 -96 85 -75 105 -88 105 -66 0 23 15 19 87 -25
68 -41 93 -49 93 -29 0 6 6 7 13 2 14 -9 147 -11 147 -2 0 3 -9 14 -20 24 -11
10 -18 25 -15 34 3 9 -9 36 -25 61 -34 51 -37 65 -14 74 29 11 121 6 163 -9
39 -14 125 -14 138 -1 4 3 19 6 34 6 15 0 31 5 34 10 3 6 2 10 -4 10 -6 0 -19
17 -30 38 l-20 38 58 12 c31 7 68 12 82 12 21 1 22 2 7 11 -29 16 -21 26 28
34 62 9 74 14 74 32 0 8 18 22 40 30 22 9 40 19 40 23 0 4 18 13 40 20 22 7
40 15 40 18 0 13 -39 31 -67 32 -17 0 -35 5 -38 10 -3 6 -26 15 -50 21 -24 6
-46 17 -49 25 -4 9 -21 14 -51 14 -47 0 -73 23 -45 40 15 9 -48 30 -92 30 -16
0 -28 5 -28 10 0 14 -76 13 -99 -2 -10 -6 -27 -8 -37 -4 -16 6 -16 9 -4 16 13
9 13 10 0 10 -8 0 -40 13 -70 28 l-55 28 28 42 c20 30 47 52 90 74 87 43 122
69 107 78 -14 9 6 24 75 56 22 11 39 25 38 31 -2 7 12 20 30 29 44 23 87 59
120 102 32 42 35 57 8 42 -24 -12 -68 -13 -76 -1 -3 5 -29 17 -58 27 -86 28
-108 42 -98 62 5 9 16 37 25 62 9 25 35 68 59 95 24 28 48 69 55 91 15 51 15
67 1 59 -8 -6 -61 9 -77 21 -2 1 12 46 32 99 41 109 42 117 19 114 -31 -3 -32
0 -17 38 9 20 17 56 19 79 1 23 21 82 44 131 38 83 54 132 30 90 -5 -9 -28
-26 -49 -37 -39 -20 -115 -81 -175 -140 -34 -34 -45 -37 -45 -13 0 10 -11 1
-28 -23 -58 -79 -58 -78 -65 68 -4 73 -10 221 -13 330 l-7 196 27 46 c15 26
45 58 68 73 l40 27 261 -32 c144 -18 519 -71 832 -117 610 -90 984 -140 991
-133 4 4 -77 281 -93 318 -3 8 -5 18 -5 23 1 4 -2 7 -7 7 -5 0 -9 10 -9 23 0
12 -16 75 -36 141 -20 65 -36 135 -36 156 0 45 22 111 50 150 12 16 332 282
713 591 381 308 702 572 714 585 12 14 25 24 28 24 8 -1 665 533 665 541 0 5
-245 124 -430 207 -114 52 -139 99 -115 218 9 40 94 359 191 709 96 351 173
640 169 643 -3 3 -277 -52 -608 -121 -332 -70 -616 -127 -633 -127 -39 1 -103
31 -133 63 -17 19 -45 101 -105 312 -45 157 -86 286 -92 286 -5 1 -229 -246
-499 -547 -269 -302 -509 -562 -532 -578 -59 -41 -134 -47 -183 -14 -48 32
-72 100 -66 188 2 36 97 559 211 1163 114 604 205 1101 202 1104 -3 3 -77 -32
-164 -76 -396 -204 -498 -252 -548 -257 -71 -9 -129 10 -173 55 -25 25 -134
220 -332 589 -208 389 -298 548 -306 542 -6 -6 -13 -7 -16 -4 -3 3 -19 -13
-35 -35 -32 -44 -43 -44 -43 0 0 15 -4 31 -10 34 -5 3 -10 20 -10 36 0 18 -4
28 -10 24 -5 -3 -10 1 -10 10 0 12 13 6 49 -24 l48 -41 7 45 c3 25 9 65 12 90
5 30 11 45 21 45 10 0 13 6 9 16 -22 58 -42 411 -24 429 11 11 66 -33 83 -65
8 -15 24 -59 37 -97 12 -37 31 -81 42 -98 12 -16 22 -32 24 -34 1 -3 15 7 30
22 l28 26 44 -65 c52 -77 56 -80 77 -63 13 11 19 9 37 -14 12 -15 26 -27 31
-27 14 -1 67 -57 99 -105 21 -32 26 -36 26 -18 0 12 -4 33 -9 46 -16 41 -22
180 -9 188 8 5 6 23 -8 67 l-20 61 34 6 c27 5 32 10 27 23 -4 9 -10 28 -13 42
-2 14 -10 32 -17 40 -7 8 -16 25 -19 36 -6 20 -2 23 51 32 40 7 62 7 71 0 9
-8 11 -6 6 8 -14 43 -35 82 -49 94 -8 7 -15 19 -15 26 0 7 -14 21 -31 29 -19
10 -29 22 -25 30 3 8 -11 27 -35 46 -48 37 -76 86 -60 102 7 7 44 10 96 8 56
-2 85 1 85 8 0 6 18 11 39 11 51 0 142 20 161 35 8 7 22 15 30 18 11 4 9 6 -5
7 -29 1 -160 76 -158 89 2 6 -8 13 -22 17 -14 3 -25 10 -25 15 0 5 -3 8 -7 7
-5 -1 -20 5 -36 12 -26 13 -26 14 -12 37 15 22 14 24 -12 35 -15 6 -67 11
-115 10 l-87 0 17 36 c9 21 23 45 31 55 15 18 13 18 -57 13 -42 -3 -82 -12
-97 -22 -14 -9 -28 -14 -32 -11 -8 8 -90 -38 -130 -74 -33 -29 -82 -46 -140
-51 -27 -2 -32 -7 -36 -33 -2 -16 1 -33 7 -37 6 -4 99 -7 206 -6 169 2 211 -1
315 -21 66 -13 125 -28 130 -34 7 -6 -1 -8 -25 -3 -142 27 -285 37 -458 33
l-187 -4 -6 -24 c-15 -52 -10 -57 142 -165 164 -117 235 -188 245 -244 4 -19
20 -64 37 -99 22 -47 32 -82 33 -125 l3 -61 -8 51 c-5 28 -24 86 -44 130 -20
43 -39 92 -43 108 -11 44 -111 136 -254 232 -72 48 -132 86 -134 83 -2 -2 -32
-91 -66 -198 l-62 -193 31 -67 c62 -136 158 -413 132 -385 -4 5 -31 71 -60
146 -51 134 -108 268 -115 268 -1 0 -23 -65 -47 -145 -24 -79 -45 -143 -47
-141 -1 2 8 47 21 100 14 53 21 96 17 96 -5 0 -76 -27 -158 -60 -83 -33 -154
-60 -159 -60 -12 1 159 81 253 120 l81 33 13 50 c7 28 34 116 61 196 26 80 47
147 45 149 -2 2 -82 -2 -177 -7 -200 -12 -286 -31 -460 -97 -66 -25 -123 -43
-126 -40 -3 2 10 11 28 19 19 8 62 26 96 40 159 68 356 107 540 107 l112 0 21
69 c25 85 25 88 -2 96 -29 9 -267 139 -293 160 -11 9 0 5 25 -9 66 -36 292
-137 297 -132 2 2 7 29 10 60 5 52 4 56 -15 56 -28 0 -76 58 -97 116 -30 85
-35 95 -45 89 -5 -3 -16 10 -24 30 -8 19 -23 38 -33 42 -10 4 -20 9 -23 12 -3
3 -19 14 -36 23 l-31 18 -2 -57 c0 -31 -3 -59 -6 -62 -9 -8 -75 31 -86 51 -10
19 -48 39 -85 44 -18 2 -20 -2 -16 -23 5 -24 3 -25 -24 -18 -16 4 -81 9 -144
11 -101 2 -113 1 -95 -12 33 -23 85 -77 85 -89 0 -5 9 -16 20 -23 11 -6 17
-18 14 -26 -3 -7 7 -23 22 -35 15 -11 23 -21 18 -21 -14 0 31 -29 46 -30 8 0
25 -19 38 -42 28 -52 21 -58 -70 -58 -44 0 -68 -4 -68 -11 0 -8 -13 -9 -38 -5
-22 3 -42 3 -46 -1 -4 -4 -25 -9 -47 -10 -39 -3 -109 -32 -78 -33 8 0 33 -20
55 -46 21 -25 41 -47 43 -49 7 -8 -55 -55 -89 -66 -19 -6 -45 -20 -57 -32
l-22 -20 22 -18 22 -18 -34 -28 c-68 -55 -67 -54 -53 -60 13 -5 -67 -88 -119
-124 -21 -15 -18 -15 52 -7 41 5 97 10 124 12 28 2 58 7 68 11 13 6 17 2 17
-18 0 -21 4 -24 28 -19 15 2 32 8 37 12 6 4 35 17 66 28 l57 21 12 -43 c12
-43 12 -44 38 -30 15 8 31 14 35 14 10 0 137 101 155 123 8 10 28 16 53 15 44
0 49 -14 25 -71 -13 -31 -147 -167 -165 -167 -11 0 -81 -64 -81 -74 0 -3 7 -6
15 -6 21 0 19 -8 -15 -47 -17 -19 -28 -39 -24 -44 3 -5 1 -15 -4 -22 -5 -7
-12 -21 -14 -32 -3 -11 -9 -29 -14 -39 -5 -13 -4 -17 4 -12 6 3 30 9 54 11 24
2 60 7 80 10 52 9 52 -4 -6 -159 -29 -77 -31 -85 -16 -70 6 6 24 8 41 6 33 -5
33 -6 15 -89 -4 -19 -1 -23 20 -23 20 0 24 -5 24 -31 0 -17 7 -37 15 -45 9
-10 15 -35 15 -67 l1 -52 26 30 c22 26 21 21 -10 -35 -19 -36 -123 -231 -232
-435 -236 -441 -243 -452 -320 -482 -87 -34 -141 -15 -505 173 -165 86 -304
154 -307 150 -4 -3 88 -505 202 -1114 225 -1190 228 -1210 187 -1289 -51 -99
-179 -97 -279 4 -21 22 -249 276 -508 566 -258 290 -472 523 -476 519 -4 -4
-42 -130 -85 -281 -42 -150 -87 -287 -99 -304 -27 -41 -90 -77 -135 -77 -19 0
-306 57 -638 126 -331 70 -605 124 -608 121 -4 -3 76 -304 176 -669 207 -749
215 -791 164 -846 -20 -22 -103 -66 -269 -143 -132 -61 -242 -113 -245 -116
-3 -3 13 -19 35 -36 168 -135 1661 -1349 1700 -1384 28 -24 121 -102 208 -174
169 -139 201 -180 213 -273 7 -46 -15 -134 -122 -495 -30 -101 -52 -186 -49
-189 3 -3 175 17 383 45 207 28 380 48 384 44 3 -3 10 -32 13 -65 l8 -58 -49
4 c-27 3 -58 8 -68 13 -18 8 -19 5 -12 -66 5 -41 9 -84 10 -96 0 -13 8 -23 16
-23 13 0 13 -2 1 -9 -12 -8 -11 -22 7 -93 12 -45 17 -87 13 -91 -5 -5 -26 -9
-47 -10 -45 -1 -224 20 -248 29 -18 7 -17 2 29 -100 14 -32 24 -64 22 -70 -2
-6 9 -37 24 -68 35 -69 35 -68 8 -68 -20 0 -18 -4 15 -42 20 -24 57 -72 83
-108 26 -36 74 -98 106 -139 32 -41 80 -107 107 -146 51 -76 127 -232 117
-241 -3 -4 -29 -8 -57 -9 -45 -3 -59 2 -131 46 -44 26 -99 69 -121 94 -22 25
-43 43 -48 40 -4 -2 -26 16 -49 40 -23 25 -46 43 -51 40 -5 -3 -27 6 -49 20
-47 29 -72 32 -69 8 1 -10 -2 -40 -6 -66 -10 -57 -6 -57 -151 14 -55 27 -115
50 -134 51 -30 3 -34 0 -37 -26 -1 -15 -5 -31 -8 -34 -4 -3 -27 5 -54 17 -26
12 -60 21 -77 21 -64 -3 -143 18 -222 58 -46 23 -85 42 -88 42 -12 0 21 -47
68 -97 27 -29 46 -53 42 -53 -5 0 9 -18 31 -40 21 -21 39 -45 39 -53 0 -8 17
-30 38 -49 39 -37 47 -65 21 -75 -12 -5 -10 -11 15 -37 l31 -32 -22 -31 c-13
-16 -27 -31 -33 -32 -5 -1 -16 -13 -23 -27 -14 -26 -28 -31 -35 -11 -2 6 -12
-5 -22 -25 -17 -35 -18 -39 -2 -56 20 -22 13 -52 -13 -52 -24 0 -40 22 -34 46
3 12 -3 24 -17 32 -11 7 -23 11 -26 9 -2 -3 -19 -45 -38 -94 -21 -55 -39 -89
-49 -91 -9 -2 -43 19 -75 47 l-58 51 -14 -90 c-9 -63 -17 -90 -27 -90 -7 0
-11 -3 -9 -8 12 -18 39 -313 34 -365 -6 -68 -8 -71 -37 -62 -29 9 -65 68 -91
150 -13 39 -32 84 -43 100 -12 17 -22 32 -24 34 -1 3 -15 -7 -30 -22 l-27 -26
-48 69 c-48 69 -60 80 -72 60 -11 -18 -31 -11 -43 15 -6 14 -17 25 -23 25 -18
0 -68 52 -97 99 -30 51 -39 41 -23 -27 18 -75 23 -175 9 -183 -8 -5 -6 -23 8
-67 l20 -61 -34 -6 c-24 -4 -32 -10 -28 -21 5 -12 -62 -14 -479 -14 l-485 0 0
-35 0 -34 -87 -3 c-88 -3 -88 -3 -91 -31 -3 -21 -9 -27 -27 -27 -12 0 -23 6
-22 13 0 6 -1 38 -1 70 -2 56 -2 57 -32 57 -28 0 -30 3 -30 35 0 32 2 35 30
35 20 0 30 5 30 15 0 10 -10 15 -30 15 -28 0 -30 3 -30 35 0 32 2 35 30 35 20
0 30 5 30 15 0 10 -10 15 -30 15 l-29 0 -3 72 -3 73 -313 3 -312 3 0 -1201 0
-1200 3212 2 c2782 3 3217 5 3245 18 29 13 34 12 51 -3 17 -16 343 -17 5310
-17 3267 0 5292 4 5292 9 0 19 41 23 59 7 16 -15 584 -16 6444 -16 l6427 0 0
1720 0 1720 -162 -2 -163 -3 -3 -33 c-3 -29 -1 -32 22 -32 24 0 26 -4 26 -39
0 -33 -4 -40 -22 -43 -15 -2 -24 -11 -26 -25 -3 -19 1 -23 22 -23 23 0 26 -4
26 -35 l0 -35 -390 0 -390 0 0 -70 0 -70 -40 0 c-29 0 -40 -4 -40 -15 0 -11
11 -15 40 -15 39 0 40 -1 40 -34 0 -33 -2 -35 -37 -38 -26 -2 -38 -8 -38 -18
0 -8 7 -15 15 -16 8 -1 25 -2 38 -2 18 -2 22 -8 22 -37 0 -34 -1 -35 -41 -35
-52 0 -48 -24 4 -28 35 -3 37 -5 37 -38 0 -33 -1 -34 -40 -34 -29 0 -40 -4
-40 -15 0 -11 11 -15 40 -15 39 0 40 -1 40 -35 0 -34 -1 -35 -40 -35 -22 0
-40 -4 -40 -10 0 -6 -82 -10 -225 -10 l-225 0 0 -60 0 -60 -30 0 c-25 0 -30
-4 -30 -25 0 -21 5 -25 30 -25 29 0 30 -2 30 -45 0 -43 -1 -45 -30 -45 -20 0
-30 -5 -30 -15 0 -10 10 -15 30 -15 27 0 30 -3 30 -30 0 -27 -3 -30 -30 -30
-39 0 -41 -27 -2 -32 22 -2 28 -8 30 -35 3 -31 1 -33 -27 -33 -21 0 -31 -5
-31 -15 0 -10 10 -15 30 -15 28 0 30 -3 30 -35 0 -32 -2 -35 -30 -35 -20 0
-30 -5 -30 -15 0 -10 10 -15 30 -15 27 0 30 -3 30 -30 0 -27 -3 -30 -30 -30
-23 0 -30 -4 -30 -20 0 -16 7 -20 30 -20 27 0 30 -3 30 -30 0 -27 -3 -30 -30
-30 -20 0 -30 -5 -30 -15 0 -10 10 -15 30 -15 28 0 30 -3 30 -35 0 -32 -2 -35
-30 -35 -20 0 -30 -5 -30 -15 0 -10 10 -15 30 -15 28 0 30 -3 30 -35 0 -32 -2
-35 -30 -35 -20 0 -30 -5 -30 -15 0 -10 10 -15 30 -15 27 0 30 -3 30 -30 0
-27 -3 -30 -30 -30 -39 0 -41 -27 -2 -32 22 -2 28 -8 30 -36 3 -30 1 -32 -27
-32 -21 0 -31 -5 -31 -15 0 -10 10 -15 30 -15 28 0 30 -3 30 -35 0 -32 -2 -35
-30 -35 -20 0 -30 -5 -30 -15 0 -10 10 -15 30 -15 27 0 30 -3 30 -30 0 -27 -3
-30 -31 -30 -24 0 -30 -4 -27 -17 2 -11 14 -19 31 -21 23 -3 27 -8 27 -33 0
-26 -3 -29 -30 -29 -20 0 -30 -5 -30 -15 0 -10 10 -15 30 -15 28 0 30 -3 30
-35 0 -32 -2 -35 -30 -35 -20 0 -30 -5 -30 -15 0 -10 10 -15 30 -15 27 0 30
-3 30 -29 0 -25 -4 -30 -27 -33 -17 -2 -29 -10 -31 -20 -3 -14 3 -18 27 -18
28 0 31 -3 31 -30 0 -27 -3 -30 -30 -30 -20 0 -30 -5 -30 -15 0 -10 10 -15 30
-15 28 0 30 -3 30 -35 0 -32 -2 -35 -30 -35 -20 0 -30 -5 -30 -15 0 -10 10
-15 30 -15 17 0 30 -4 30 -10 0 -6 -68 -10 -184 -10 -113 0 -187 4 -191 10 -4
6 17 10 54 10 48 0 61 3 61 15 0 12 -13 15 -60 15 l-60 0 0 35 0 35 60 0 c77
0 79 18 3 22 l-58 3 0 35 0 35 58 3 c76 4 74 22 -3 22 l-60 0 0 35 0 35 60 0
c47 0 60 3 60 15 0 12 -13 15 -60 15 l-60 0 0 35 0 35 60 0 c77 0 79 18 3 22
l-58 3 0 35 0 35 58 3 c76 4 74 22 -3 22 l-60 0 0 35 0 35 60 0 c47 0 60 3 60
15 0 12 -13 15 -60 15 l-60 0 0 35 0 35 60 0 c77 0 79 18 3 22 l-58 3 0 35 0
35 58 3 c76 4 74 22 -3 22 l-60 0 0 35 0 35 61 0 c81 0 77 24 -5 28 l-57 3 3
32 c3 32 4 32 61 35 31 2 57 7 57 12 0 5 -26 10 -57 12 l-58 3 0 35 0 35 58 3
c76 4 74 22 -3 22 l-60 0 0 35 0 35 61 0 c81 0 77 24 -5 28 l-57 3 3 32 c3 32
4 32 61 35 31 2 57 7 57 12 0 5 -26 10 -57 12 -57 3 -58 3 -61 35 l-3 32 57 3
c82 4 86 28 5 28 l-61 0 0 50 0 50 60 0 c57 0 60 1 60 25 l0 25 -385 0 -385 0
0 40 c0 36 3 40 25 40 18 0 25 5 25 20 0 15 -7 20 -26 20 -23 0 -25 3 -22 42
2 36 7 44 26 46 19 3 22 9 22 48 l0 44 -745 0 -745 0 0 -45 c0 -41 2 -45 25
-45 23 0 25 -4 25 -45 0 -41 -2 -45 -25 -45 -18 0 -25 -5 -25 -20 0 -15 7 -20
25 -20 23 0 25 -4 25 -40 l0 -40 -120 0 -120 0 0 225 0 225 -965 0 -965 0 -2
598 -3 597 -852 3 -852 2 -3 -91 -3 -91 -182 -106 -183 -107 0 -397 0 -398
-135 0 -135 0 0 -85 0 -85 -107 -1 c-60 0 -130 -2 -158 -4 -27 -2 -103 -4
-167 -4 l-118 -1 0 -35 0 -35 -192 -2 c-190 -3 -193 -3 -196 -25 -3 -20 1 -22
55 -25 43 -2 58 -7 58 -18 0 -8 -13 -18 -30 -21 l-30 -7 33 -1 c19 -1 35 -7
38 -16 4 -8 12 -15 18 -15 22 0 56 -40 56 -65 0 -33 -38 -71 -79 -80 -28 -6
-31 -9 -18 -17 9 -5 17 -18 17 -28 0 -15 -7 -20 -29 -20 -17 0 -33 -5 -36 -10
-4 -6 7 -10 24 -10 24 0 31 -4 31 -20 0 -16 -7 -20 -30 -20 -20 0 -30 -5 -30
-15 0 -10 10 -15 30 -15 23 0 30 -5 30 -19 0 -10 -6 -19 -12 -18 -31 1 -48 -4
-48 -13 0 -5 14 -10 30 -10 23 0 30 -4 30 -20 0 -16 -7 -20 -31 -20 -38 0 -35
-24 4 -28 38 -5 35 -32 -3 -32 -20 0 -30 -5 -30 -15 0 -10 10 -15 30 -15 23 0
30 -4 30 -20 0 -16 -7 -20 -30 -20 -16 0 -30 -4 -30 -10 0 -5 14 -10 30 -10
23 0 30 -4 30 -20 0 -16 -7 -20 -31 -20 -38 0 -35 -24 4 -28 15 -2 27 -9 27
-17 0 -8 -12 -15 -27 -17 -39 -4 -42 -28 -4 -28 24 0 31 -4 31 -20 0 -16 -7
-20 -30 -20 -16 0 -30 -4 -30 -10 0 -5 14 -10 30 -10 23 0 30 -4 30 -20 0 -16
-7 -20 -30 -20 -20 0 -30 -5 -30 -15 0 -10 10 -15 30 -15 19 0 30 -5 30 -14 0
-8 -13 -17 -30 -21 -16 -4 -30 -11 -30 -16 0 -5 14 -9 30 -9 23 0 30 -4 30
-20 0 -16 -7 -20 -31 -20 -38 0 -35 -24 4 -28 38 -5 35 -32 -3 -32 -20 0 -30
-5 -30 -15 0 -10 10 -15 30 -15 23 0 30 -4 30 -20 0 -16 -7 -20 -30 -20 -16 0
-30 -4 -30 -10 0 -5 14 -10 30 -10 23 0 30 -4 30 -20 0 -16 -7 -20 -31 -20
-38 0 -35 -24 4 -28 15 -2 27 -9 27 -17 0 -8 -12 -15 -27 -17 -39 -4 -42 -28
-4 -28 24 0 31 -4 31 -20 0 -16 -7 -20 -30 -20 -16 0 -30 -4 -30 -10 0 -5 14
-10 30 -10 23 0 30 -4 30 -20 0 -16 -7 -20 -30 -20 -20 0 -30 -5 -30 -15 0
-10 10 -15 30 -15 17 0 30 -4 30 -10 0 -6 -37 -10 -90 -10 -83 0 -90 1 -90 20
0 16 7 20 30 20 23 0 30 4 30 20 0 16 -7 20 -30 20 -25 0 -30 4 -30 25 0 21 5
25 30 25 23 0 30 4 30 20 0 16 -7 20 -30 20 -25 0 -30 4 -30 25 0 21 5 25 30
25 23 0 30 4 30 20 0 16 -7 20 -30 20 -25 0 -30 4 -30 25 0 21 5 25 30 25 23
0 30 4 30 20 0 16 -7 20 -30 20 -27 0 -30 3 -30 30 0 27 2 29 30 24 26 -6 30
-4 30 15 0 17 -6 21 -30 21 -27 0 -30 3 -30 30 0 27 3 30 30 30 20 0 30 5 30
15 0 10 -10 15 -30 15 -27 0 -30 3 -30 30 0 27 3 30 30 30 42 0 40 28 -2 32
l-33 3 4 127 c2 91 -1 136 -11 158 l-13 30 -257 0 -258 0 0 75 0 75 -95 0 -95
0 0 35 0 35 -155 0 -155 0 0 -29 0 -28 -82 -6 c-46 -4 -174 -7 -285 -7 l-203
0 0 -69 0 -68 -114 -7 c-63 -4 -179 -6 -258 -5 -117 1 -149 -1 -169 -14 -13
-8 -33 -17 -44 -19 -11 -2 -23 -7 -27 -13 -4 -5 -9 -7 -12 -4 -3 2 13 28 35
56 23 31 35 54 29 58 -6 4 -9 1 -8 -7 2 -7 -4 -14 -12 -14 -8 -1 -18 -3 -22
-4 -12 -4 -27 -7 -37 -9 -18 -2 -63 -53 -65 -74 -2 -12 -8 -33 -13 -47 -8 -19
-7 -28 6 -38 9 -7 11 -11 5 -8 -15 7 -25 -17 -15 -33 6 -9 16 -3 35 20 17 20
23 34 17 39 -7 4 -2 15 13 29 18 17 26 19 31 10 5 -7 4 -10 -2 -6 -6 4 -13 -2
-16 -13 -4 -14 3 -21 26 -29 38 -14 50 -14 42 -1 -3 6 3 10 14 10 20 0 21 -6
21 -90 0 -49 1 -93 3 -97 1 -5 -13 -9 -30 -11 -25 -2 -33 -8 -33 -23 0 -14 7
-19 30 -19 27 0 30 -3 30 -30 0 -27 -3 -30 -30 -30 -40 0 -43 -35 -4 -38 36
-3 43 -9 37 -32 -4 -14 -14 -20 -34 -20 -22 0 -29 -5 -29 -20 0 -16 7 -20 30
-20 25 0 30 -4 30 -25 0 -21 -5 -25 -30 -25 -23 0 -30 -4 -30 -20 0 -16 7 -20
30 -20 17 0 30 -4 30 -10 0 -6 -30 -10 -69 -10 l-69 0 -10 63 c-42 248 -45
277 -28 302 16 24 15 25 -4 25 -12 0 -20 7 -21 18 -3 51 -10 107 -28 226 -30
195 -47 320 -86 636 -19 157 -44 360 -55 451 -11 91 -25 213 -30 270 -5 57
-23 246 -40 419 -28 293 -68 779 -90 1085 -32 447 -60 1200 -60 1597 l0 287
273 3 c242 3 276 5 309 22 74 38 68 100 -14 135 l-40 17 47 29 c68 43 111 107
125 185 23 125 36 266 28 292 -5 14 -27 35 -51 49 -37 21 -57 24 -164 27 -68
2 -123 8 -123 13 0 5 16 9 35 9 l35 0 0 80 0 80 -220 0 -220 0 0 50 0 50 40 0
40 0 0 85 0 85 -85 0 -85 0 0 210 c0 116 2 210 5 210 3 0 28 -11 55 -25 73
-37 162 -52 145 -25 -3 5 -3 20 1 34 l6 25 42 -21 c22 -12 61 -23 86 -24 92
-7 147 -22 227 -62 46 -23 85 -42 88 -42 11 0 -55 88 -85 113 -16 14 -30 30
-30 34 0 5 -16 24 -35 43 -20 19 -35 41 -33 50 1 8 -18 35 -42 59 -42 44 -43
45 -22 61 20 17 20 18 -41 76 -34 33 -77 71 -96 86 l-34 26 24 12 c24 12 68
59 69 72 0 3 -17 17 -37 30 -59 37 -59 37 -44 47 10 6 3 12 -25 21 -22 7 -59
26 -82 43 l-44 29 34 29 c18 16 52 43 76 60 23 17 40 34 37 40 -6 9 13 13 50
9 16 -1 14 5 -15 33 -19 19 -45 37 -58 42 -13 4 -21 10 -17 13 3 4 -22 16 -57
28 -35 12 -62 27 -61 33 3 11 -9 13 -87 15 l-45 1 -3 193 c-1 105 1 192 6 192
4 0 34 16 66 36 36 23 53 39 46 44 -8 5 1 15 24 29 20 13 36 27 36 31 0 5 14
17 30 27 17 10 33 29 37 43 3 14 17 37 31 53 30 31 29 32 -28 12 -27 -10 -74
-15 -128 -14 -70 2 -87 -1 -98 -15 -10 -15 -13 -5 -16 61 -3 74 -2 79 25 104
17 15 25 32 22 41 -7 19 -48 38 -80 38 l-25 0 0 118 c0 117 0 119 25 130 40
18 30 55 -18 67 -17 5 -27 14 -27 25 0 10 -9 20 -20 23 -19 5 -20 14 -20 155
0 144 1 150 23 166 l22 16 -22 16 c-23 16 -23 18 -23 285 l0 269 -35 0 -35 0
0 -274 c0 -265 -1 -274 -20 -279 -11 -3 -20 -10 -20 -16 0 -6 9 -15 20 -21 19
-10 20 -21 20 -160 0 -143 -1 -150 -20 -150 -15 0 -20 -7 -20 -25 0 -30 -11
-32 -27 -6 -13 20 -53 35 -53 19 0 -5 -22 23 -50 64 -27 40 -50 78 -50 83 0
13 57 35 88 35 12 0 22 6 22 13 0 30 -89 147 -112 147 -10 0 -10 2 1 9 11 7 5
18 -25 52 -83 93 -78 85 -54 109 12 12 50 30 83 40 34 10 79 25 99 34 21 9 47
16 58 16 11 0 20 3 20 8 -1 4 -32 33 -71 65 -38 31 -65 57 -58 57 6 0 -14 19
-45 42 -47 35 -54 44 -43 56 10 12 9 16 -3 20 -36 12 -488 243 -516 264 -110
81 -144 110 -139 119 4 5 25 19 48 30 36 19 53 21 132 17 63 -4 106 -12 142
-28 28 -12 56 -19 62 -16 5 4 32 -2 59 -13 30 -12 54 -16 62 -11 8 5 26 6 42
3 39 -8 82 4 70 20 -5 7 -16 33 -25 58 l-15 47 36 6 c21 3 80 6 133 6 92 0
172 16 151 29 -6 3 -14 19 -17 34 l-7 27 60 0 c38 0 66 5 74 14 18 18 63 26
190 34 58 4 109 10 112 13 9 8 -88 59 -112 59 -11 0 -27 6 -34 13 -7 7 -32 18
-55 25 -24 7 -47 22 -53 32 -6 11 -20 20 -31 20 -11 0 -34 7 -50 16 -25 13
-30 20 -25 39 5 21 2 26 -21 31 -16 3 -41 12 -58 19 -16 7 -52 16 -80 20 -66
10 -68 12 -46 43 11 15 21 40 23 57 3 29 1 30 -49 38 -29 5 -53 13 -53 18 0 5
-30 9 -67 9 -38 0 -73 4 -80 8 -14 9 -2 48 36 120 12 24 20 46 17 49 -8 8 18
30 40 35 16 4 14 7 -11 18 -16 7 -46 13 -65 13 -19 0 -37 4 -40 8 -3 4 -31 2
-64 -3 -45 -8 -60 -8 -66 2 -6 10 -21 6 -64 -16 -53 -27 -56 -27 -69 -10 -13
18 -16 18 -83 -5 -47 -16 -93 -23 -145 -24 l-76 0 3 30 c1 16 3 32 3 35 1 3
23 32 50 65 27 33 47 63 44 68 -2 4 9 23 26 43 32 36 39 60 20 66 -5 2 10 34
35 71 26 38 43 74 40 82 -4 8 1 26 10 40 9 13 16 33 16 43 0 10 5 23 12 30 9
9 -9 12 -84 12 -88 0 -98 -2 -115 -22z m-3021 -1118 c59 -84 230 -414 220
-425 -11 -11 -64 -4 -95 11 -18 9 -54 34 -81 56 -27 21 -56 36 -63 34 -7 -3
-28 3 -45 13 -21 12 -51 19 -80 18 -46 0 -78 14 -78 37 0 6 -9 22 -20 36 -11
14 -20 32 -20 42 0 9 -16 25 -35 37 -24 14 -33 25 -28 36 4 11 -9 32 -40 63
-53 54 -75 100 -55 114 12 8 109 3 170 -8 15 -3 31 0 38 8 8 8 37 13 83 13
l69 -1 60 -84z m-246 -673 c-16 -12 -14 -14 19 -30 35 -17 35 -17 19 -43 -10
-14 -39 -36 -66 -50 -27 -14 -46 -29 -43 -34 3 -5 -7 -16 -23 -24 l-29 -15 -1
89 c0 63 3 90 11 91 46 2 77 8 93 17 26 16 42 15 20 -1z m444 -400 c0 -85 -22
-195 -45 -231 -9 -14 -19 -43 -21 -65 -4 -35 -3 -40 12 -34 15 5 16 0 10 -50
-5 -36 -4 -57 3 -57 5 0 13 -25 17 -56 l6 -56 34 33 c19 18 34 30 34 27 0 -3
17 10 37 28 20 19 40 34 43 34 3 0 11 -14 18 -32 l12 -32 57 54 c59 57 58 52
-14 -55 -29 -44 -32 -55 -27 -97 6 -45 5 -47 -27 -63 -22 -12 -34 -14 -37 -7
-2 8 -17 5 -42 -8 -22 -11 -44 -20 -50 -20 -7 0 -35 -15 -63 -34 -67 -44 -88
-52 -168 -60 -75 -7 -83 -1 -72 57 l6 32 -21 -19 c-12 -11 -22 -25 -22 -31 0
-7 -10 -19 -22 -28 -13 -8 -35 -26 -50 -40 -31 -29 -34 -23 -16 34 10 35 9 44
-15 88 -15 26 -34 81 -42 122 -14 67 -35 114 -35 79 0 -21 -15 0 -33 46 l-15
41 29 24 c16 13 31 22 32 19 2 -3 18 12 37 33 l34 39 16 -22 16 -21 24 25 c34
33 50 54 50 63 0 4 12 21 26 37 l25 28 40 -31 c23 -19 39 -26 39 -19 0 7 10
24 23 38 12 14 38 71 56 128 27 83 38 105 57 113 13 4 24 13 24 19 0 6 5 8 10
5 6 -3 10 -39 10 -78z m-6901 -1226 c12 -7 12 -17 3 -53 -7 -23 -16 -70 -22
-103 -6 -33 -12 -71 -15 -85 -2 -14 -11 -63 -19 -110 -30 -162 -41 -210 -49
-210 -4 0 -5 -6 0 -12 4 -7 8 -26 9 -41 1 -26 0 -27 -20 -14 -40 26 -95 110
-117 179 -18 58 -21 84 -17 171 3 59 12 121 22 147 9 25 18 51 20 59 1 8 10
15 19 17 17 2 97 37 127 54 20 12 42 12 59 1z m10372 -1304 c126 -78 120 -65
117 -270 l-3 -177 -65 82 c-108 137 -149 198 -201 302 -33 67 -45 102 -38 107
6 4 34 6 63 5 42 -1 64 -10 127 -49z m-12002 -4051 c34 -18 89 -79 102 -115 7
-17 7 -83 0 -201 -6 -96 -16 -283 -22 -415 -9 -175 -16 -247 -26 -266 l-15
-25 -28 25 c-16 14 -45 41 -64 59 -21 18 -36 27 -36 19 0 -7 -13 -29 -30 -47
-16 -18 -30 -40 -30 -47 0 -7 -6 -13 -14 -13 -8 0 -17 -15 -21 -37 -4 -20 -15
-53 -25 -73 -9 -19 -32 -83 -50 -143 -33 -107 -33 -107 -71 -119 -22 -6 -41
-19 -44 -30 -8 -24 -32 -23 -45 1 -5 11 -16 50 -24 87 -14 67 -14 68 26 212
26 95 53 171 80 219 22 40 35 73 29 73 -8 0 -6 10 4 30 8 16 15 40 15 54 0 24
-2 25 -25 14 -14 -6 -28 -9 -31 -6 -3 4 -1 32 5 64 16 84 14 135 -3 128 -11
-4 -13 3 -9 34 3 24 1 42 -6 46 -6 4 -11 29 -11 57 0 27 -2 49 -5 49 -3 0 -25
-21 -50 -46 -29 -29 -51 -44 -61 -40 -8 3 -17 -1 -20 -8 -9 -23 -125 -109
-134 -100 -17 18 -50 147 -50 194 0 27 -4 52 -10 55 -5 3 -10 23 -10 44 0 21
-7 59 -16 85 -15 45 -17 46 -28 26 -6 -13 -32 -30 -59 -40 -45 -17 -49 -17
-53 -2 -3 9 -10 25 -15 34 -5 10 -9 29 -9 42 0 19 7 26 28 30 76 16 745 103
800 105 18 1 46 -6 61 -13z m5296 -1927 c31 -17 61 -29 69 -26 7 3 31 -5 52
-19 l39 -23 -89 -1 -89 0 7 -40 c8 -54 -1 -90 -24 -90 -18 0 -36 33 -32 56 3
14 -41 58 -84 85 -42 25 -45 35 -4 14 42 -21 43 -20 37 30 l-7 45 35 0 c21 0
58 -13 90 -31z m-7329 -95 c21 -15 41 -28 43 -30 8 -7 -52 -64 -97 -92 -23
-15 -40 -33 -37 -39 2 -8 -4 -13 -15 -13 -26 0 -26 27 -1 88 10 26 24 62 31
80 15 39 26 40 76 6z m-561 -168 c37 -103 113 -285 125 -299 3 -4 26 58 50
138 24 80 45 143 47 141 2 -2 -7 -47 -20 -100 -14 -53 -21 -96 -17 -96 12 0
221 85 268 109 46 23 52 25 52 12 0 -7 -266 -129 -317 -145 -13 -4 -23 -13
-23 -20 0 -7 -22 -82 -50 -167 -39 -123 -49 -146 -50 -114 0 22 12 75 26 118
l26 78 -41 92 c-71 163 -146 387 -121 361 5 -5 25 -54 45 -108z m610 -136 c14
-5 24 -14 20 -20 -3 -5 22 -10 62 -12 61 -3 68 -5 71 -24 3 -23 27 -34 72 -34
47 0 144 -31 182 -56 34 -24 36 -28 26 -55 -11 -32 -53 -48 -142 -54 -28 -2
-59 -6 -68 -10 -14 -6 -18 -2 -18 18 0 30 -16 28 -98 -10 -30 -14 -66 -26 -80
-28 -15 -1 -40 -5 -55 -10 -18 -5 -44 -3 -68 5 -38 13 -39 13 -93 -34 -43 -36
-62 -46 -90 -46 -29 0 -36 4 -36 19 0 39 22 77 79 136 45 46 60 69 64 99 7 43
32 73 87 104 41 24 50 25 85 12z m1441 -138 c27 -17 105 -157 147 -262 l46
-115 -82 -26 c-45 -14 -92 -29 -104 -33 -17 -6 -20 -3 -17 11 4 15 -1 18 -33
17 -21 -1 -41 -2 -45 -4 -5 -1 -11 -3 -15 -4 -5 -1 -12 -4 -18 -7 -5 -3 -44
-16 -85 -28 -41 -12 -82 -26 -90 -30 -8 -4 -25 -7 -37 -6 -12 1 -20 -2 -18 -6
3 -4 -2 -9 -9 -12 -12 -5 -13 0 -4 24 8 23 13 27 24 19 10 -9 19 0 40 41 14
29 32 58 39 66 7 7 23 43 36 80 35 109 57 144 133 215 76 72 75 72 92 60z
m12210 -219 c-3 -16 -15 -92 -26 -170 -11 -78 -23 -149 -26 -157 -5 -13 -23
-16 -90 -16 l-84 0 0 91 c0 101 9 119 59 119 16 0 33 5 36 10 3 6 -1 10 -9 10
-9 0 -25 18 -36 39 l-20 39 68 7 c37 4 76 9 86 12 18 5 18 6 -3 17 -27 15 -17
26 21 26 27 0 29 -3 24 -27z m-13451 -11 c-33 -29 -263 -111 -390 -138 -92
-20 -355 -31 -355 -15 0 6 6 11 13 11 6 0 80 5 164 10 178 11 284 34 438 94
108 43 149 55 130 38z m11590 -142 c1 -27 4 -52 8 -56 3 -4 4 -11 0 -17 -11
-18 -2 -150 14 -206 14 -49 14 -59 -1 -115 -8 -33 -16 -86 -17 -116 -1 -30 -7
-61 -12 -67 -7 -9 -49 -13 -148 -13 l-139 0 0 145 c0 135 1 145 19 145 16 0
20 12 30 76 16 109 78 183 74 88 l-1 -39 20 48 c14 32 26 47 39 47 21 0 41 28
60 85 27 82 52 80 54 -5z m-10966 -158 c0 -39 -16 -105 -18 -80 -1 8 -76 -19
-153 -55 -42 -19 -48 -26 -48 -52 0 -29 -5 -33 -79 -67 -79 -35 -101 -36 -101
-1 0 21 -25 15 -49 -11 -39 -41 -242 -133 -264 -119 -6 3 -7 1 -3 -5 4 -7 3
-12 -3 -12 -14 0 -96 99 -96 116 0 20 -64 84 -84 84 -15 0 -26 15 -59 82 -6
12 42 21 101 19 39 -2 57 1 57 10 0 8 12 10 38 5 22 -3 42 -3 46 1 4 4 23 9
43 10 51 3 98 23 81 34 -8 6 1 9 27 10 66 3 73 4 78 9 3 3 31 3 62 2 l57 -4
-5 -45 -5 -44 42 6 c22 4 53 14 68 21 32 17 41 18 33 4 -15 -24 34 7 78 49 35
33 47 41 47 27 0 -14 10 -9 47 23 26 22 51 38 55 35 4 -3 8 -26 7 -52z m-1355
-251 c8 -15 17 -40 20 -54 6 -36 25 -69 36 -62 5 3 16 -11 25 -30 8 -20 24
-39 35 -42 11 -3 20 -9 20 -14 0 -5 6 -9 14 -9 7 0 19 -7 26 -15 18 -22 23
-12 28 48 2 29 5 54 7 55 9 9 49 -13 78 -42 17 -18 46 -38 62 -43 17 -6 39
-14 50 -18 16 -7 18 -6 8 6 -7 7 -13 21 -13 31 0 21 16 22 50 3 30 -17 44 -19
35 -5 -8 12 5 13 24 1 10 -6 4 -12 -23 -21 -21 -7 -33 -16 -30 -22 4 -6 3 -8
-2 -5 -6 3 -15 2 -22 -2 -9 -6 -7 -15 9 -36 22 -27 22 -28 4 -41 -10 -8 -29
-14 -42 -14 -18 0 -25 7 -30 30 -5 30 -6 30 -25 13 -18 -16 -21 -16 -49 -1
-15 9 -31 13 -34 9 -2 -5 -28 -11 -56 -15 -29 -4 -59 -15 -68 -24 -9 -10 -11
-11 -6 -3 8 11 7 13 -3 7 -7 -4 -17 -19 -23 -32 -11 -32 13 -81 73 -150 72
-81 86 -103 81 -124 -8 -30 -25 -24 -56 20 -16 22 -33 38 -38 34 -5 -3 -6 -11
-2 -17 4 -7 -2 -5 -12 3 -11 9 -16 10 -11 3 4 -8 -2 -17 -19 -25 -23 -10 -24
-13 -11 -33 12 -18 12 -26 1 -52 -11 -25 -23 -34 -55 -43 -46 -12 -70 -8 -70
12 0 7 -1 178 -3 381 -1 202 -1 367 0 367 1 0 9 -13 17 -29z m787 -503 c0 -7
2 -23 5 -36 2 -13 0 -21 -5 -18 -5 4 -21 -7 -34 -24 l-26 -30 -225 0 -225 0
-9 33 c-5 17 -7 35 -6 39 2 3 22 4 44 1 38 -5 40 -4 40 21 l0 26 220 0 c169 0
220 -3 221 -12z"/>
<path d="M24002 12123 c3 -562 4 -569 27 -638 35 -108 87 -193 165 -271 78
-77 163 -130 271 -166 l70 -23 2188 -3 2188 -2 -3 567 c-3 562 -4 569 -27 638
-35 108 -87 193 -165 271 -78 77 -163 130 -271 166 l-70 23 -2188 3 -2188 2 3
-567z m4403 492 c33 -9 89 -30 125 -47 88 -43 213 -168 257 -258 63 -128 63
-132 63 -707 l0 -523 -2143 0 c-2364 0 -2188 -5 -2327 63 -89 43 -214 168
-257 257 -63 128 -63 132 -63 707 l0 523 2143 0 c1899 0 2150 -2 2202 -15z"/>
<path d="M28181 12460 c-18 -5 -50 -24 -69 -44 -31 -30 -36 -43 -40 -93 -3
-49 0 -64 20 -93 84 -125 278 -69 278 80 0 101 -90 172 -189 150z"/>
<path d="M24402 12302 c1 -4 63 -117 136 -249 l132 -241 0 -196 0 -196 150 0
150 0 0 198 -1 197 -143 245 -143 245 -143 3 c-78 1 -140 -1 -138 -6z"/>
<path d="M24730 12295 c0 -4 256 -432 265 -443 2 -2 61 92 132 209 70 117 132
219 136 226 6 11 -43 13 -263 13 -148 0 -270 -2 -270 -5z"/>
<path d="M27774 12229 c-116 -11 -190 -67 -220 -166 -26 -83 -5 -160 58 -219
42 -40 74 -56 168 -84 92 -28 146 -54 154 -75 24 -64 -18 -120 -89 -120 -59 0
-96 29 -114 88 l-14 46 -86 -5 c-47 -3 -92 -7 -98 -10 -32 -9 5 -128 59 -189
55 -63 107 -80 243 -80 101 0 115 2 168 29 133 65 186 235 113 360 -41 70
-113 109 -281 152 -68 18 -95 37 -95 68 0 27 9 40 37 55 51 27 129 -6 140 -59
5 -30 6 -30 72 -29 36 0 82 3 102 7 l36 7 -12 47 c-35 137 -147 196 -341 177z"/>
<path d="M26848 12198 c-15 -32 -14 -32 40 -110 30 -43 58 -78 62 -78 7 0 130
204 130 215 0 3 -49 5 -108 5 l-108 0 -16 -32z"/>
<path d="M26462 12093 c44 -71 96 -152 114 -181 19 -29 34 -56 34 -61 0 -5
-58 -99 -130 -209 -71 -110 -130 -203 -130 -206 0 -3 53 -6 119 -6 l118 0 68
110 c38 61 71 113 75 115 3 2 37 -47 76 -108 l70 -112 123 -3 123 -3 -19 28
c-11 15 -127 193 -257 396 l-238 367 -114 0 -114 0 82 -127z"/>
<path d="M27227 12214 c-4 -4 -7 -150 -7 -324 l0 -317 50 -71 51 -72 49 0 50
0 -2 393 -3 392 -90 3 c-50 1 -94 0 -98 -4z"/>
<path d="M25676 11830 c-70 -210 -126 -383 -123 -386 3 -3 54 -7 114 -7 l108
-2 17 50 16 50 118 0 118 0 15 -47 15 -48 117 0 117 0 -127 383 -128 382 -124
3 -124 3 -129 -381z m293 -8 c17 -62 31 -115 31 -117 0 -3 -34 -5 -76 -5 -57
0 -75 3 -72 13 3 6 20 65 38 130 19 64 37 112 41 105 4 -7 21 -64 38 -126z"/>
<path d="M25110 11790 l0 -60 195 0 195 0 0 60 0 60 -195 0 -195 0 0 -60z"/>
<path d="M10011 12641 c-25 -5 -46 -20 -79 -58 -39 -47 -42 -53 -23 -53 11 0
21 -4 21 -8 0 -4 16 -14 36 -21 37 -13 46 -9 73 39 12 22 22 98 14 102 -5 2
-23 2 -42 -1z"/>
<path d="M9813 12358 c-31 -6 -52 -14 -50 -21 1 -7 -17 -16 -40 -21 -24 -6
-43 -15 -43 -21 0 -6 -18 -22 -39 -35 -22 -14 -39 -32 -38 -42 1 -12 5 -14 18
-7 10 5 20 9 22 9 9 0 47 -80 47 -97 0 -9 10 -27 21 -39 22 -23 22 -23 47 -4
13 11 31 20 38 20 8 0 15 10 16 23 0 12 2 33 3 47 1 14 11 41 23 60 26 41 27
50 7 50 -21 0 -19 7 16 51 33 42 33 42 -48 27z"/>
<path d="M6822 12092 c-25 -23 -43 -49 -47 -69 -4 -18 -4 -33 -2 -33 3 0 26 9
52 20 57 24 55 24 55 1 0 -28 15 -34 33 -13 18 20 60 113 53 119 -2 3 -27 6
-53 8 -45 3 -53 0 -91 -33z"/>
<path d="M15160 9291 c-27 -5 -31 -8 -17 -13 24 -10 22 -28 -4 -28 -45 0 -106
-22 -105 -37 0 -9 -13 -20 -32 -27 -18 -6 -36 -16 -40 -22 -4 -5 -28 -18 -54
-28 -25 -9 -52 -24 -58 -32 -11 -12 -4 -14 48 -14 37 0 76 -7 96 -17 34 -16
37 -16 56 2 11 10 20 23 20 30 0 6 16 27 36 46 46 44 119 149 102 148 -7 -1
-29 -4 -48 -8z"/>
<path d="M19672 8342 c-257 -92 -298 -435 -69 -583 62 -40 180 -85 197 -74 5
3 10 2 10 -3 0 -4 16 -16 36 -25 73 -35 79 -136 10 -178 -70 -43 -165 -9 -184
64 l-8 32 -129 3 -128 3 6 -52 c9 -71 55 -165 108 -218 24 -24 73 -58 109 -75
59 -28 74 -31 160 -31 88 0 101 3 162 33 83 41 158 120 187 197 45 121 20 268
-61 360 -55 62 -94 85 -218 130 -58 20 -115 46 -127 58 -29 26 -30 70 -3 97
36 36 125 19 136 -27 6 -23 8 -23 136 -23 l130 0 -7 43 c-9 58 -46 136 -84
180 -79 89 -252 131 -369 89z"/>
<path d="M20220 8210 l0 -130 110 0 110 0 0 -430 0 -430 125 0 125 0 0 430 0
430 110 0 110 0 0 130 0 130 -345 0 -345 0 0 -130z"/>
<path d="M21022 7938 l3 -403 31 -65 c58 -121 143 -194 268 -232 171 -52 360
17 463 170 72 107 73 116 73 549 l0 383 -125 0 -125 0 0 -346 c0 -221 -4 -361
-11 -389 -21 -83 -108 -137 -195 -121 -47 9 -111 68 -124 114 -6 22 -10 182
-10 390 l0 352 -125 0 -126 0 3 -402z"/>
<path d="M21980 7781 l0 -561 148 0 c241 0 349 37 478 165 112 111 164 233
164 390 0 242 -150 450 -386 537 -50 18 -86 22 -231 26 l-173 4 0 -561z m347
279 c63 -28 137 -102 164 -163 16 -38 23 -72 23 -122 1 -126 -71 -230 -191
-275 -90 -34 -83 -58 -83 280 l0 300 23 0 c12 0 41 -9 64 -20z"/>
<path d="M22750 8337 c0 -2 73 -156 161 -343 89 -186 174 -366 189 -400 l28
-61 -45 -109 c-25 -60 -53 -130 -64 -156 l-19 -48 139 0 139 0 226 554 c124
305 226 557 226 560 0 3 -62 6 -137 6 l-138 0 -94 -235 c-52 -129 -97 -235
-101 -235 -3 0 -55 105 -116 233 l-110 232 -142 3 c-78 1 -142 1 -142 -1z"/>
<path d="M24150 7780 l0 -560 125 0 125 0 0 560 0 560 -125 0 -125 0 0 -560z"/>
<path d="M25198 8015 l-3 -324 -180 319 -179 320 -138 0 -138 0 0 -555 0 -555
125 0 125 0 1 323 c0 306 1 321 17 298 9 -14 91 -158 182 -320 l165 -296 138
-3 137 -3 0 561 0 560 -125 0 -125 0 -2 -325z"/>
<path d="M25830 5795 l0 -905 233 0 c187 0 249 4 322 19 354 73 627 344 700
693 19 90 19 277 0 368 -38 180 -118 326 -254 460 -110 109 -216 177 -343 220
-122 42 -188 50 -435 50 l-223 0 0 -905z m529 458 c61 -21 117 -57 174 -112
202 -195 206 -505 8 -694 -67 -64 -177 -122 -253 -133 l-48 -6 0 487 0 487 37
-7 c21 -4 57 -14 82 -22z"/>
<path d="M20127 6680 c-445 -81 -758 -450 -757 -894 1 -380 248 -727 604 -847
261 -87 572 -51 784 92 60 41 142 109 142 118 0 4 -63 72 -139 151 -109 113
-142 143 -154 135 -151 -105 -211 -128 -337 -128 -194 0 -352 102 -439 283
-35 74 -36 77 -36 201 l0 126 42 85 c72 145 185 231 348 264 64 14 90 14 146
5 96 -16 171 -46 229 -92 27 -21 53 -39 57 -39 13 0 283 274 283 287 0 22
-144 125 -236 170 -128 62 -214 83 -364 88 -69 2 -147 0 -173 -5z"/>
<path d="M21488 6583 c-162 -479 -496 -1458 -536 -1576 l-41 -117 221 2 222 3
35 108 35 107 282 0 282 0 37 -110 37 -110 218 0 218 0 -28 88 c-16 48 -74
229 -130 402 -56 173 -124 385 -152 470 -27 85 -93 288 -145 450 -53 162 -102
316 -110 343 l-15 47 -197 0 -197 0 -36 -107z m300 -850 l70 -213 -145 0
c-112 0 -144 3 -141 13 3 6 36 103 73 214 38 111 70 201 71 200 1 -1 34 -98
72 -214z"/>
<path d="M23648 6168 l-3 -522 -269 479 c-148 264 -279 497 -290 517 l-21 38
-227 0 -228 0 0 -895 0 -895 210 0 210 0 2 517 3 517 289 -517 290 -517 223 0
223 0 0 900 0 900 -205 0 -205 0 -2 -522z"/>
<path d="M24758 6612 c-14 -42 -133 -390 -263 -772 -130 -382 -256 -752 -280
-823 l-44 -127 221 2 222 3 35 108 35 107 282 0 282 0 37 -110 37 -110 219 0
c121 0 218 3 216 8 -3 4 -20 57 -40 117 -19 61 -139 434 -267 830 -128 396
-241 748 -251 783 l-20 62 -197 0 -197 0 -27 -78z m290 -880 l70 -212 -145 0
c-112 0 -144 3 -141 13 3 6 36 103 73 214 38 111 70 201 72 200 1 -2 33 -98
71 -215z"/>
<path d="M27576 6373 c-59 -175 -179 -527 -266 -783 -86 -256 -176 -518 -198
-583 l-41 -117 221 2 222 3 35 108 35 107 282 0 282 0 37 -110 37 -110 218 0
218 0 -30 93 c-16 50 -51 160 -78 242 -124 384 -152 471 -200 620 -28 88 -95
293 -147 455 -53 162 -102 316 -110 343 l-15 47 -197 0 -197 0 -108 -317z
m372 -640 l70 -213 -145 0 c-112 0 -144 3 -141 13 3 6 36 103 73 214 38 111
70 201 71 200 1 -1 34 -98 72 -214z"/>
<path d="M8850 3512 c17 -13 39 -41 50 -62 11 -21 30 -46 43 -57 30 -24 41
-51 21 -55 -11 -2 -8 -11 13 -37 l28 -33 13 26 c6 14 17 37 24 51 11 23 13 24
30 9 17 -16 19 -15 39 10 11 14 29 26 39 26 15 0 50 38 50 54 0 11 -63 37 -76
32 -8 -3 -37 5 -65 19 -27 14 -49 21 -49 16 0 -5 -19 -2 -42 7 -24 8 -67 15
-96 16 l-52 2 30 -24z"/>
</g>
</svg>
