<?xml version="1.0" standalone="no"?>
<!DOCTYPE svg PUBLIC "-//W3C//DTD SVG 20010904//EN"
 "http://www.w3.org/TR/2001/REC-SVG-20010904/DTD/svg10.dtd">
<svg version="1.0" xmlns="http://www.w3.org/2000/svg"
 width="3004.000000pt" height="1325.000000pt" viewBox="0 0 3004.000000 1325.000000"
 preserveAspectRatio="xMidYMid meet">
<metadata>
Created by potrace 1.16, written by Peter Selinger 2001-2019
</metadata>
<g transform="translate(0.000000,1325.000000) scale(0.100000,-0.100000)"
fill="#000000" stroke="none">
<path d="M910 11775 l0 -915 115 0 115 0 0 -125 0 -125 1070 0 1070 0 0 915 0
915 -115 0 -115 0 0 125 0 125 -1070 0 -1070 0 0 -915z"/>
<path d="M24002 12123 c3 -562 4 -569 27 -638 35 -108 87 -193 165 -271 78
-77 163 -130 271 -166 l70 -23 2188 -3 2188 -2 -3 567 c-3 562 -4 569 -27 638
-35 108 -87 193 -165 271 -78 77 -163 130 -271 166 l-70 23 -2188 3 -2188 2 3
-567z m4403 492 c33 -9 89 -30 125 -48 89 -43 214 -168 257 -257 63 -128 63
-132 63 -707 l0 -523 -2143 0 c-2364 0 -2188 -5 -2327 63 -89 43 -214 168
-257 257 -63 128 -63 132 -63 707 l0 523 2143 0 c1899 0 2150 -2 2202 -15z"/>
<path d="M28181 12460 c-18 -5 -50 -24 -69 -44 -31 -30 -36 -43 -40 -93 -3
-49 0 -64 20 -93 84 -124 278 -69 278 80 0 101 -90 172 -189 150z"/>
<path d="M24402 12302 c1 -4 63 -117 136 -249 l132 -241 0 -196 0 -196 150 0
150 0 0 198 -1 197 -143 245 -143 245 -143 3 c-78 1 -140 -1 -138 -6z"/>
<path d="M24730 12295 c0 -4 256 -432 265 -443 2 -2 61 92 132 209 70 117 132
219 136 226 6 11 -43 13 -263 13 -148 0 -270 -2 -270 -5z"/>
<path d="M27774 12230 c-117 -12 -190 -68 -220 -167 -26 -83 -5 -160 58 -219
42 -40 74 -56 168 -84 92 -28 146 -54 154 -75 24 -64 -18 -120 -89 -120 -59 0
-96 29 -114 88 l-14 46 -86 -5 c-47 -3 -92 -7 -98 -10 -32 -9 5 -128 59 -189
55 -63 107 -80 243 -80 101 0 115 2 168 29 133 65 186 235 113 360 -41 70
-113 109 -281 152 -68 18 -95 37 -95 68 0 27 9 40 37 55 51 27 129 -6 140 -59
5 -29 7 -30 63 -30 31 0 77 3 102 6 l45 6 -9 42 c-32 143 -147 206 -344 186z"/>
<path d="M26852 12205 c-7 -14 -12 -31 -12 -36 0 -14 100 -159 110 -159 6 0
130 203 130 215 0 3 -49 5 -108 5 -107 0 -109 0 -120 -25z"/>
<path d="M26462 12093 c44 -71 96 -152 114 -181 19 -29 34 -56 34 -61 0 -5
-58 -99 -130 -209 -71 -110 -130 -203 -130 -206 0 -3 53 -6 119 -6 l118 0 68
110 c38 61 71 113 75 115 3 2 37 -47 76 -108 l70 -112 122 -3 122 -3 -76 118
c-42 65 -158 243 -257 396 l-180 277 -113 0 -114 0 82 -127z"/>
<path d="M27227 12214 c-4 -4 -7 -150 -7 -324 l0 -317 50 -71 51 -72 49 0 50
0 -2 393 -3 392 -90 3 c-50 1 -94 0 -98 -4z"/>
<path d="M25676 11830 c-71 -210 -126 -383 -123 -386 3 -3 54 -7 114 -7 l108
-2 17 50 16 50 118 0 118 0 15 -47 15 -48 117 0 117 0 -127 383 -128 382 -124
3 -124 2 -129 -380z m293 -8 c17 -62 31 -115 31 -117 0 -3 -34 -5 -76 -5 -57
0 -75 3 -72 13 3 6 20 65 38 130 19 64 37 112 41 105 4 -7 21 -64 38 -126z"/>
<path d="M25110 11790 l0 -60 195 0 195 0 0 60 0 60 -195 0 -195 0 0 -60z"/>
<path d="M10897 11600 c-48 -15 -126 -89 -166 -159 -63 -108 -94 -229 -127
-501 -13 -107 -17 -244 -19 -656 -2 -286 -6 -545 -9 -575 -11 -81 -33 -153
-54 -172 -45 -41 -171 -39 -341 4 -91 23 -324 107 -418 150 -38 17 -88 39
-113 49 -118 47 -548 265 -577 293 -31 29 -33 35 -33 96 0 63 25 166 52 214 7
12 13 24 13 27 1 3 42 89 93 192 51 103 92 192 92 198 0 6 10 32 21 57 12 26
24 72 26 103 9 101 -25 137 -177 185 -159 49 -261 59 -640 59 -396 0 -527 -11
-785 -65 -118 -25 -146 -37 -203 -93 -31 -30 -49 -58 -64 -106 -21 -61 -22
-79 -18 -275 10 -431 7 -515 -17 -567 -32 -69 -81 -92 -187 -86 -83 5 -123 17
-326 97 -171 68 -246 84 -369 79 -92 -4 -115 -8 -173 -35 -215 -100 -395 -318
-604 -734 -52 -104 -143 -310 -148 -334 -1 -5 -5 -16 -9 -22 -4 -7 -39 -101
-76 -210 -68 -197 -117 -324 -130 -333 -4 -3 -22 -30 -41 -60 -132 -208 -435
-466 -840 -714 -80 -49 -167 -103 -195 -121 -27 -18 -64 -40 -82 -48 -17 -9
-33 -21 -35 -27 -2 -6 -34 48 -71 120 -38 71 -70 130 -73 130 -2 0 17 -42 43
-92 26 -51 47 -99 46 -105 0 -7 3 -13 8 -13 15 0 40 -60 34 -83 -5 -16 -4 -18
3 -8 7 10 21 -10 53 -78 23 -50 44 -89 46 -88 2 2 -17 48 -43 103 -54 118 -45
114 21 -9 29 -54 45 -95 42 -107 -3 -13 -1 -18 6 -13 7 4 8 0 4 -11 -5 -11 -3
-15 5 -10 8 5 9 2 5 -10 -4 -9 -3 -15 1 -12 5 3 16 -11 25 -30 20 -42 21 -47
4 -39 -6 4 -5 1 4 -7 25 -20 40 -55 32 -74 -4 -10 -2 -15 3 -11 5 3 10 -3 10
-14 0 -17 -11 -23 -43 -22 -7 1 -10 -3 -7 -8 8 -13 -10 -11 -25 4 -11 10 -13
10 -7 0 4 -7 3 -13 -3 -13 -5 0 -13 9 -16 21 -4 11 -9 19 -11 16 -3 -2 0 -16
5 -31 14 -36 -4 -33 -19 4 -7 16 -16 27 -21 24 -5 -3 -9 -2 -8 3 4 24 -2 43
-13 37 -6 -4 -8 -3 -5 3 4 6 -2 29 -13 51 -22 44 -24 58 -12 65 4 2 2 2 -5 1
-12 -3 -93 156 -96 186 0 9 -8 23 -17 33 -16 16 -24 13 -141 -64 -138 -92
-183 -126 -282 -216 -177 -161 -283 -383 -263 -552 8 -66 46 -191 59 -191 4 0
5 -4 2 -10 -6 -9 46 -102 127 -230 19 -30 37 -63 41 -73 4 -9 27 -48 51 -86
25 -38 55 -89 67 -115 13 -25 27 -46 32 -46 4 0 5 -4 2 -10 -3 -5 -1 -10 4
-10 6 0 10 -3 9 -7 -3 -9 67 -137 94 -172 10 -13 15 -27 12 -32 -3 -5 0 -9 5
-9 6 0 11 -7 11 -15 0 -8 5 -15 10 -15 6 0 10 -6 10 -12 0 -7 18 -42 40 -78
22 -36 54 -94 73 -130 18 -36 57 -102 86 -148 29 -46 56 -95 62 -108 5 -14 13
-22 19 -19 5 3 10 4 10 2 0 -15 -140 -79 -182 -84 -27 -3 -44 -9 -38 -13 8 -5
7 -9 -3 -13 -8 -3 -18 -2 -23 2 -5 4 -34 18 -64 31 -30 12 -84 41 -120 64 -60
38 -70 41 -135 41 -38 0 -85 6 -103 14 -25 11 -42 11 -75 3 -23 -6 -30 -10
-15 -8 24 3 28 0 27 -23 0 -14 -3 -20 -6 -13 -3 7 -20 19 -39 27 -34 14 -38
19 -48 65 -12 54 -138 214 -194 244 -73 40 -70 40 -112 26 -22 -7 -43 -10 -46
-7 -13 13 8 55 62 122 32 39 71 99 88 135 l31 65 -1 380 c-1 425 -1 423 -89
675 -49 140 -44 134 -86 106 -19 -13 -95 -53 -170 -89 -133 -65 -219 -125
-191 -135 8 -2 -28 -27 -79 -54 -52 -28 -109 -63 -129 -79 -19 -16 -38 -29
-42 -29 -4 0 -29 -14 -55 -30 -35 -22 -58 -30 -85 -28 -28 1 -43 -4 -58 -20
-12 -12 -27 -22 -35 -22 -8 0 -15 -4 -15 -10 0 -5 -5 -10 -11 -10 -6 0 -25
-10 -42 -23 -18 -13 -66 -33 -107 -46 -41 -13 -83 -27 -92 -32 -10 -5 -30 -9
-45 -9 -35 0 -160 -24 -233 -44 -98 -27 -229 -56 -251 -56 -25 0 -27 16 30
-200 22 -85 60 -240 85 -345 25 -104 61 -242 80 -305 35 -110 52 -177 117
-445 31 -128 83 -247 147 -342 59 -86 287 -338 552 -608 129 -132 282 -290
340 -351 112 -118 155 -150 326 -242 148 -80 168 -107 173 -239 2 -61 6 -91
12 -82 5 8 9 34 9 59 0 47 18 94 21 55 2 -27 -2 -111 -7 -144 -2 -14 -8 -64
-13 -111 -14 -122 -28 -214 -58 -383 l-26 -147 -774 0 -773 0 0 -885 0 -885
3925 0 3925 0 0 258 0 257 320 320 c298 298 320 322 320 355 0 34 -9 26 -320
-285 l-320 -320 0 115 0 115 320 320 c298 298 320 322 320 355 0 34 -9 26
-320 -285 l-320 -320 0 115 0 115 320 320 c298 298 320 322 320 355 0 34 -9
26 -320 -285 l-320 -320 0 115 0 115 320 320 c298 298 320 322 320 355 0 34
-9 26 -320 -285 l-320 -320 0 115 0 115 317 317 c309 310 317 318 283 318 -33
0 -56 -20 -325 -290 l-290 -290 -100 0 -100 0 290 290 290 290 -40 0 c-39 0
-47 -7 -330 -290 l-290 -290 -100 0 -100 0 290 290 290 290 -40 0 c-39 0 -47
-7 -330 -290 l-290 -290 -105 0 -105 0 288 287 c282 281 288 288 256 291 -30
3 -50 -14 -323 -287 l-291 -291 -105 0 -105 0 290 290 c283 283 289 290 255
290 -33 0 -56 -20 -325 -290 l-290 -290 -70 0 -71 0 -17 103 c-10 56 -26 190
-37 298 -23 235 -49 370 -96 499 -40 106 -234 501 -244 495 -3 -2 -14 19 -24
47 -11 33 -22 48 -31 45 -8 -4 -17 10 -25 41 -21 75 -90 200 -139 251 -45 46
-148 113 -243 158 -27 12 -48 26 -48 31 0 6 -12 17 -27 26 l-28 17 23 -20 c40
-35 23 -33 -26 3 -51 37 -136 78 -156 74 -6 -1 -24 5 -41 15 -31 17 -19 21 25
8 32 -10 159 55 318 163 62 42 115 76 118 76 2 0 77 52 167 116 89 65 180 127
202 139 22 12 67 39 100 59 33 20 85 44 115 52 30 8 64 19 76 24 26 10 68 7
173 -14 46 -10 86 -15 89 -12 3 3 -25 20 -61 37 -165 77 -341 38 -732 -160
-93 -47 -174 -88 -178 -90 -5 -2 -7 9 -5 24 3 25 20 37 173 115 293 150 461
205 598 198 104 -5 183 -40 272 -121 52 -47 280 -177 320 -183 6 -1 34 -18 62
-38 28 -20 56 -36 62 -36 6 0 14 -7 17 -15 4 -8 12 -15 20 -15 7 0 18 -9 24
-20 6 -11 15 -20 21 -20 5 0 42 -31 80 -70 39 -38 75 -70 80 -70 5 0 41 27 80
60 152 127 258 142 361 51 42 -37 48 -37 78 -11 45 39 188 58 237 31 17 -8 66
-57 173 -170 9 -9 29 -35 45 -56 16 -22 39 -52 52 -66 13 -14 43 -56 66 -92
72 -112 140 -211 156 -228 19 -19 109 -150 182 -264 53 -83 100 -144 155 -205
18 -19 52 -60 76 -90 l44 -55 75 -8 c86 -9 366 6 519 29 584 85 1034 302 1245
599 196 276 487 989 631 1548 30 117 52 192 48 167 -3 -25 -28 -132 -55 -238
-109 -431 -311 -961 -506 -1332 -90 -171 -133 -232 -228 -325 -294 -290 -851
-479 -1474 -502 -191 -7 -180 -2 -116 -51 20 -14 130 -65 150 -69 11 -1 43 -7
70 -12 66 -13 390 -13 485 0 41 5 89 11 105 13 123 14 470 81 515 99 14 6 30
11 35 12 6 0 17 4 25 8 8 4 67 23 130 42 63 20 138 46 165 60 28 13 85 40 129
59 43 20 109 56 147 81 38 25 72 45 77 45 5 0 21 11 35 24 14 13 28 22 30 20
2 -2 52 41 110 96 107 102 191 203 211 252 6 16 14 28 19 28 4 0 5 5 2 10 -3
6 -1 10 5 10 6 0 9 4 6 9 -4 5 -3 11 1 13 9 4 101 186 105 208 2 8 5 17 8 20
10 9 70 152 70 166 0 8 5 14 10 14 6 0 9 3 9 8 -1 4 0 10 1 15 1 4 3 10 4 15
1 4 7 16 13 27 6 11 27 67 48 125 21 58 42 110 47 117 6 7 7 17 3 23 -3 5 -2
10 3 10 5 0 26 55 47 123 21 67 42 128 48 135 5 6 6 12 2 12 -4 0 -3 6 3 13 6
7 31 84 57 172 56 196 56 196 59 215 2 8 8 26 13 40 6 14 25 93 43 175 17 83
36 161 41 175 4 14 17 79 28 145 71 426 68 773 -8 947 -21 49 -157 279 -170
288 -4 3 -10 12 -13 20 -8 22 -198 274 -392 520 -293 371 -377 505 -412 659
-9 36 -20 71 -26 78 -6 7 -7 13 -4 13 4 0 -5 17 -19 37 -14 21 -25 42 -25 48
0 26 -258 285 -284 285 -5 0 -27 15 -50 33 -59 48 -238 173 -257 179 -8 4 -81
49 -162 102 -80 53 -149 96 -152 96 -4 0 -26 13 -50 30 -84 58 -139 160 -179
334 -14 60 -24 117 -51 301 -46 312 -86 406 -210 502 -67 53 -147 174 -310
473 -153 282 -261 428 -360 485 -47 28 -116 39 -158 25z m-2712 -1368 c17 -31
26 -37 58 -40 44 -4 46 -10 11 -43 -23 -21 -25 -29 -20 -71 3 -27 3 -48 1 -48
-2 0 -20 9 -39 21 l-35 20 -41 -21 -42 -21 7 48 c6 46 5 49 -25 72 -36 26 -31
38 20 43 29 2 39 10 55 40 11 21 22 38 25 38 3 0 14 -17 25 -38z m2798 -376
l26 -55 61 -7 c33 -4 60 -10 60 -13 0 -4 -20 -26 -43 -49 l-44 -43 10 -55 c5
-30 7 -57 4 -60 -3 -3 -28 6 -56 20 l-51 26 -61 -31 c-61 -30 -62 -31 -56 -7
3 13 8 43 12 68 6 43 4 47 -34 85 -23 21 -41 42 -41 46 0 3 27 10 61 13 l61 7
24 55 c13 30 27 54 32 54 4 0 20 -25 35 -54z m848 -156 c13 -7 19 -7 19 0 0 5
4 10 9 10 7 0 21 -34 25 -61 1 -3 8 -13 18 -22 9 -9 26 -33 39 -54 22 -37 95
-114 153 -162 16 -12 79 -50 140 -83 159 -85 218 -122 326 -201 112 -83 151
-117 250 -217 109 -111 141 -150 156 -192 3 -10 10 -18 15 -18 10 0 59 -101
59 -123 0 -9 5 -19 11 -22 6 -4 8 -13 5 -20 -2 -7 2 -23 11 -35 11 -16 14 -35
9 -78 -13 -113 -18 -135 -27 -121 -6 10 -9 6 -9 -13 0 -16 -5 -28 -10 -28 -6
0 -14 -8 -17 -17 -4 -10 -15 -27 -25 -37 -10 -11 -18 -29 -19 -40 0 -21 -1
-21 -9 -1 -7 18 -9 16 -16 -14 -4 -20 -14 -36 -26 -38 -10 -3 -18 -9 -18 -14
0 -14 -109 -117 -116 -110 -4 3 -4 -2 -1 -11 3 -9 0 -21 -7 -27 -9 -8 -18 -3
-35 19 -12 17 -19 36 -15 42 4 6 3 8 -4 5 -16 -11 -98 138 -130 238 -16 50
-38 108 -50 131 l-21 41 -633 7 c-348 4 -644 8 -657 9 -22 2 -26 11 -43 82
-11 44 -23 85 -28 90 -14 17 2 33 65 65 96 49 192 41 287 -26 l46 -33 89 87
c92 91 172 141 271 172 l53 16 -155 103 c-85 57 -174 122 -196 145 -23 22 -59
77 -80 121 -40 82 -86 240 -68 228 7 -4 9 3 4 21 -6 23 -5 26 7 14 8 -7 12
-19 9 -27 -3 -9 -1 -12 6 -7 7 4 12 16 12 27 0 13 10 24 31 31 20 7 27 13 19
18 -9 5 -5 10 10 15 13 4 28 11 34 16 53 42 76 57 106 69 19 7 44 20 55 27 23
16 40 16 66 3z m-3976 -613 l170 -94 3 94 c3 92 3 93 28 93 l26 0 -3 -119 c-2
-66 -8 -123 -12 -128 -5 -4 -123 -9 -263 -11 l-254 -3 0 25 0 25 123 3 122 3
-117 63 c-112 60 -136 77 -125 88 2 3 71 -32 152 -76 121 -66 154 -80 184 -78
34 3 26 9 -129 92 -225 122 -218 116 -140 116 63 0 70 -3 235 -93z m377 -1 l3
-94 173 95 c96 52 182 93 193 91 12 -2 -52 -42 -165 -103 -170 -92 -182 -100
-150 -103 29 -3 71 16 230 102 108 58 197 106 200 106 2 0 4 -16 4 -34 0 -34
-2 -36 -125 -103 l-124 -68 124 -3 c122 -3 125 -3 125 -25 l0 -22 -265 3 -265
3 0 124 c0 118 1 125 20 125 18 0 20 -8 22 -94z m-1787 -86 c10 -32 34 -50 66
-50 36 0 37 -9 3 -40 -21 -21 -24 -30 -19 -62 8 -43 6 -44 -35 -23 -27 14 -33
14 -60 0 -41 -21 -43 -20 -36 23 5 33 2 42 -19 62 -33 31 -32 40 4 40 32 0 56
18 66 50 3 11 10 20 15 20 5 0 12 -9 15 -20z m1625 -325 c0 -118 -1 -125 -20
-125 -19 0 -20 7 -20 90 0 50 -3 90 -6 90 -3 0 -82 -41 -174 -91 -93 -50 -177
-89 -187 -87 -11 2 57 44 167 103 172 93 182 100 149 103 -30 3 -69 -15 -229
-102 -106 -59 -195 -106 -197 -106 -2 0 -3 16 -1 36 3 36 6 38 125 103 l123
66 -125 3 c-117 2 -125 4 -125 22 0 19 8 20 260 20 l260 0 0 -125z m650 105
c0 -18 -8 -20 -127 -22 l-128 -3 115 -63 c123 -68 137 -78 127 -88 -3 -3 -73
31 -156 76 -118 64 -157 81 -183 78 -30 -3 -14 -13 157 -108 l190 -105 -62 -3
c-62 -3 -63 -2 -236 93 -96 52 -177 95 -181 95 -3 0 -6 -40 -6 -90 0 -83 -1
-90 -20 -90 -19 0 -20 7 -20 125 l0 125 265 0 c257 0 265 -1 265 -20z m-290
-333 c1 -28 17 -39 40 -27 29 15 36 7 16 -22 -15 -21 -15 -23 12 -45 l27 -22
-34 -1 c-32 0 -33 -1 -29 -35 l4 -35 -23 22 -23 21 -25 -23 -25 -23 0 36 c0
35 -2 37 -32 37 l-33 0 29 23 29 23 -19 29 c-15 23 -16 28 -4 23 55 -20 58
-20 65 12 6 28 25 33 25 7z m3693 -391 c13 -28 23 -35 57 -41 l42 -7 -29 -32
c-26 -27 -29 -35 -22 -71 4 -22 5 -42 3 -44 -1 -2 -19 6 -38 18 l-35 22 -40
-21 -41 -20 7 45 c5 40 3 47 -21 66 -36 28 -33 38 15 45 33 6 44 13 57 40 8
19 19 34 22 34 3 0 14 -15 23 -34z m-1572 -692 l40 -7 -29 -31 c-24 -25 -29
-37 -25 -63 6 -37 3 -39 -35 -19 -23 12 -31 12 -52 0 -39 -21 -46 -17 -42 22
4 28 -1 41 -23 64 l-27 28 40 7 c32 5 42 12 56 43 l18 37 19 -37 c16 -32 26
-39 60 -44z m-2438 -169 c14 -30 21 -35 52 -35 42 0 43 -6 9 -33 -23 -18 -26
-25 -20 -63 l6 -43 -35 16 c-33 16 -37 16 -71 0 l-36 -18 7 39 c5 32 2 41 -19
62 -34 31 -33 40 3 40 32 0 56 18 66 50 9 29 19 25 38 -15z m-1249 -79 c12
-29 21 -35 56 -41 l42 -7 -27 -29 c-24 -24 -27 -34 -22 -68 3 -23 3 -41 1 -41
-3 0 -19 7 -36 16 -29 15 -34 15 -65 0 -45 -22 -46 -21 -38 20 6 32 3 41 -25
70 l-32 32 44 7 c39 6 48 12 61 41 9 19 19 34 22 34 2 0 11 -15 19 -34z
m-1089 -710 c129 -31 229 -67 362 -133 73 -36 136 -71 141 -77 8 -10 26 -102
53 -271 6 -38 20 -106 31 -150 25 -96 21 -229 -10 -345 -19 -72 -29 -131 -37
-212 -2 -20 -9 -46 -15 -58 -7 -13 -8 -20 -2 -16 32 19 73 156 94 311 l13 100
6 -80 c4 -44 5 12 2 125 -2 113 -6 230 -8 260 l-3 55 16 -38 c10 -21 21 -35
25 -30 5 4 5 -5 1 -22 -7 -28 -6 -29 9 -13 15 15 15 21 -8 87 -27 79 -24 93 5
29 16 -36 19 -38 14 -13 l-5 30 15 -32 c8 -18 17 -49 21 -70 3 -21 11 -60 16
-88 5 -27 11 -61 13 -75 5 -40 6 -41 14 -36 11 7 38 -42 29 -51 -4 -3 -7 1 -7
10 0 9 -4 17 -8 17 -4 0 -6 -17 -4 -37 4 -30 6 -34 12 -18 4 11 5 -76 3 -194
-4 -156 -2 -212 6 -207 6 4 11 23 11 43 0 20 3 33 6 30 4 -4 6 -41 5 -83 -1
-49 1 -74 8 -70 6 4 7 14 4 23 -5 11 -3 14 6 8 10 -5 11 -3 4 11 -5 11 -6 33
-3 49 7 30 7 30 13 5 3 -14 8 -34 11 -45 2 -11 4 13 4 53 0 39 -4 72 -9 72 -5
0 -9 7 -9 15 0 8 6 12 14 9 10 -4 12 6 8 48 -2 29 -8 58 -11 63 -4 6 -8 26
-10 45 -4 51 -58 278 -60 256 -2 -18 -30 29 -30 49 l0 20 9 -20 c8 -19 9 -19
9 3 1 13 -6 30 -14 38 -8 9 -15 27 -15 42 0 15 -3 38 -5 52 -4 17 1 12 15 -15
18 -36 20 -37 15 -10 -3 17 -8 38 -12 49 -3 12 -1 16 6 12 7 -5 11 3 12 21 1
27 1 26 11 -7 16 -57 25 -54 22 7 -2 32 -1 49 2 39 4 -13 8 -15 13 -7 4 6 15
9 24 5 9 -3 15 -9 13 -13 -3 -4 4 -47 15 -97 11 -49 33 -172 49 -274 17 -102
40 -241 51 -310 11 -69 40 -199 64 -290 58 -219 61 -242 40 -339 -10 -45 -15
-84 -12 -88 10 -9 171 67 364 173 95 52 175 94 178 94 3 0 5 -10 5 -23 0 -19
-22 -35 -132 -96 -73 -40 -190 -100 -260 -134 -70 -34 -128 -65 -128 -69 0
-12 72 -28 123 -28 26 0 47 -4 47 -9 0 -16 -31 -21 -76 -11 -46 10 -84 1 -84
-21 0 -6 -4 -7 -10 -4 -12 7 -13 -4 -10 -123 1 -53 -2 -98 -8 -105 -6 -7 -13
-35 -17 -62 -3 -28 -10 -63 -15 -80 -5 -16 -12 -47 -14 -68 -3 -21 -12 -52
-21 -69 -18 -36 -18 -41 -5 -33 6 3 9 -4 9 -17 -1 -13 2 -36 6 -53 l8 -30 -22
24 c-23 27 -26 24 -11 -13 5 -14 5 -28 0 -31 -4 -3 -10 1 -13 7 -2 7 -3 -15
-2 -49 2 -41 -1 -61 -7 -56 -7 4 -9 -16 -6 -56 2 -34 0 -61 -5 -61 -5 0 -6
-12 -3 -27 5 -21 4 -24 -4 -13 -8 12 -10 9 -10 -12 0 -15 -6 -45 -14 -65 -20
-55 -26 -73 -23 -77 1 -2 -7 -13 -17 -25 -11 -12 -16 -21 -11 -21 4 0 2 -7 -5
-15 -20 -24 -4 -18 26 10 15 14 31 25 36 25 5 0 -15 -23 -45 -50 -37 -34 -58
-62 -62 -83 -4 -18 -14 -42 -22 -55 -37 -58 -91 -295 -85 -367 3 -36 29 -119
48 -158 8 -17 11 -35 6 -43 -6 -11 -16 -2 -38 38 -16 29 -32 62 -36 73 -5 12
-6 6 -4 -17 3 -27 1 -35 -8 -32 -7 3 -13 -2 -13 -10 0 -8 3 -13 6 -12 3 2 6
-7 6 -20 0 -22 -3 -20 -42 18 -43 42 -69 45 -44 6 11 -18 11 -20 -3 -15 -11 4
-16 1 -16 -11 0 -15 -2 -15 -11 -2 -8 11 -9 2 -6 -35 3 -27 3 -42 0 -32 -2 9
-8 17 -13 17 -4 0 -7 33 -7 73 0 43 -7 96 -18 132 -11 38 -18 90 -18 142 1 83
-9 101 -22 41 -13 -67 -21 -214 -13 -240 5 -15 8 -39 6 -55 -4 -25 -6 -23 -17
20 -13 45 -31 64 -31 32 0 -8 -4 -15 -9 -15 -5 0 -11 -12 -13 -27 -6 -46 -30
109 -32 202 0 46 -4 81 -7 79 -3 -2 -3 15 1 38 5 23 6 48 3 55 -3 7 0 13 5 13
11 0 28 80 30 139 1 18 6 39 12 46 5 6 7 14 5 17 -7 6 25 129 35 141 4 5 2 38
-5 75 -7 37 -13 83 -13 102 0 19 -5 48 -11 63 -14 35 -14 47 -1 27 12 -18 12
-15 12 115 0 99 -12 161 -31 157 -7 -1 -9 6 -6 21 4 13 1 62 -6 108 -10 67
-16 244 -9 244 1 0 4 16 5 35 12 133 27 225 41 253 l17 32 -26 -27 c-15 -16
-23 -35 -21 -45 3 -10 0 -29 -5 -43 -10 -22 -11 -21 -6 10 6 33 5 34 -10 16
-19 -25 -19 -21 5 39 10 28 19 43 20 35 1 -16 15 20 54 135 29 85 98 233 121
260 9 11 6 0 -8 -25 -13 -25 -32 -69 -42 -99 -17 -53 -17 -55 1 -68 11 -8 18
-23 16 -36 -2 -12 -1 -19 3 -16 3 4 7 17 9 30 1 13 12 46 24 72 12 27 22 54
22 60 1 7 8 23 16 37 12 20 14 21 11 5 -6 -28 -44 -166 -52 -190 -4 -11 4 -2
19 20 14 22 26 50 26 62 0 13 9 37 19 55 11 17 18 35 15 40 -3 5 -1 14 4 21 5
7 13 27 17 45 3 17 13 32 20 32 10 0 14 11 14 33 -1 17 4 45 10 60 15 38 14
70 -1 61 -8 -5 -9 -2 -4 12 26 61 12 47 -25 -26 -23 -47 -41 -89 -40 -93 1 -5
-3 -6 -7 -3 -5 3 -31 -21 -57 -54 -63 -79 -76 -82 -18 -4 13 17 23 36 23 43 0
6 7 14 15 17 8 4 15 12 15 19 0 8 7 21 17 30 19 20 73 195 72 234 -1 24 -2 24
-9 -5 -17 -74 -111 -241 -185 -331 -42 -51 -79 -93 -83 -93 -3 0 -1 5 6 12 7
7 12 17 12 22 0 6 -28 -16 -61 -49 -38 -37 -53 -48 -38 -27 12 17 26 32 30 32
4 0 15 12 24 27 16 23 12 22 -29 -11 -25 -21 -46 -34 -46 -28 0 6 5 14 10 17
6 3 10 11 10 17 0 5 -15 0 -32 -12 -18 -12 -60 -35 -93 -51 -33 -16 -52 -29
-43 -29 13 0 15 -5 9 -27 -4 -16 -6 -34 -4 -41 3 -6 -10 -35 -27 -64 -23 -37
-30 -59 -26 -78 2 -15 0 -32 -7 -39 -6 -6 -8 -11 -4 -11 4 0 3 -9 -3 -20 -13
-24 -53 -26 -94 -5 -15 8 -37 15 -48 15 -28 0 -58 18 -58 36 0 8 4 13 9 10 5
-4 7 4 3 16 -4 18 -2 20 13 14 29 -11 35 13 13 50 -11 18 -17 38 -13 44 3 5 3
25 0 43 -6 30 -12 36 -58 50 -83 27 -167 83 -222 150 -159 197 -185 243 -225
402 -32 126 -38 203 -45 544 l-5 245 25 42 c14 23 25 54 25 68 0 67 22 85 135
112 79 18 314 12 410 -10z m-2144 -123 c15 -40 68 -144 117 -230 49 -87 136
-243 192 -348 57 -104 157 -284 222 -399 66 -114 116 -212 111 -217 -8 -8
-142 223 -343 590 -61 112 -137 250 -169 305 -103 178 -173 336 -170 385 0 14
1 14 6 1 3 -8 18 -48 34 -87z m1468 15 c-29 -56 -69 -164 -69 -185 0 -27 15
-4 38 57 12 30 21 48 21 39 1 -9 -5 -32 -13 -50 -13 -33 -28 -145 -18 -134 3
3 14 22 24 43 10 20 15 26 12 13 -23 -91 -36 -199 -41 -344 -5 -149 -3 -170
12 -194 13 -19 14 -28 6 -31 -6 -2 -9 -8 -5 -13 3 -5 6 -41 8 -80 1 -38 7 -73
13 -77 5 -4 9 -18 8 -32 -1 -14 2 -36 7 -50 4 -14 10 -54 12 -90 5 -89 16
-140 30 -140 8 0 8 -2 0 -8 -13 -8 -24 -83 -12 -76 4 3 8 -2 8 -10 0 -9 -4
-16 -10 -16 -5 0 -10 -13 -10 -29 0 -16 -4 -31 -9 -33 -4 -1 -14 -64 -20 -138
-6 -74 -16 -169 -22 -210 -17 -131 -20 -178 -10 -153 6 12 13 50 16 85 4 35
13 88 20 118 14 57 29 199 27 260 -1 30 0 32 8 13 5 -13 11 -23 12 -23 2 0 4
29 5 64 0 35 6 73 11 83 10 17 11 16 21 -7 11 -26 10 11 -5 134 -4 30 -3 46 3
43 6 -4 13 -35 17 -69 8 -83 48 -202 61 -185 6 7 5 2 -2 -10 -10 -17 -10 -22
2 -27 11 -4 15 -21 15 -56 0 -29 -4 -49 -9 -45 -6 3 -10 -76 -11 -197 0 -112
-2 -223 -4 -248 -7 -84 -9 -190 -3 -196 3 -3 1 -18 -3 -34 -4 -16 -6 -31 -2
-34 10 -11 52 87 53 124 l1 35 7 -35 c11 -55 7 -95 -8 -92 -11 2 -12 -8 -8
-45 3 -26 13 -111 22 -188 9 -77 18 -159 20 -183 3 -23 9 -51 15 -61 16 -31
12 -35 -10 -10 -21 26 -26 19 -9 -13 6 -11 8 -22 5 -25 -3 -3 -16 19 -29 49
-14 30 -32 58 -41 61 -9 4 -16 11 -16 17 0 6 5 8 12 4 8 -5 9 0 4 17 -4 13 -9
47 -12 74 -2 28 -8 64 -13 80 -9 28 -9 27 -12 -20 -1 -27 -2 -57 -1 -65 9
-100 35 -172 74 -210 12 -13 16 -19 8 -15 -13 8 -13 7 -1 -8 10 -13 17 -15 27
-6 11 9 14 7 14 -10 0 -12 8 -36 17 -54 9 -18 16 -35 16 -38 -1 -3 4 -26 11
-50 8 -27 13 -87 12 -154 -1 -60 2 -128 6 -150 7 -33 3 -56 -24 -135 -19 -53
-42 -107 -51 -120 -9 -13 -17 -30 -17 -36 0 -7 -7 -25 -15 -41 -8 -15 -17 -41
-20 -56 -3 -15 -9 -25 -14 -23 -5 3 -16 -14 -25 -38 -9 -24 -25 -51 -35 -60
-17 -16 -18 -15 -14 11 3 27 3 27 -8 6 -7 -13 -16 -23 -22 -23 -5 0 -7 -6 -4
-14 8 -20 -20 -55 -42 -53 -15 1 -17 5 -10 19 5 9 14 20 19 23 6 4 8 16 5 28
-5 16 -4 18 3 8 7 -10 24 15 63 95 30 60 54 114 54 119 1 6 12 35 27 65 14 30
31 80 37 110 7 30 17 58 24 62 6 4 12 13 13 20 0 7 2 27 4 43 l2 30 8 -30 8
-30 2 35 c2 37 2 93 0 150 l-2 35 -10 -35 c-6 -21 -6 -36 0 -38 5 -1 7 -14 4
-27 -2 -14 -9 -22 -14 -19 -6 4 -7 42 -4 92 5 84 4 86 -30 139 -33 52 -67 77
-43 31 7 -13 11 -24 10 -26 -1 -1 1 -25 5 -53 7 -53 19 -55 27 -4 3 19 4 13 4
-16 0 -35 -4 -46 -14 -42 -7 3 -13 0 -13 -6 0 -6 4 -11 9 -11 5 0 6 -11 1 -27
-5 -16 -16 -54 -25 -85 -9 -32 -30 -84 -46 -115 -39 -74 -52 -106 -39 -98 13
8 13 -1 -1 -28 -6 -13 2 -7 20 13 39 45 40 31 1 -25 -33 -48 -38 -64 -15 -45
8 7 15 17 15 23 0 6 7 19 17 29 9 10 17 30 19 46 3 43 53 191 53 161 1 -15 -6
-46 -14 -70 l-16 -44 22 21 c13 13 24 42 29 75 l8 54 1 -51 c1 -37 -6 -64 -24
-98 -14 -26 -26 -59 -27 -72 -1 -13 -6 -24 -9 -24 -4 0 -9 -10 -11 -21 -2 -12
-12 -27 -23 -33 -32 -18 -54 -48 -75 -106 -36 -93 -103 -202 -175 -282 -44
-48 -59 -45 -17 3 16 19 34 49 40 68 14 39 7 56 -7 20 -5 -13 -19 -33 -31 -44
l-22 -20 23 40 c12 22 24 41 25 43 1 2 10 5 19 6 10 1 26 25 39 58 18 45 20
55 8 50 -17 -6 -11 8 17 43 15 19 15 19 -3 5 -11 -8 -28 -34 -38 -57 -10 -24
-23 -43 -27 -43 -5 0 -14 -13 -20 -28 -12 -29 -99 -117 -107 -109 -3 3 7 25
21 50 30 55 33 77 6 53 -18 -17 -18 -16 -5 46 17 80 17 83 0 69 -8 -7 -19 -34
-26 -61 -13 -53 -52 -104 -42 -55 2 14 8 28 13 31 5 3 9 18 9 35 0 16 4 29 9
29 5 0 8 16 7 35 -2 19 1 35 6 35 5 0 5 7 0 18 -5 9 -10 46 -11 82 0 36 -5 81
-9 100 -6 24 -9 -5 -8 -95 0 -139 -4 -186 -16 -179 -4 3 -4 12 -1 22 6 15 4
15 -9 4 -15 -12 -16 -9 -12 23 2 21 0 34 -5 31 -5 -3 -12 1 -15 10 -3 8 -10
13 -14 10 -5 -3 -9 7 -10 22 -1 41 -7 64 -25 98 -24 47 -57 171 -62 238 -6 70
11 265 25 298 8 18 9 13 5 -22 -6 -50 8 -37 18 17 5 23 2 35 -8 40 -10 6 -11
13 -5 23 9 13 10 13 10 0 0 -13 1 -13 10 0 8 12 10 12 10 -5 1 -15 5 -11 18
15 35 70 52 121 72 222 12 57 25 107 31 112 5 6 9 19 8 30 0 21 0 21 -10 1 -8
-17 -9 -16 -4 6 2 14 0 40 -5 58 -5 19 -5 29 1 26 11 -7 11 33 2 141 -6 77 -7
78 -20 49 -12 -27 -13 -20 -7 65 7 108 14 413 9 408 -22 -22 -55 -85 -56 -106
0 -15 -3 -21 -6 -14 -2 6 -8 10 -12 8 -6 -4 -15 92 -15 172 1 19 -3 27 -7 20
-4 -7 -10 -10 -14 -7 -3 3 5 19 17 35 l23 29 -32 -23 c-17 -12 -34 -22 -37
-22 -3 0 -6 24 -6 53 0 28 -7 71 -15 95 -9 24 -13 47 -10 52 3 5 6 30 7 54 0
36 -4 50 -22 64 -22 18 -24 18 -79 -11 -31 -16 -71 -43 -88 -60 -66 -63 -30
-12 57 81 96 103 95 100 73 176 -4 16 -1 17 28 11 55 -12 81 -34 74 -62 -4
-16 -2 -22 5 -18 5 3 10 12 10 20 0 8 7 11 18 8 53 -14 71 71 102 487 16 208
40 360 66 415 13 28 39 88 59 134 33 79 67 131 87 131 5 0 6 -12 3 -27 -5 -26
-4 -26 10 5 8 17 20 32 25 32 6 0 1 -19 -11 -42z m6601 -29 c0 -5 -4 -8 -8 -5
-5 3 -9 -1 -9 -9 0 -13 4 -12 19 2 24 22 24 19 -12 -167 -16 -85 -30 -159 -30
-163 0 -5 21 7 48 26 68 50 173 100 282 135 99 31 182 50 145 33 -12 -6 -14
-10 -6 -10 8 -1 23 7 34 17 11 9 17 11 13 5 -5 -9 0 -13 17 -13 41 0 46 -31
25 -163 -11 -66 -18 -121 -16 -123 3 -2 19 1 37 6 18 5 82 16 143 25 91 14
116 14 141 4 26 -11 28 -14 11 -20 -16 -7 -16 -8 6 -8 20 -1 22 -3 10 -11 -12
-8 -12 -10 -1 -10 8 0 12 -3 9 -6 -3 -3 5 -16 18 -29 13 -13 31 -42 40 -65 9
-22 19 -38 22 -35 13 13 96 -150 89 -176 -3 -11 -1 -17 4 -13 5 3 9 -1 9 -8 0
-9 3 -9 10 2 6 9 10 10 10 3 0 -7 -8 -17 -17 -22 -10 -6 -13 -11 -5 -11 15 0
11 -27 -18 -120 -11 -36 -20 -72 -20 -81 0 -17 49 -43 84 -43 22 -1 26 -6 26
-31 0 -9 -6 -15 -12 -14 -7 1 -109 1 -225 0 l-213 -1 0 -25 0 -25 223 -1 c122
-1 227 -1 234 0 6 1 14 -3 18 -9 3 -5 -2 -10 -12 -10 -14 0 -15 -2 -4 -9 31
-20 -6 -28 -136 -29 -194 -3 -243 -9 -243 -33 0 -17 8 -19 88 -19 49 0 130 -3
181 -7 l92 -6 -7 -31 c-3 -17 -9 -61 -13 -98 -8 -67 -34 -124 -51 -113 -6 4
-10 1 -10 -5 0 -7 8 -9 21 -5 15 5 19 4 15 -4 -4 -6 -15 -11 -24 -12 -11 0
-12 -3 -4 -6 27 -11 10 -23 -33 -23 -36 0 -47 4 -61 25 -9 14 -21 25 -28 25
-6 1 -27 14 -46 30 -27 24 -44 30 -81 30 -36 0 -50 5 -60 21 -13 18 -20 20
-62 14 -30 -5 -47 -12 -47 -21 0 -8 -10 -14 -24 -14 -13 0 -26 -3 -28 -7 -1
-5 -23 -15 -48 -24 -38 -13 -45 -20 -48 -46 l-3 -30 -97 -6 c-146 -10 -244 -9
-237 3 3 6 1 25 -6 44 -12 33 -11 36 29 81 23 27 42 52 42 57 0 20 -31 67 -47
72 -10 3 97 2 238 -1 184 -4 258 -2 263 6 5 8 -67 11 -266 11 l-273 1 -39 29
c-33 25 -49 30 -96 30 -51 0 -58 2 -69 26 -8 18 -16 24 -28 20 -10 -4 -36 -10
-59 -13 -30 -4 -44 -11 -47 -24 -4 -13 -14 -19 -35 -19 -16 0 -32 -6 -35 -14
-3 -7 -20 -17 -39 -21 -18 -5 -242 -10 -498 -12 l-465 -3 -11 28 c-18 48 -3
62 66 62 l60 0 0 49 0 49 -67 7 c-37 4 -61 10 -54 15 16 10 16 21 -1 31 -7 5
-8 9 -3 9 6 0 11 12 11 28 1 32 33 152 44 167 4 6 14 30 21 55 7 25 19 54 26
65 7 11 13 27 13 36 0 9 9 26 20 39 22 26 27 55 8 45 -7 -4 -4 0 6 9 19 15 41
13 31 -4 -3 -4 3 -14 12 -21 14 -12 16 -12 8 1 -6 11 -3 10 11 -2 19 -17 21
-14 72 88 29 58 57 102 62 99 6 -4 7 1 3 11 -4 12 -3 15 5 10 7 -4 10 -2 7 6
-3 8 4 23 15 35 11 12 20 26 20 31 0 14 36 43 44 35 4 -4 4 1 0 11 -5 13 -4
17 4 12 8 -5 10 -2 6 8 -4 10 3 20 20 27 14 7 23 16 20 20 -3 5 4 9 16 9 11 0
23 7 26 15 4 8 10 13 14 10 5 -3 6 3 3 13 -2 10 3 25 13 33 16 13 16 12 6 -8
-9 -16 -9 -24 0 -29 7 -4 8 -3 4 4 -4 7 7 18 28 29 19 9 33 19 31 23 -2 3 4 6
14 7 9 1 46 15 82 31 35 16 92 37 127 46 34 9 90 24 125 33 34 10 119 20 192
23 72 4 133 7 138 8 4 1 7 -3 7 -9z m-4356 -211 c111 -75 204 -165 150 -144
-12 4 -14 1 -9 -14 8 -24 -11 -60 -30 -60 -8 0 -24 20 -36 45 -20 42 -38 64
-25 30 7 -20 -4 -46 -17 -38 -5 3 -8 2 -6 -3 3 -5 11 -21 18 -36 10 -20 12
-38 5 -70 l-10 -43 -16 63 c-11 44 -12 62 -4 63 6 0 1 4 -11 9 -13 5 -23 13
-23 19 0 5 -9 11 -19 14 -27 7 -40 73 -18 94 13 14 16 11 22 -25 5 -30 10 -39
21 -35 8 3 14 9 14 15 0 5 -4 7 -9 4 -5 -3 -11 1 -15 9 -3 10 1 15 13 15 19 0
35 -25 26 -40 -3 -5 -1 -11 5 -15 5 -3 10 0 11 7 1 7 2 28 4 47 2 22 0 29 -6
20 -7 -11 -9 -10 -9 4 0 9 -4 17 -10 17 -5 0 -10 -4 -10 -10 0 -5 -9 -1 -20
10 -22 22 -27 38 -7 23 16 -13 70 -26 64 -16 -3 4 -33 22 -66 38 -33 17 -61
33 -61 38 0 16 25 5 84 -35z m-2023 -1044 c0 -43 -1 -93 -3 -111 -2 -18 3 -46
14 -65 l17 -33 1 40 c1 67 20 16 25 -67 3 -66 -7 -164 -20 -176 -2 -3 -11 0
-18 7 -10 8 -13 26 -9 61 3 35 1 50 -7 50 -7 0 -10 -4 -7 -8 2 -4 1 -14 -4
-22 -5 -9 -5 -19 2 -27 13 -16 -4 -17 -19 -2 -8 8 -6 20 8 45 23 42 25 76 4
68 -11 -5 -15 1 -14 22 0 24 2 26 8 10 11 -28 23 -4 15 29 -3 14 -9 25 -13 25
-6 0 -7 172 -1 195 5 19 7 30 8 39 1 5 4 7 7 5 2 -3 5 -41 6 -85z m5959 -94
c0 -17 5 -30 13 -30 6 0 -2 -9 -20 -20 -38 -23 -58 -59 -67 -122 l-7 -48 -66
0 c-50 0 -71 5 -90 20 -18 14 -41 20 -77 20 -43 0 -53 3 -61 23 -6 12 -17 20
-25 18 -8 -2 -34 -6 -57 -8 -25 -3 -43 -11 -43 -18 0 -9 -35 -13 -132 -14 -73
-1 -144 -3 -158 -5 -33 -4 -49 5 -24 15 18 7 17 8 -3 8 -12 1 -25 6 -29 12 -4
8 -9 7 -16 -2 -6 -10 -7 -7 -3 10 4 13 3 21 -1 18 -5 -3 -8 22 -7 56 1 33 -3
69 -8 79 -9 17 9 18 436 18 l445 0 0 -30z m-8690 -2895 l110 110 110 -110 110
-110 108 108 107 107 108 -108 107 -107 -107 -108 -108 -107 108 -107 107
-108 -107 -107 -108 -108 108 -108 107 -107 -108 -108 -108 -108 -110 105
-109 104 -107 -106 -108 -107 -107 107 -108 107 -109 -106 -108 -105 -109 108
-109 109 107 107 108 108 -108 107 -107 108 107 107 108 108 -108 107 -107
108 107 107 108 108 107 -107 108 -108 110 110z"/>
<path d="M6090 6113 c-76 -8 -140 -25 -164 -44 -34 -27 -34 -54 -1 -55 14 -1
25 1 25 5 0 4 6 8 13 9 39 5 83 16 92 22 6 5 31 11 57 15 26 4 45 11 42 16 -3
5 0 9 5 9 6 0 11 -3 11 -7 0 -5 18 -8 41 -8 40 0 40 0 18 18 -11 9 -34 17 -49
17 -16 0 -34 2 -42 3 -7 2 -29 2 -48 0z"/>
<path d="M5380 6070 c-47 -6 -115 -42 -103 -53 3 -4 -1 -7 -10 -7 -9 0 -21 -9
-27 -19 -16 -31 -12 -36 13 -15 52 45 91 47 267 14 30 -6 64 -12 75 -13 11 -1
26 -6 34 -11 8 -5 0 12 -17 37 -34 48 -40 52 -112 62 -25 4 -52 8 -60 9 -8 2
-35 0 -60 -4z"/>
<path d="M6010 5959 c-33 -13 -71 -50 -64 -61 3 -4 -2 -11 -10 -14 -23 -9 -20
-24 4 -24 15 0 20 -7 20 -25 0 -17 9 -29 28 -38 51 -26 75 -27 127 -2 l50 25
-51 -6 c-52 -6 -124 9 -124 27 0 5 13 9 29 9 16 0 41 4 55 10 33 12 104 16
143 6 l32 -7 -16 31 c-27 55 -160 96 -223 69z"/>
<path d="M5363 5913 c-24 -10 -43 -23 -43 -31 0 -7 -4 -11 -9 -8 -11 7 -21
-17 -13 -31 9 -13 61 -23 68 -12 6 10 127 10 164 0 24 -7 23 -7 -13 -25 -21
-9 -51 -18 -67 -18 -43 -1 -37 -12 16 -26 40 -11 51 -10 87 6 23 10 48 26 56
35 7 9 18 14 25 11 6 -3 3 1 -6 9 -24 19 -23 31 2 24 26 -7 47 19 33 41 -21
35 -232 52 -300 25z"/>
<path d="M5980 5382 c0 -5 18 -7 40 -6 22 1 40 -2 40 -6 0 -21 -41 -101 -49
-95 -6 3 -14 -2 -19 -12 -8 -14 -13 -15 -25 -5 -12 10 -16 10 -20 -2 -14 -36
-307 -40 -343 -4 -16 16 -11 63 6 53 4 -3 11 3 14 12 6 14 10 13 33 -8 25 -23
25 -23 14 -2 -14 28 -14 33 4 33 8 0 15 -4 15 -10 0 -5 9 -10 19 -10 13 0 18
-6 16 -17 -1 -10 0 -13 2 -6 2 6 16 19 30 28 14 10 23 13 20 7 -4 -5 4 -7 18
-4 52 10 32 20 -52 27 -74 7 -168 3 -273 -9 -31 -3 -36 -25 -16 -65 16 -30 40
-53 31 -29 -3 7 -1 19 4 27 7 11 20 3 59 -40 50 -55 51 -55 134 -69 46 -7 86
-18 91 -24 5 -8 9 -8 15 0 4 6 23 15 42 19 19 4 44 13 55 19 11 7 44 19 72 25
59 14 125 60 168 116 27 36 27 38 10 51 -20 15 -155 20 -155 6z"/>
<path d="M6329 4323 c-14 -50 -17 -166 -4 -218 5 -23 4 -26 -4 -15 -9 12 -11
9 -12 -15 -1 -16 -1 -37 0 -45 2 -13 1 -13 -8 0 -15 21 -14 77 2 83 7 4 6 6
-5 6 -9 1 -19 7 -21 14 -3 6 -6 -7 -6 -29 -1 -27 8 -57 24 -85 14 -24 25 -39
26 -34 1 6 2 21 4 35 3 39 16 92 22 86 5 -4 14 -80 14 -118 0 -10 5 -20 10
-23 5 -4 6 -11 3 -17 -4 -6 -12 2 -20 18 -12 29 -12 29 -13 4 -1 -14 10 -38
23 -55 l23 -29 -3 59 c-3 47 -1 55 7 36 5 -14 8 -30 5 -36 -2 -6 2 -22 10 -36
13 -23 14 -21 8 21 -13 107 -26 180 -33 180 -4 0 -6 17 -4 38 1 20 0 29 -3 19
-10 -33 -22 -7 -16 38 2 25 0 45 -5 45 -5 0 -8 26 -6 60 2 33 2 60 0 60 -3 0
-11 -21 -18 -47z"/>
<path d="M4952 4655 c-7 -14 -12 -52 -12 -83 0 -32 -5 -63 -10 -68 -7 -7 -12
-72 -13 -158 -1 -80 -5 -138 -9 -129 -3 10 -7 14 -8 8 -4 -23 0 -193 6 -230 8
-53 -8 -37 -17 18 -8 42 -6 9 8 -176 3 -44 0 -112 -6 -155 -7 -42 -14 -93 -17
-112 l-4 -35 20 35 c16 27 19 29 14 10 -4 -14 -15 -42 -25 -62 -11 -21 -15
-38 -10 -38 11 0 33 27 48 59 10 24 11 23 6 -14 -3 -22 -11 -44 -18 -50 -6 -5
-17 -20 -24 -32 -10 -19 -9 -22 4 -17 8 4 15 13 15 21 0 8 5 11 11 7 7 -4 7
-10 1 -16 -6 -6 -8 -18 -5 -27 4 -12 3 -13 -5 -2 -8 10 -11 11 -17 0 -12 -19
-10 -98 3 -111 7 -7 12 -19 12 -28 0 -13 -2 -13 -10 0 -20 31 -18 2 2 -36 12
-21 21 -50 21 -64 -1 -14 1 -17 4 -8 2 9 10 15 18 12 8 -3 11 -13 8 -21 -5
-12 -3 -14 6 -8 9 5 11 19 8 41 -7 41 0 44 14 7 7 -18 6 -30 -1 -37 -13 -13
-13 -106 0 -106 6 0 11 24 12 53 2 67 7 147 10 172 2 12 -2 19 -9 18 -7 -2
-13 2 -13 7 0 6 5 10 10 10 6 0 10 8 11 18 0 9 5 1 11 -18 5 -19 15 -38 21
-42 7 -4 8 -8 2 -8 -5 0 -5 -4 2 -8 10 -6 9 -14 -2 -36 -9 -17 -12 -33 -7 -40
5 -6 5 -47 1 -91 -11 -116 -11 -153 1 -135 5 8 10 33 10 56 0 22 5 45 11 51 8
8 8 13 0 17 -13 9 -15 53 -2 61 6 3 6 18 0 38 -12 42 -11 46 6 22 14 -17 15
-15 9 30 -6 52 -11 86 -14 95 -1 3 -6 -4 -11 -15 -8 -17 -8 -16 -3 5 14 56 16
100 4 100 -13 0 -5 38 12 55 6 7 9 0 7 -20 -2 -38 13 -144 18 -127 7 18 23 4
23 -19 0 -11 -4 -17 -10 -14 -5 3 -10 2 -10 -4 0 -5 4 -12 9 -16 14 -8 20 23
18 98 -3 84 8 88 17 6 14 -137 7 -280 -19 -369 -13 -46 -22 -86 -20 -88 4 -4
55 74 55 84 0 4 12 32 26 62 27 57 49 172 39 204 -10 29 12 21 23 -9 10 -27
10 -26 11 12 0 22 -5 49 -10 60 -8 17 -8 15 -4 -7 3 -16 1 -28 -4 -28 -14 0
-33 74 -24 96 3 9 2 15 -3 12 -5 -3 -9 9 -10 28 0 28 1 31 11 16 38 -57 60
-139 60 -229 0 -91 0 -92 12 -47 6 25 10 67 8 92 -5 55 -22 144 -24 122 -1 -8
-17 16 -37 54 -19 37 -59 107 -88 155 -63 104 -101 176 -110 214 -4 15 -11 25
-16 22 -5 -3 -9 3 -9 12 0 10 -9 56 -20 102 -16 68 -19 108 -15 215 2 72 6
145 9 162 6 37 17 364 12 364 -2 0 -9 -11 -15 -25z"/>
<path d="M12315 5379 c-49 -10 -113 -24 -142 -29 l-51 -11 -17 -70 c-10 -38
-15 -72 -12 -75 2 -3 60 18 127 46 103 42 133 50 186 50 35 0 64 4 64 9 0 23
-41 101 -52 100 -7 -1 -53 -10 -103 -20z"/>
<path d="M11718 5268 c-38 -6 -68 -14 -68 -19 0 -5 6 -9 13 -9 6 0 20 -19 30
-43 l17 -42 88 0 89 0 -27 60 c-30 68 -33 69 -142 53z"/>
<path d="M10740 5201 l-175 -47 0 -43 0 -42 284 1 c157 0 286 2 287 3 4 4
-196 168 -209 171 -6 2 -91 -17 -187 -43z"/>
<path d="M2380 1805 l-104 -104 100 -103 c54 -57 101 -104 104 -106 3 -1 52
45 110 103 l105 105 -105 105 -105 105 -105 -105z"/>
<path d="M2810 1805 l-105 -105 105 -105 c58 -58 107 -104 110 -103 3 2 50 49
104 106 l100 103 -105 105 -104 104 -105 -105z"/>
<path d="M2377 1372 l-107 -107 105 -105 105 -105 108 108 107 107 -105 105
-105 105 -108 -108z"/>
<path d="M2810 1375 l-105 -105 108 -108 107 -107 105 105 105 105 -108 108
-107 107 -105 -105z"/>
<path d="M16112 9142 c-165 -59 -256 -234 -207 -398 35 -120 124 -199 278
-250 115 -38 137 -50 153 -91 31 -73 -25 -143 -113 -143 -51 0 -99 36 -111 83
l-8 32 -129 3 -128 3 6 -52 c9 -71 55 -165 108 -218 24 -24 73 -58 109 -75 59
-28 74 -31 160 -31 88 0 101 3 162 33 83 41 158 120 187 197 45 121 20 268
-61 360 -55 62 -94 85 -218 130 -58 20 -115 46 -127 58 -29 26 -30 70 -3 97
36 36 125 19 136 -27 6 -23 8 -23 136 -23 l130 0 -7 43 c-9 58 -46 136 -84
180 -79 89 -252 131 -369 89z"/>
<path d="M16660 9010 l0 -130 110 0 110 0 0 -430 0 -430 125 0 125 0 0 430 0
430 110 0 110 0 0 130 0 130 -345 0 -345 0 0 -130z"/>
<path d="M17462 8738 l3 -403 31 -65 c58 -121 143 -194 268 -232 171 -52 360
17 463 170 72 107 73 116 73 549 l0 383 -125 0 -125 0 0 -346 c0 -221 -4 -361
-11 -389 -21 -83 -108 -137 -195 -121 -47 9 -111 68 -124 114 -6 22 -10 182
-10 390 l0 352 -125 0 -126 0 3 -402z"/>
<path d="M18420 8581 l0 -561 148 0 c241 0 349 37 478 165 112 111 164 233
164 390 0 242 -150 450 -386 537 -50 18 -86 22 -231 26 l-173 4 0 -561z m347
279 c63 -28 137 -102 164 -163 16 -38 23 -72 23 -122 1 -126 -71 -230 -191
-275 -90 -34 -83 -58 -83 280 l0 300 23 0 c12 0 41 -9 64 -20z"/>
<path d="M19190 9137 c0 -2 73 -156 161 -343 89 -186 174 -366 189 -400 l28
-61 -45 -109 c-25 -60 -53 -130 -64 -156 l-19 -48 139 0 139 0 226 554 c124
305 226 557 226 560 0 3 -62 6 -137 6 l-138 0 -94 -235 c-52 -129 -97 -235
-101 -235 -3 0 -55 105 -116 233 l-110 232 -142 3 c-78 1 -142 1 -142 -1z"/>
<path d="M20590 8580 l0 -560 125 0 125 0 0 560 0 560 -125 0 -125 0 0 -560z"/>
<path d="M21638 8815 l-3 -324 -180 319 -179 320 -138 0 -138 0 0 -555 0 -555
125 0 125 0 1 323 c0 306 1 321 17 298 9 -14 91 -158 182 -320 l165 -296 138
-3 137 -3 0 561 0 560 -125 0 -125 0 -2 -325z"/>
<path d="M3584 8785 c-12 -8 -24 -11 -28 -7 -4 3 -4 -1 -1 -10 8 -20 -12 -33
-29 -19 -28 23 -87 -68 -99 -155 -3 -21 -13 -73 -22 -114 -9 -41 -19 -124 -21
-185 -7 -155 -13 -204 -25 -182 -15 26 -26 20 -33 -18 -4 -19 -11 -35 -17 -35
-6 0 -9 -15 -7 -32 4 -42 30 -48 45 -11 9 23 11 12 12 -70 1 -93 34 -300 51
-322 5 -5 18 -48 30 -94 21 -85 47 -147 57 -138 2 3 0 14 -5 24 -12 21 -55
225 -72 338 -7 44 -14 145 -16 225 -2 139 -1 151 36 305 46 188 60 235 75 255
6 8 16 26 23 40 7 14 31 45 53 70 22 25 47 59 54 75 10 21 14 24 15 12 0 -20
-36 -77 -57 -90 -20 -13 -16 -24 20 -44 29 -18 35 -29 51 -99 10 -43 24 -88
31 -99 6 -11 18 -38 25 -60 7 -22 16 -42 20 -45 12 -8 47 -112 55 -160 11 -72
37 -160 47 -160 5 0 7 -4 4 -9 -10 -15 5 -41 23 -41 11 0 12 -3 4 -8 -8 -5 -8
-12 2 -26 8 -10 18 -15 24 -11 6 3 11 1 11 -4 0 -6 -5 -11 -12 -11 -6 0 -9 -3
-5 -6 3 -4 14 -3 24 1 26 11 61 17 46 7 -8 -5 -9 -13 -3 -22 10 -16 10 -17 14
30 1 8 7 14 14 13 6 -2 9 4 5 12 -5 13 -7 13 -20 -2 -13 -16 -14 -15 -10 12 2
17 2 24 0 18 -6 -18 -23 -16 -23 3 0 8 -4 12 -10 9 -16 -10 -11 -35 7 -35 13
0 14 -3 5 -12 -9 -9 -15 -9 -24 1 -7 6 -13 15 -14 19 -3 25 -22 54 -28 44 -4
-7 -12 -12 -18 -12 -5 0 0 9 13 20 21 17 22 19 5 20 -16 0 -17 2 -5 18 7 9 9
14 5 10 -5 -4 -15 4 -23 18 -16 31 -17 48 -3 39 6 -4 8 -10 5 -15 -3 -5 -1
-11 4 -14 5 -4 13 -1 16 5 7 11 -25 40 -37 33 -4 -2 -10 1 -13 7 -4 6 2 13 14
16 12 3 21 10 21 17 1 6 10 0 20 -13 11 -13 20 -21 20 -18 0 2 -24 53 -53 113
-55 111 -82 187 -54 152 13 -16 18 -13 67 38 l53 55 -20 26 c-21 29 -27 33
-95 63 -42 18 -51 27 -83 93 -19 39 -37 91 -39 115 -5 53 -7 55 -40 42 -18 -6
-25 -6 -21 0 9 15 -18 12 -41 -5z"/>
<path d="M3310 7933 c0 -31 -28 -61 -183 -196 -131 -115 -200 -181 -169 -163
7 4 15 1 18 -8 8 -22 24 -20 24 3 0 17 18 31 40 31 5 0 12 -10 16 -22 6 -21 7
-21 18 7 l12 28 32 -49 c38 -59 42 -54 6 10 -21 38 -23 46 -10 46 9 0 16 4 16
9 0 5 9 11 20 14 12 3 20 14 20 25 0 11 7 22 15 26 8 3 15 17 15 31 0 22 3 24
19 15 26 -13 31 -13 31 5 0 8 -4 15 -10 15 -5 0 -7 7 -4 15 4 10 13 13 25 10
13 -4 19 -1 19 9 0 9 5 16 11 16 5 0 8 4 4 9 -3 5 2 16 10 24 8 9 15 23 15 32
0 9 5 13 10 10 7 -4 8 3 4 22 -9 36 -24 54 -24 26z"/>
<path d="M19520 7514 c-206 -54 -362 -231 -391 -440 -29 -205 79 -423 264
-533 32 -19 121 -56 199 -83 78 -27 159 -58 180 -70 96 -54 113 -176 36 -255
-39 -40 -122 -68 -171 -58 -83 18 -151 86 -163 161 l-6 44 -204 0 -204 0 0
-51 c0 -190 146 -412 330 -503 179 -87 376 -87 558 0 58 28 95 55 152 113 122
123 171 239 171 408 1 107 -17 177 -69 278 -76 144 -202 235 -432 310 -147 48
-186 68 -210 108 -52 85 7 174 111 170 66 -3 129 -50 129 -95 0 -17 13 -18
208 -16 l207 3 -3 45 c-8 121 -78 261 -170 340 -137 117 -354 169 -522 124z"/>
<path d="M20380 7295 l0 -205 170 0 170 0 0 -700 0 -700 210 0 210 0 0 700 0
700 175 0 175 0 0 205 0 205 -555 0 -555 0 0 -205z"/>
<path d="M16176 6758 c-137 -403 -275 -808 -307 -901 l-58 -167 221 2 222 3
35 108 35 107 284 -2 283 -3 35 -107 35 -108 219 0 219 0 -29 88 c-56 167
-550 1703 -550 1707 0 3 -89 5 -198 5 l-197 0 -249 -732z m513 -227 l68 -211
-144 0 c-112 0 -144 3 -141 13 3 6 35 103 73 214 38 111 70 201 72 199 2 -2
35 -99 72 -215z"/>
<path d="M17523 6873 c4 -691 0 -654 78 -813 33 -67 60 -103 123 -166 130
-130 265 -191 446 -201 126 -7 218 13 339 73 167 82 294 234 357 424 17 50 19
109 22 678 l3 622 -211 0 -210 0 0 -592 0 -593 -24 -51 c-42 -89 -143 -154
-241 -154 -98 0 -194 61 -239 152 l-26 52 0 593 0 593 -210 0 -211 0 4 -617z"/>
<path d="M23396 6758 c-137 -403 -275 -808 -307 -901 l-58 -167 221 2 222 3
35 108 35 107 284 -2 283 -3 35 -107 35 -108 219 0 219 0 -29 88 c-56 167
-550 1703 -550 1707 0 3 -89 5 -198 5 l-197 0 -249 -732z m513 -227 l68 -211
-144 0 c-112 0 -144 3 -141 13 3 6 35 103 73 214 38 111 70 201 72 199 2 -2
35 -99 72 -215z"/>
<path d="M24740 6590 l0 -900 535 0 535 0 0 205 0 205 -325 0 -325 0 0 695 0
695 -210 0 -210 0 0 -900z"/>
<path d="M25980 6590 l0 -900 210 0 210 0 0 900 0 900 -210 0 -210 0 0 -900z"/>
<path d="M26886 6758 c-137 -403 -275 -808 -307 -901 l-58 -167 221 2 222 3
35 108 35 107 284 -2 283 -3 35 -107 35 -108 219 0 219 0 -29 88 c-56 167
-550 1703 -550 1707 0 3 -89 5 -198 5 l-197 0 -249 -732z m513 -227 l68 -211
-144 0 c-112 0 -144 3 -141 13 3 6 35 103 73 214 38 111 70 201 72 199 2 -2
35 -99 72 -215z"/>
<path d="M21650 6586 l0 -896 210 0 210 0 0 225 0 225 23 5 c13 4 43 5 67 3
l43 -3 141 -227 141 -228 243 0 243 0 -12 22 c-7 12 -85 139 -173 283 -89 143
-172 276 -184 296 l-22 37 52 55 c67 69 122 162 151 252 29 93 31 263 3 345
-65 191 -185 325 -371 415 -151 73 -174 77 -487 82 l-278 5 0 -896z m568 449
c76 -35 110 -62 143 -113 33 -52 39 -129 15 -185 -17 -40 -67 -91 -120 -122
-34 -20 -146 -54 -178 -55 -5 0 -8 115 -8 256 l0 256 48 -7 c26 -3 71 -17 100
-30z"/>
<path d="M2327 6704 c-148 -140 -220 -192 -359 -259 -78 -37 -174 -74 -233
-90 -111 -29 -206 -60 -247 -82 -56 -27 -22 -24 47 6 11 5 45 14 75 21 30 7
80 21 110 32 30 10 69 21 85 24 17 3 32 10 35 14 3 4 14 10 25 12 11 1 22 5
25 8 7 7 96 50 157 76 29 12 94 57 145 100 51 44 106 90 122 102 30 23 52 29
41 12 -3 -5 -1 -10 5 -10 6 0 8 10 5 23 -4 16 2 31 20 51 51 55 19 33 -58 -40z"/>
<path d="M14980 4930 l0 -270 270 0 270 0 0 270 0 270 -270 0 -270 0 0 -270z"/>
<path d="M28370 4930 l0 -270 270 0 270 0 0 270 0 270 -270 0 -270 0 0 -270z"/>
<path d="M15820 5135 l0 -45 45 0 45 0 0 -155 0 -155 45 0 45 0 0 155 0 155
45 0 45 0 0 45 0 45 -135 0 -135 0 0 -45z"/>
<path d="M16150 4980 l0 -200 40 0 40 0 0 78 c0 105 31 150 74 106 12 -12 16
-36 16 -100 l0 -84 41 0 41 0 -4 111 c-3 107 -4 112 -31 135 -32 27 -74 31
-103 9 -10 -8 -22 -15 -26 -15 -5 0 -8 36 -8 80 l0 80 -40 0 -40 0 0 -200z"/>
<path d="M19640 4980 l0 -200 40 0 40 0 0 200 0 200 -40 0 -40 0 0 -200z"/>
<path d="M21400 5100 l0 -81 -30 16 c-40 21 -72 19 -104 -6 -36 -29 -56 -70
-56 -119 0 -109 92 -175 164 -119 21 17 26 18 26 5 0 -12 10 -16 40 -16 l40 0
0 200 0 200 -40 0 -40 0 0 -80z"/>
<path d="M22220 5100 l0 -81 -30 16 c-40 21 -72 19 -104 -6 -36 -29 -56 -70
-56 -119 0 -109 92 -175 164 -119 21 17 26 18 26 5 0 -12 10 -16 40 -16 l40 0
0 200 0 200 -40 0 -40 0 0 -80z"/>
<path d="M25860 4980 l0 -200 40 0 40 0 0 78 c0 105 31 150 74 106 12 -12 16
-36 16 -100 l0 -84 41 0 41 0 -4 111 c-3 107 -4 112 -31 135 -32 27 -74 31
-103 9 -10 -8 -22 -15 -26 -15 -5 0 -8 36 -8 80 l0 80 -40 0 -40 0 0 -200z"/>
<path d="M27660 4980 l0 -200 40 0 40 0 0 200 0 200 -40 0 -40 0 0 -200z"/>
<path d="M27990 5100 l0 -81 -30 16 c-40 21 -72 19 -104 -6 -36 -29 -56 -70
-56 -119 0 -109 92 -175 164 -119 21 17 26 18 26 5 0 -12 10 -16 40 -16 l40 0
0 200 0 200 -40 0 -40 0 0 -80z"/>
<path d="M18010 5085 c0 -33 -4 -45 -15 -45 -10 0 -15 -11 -15 -35 0 -24 5
-35 15 -35 12 0 15 -17 15 -95 l0 -95 40 0 40 0 0 95 c0 78 3 95 15 95 10 0
15 11 15 35 0 24 -5 35 -15 35 -11 0 -15 12 -15 45 l0 45 -40 0 -40 0 0 -45z"/>
<path d="M20740 5085 c0 -33 -4 -45 -15 -45 -10 0 -15 -11 -15 -35 0 -24 5
-35 15 -35 12 0 15 -17 15 -95 l0 -95 40 0 40 0 0 95 c0 78 3 95 15 95 10 0
15 11 15 35 0 24 -5 35 -15 35 -11 0 -15 12 -15 45 l0 45 -40 0 -40 0 0 -45z"/>
<path d="M22930 5085 c0 -33 -4 -45 -15 -45 -10 0 -15 -11 -15 -35 0 -24 5
-35 15 -35 12 0 15 -17 15 -95 l0 -95 40 0 40 0 0 95 c0 78 3 95 15 95 10 0
15 11 15 35 0 24 -5 35 -15 35 -11 0 -15 12 -15 45 l0 45 -40 0 -40 0 0 -45z"/>
<path d="M23910 5085 c0 -33 -4 -45 -15 -45 -10 0 -15 -11 -15 -35 0 -24 5
-35 15 -35 12 0 15 -17 15 -95 l0 -95 40 0 40 0 0 95 c0 78 3 95 15 95 10 0
15 11 15 35 0 24 -5 35 -15 35 -11 0 -15 12 -15 45 l0 45 -40 0 -40 0 0 -45z"/>
<path d="M25700 5085 c0 -33 -4 -45 -15 -45 -10 0 -15 -11 -15 -35 0 -24 5
-35 15 -35 12 0 15 -17 15 -95 l0 -95 40 0 40 0 0 95 c0 78 3 95 15 95 10 0
15 11 15 35 0 24 -5 35 -15 35 -11 0 -15 12 -15 45 l0 45 -40 0 -40 0 0 -45z"/>
<path d="M16530 5043 c-32 -12 -71 -59 -81 -95 -13 -49 3 -112 38 -144 49 -45
139 -44 189 3 l29 27 -32 13 c-28 11 -36 10 -61 -4 -36 -20 -76 -8 -85 26 -5
20 -1 21 89 21 88 0 94 1 94 20 0 32 -25 83 -53 109 -26 23 -96 37 -127 24z"/>
<path d="M17041 5024 c-30 -25 -31 -25 -31 -5 0 18 -6 21 -40 21 l-40 0 0
-130 0 -130 40 0 40 0 0 83 c0 69 3 87 18 100 23 21 36 21 56 1 12 -12 16 -36
16 -100 l0 -84 40 0 40 0 0 90 c0 86 1 91 25 102 44 20 55 -2 55 -103 l0 -89
40 0 40 0 0 104 c0 98 -2 106 -26 135 -32 39 -71 41 -113 6 l-30 -26 -25 26
c-32 32 -66 32 -105 -1z"/>
<path d="M17481 5032 c-120 -64 -75 -262 59 -262 48 0 100 30 122 71 66 123
-60 256 -181 191z"/>
<path d="M17795 5039 c-32 -18 -45 -40 -45 -74 0 -36 24 -62 83 -88 38 -17 49
-43 21 -54 -9 -3 -24 3 -36 15 -17 17 -25 18 -50 10 -35 -12 -32 -26 12 -55
57 -40 135 -22 159 35 20 47 0 79 -65 108 -41 18 -54 29 -52 42 4 17 28 21 58
9 8 -4 24 0 35 8 17 14 18 17 3 31 -20 20 -96 28 -123 13z"/>
<path d="M18436 5029 c-21 -17 -26 -18 -26 -5 0 12 -10 16 -40 16 l-40 0 0
-185 0 -185 40 0 40 0 0 71 0 70 26 -20 c92 -72 201 61 150 183 -29 70 -99 95
-150 55z"/>
<path d="M18721 5032 c-120 -64 -75 -262 59 -262 48 0 100 30 122 71 66 123
-60 256 -181 191z"/>
<path d="M19096 5029 c-21 -17 -26 -18 -26 -5 0 12 -10 16 -40 16 l-40 0 0
-185 0 -185 40 0 40 0 0 71 0 70 26 -20 c92 -72 201 61 150 183 -29 70 -99 95
-150 55z"/>
<path d="M19823 5017 c-32 -30 -37 -41 -41 -90 -5 -67 9 -110 48 -137 36 -26
80 -25 114 1 21 17 26 18 26 5 0 -12 10 -16 40 -16 l40 0 0 130 0 130 -40 0
c-30 0 -40 -4 -40 -16 0 -13 -5 -12 -26 5 -39 31 -78 27 -121 -12z"/>
<path d="M20212 5028 c-19 -19 -22 -20 -22 -5 0 13 -9 17 -40 17 l-40 0 0
-130 0 -130 40 0 40 0 0 73 c0 79 16 117 51 117 16 0 19 7 19 40 0 46 -14 51
-48 18z"/>
<path d="M20525 5039 c-32 -18 -45 -40 -45 -74 0 -36 24 -62 83 -88 38 -17 49
-43 21 -54 -9 -3 -24 3 -36 15 -17 17 -25 18 -50 10 -35 -12 -32 -26 12 -55
57 -40 135 -22 159 35 20 47 0 79 -65 108 -41 18 -54 29 -52 42 4 17 28 21 58
9 8 -4 24 0 35 8 17 14 18 17 3 31 -20 20 -96 28 -123 13z"/>
<path d="M22430 5043 c-32 -12 -71 -59 -81 -95 -13 -49 3 -112 38 -144 49 -45
139 -44 189 3 l29 27 -32 13 c-28 11 -36 10 -61 -4 -36 -20 -76 -8 -85 26 -5
20 -1 21 89 21 88 0 94 1 94 20 0 32 -25 83 -53 109 -26 23 -96 37 -127 24z"/>
<path d="M22715 5039 c-32 -18 -45 -40 -45 -74 0 -36 24 -62 83 -88 38 -17 49
-43 21 -54 -9 -3 -24 3 -36 15 -17 17 -25 18 -50 10 -35 -12 -32 -26 12 -55
57 -40 135 -22 159 35 20 47 0 79 -65 108 -41 18 -54 29 -52 42 4 17 28 21 58
9 8 -4 24 0 35 8 17 14 18 17 3 31 -20 20 -96 28 -123 13z"/>
<path d="M23356 5029 c-21 -17 -26 -18 -26 -5 0 12 -10 16 -40 16 l-40 0 0
-130 0 -130 40 0 40 0 0 78 c0 84 16 122 50 122 30 0 40 -31 40 -119 l0 -81
40 0 40 0 0 95 c0 66 -5 105 -15 125 -27 53 -83 65 -129 29z"/>
<path d="M23603 5017 c-32 -30 -37 -41 -41 -90 -5 -67 9 -110 48 -137 36 -26
80 -25 114 1 21 17 26 18 26 5 0 -12 10 -16 40 -16 l40 0 0 130 0 130 -40 0
c-30 0 -40 -4 -40 -16 0 -13 -5 -12 -26 5 -39 31 -78 27 -121 -12z"/>
<path d="M24291 5032 c-120 -64 -75 -262 59 -262 48 0 100 30 122 71 66 123
-60 256 -181 191z"/>
<path d="M24666 5029 c-21 -17 -26 -18 -26 -5 0 12 -10 16 -40 16 l-40 0 0
-130 0 -130 40 0 40 0 0 78 c0 84 16 122 50 122 30 0 40 -31 40 -119 l0 -81
40 0 40 0 0 95 c0 66 -5 105 -15 125 -27 53 -83 65 -129 29z"/>
<path d="M25316 5029 c-21 -17 -26 -18 -26 -5 0 12 -10 16 -40 16 l-40 0 0
-130 0 -130 40 0 40 0 0 78 c0 84 16 122 50 122 30 0 40 -31 40 -119 l0 -81
40 0 40 0 0 95 c0 66 -5 105 -15 125 -27 53 -83 65 -129 29z"/>
<path d="M26250 5043 c-32 -12 -71 -59 -81 -95 -13 -49 3 -112 38 -144 49 -45
139 -44 189 3 l29 27 -32 13 c-28 11 -36 10 -61 -4 -36 -20 -76 -8 -85 26 -5
20 -1 21 89 21 88 0 94 1 94 20 0 32 -25 83 -53 109 -26 23 -96 37 -127 24z"/>
<path d="M27191 5032 c-120 -64 -75 -262 59 -262 48 0 100 30 122 71 66 123
-60 256 -181 191z"/>
<path d="M27542 5028 c-19 -19 -22 -20 -22 -5 0 13 -9 17 -40 17 l-40 0 0
-130 0 -130 40 0 40 0 0 73 c0 79 16 117 51 117 16 0 19 7 19 40 0 46 -14 51
-48 18z"/>
<path d="M19310 4942 c0 -107 9 -131 60 -157 36 -19 81 -19 124 -1 56 23 66
48 66 158 l0 98 -40 0 -40 0 0 -88 c0 -93 -8 -112 -45 -112 -37 0 -45 19 -45
112 l0 88 -40 0 -40 0 0 -98z"/>
<path d="M20900 4942 c0 -107 9 -131 60 -157 36 -19 81 -19 124 -1 56 23 66
48 66 158 l0 98 -40 0 -40 0 0 -88 c0 -93 -8 -112 -45 -112 -37 0 -45 19 -45
112 l0 88 -40 0 -40 0 0 -98z"/>
<path d="M21540 5035 c0 -3 26 -56 57 -119 l57 -114 -27 -62 c-15 -34 -27 -63
-27 -66 0 -2 17 -4 39 -4 l38 0 57 130 c32 72 68 155 81 185 l25 55 -40 0
c-39 0 -40 0 -73 -72 l-34 -73 -36 73 c-37 71 -38 72 -77 72 -22 0 -40 -2 -40
-5z"/>
<path d="M23090 4910 l0 -130 40 0 40 0 0 130 0 130 -40 0 -40 0 0 -130z"/>
<path d="M24070 4910 l0 -130 40 0 40 0 0 130 0 130 -40 0 -40 0 0 -130z"/>
<path d="M25050 4910 l0 -130 40 0 40 0 0 130 0 130 -40 0 -40 0 0 -130z"/>
<path d="M26610 5036 c0 -3 27 -61 59 -130 56 -119 61 -126 89 -126 26 0 32 6
57 66 15 36 31 62 35 57 4 -4 18 -34 30 -65 22 -53 26 -58 54 -58 30 0 33 5
86 121 30 67 57 125 58 130 2 5 -14 9 -36 9 -40 0 -40 -1 -75 -72 l-35 -73
-24 55 c-14 30 -28 63 -31 73 -4 10 -17 17 -30 17 -20 0 -29 -12 -57 -72 l-32
-73 -35 73 c-35 71 -36 72 -74 72 -21 0 -39 -2 -39 -4z"/>
<path d="M9489 4706 c-54 -14 -120 -52 -177 -100 l-42 -34 42 -31 c84 -62 144
-53 264 40 44 33 83 64 88 69 11 11 -60 57 -99 64 -16 2 -51 -1 -76 -8z"/>
<path d="M11919 3121 c-145 -31 -265 -104 -289 -177 -7 -21 -9 -54 -6 -78 7
-44 53 -141 92 -192 13 -17 21 -34 18 -37 -3 -3 4 -10 15 -17 12 -6 21 -15 21
-21 0 -12 103 -119 114 -119 5 0 24 -14 43 -30 46 -41 123 -79 186 -91 73 -15
123 0 186 57 115 103 176 278 152 432 -19 124 -70 214 -144 253 -77 42 -244
50 -388 20z"/>
<path d="M8497 2752 c-184 -184 -198 -201 -195 -231 3 -31 8 -26 233 199 226
226 229 230 195 230 -32 0 -51 -16 -233 -198z"/>
<path d="M23557 2132 l-137 -137 140 -140 140 -140 140 140 140 140 140 -140
140 -140 -140 -140 -140 -140 -140 140 -140 140 -140 -140 -140 -140 140 -140
140 -140 -140 -140 -140 -140 140 -140 140 -140 140 140 140 140 140 -140 140
-140 140 140 140 140 140 -140 140 -140 140 140 140 140 -135 135 c-74 74
-135 140 -135 145 0 6 61 71 135 145 l135 135 -135 135 c-74 74 -135 140 -135
145 0 5 61 71 135 145 l135 135 -140 140 -140 140 -140 -140 -140 -140 -140
140 -140 140 -140 -140 -140 -140 -138 138 c-75 75 -140 137 -142 137 -3 0
-67 -62 -143 -138z m1126 -280 l137 -137 -140 -140 -140 -140 -135 135 c-74
74 -135 139 -135 145 0 10 260 275 270 275 3 0 67 -62 143 -138z m-565 -558
c73 -69 132 -131 132 -137 0 -7 -61 -73 -135 -147 l-135 -135 -135 135 c-74
74 -135 140 -135 146 0 12 259 264 271 264 3 0 65 -57 137 -126z m561 0 c72
-69 131 -131 131 -138 0 -6 -61 -72 -135 -146 l-135 -135 -135 135 c-74 74
-135 140 -135 146 0 12 259 264 272 264 3 0 65 -57 137 -126z"/>
<path d="M9945 1300 c-216 -216 -219 -220 -185 -220 32 0 51 16 223 188 174
175 188 191 185 221 -3 31 -8 27 -223 -189z"/>
</g>
</svg>
