<?xml version="1.0" standalone="no"?>
<!DOCTYPE svg PUBLIC "-//W3C//DTD SVG 20010904//EN"
 "http://www.w3.org/TR/2001/REC-SVG-20010904/DTD/svg10.dtd">
<svg version="1.0" xmlns="http://www.w3.org/2000/svg"
 width="3004.000000pt" height="1325.000000pt" viewBox="0 0 3004.000000 1325.000000"
 preserveAspectRatio="xMidYMid meet">
<metadata>
Created by potrace 1.16, written by Peter Selinger 2001-2019
</metadata>
<g transform="translate(0.000000,1325.000000) scale(0.100000,-0.100000)"
fill="#000000" stroke="none">
<path d="M340 12090 l0 -760 185 0 185 0 0 -155 0 -155 890 0 890 0 0 760 0
760 -185 0 -185 0 0 155 0 155 -342 0 -343 0 -538 -537 c-436 -436 -538 -533
-535 -510 2 21 116 141 513 537 l510 510 -60 0 -60 0 -452 -452 c-368 -368
-453 -448 -453 -428 0 19 93 118 427 452 l428 428 -55 0 -55 0 -373 -372
c-304 -304 -373 -368 -370 -345 2 21 83 108 343 370 l340 342 -54 3 -55 3
-288 -288 c-236 -236 -288 -283 -288 -263 0 19 60 85 262 287 l263 263 -60 0
-60 0 -202 -202 c-168 -168 -203 -199 -203 -178 0 19 43 68 177 202 l178 178
-55 0 -55 0 -115 -115 c-63 -63 -118 -115 -122 -115 -5 0 -8 10 -8 22 0 15 31
54 92 115 l93 93 -55 0 c-49 0 -58 -4 -92 -37 -37 -36 -38 -37 -38 -12 0 14 5
30 12 37 9 9 7 12 -10 12 l-22 0 0 -760z m663 158 c-368 -368 -473 -468 -493
-468 -20 0 66 91 465 490 398 399 491 486 493 469 3 -18 -93 -119 -465 -491z
m90 -90 c-296 -296 -383 -378 -403 -378 -20 0 48 73 375 400 326 326 401 396
403 379 3 -18 -76 -102 -375 -401z m90 -90 c-224 -224 -293 -288 -313 -288
-20 0 30 55 285 310 254 254 311 306 313 289 3 -17 -58 -84 -285 -311z m90
-90 c-152 -152 -204 -198 -223 -198 -21 0 12 37 195 220 181 182 221 217 223
199 3 -17 -40 -66 -195 -221z"/>
<path d="M10050 12425 l-265 -265 263 -263 262 -262 -81 -81 -80 -80 133 -43
c73 -24 184 -63 247 -87 63 -25 115 -43 117 -41 2 2 -71 77 -161 167 l-165
165 262 262 263 263 -265 265 -265 265 -265 -265z"/>
<path d="M24002 12123 c3 -562 4 -569 27 -638 35 -108 87 -193 165 -271 78
-77 163 -130 271 -166 l70 -23 2188 -3 2188 -2 -3 567 c-3 562 -4 569 -27 638
-35 108 -87 193 -165 271 -78 77 -163 130 -271 166 l-70 23 -2188 3 -2188 2 3
-567z m4403 492 c33 -9 89 -30 125 -48 89 -43 214 -168 257 -257 63 -128 63
-132 63 -707 l0 -523 -2143 0 c-2364 0 -2188 -5 -2327 63 -89 43 -214 168
-257 257 -63 128 -63 132 -63 707 l0 523 2143 0 c1899 0 2150 -2 2202 -15z"/>
<path d="M28181 12460 c-18 -5 -50 -24 -69 -44 -31 -30 -36 -43 -40 -93 -3
-49 0 -64 20 -93 84 -124 278 -69 278 80 0 101 -90 172 -189 150z"/>
<path d="M24402 12302 c1 -4 63 -117 136 -249 l132 -241 0 -196 0 -196 150 0
150 0 0 198 -1 197 -143 245 -143 245 -143 3 c-78 1 -140 -1 -138 -6z"/>
<path d="M24730 12295 c0 -4 256 -432 265 -443 2 -2 61 92 132 209 70 117 132
219 136 226 6 11 -43 13 -263 13 -148 0 -270 -2 -270 -5z"/>
<path d="M27774 12230 c-117 -12 -190 -68 -220 -167 -26 -83 -5 -160 58 -219
42 -40 74 -56 168 -84 92 -28 146 -54 154 -75 24 -64 -18 -120 -89 -120 -59 0
-96 29 -114 88 l-14 46 -86 -5 c-47 -3 -92 -7 -98 -10 -32 -9 5 -128 59 -189
55 -63 107 -80 243 -80 101 0 115 2 168 29 133 65 186 235 113 360 -41 70
-113 109 -281 152 -68 18 -95 37 -95 68 0 27 9 40 37 55 51 27 129 -6 140 -59
5 -29 7 -30 63 -30 31 0 77 3 102 6 l45 6 -9 42 c-32 143 -147 206 -344 186z"/>
<path d="M26852 12205 c-7 -14 -12 -31 -12 -36 0 -14 100 -159 110 -159 6 0
130 203 130 215 0 3 -49 5 -108 5 -107 0 -109 0 -120 -25z"/>
<path d="M26462 12093 c44 -71 96 -152 114 -181 19 -29 34 -56 34 -61 0 -5
-58 -99 -130 -209 -71 -110 -130 -203 -130 -206 0 -3 53 -6 119 -6 l118 0 68
110 c38 61 71 113 75 115 3 2 37 -47 76 -108 l70 -112 122 -3 122 -3 -76 118
c-42 65 -158 243 -257 396 l-180 277 -113 0 -114 0 82 -127z"/>
<path d="M27227 12214 c-4 -4 -7 -150 -7 -324 l0 -317 50 -71 51 -72 49 0 50
0 -2 393 -3 392 -90 3 c-50 1 -94 0 -98 -4z"/>
<path d="M25676 11830 c-71 -210 -126 -383 -123 -386 3 -3 54 -7 114 -7 l108
-2 17 50 16 50 118 0 118 0 15 -47 15 -48 117 0 117 0 -127 383 -128 382 -124
3 -124 2 -129 -380z m293 -8 c17 -62 31 -115 31 -117 0 -3 -34 -5 -76 -5 -57
0 -75 3 -72 13 3 6 20 65 38 130 19 64 37 112 41 105 4 -7 21 -64 38 -126z"/>
<path d="M25110 11790 l0 -60 195 0 195 0 0 60 0 60 -195 0 -195 0 0 -60z"/>
<path d="M8985 12420 l-260 -260 255 -255 c140 -140 262 -255 270 -255 9 0
132 115 274 256 l259 256 -263 256 c-145 142 -266 258 -269 260 -3 1 -123
-115 -266 -258z"/>
<path d="M11111 12420 l-265 -259 262 -256 c144 -142 262 -262 262 -268 0 -7
-100 -112 -222 -234 -122 -122 -220 -224 -218 -226 3 -2 88 -47 190 -101 102
-54 249 -138 327 -187 78 -49 145 -89 150 -89 5 0 77 69 161 153 l152 152
-265 265 -265 265 262 262 263 263 -260 260 c-143 143 -262 260 -265 259 -3 0
-124 -117 -269 -259z"/>
<path d="M20040 8296 c-96 -20 -180 -89 -222 -181 -32 -70 -31 -190 1 -256 47
-99 127 -161 261 -204 86 -28 128 -53 145 -86 41 -78 -46 -169 -138 -145 -33
8 -77 55 -84 88 l-5 28 -124 0 -124 0 0 -24 c0 -13 9 -53 20 -89 97 -312 537
-344 682 -50 28 58 32 75 31 147 -1 181 -90 289 -292 356 -56 18 -113 43 -126
56 -69 64 21 156 103 105 17 -12 32 -28 32 -36 0 -13 20 -15 125 -15 l125 0 0
24 c0 87 -81 206 -170 251 -38 19 -155 48 -180 44 -3 0 -30 -6 -60 -13z"/>
<path d="M20550 8165 l0 -125 105 0 105 0 0 -425 0 -425 125 0 125 0 0 425 0
425 105 0 105 0 0 125 0 125 -335 0 -335 0 0 -125z"/>
<path d="M21332 7893 l3 -398 27 -58 c36 -76 123 -166 194 -201 206 -101 455
-14 557 193 l32 66 3 398 3 397 -121 0 -120 0 0 -332 c-1 -183 -5 -353 -9
-377 -34 -173 -254 -192 -318 -26 -8 21 -12 138 -12 383 l-1 352 -120 0 -121
0 3 -397z"/>
<path d="M22270 7741 l0 -551 138 0 c236 0 353 41 477 165 111 111 155 219
155 383 0 239 -145 440 -376 523 -48 17 -90 22 -226 26 l-168 6 0 -552z m324
279 c122 -46 200 -157 200 -285 -1 -78 -17 -126 -63 -184 -32 -40 -124 -94
-178 -106 l-33 -7 0 301 c0 186 4 301 10 301 5 0 34 -9 64 -20z"/>
<path d="M23033 8283 c2 -5 86 -183 186 -396 l183 -388 -61 -149 c-33 -82 -61
-152 -61 -155 0 -3 60 -5 133 -5 l133 0 216 533 c120 292 220 540 224 550 6
16 -4 17 -128 17 l-134 0 -94 -235 c-52 -129 -97 -235 -100 -235 -3 1 -54 106
-115 235 l-110 235 -138 0 c-76 0 -136 -3 -134 -7z"/>
<path d="M24400 7740 l0 -550 120 0 120 0 0 550 0 550 -120 0 -120 0 0 -550z"/>
<path d="M24810 7735 l0 -545 120 0 120 0 0 318 c1 279 2 315 15 298 8 -11 90
-154 182 -318 l168 -298 132 0 133 0 0 545 0 545 -120 0 -120 0 0 -317 c-1
-278 -2 -316 -15 -299 -8 10 -89 153 -181 317 l-166 299 -134 0 -134 0 0 -545z"/>
<path d="M8460 7855 c-317 -54 -588 -192 -800 -406 -239 -242 -371 -523 -411
-875 -36 -318 67 -689 269 -969 59 -81 223 -249 284 -290 165 -112 225 -144
363 -197 314 -121 647 -125 967 -13 390 137 702 434 851 810 77 193 114 410
103 599 -21 362 -168 691 -419 938 -184 181 -389 299 -636 367 -187 51 -403
65 -571 36z m305 -185 c17 -54 71 -66 105 -23 l21 27 67 -16 c105 -26 122 -34
122 -62 0 -50 63 -75 101 -40 16 14 21 13 60 -7 95 -48 119 -69 119 -105 0
-37 42 -79 69 -68 42 17 50 14 116 -49 61 -59 66 -66 55 -87 -13 -24 -5 -70
13 -82 7 -4 28 -8 48 -8 33 0 37 -4 77 -74 23 -40 42 -78 42 -84 0 -6 -8 -24
-17 -40 -16 -28 -16 -31 0 -56 11 -16 27 -26 42 -26 31 0 35 -8 62 -105 l21
-80 -25 -26 c-35 -37 -29 -79 14 -99 l33 -15 0 -92 0 -91 -35 -21 c-45 -26
-48 -69 -9 -100 29 -23 29 -24 -8 -143 -18 -58 -24 -68 -44 -68 -12 0 -30 -7
-38 -16 -20 -20 -21 -68 -1 -84 13 -10 13 -16 0 -47 -8 -19 -29 -57 -47 -84
-28 -44 -35 -49 -68 -49 -55 0 -75 -36 -55 -96 5 -17 -7 -34 -61 -87 -55 -54
-70 -64 -85 -57 -47 26 -81 6 -88 -51 -6 -41 -10 -46 -76 -86 -76 -46 -96 -51
-115 -28 -29 35 -100 -5 -100 -56 0 -13 -12 -21 -42 -29 -24 -6 -64 -17 -90
-24 -45 -13 -48 -12 -69 10 -34 37 -75 32 -100 -11 l-21 -35 -87 0 c-94 0
-111 8 -111 50 0 34 36 161 63 225 l22 50 7 -40 c4 -22 7 -70 7 -107 1 -105
21 -82 22 25 0 50 4 119 8 151 7 56 11 63 65 113 32 30 63 52 70 50 9 -3 104
-266 130 -362 3 -10 8 -17 10 -14 3 3 -10 79 -30 170 -19 90 -43 207 -54 259
-33 167 -46 213 -89 319 -23 57 -40 110 -37 117 10 26 27 14 48 -33 61 -143
88 -196 139 -273 247 -374 319 -483 319 -477 0 4 -67 140 -150 303 -109 215
-170 324 -226 400 -47 66 -74 111 -70 120 3 9 10 14 15 12 11 -4 131 -150 131
-160 0 -3 78 -75 173 -159 94 -85 177 -159 182 -164 14 -15 155 -137 180 -155
24 -18 -4 14 -253 291 -125 138 -226 240 -285 287 -51 40 -93 79 -95 86 -7 33
22 21 114 -47 74 -55 173 -111 392 -221 162 -81 295 -146 297 -144 4 4 -40 33
-220 150 -71 47 -177 115 -235 153 -57 37 -136 81 -175 97 -126 52 -145 62
-145 74 0 26 21 22 143 -26 69 -28 133 -50 142 -50 8 0 91 -16 183 -35 92 -20
220 -47 286 -61 65 -14 120 -23 122 -21 6 6 -40 22 -331 116 -254 82 -337 104
-435 116 -76 9 -90 14 -90 32 0 13 10 14 78 7 42 -5 138 -9 212 -9 152 0 600
26 600 35 0 3 -145 13 -322 22 -276 13 -338 13 -428 2 -139 -18 -140 -17 -140
5 0 24 9 26 130 41 72 9 168 36 400 112 292 96 373 126 305 114 -16 -3 -95
-19 -175 -36 -80 -17 -199 -42 -265 -56 -140 -29 -190 -44 -303 -91 -45 -19
-89 -32 -97 -29 -31 11 -13 33 48 58 34 15 87 37 117 50 57 24 610 383 610
395 0 2 -135 -65 -300 -149 -229 -117 -325 -171 -403 -230 -75 -56 -105 -73
-114 -66 -7 6 -13 14 -13 18 0 4 34 34 77 66 110 85 168 145 481 502 82 93
106 128 55 80 -16 -14 -131 -118 -256 -231 -162 -145 -246 -229 -293 -290 -71
-95 -81 -104 -96 -89 -13 13 -2 33 72 130 40 53 104 168 205 371 80 161 145
295 143 297 -2 2 -24 -27 -48 -64 -168 -260 -236 -362 -261 -399 -27 -38 -68
-121 -129 -260 -13 -29 -27 -53 -32 -53 -23 0 -17 41 20 133 22 56 54 165 71
242 79 369 112 537 107 543 -3 3 -6 -2 -6 -10 0 -8 -9 -37 -19 -64 -11 -27
-56 -162 -101 -301 -58 -180 -88 -289 -103 -385 -18 -107 -26 -134 -40 -136
-20 -4 -20 -5 -3 146 12 114 12 138 -20 630 -4 61 -10 112 -14 112 -10 0 -37
-635 -29 -703 21 -184 21 -187 5 -187 -22 0 -25 8 -44 137 -14 90 -42 189
-118 420 -54 166 -102 303 -105 303 -6 0 17 -122 70 -375 47 -224 59 -271 103
-378 37 -94 43 -134 16 -125 -7 3 -24 33 -38 69 -57 137 -84 183 -264 454
-102 154 -186 277 -186 274 0 -4 68 -141 151 -305 114 -225 170 -323 226 -398
40 -54 72 -104 70 -110 -9 -26 -34 -6 -106 83 -42 52 -117 131 -166 175 -214
192 -387 341 -398 345 -7 2 -5 -3 4 -10 8 -8 48 -52 89 -99 41 -47 99 -112
130 -145 30 -34 92 -102 138 -153 46 -50 116 -117 155 -147 132 -100 124 -92
107 -109 -16 -16 -17 -15 -177 104 -43 32 -608 320 -628 320 -5 0 31 -27 81
-59 51 -33 136 -88 190 -124 282 -182 288 -186 456 -253 48 -19 61 -40 33 -50
-9 -4 -59 12 -113 34 -98 40 -164 57 -437 113 -82 16 -192 39 -244 50 -52 10
-95 18 -97 16 -2 -2 138 -49 310 -105 248 -82 339 -107 441 -122 70 -11 129
-20 131 -20 2 0 4 -10 4 -21 0 -20 -4 -21 -42 -15 -147 21 -495 15 -778 -13
-117 -12 -57 -19 278 -33 248 -11 325 -11 419 0 64 7 118 11 121 8 2 -3 2 -12
-1 -19 -4 -10 -43 -20 -123 -32 -93 -14 -182 -40 -423 -121 -168 -56 -299
-103 -289 -103 9 -1 58 8 110 18 498 104 510 107 648 165 73 30 86 33 93 20 5
-9 7 -18 4 -20 -2 -3 -53 -26 -113 -52 -79 -35 -186 -99 -391 -235 -156 -103
-283 -189 -283 -191 0 -5 406 200 535 270 55 30 120 70 145 89 89 69 120 87
135 81 25 -9 18 -19 -47 -66 -62 -45 -159 -136 -234 -220 -22 -25 -93 -106
-159 -180 -65 -74 -132 -150 -149 -169 -46 -50 -12 -27 79 53 258 229 392 354
429 399 42 53 96 123 108 141 4 6 12 5 22 -3 16 -14 16 -14 -84 -151 -48 -65
-340 -629 -340 -656 0 -5 41 54 92 131 50 77 129 197 175 267 46 70 100 163
119 205 19 43 45 99 56 126 23 50 44 58 41 14 -1 -14 -17 -65 -37 -114 -32
-81 -78 -263 -106 -423 -11 -66 -60 -293 -64 -297 -1 -1 -31 7 -66 18 -44 14
-106 23 -195 28 l-130 6 -3 43 c-4 56 -38 82 -84 64 -35 -13 -49 -4 -127 81
-34 36 -41 51 -33 59 7 7 12 21 12 33 0 36 -23 57 -66 58 -38 2 -40 5 -86 81
l-47 79 20 25 c10 14 19 32 19 40 0 24 -41 62 -66 62 -24 0 -25 3 -59 123
l-16 58 26 20 c43 35 29 92 -27 112 -16 5 -18 20 -18 101 0 94 0 96 25 102 50
12 60 71 19 109 -16 15 -24 31 -20 42 47 166 46 163 71 163 49 0 72 61 40 107
-13 19 -11 27 33 99 44 73 50 79 78 76 21 -2 36 4 54 23 22 23 23 29 12 57
-11 29 -9 34 24 75 51 62 102 99 116 85 17 -17 54 -15 72 4 9 8 16 32 16 52 0
35 4 39 74 80 40 23 77 42 83 42 5 0 24 -7 42 -16 29 -14 34 -14 56 0 13 9 28
31 33 48 8 31 13 34 95 57 l87 23 21 -26 c31 -39 74 -36 100 9 l21 35 93 0
c85 0 94 -2 100 -20z m-115 -1487 c-1 -10 -7 -66 -13 -124 -9 -77 -10 -152 -4
-276 l9 -171 -36 -59 c-40 -65 -79 -157 -97 -227 l-11 -46 -57 32 c-31 17 -57
32 -58 33 -2 1 40 132 92 291 71 214 101 322 116 414 11 69 22 131 24 138 6
19 35 14 35 -5z m79 -45 c5 -35 13 -88 16 -118 4 -30 22 -100 41 -156 34 -102
41 -134 26 -134 -5 0 -34 -15 -65 -34 l-57 -34 5 76 c3 43 7 104 10 138 2 33
-2 114 -10 180 -18 151 -18 144 4 144 15 0 21 -12 30 -62z"/>
<path d="M12597 7220 c-61 -23 -125 -76 -172 -140 l-37 -51 -47 43 c-105 99
-240 146 -370 131 l-55 -6 86 -18 c142 -28 280 -114 352 -218 16 -23 32 -41
36 -41 4 0 27 32 51 72 77 127 168 211 259 239 21 6 19 7 -15 8 -22 0 -62 -8
-88 -19z"/>
<path d="M22250 5801 l0 -941 234 0 c162 0 260 5 319 15 566 99 903 659 727
1208 -97 301 -332 528 -647 624 -84 25 -100 27 -360 31 l-273 4 0 -941z m548
478 c203 -69 344 -270 344 -489 0 -244 -169 -442 -419 -489 l-43 -8 0 508 0
509 33 -7 c17 -3 56 -14 85 -24z"/>
<path d="M19870 5795 l0 -935 215 0 215 0 0 935 0 935 -215 0 -215 0 0 -935z"/>
<path d="M20560 5795 l0 -935 215 0 215 0 0 543 0 542 76 -135 c42 -74 109
-193 149 -265 40 -71 143 -254 228 -405 l154 -275 236 -3 237 -2 0 935 0 935
-215 0 -215 0 0 -542 c0 -334 -4 -538 -9 -532 -8 7 -409 722 -560 997 l-42 77
-235 0 -234 0 0 -935z"/>
<path d="M23680 5795 l0 -935 215 0 215 0 0 935 0 935 -215 0 -215 0 0 -935z"/>
<path d="M24875 6718 c-3 -7 -27 -78 -54 -158 -94 -277 -220 -647 -361 -1060
-78 -228 -159 -466 -180 -527 l-39 -113 229 0 229 0 38 115 37 115 296 0 295
0 35 -113 36 -112 227 -3 c142 -1 227 1 227 7 0 6 -4 20 -10 33 -5 13 -124
381 -265 818 -141 437 -272 843 -291 903 l-36 107 -204 0 c-155 0 -206 -3
-209 -12z m279 -976 c36 -111 66 -207 66 -212 0 -12 -290 -14 -290 -2 -1 20
146 430 151 424 4 -4 37 -98 73 -210z"/>
<path d="M11635 6701 c-46 -21 -117 -94 -142 -145 l-16 -35 -38 30 c-20 16
-64 42 -96 57 -51 23 -70 27 -153 26 -61 0 -106 -6 -127 -15 -31 -14 -29 -15
55 -15 70 0 99 -5 150 -26 78 -32 140 -80 183 -140 19 -26 37 -47 40 -48 4 0
16 28 29 63 43 118 100 191 172 221 43 18 105 21 143 6 39 -15 20 9 -21 26
-46 19 -131 17 -179 -5z"/>
<path d="M17140 6121 c-12 -9 -11 -11 7 -11 12 0 48 -10 80 -22 78 -29 152
-103 183 -185 l24 -61 34 50 c46 68 106 125 149 139 46 15 118 6 146 -17 l21
-19 -15 24 c-52 82 -195 79 -285 -5 l-32 -30 -43 46 c-24 25 -66 56 -92 68
-54 25 -154 38 -177 23z"/>
<path d="M17600 5551 c0 -5 21 -11 48 -15 144 -19 297 -151 348 -300 l16 -46
48 68 c125 179 275 238 394 157 32 -21 35 -22 26 -6 -5 11 -22 28 -37 39 -104
72 -240 50 -354 -56 -57 -52 -62 -55 -72 -37 -43 77 -163 164 -262 190 -64 16
-155 20 -155 6z"/>
<path d="M16685 4876 c168 -71 303 -212 359 -373 l11 -32 82 73 c44 41 103 88
129 106 53 37 147 70 202 71 35 0 36 1 12 11 -72 29 -227 -14 -330 -93 -70
-54 -67 -53 -89 -11 -28 55 -117 150 -176 187 -62 40 -145 71 -210 80 l-50 6
60 -25z"/>
<path d="M14599 4713 c-1 -32 -1 -80 1 -107 1 -32 -3 -51 -11 -57 -11 -6 -11
-11 -1 -21 21 -21 13 -43 -42 -109 -67 -82 -161 -153 -282 -213 -120 -60 -193
-126 -236 -214 -31 -63 -33 -73 -33 -172 1 -84 5 -116 23 -160 12 -30 22 -62
22 -71 0 -17 -38 -29 -91 -29 l-29 0 0 -160 c0 -100 -4 -160 -10 -160 -6 0
-10 -51 -10 -134 0 -114 -2 -135 -16 -140 -10 -4 -14 -14 -11 -26 3 -11 1 -23
-4 -26 -15 -9 -10 -21 11 -27 19 -5 20 -14 20 -336 l0 -331 -115 0 -115 0 0
-65 0 -65 35 0 35 0 0 -640 0 -640 -280 0 -280 0 0 40 c0 39 -1 40 -35 40 -34
0 -35 1 -35 39 0 29 5 40 18 43 10 3 23 21 29 42 11 36 11 36 -18 36 l-29 0 0
163 c0 90 -3 205 -6 255 -7 88 -6 92 14 92 14 0 24 10 31 31 15 45 14 47 -16
51 -35 4 -48 48 -15 48 13 0 24 11 31 31 15 45 14 47 -16 51 l-28 3 -3 248
c-2 214 0 247 13 247 12 0 75 105 75 125 0 3 -29 5 -65 5 l-65 0 0 100 0 100
-80 0 -80 0 0 90 0 90 -85 0 -85 0 0 74 0 73 83 104 c295 367 554 804 743
1253 57 134 144 368 144 386 0 11 -1204 14 -1383 3 l-107 -6 0 -47 c0 -26 3
-75 6 -109 6 -50 10 -61 25 -61 26 0 36 -40 14 -56 -10 -7 -22 -15 -26 -16 -5
-2 -1 -192 8 -424 l17 -421 48 -17 c26 -9 60 -27 75 -40 l27 -24 -44 -7 c-25
-4 -58 -14 -73 -22 l-29 -14 8 -145 c8 -162 11 -156 -66 -125 l-45 19 -78 -29
c-58 -22 -96 -29 -148 -29 l-69 0 0 -35 c0 -24 -5 -35 -15 -35 -13 0 -14 26
-8 189 l6 189 -31 16 c-17 9 -47 16 -67 16 -19 0 -35 4 -35 8 0 18 48 53 93
68 47 16 47 16 47 62 0 59 18 597 24 712 4 81 3 87 -17 95 -31 14 -30 59 1 63
20 3 22 8 22 75 0 40 3 89 6 110 l7 37 -1160 0 c-638 0 -1504 -3 -1925 -7
l-766 -6 55 -81 c63 -91 103 -174 103 -212 0 -16 10 -34 25 -46 33 -25 33 -63
0 -84 l-25 -16 0 -198 c0 -189 1 -198 20 -203 26 -7 26 -44 0 -52 -14 -4 -20
-15 -20 -35 0 -27 3 -29 41 -32 l41 -3 -20 -25 -20 -24 -93 75 c-206 166 -353
325 -328 355 6 8 9 25 5 38 -4 15 0 28 9 36 21 17 19 58 -4 72 -15 9 -17 15
-8 30 9 14 8 21 -6 35 -16 16 -18 16 -34 0 -15 -14 -16 -21 -5 -37 10 -16 10
-20 -1 -20 -20 0 -37 21 -37 45 0 27 29 55 56 55 22 0 44 18 44 35 0 5 -5 2
-11 -7 -16 -28 -39 -22 -39 10 0 38 40 120 105 213 l54 80 -1133 -3 c-624 -2
-1137 -6 -1140 -9 -3 -3 23 -49 59 -102 55 -83 95 -172 95 -211 0 -6 9 -17 20
-24 27 -16 27 -68 0 -84 -19 -12 -20 -24 -20 -158 l0 -145 927 2 928 3 -77
-74 c-43 -41 -142 -126 -221 -190 -160 -128 -209 -177 -268 -268 -81 -126
-102 -287 -51 -402 17 -38 22 -67 21 -135 l0 -86 -20 45 c-42 94 -100 142
-188 156 l-40 6 -4 67 -3 66 -2 -66 -2 -66 -41 -7 c-82 -13 -143 -62 -183
-146 -19 -41 -21 -63 -21 -250 l0 -205 -52 -3 -53 -3 0 140 c0 87 4 141 10
141 17 0 11 26 -10 45 -20 18 -21 18 -46 -6 -22 -21 -23 -25 -10 -35 13 -9 16
-36 16 -148 l0 -136 -180 0 -180 0 0 100 c0 82 3 100 15 100 22 0 18 13 -10
40 l-24 23 -20 -24 c-24 -29 -26 -39 -6 -39 13 0 15 -92 15 -770 l0 -770 -90
0 -90 0 0 108 c0 59 -3 124 -6 144 -5 31 -4 38 10 38 9 0 16 7 16 15 0 8 -7
15 -15 15 -12 0 -15 20 -15 118 0 64 -3 168 -7 230 -5 100 -4 112 10 112 21 0
22 16 3 27 -12 7 -16 57 -22 261 -7 241 -6 253 12 267 17 13 17 14 2 15 -16 0
-18 11 -18 93 0 108 -19 153 -70 164 -27 5 -30 9 -30 44 0 22 -4 39 -10 39 -5
0 -10 -18 -10 -39 0 -35 -3 -40 -28 -46 -46 -10 -62 -50 -62 -154 0 -72 -3
-93 -15 -97 -20 -8 -19 -24 0 -24 14 0 15 -29 9 -257 -5 -201 -10 -260 -20
-266 -19 -11 -18 -27 2 -27 14 0 15 -23 8 -227 -6 -192 -10 -230 -23 -240 -15
-10 -14 -12 2 -18 15 -6 17 -22 17 -129 0 -176 6 -166 -105 -166 l-93 0 -4
168 c-3 127 -1 170 9 178 17 14 16 24 -1 38 -11 9 -15 68 -21 279 -6 238 -5
268 9 273 20 8 21 34 2 34 -15 0 -21 81 -30 436 -5 192 -5 192 17 198 l22 7
-22 16 c-21 14 -23 23 -23 120 0 129 -19 174 -78 189 -34 8 -37 12 -43 54 l-5
45 -5 -45 c-4 -42 -6 -46 -41 -54 -60 -15 -78 -60 -78 -195 0 -92 -3 -111 -15
-111 -8 0 -15 -7 -15 -15 0 -8 7 -15 17 -15 15 0 16 -18 10 -197 -4 -108 -7
-249 -7 -315 0 -98 -3 -118 -15 -118 -19 0 -20 -26 -1 -37 20 -12 10 -553 -10
-553 -18 0 -18 -27 0 -37 12 -7 14 -36 9 -176 l-6 -167 -54 0 -53 0 0 -80 0
-80 -55 0 -55 0 0 -40 0 -40 -220 0 -220 0 0 538 0 539 44 31 c24 18 54 32 65
32 14 0 21 6 21 20 0 18 -7 20 -65 20 l-65 0 0 130 c0 109 2 130 15 130 18 0
18 8 0 40 -9 15 -14 54 -15 98 l0 72 -500 0 -500 0 0 125 c0 117 1 125 19 125
32 0 32 15 2 44 l-29 27 0 233 c0 145 -5 249 -12 277 -14 53 -49 116 -83 148
-22 20 -24 27 -15 47 9 19 8 28 -5 42 -10 10 -17 30 -17 45 0 14 -4 29 -10 32
-6 4 -10 -6 -10 -21 0 -15 -10 -38 -22 -51 -18 -19 -19 -27 -10 -47 9 -20 7
-27 -15 -47 -30 -29 -66 -98 -83 -159 -8 -30 -12 -109 -11 -232 l2 -188 -406
0 -406 0 1 188 c1 160 -1 196 -18 248 -20 63 -75 154 -94 154 -6 0 -7 7 -3 18
12 27 8 55 -10 64 -8 5 -15 22 -15 38 0 17 -4 30 -10 30 -5 0 -10 -13 -10 -29
0 -16 -7 -34 -16 -42 -11 -9 -14 -22 -10 -44 5 -24 1 -36 -15 -51 -26 -24 -63
-95 -79 -154 -8 -30 -12 -121 -11 -277 l2 -232 -33 -30 -33 -30 33 -1 32 0 0
-123 0 -124 -292 -6 c-161 -4 -386 -7 -500 -7 l-208 0 0 -65 c0 -46 -6 -78
-20 -104 -19 -39 -19 -39 0 -44 19 -5 20 -14 20 -131 l0 -126 -62 0 c-60 0
-61 0 -43 -20 10 -11 15 -20 11 -20 -3 0 6 -18 20 -40 19 -28 34 -40 50 -40
l24 0 0 -528 0 -529 -97 -6 c-54 -4 -246 -7 -427 -7 l-328 0 6 448 c3 246 9
468 12 495 5 42 9 47 31 47 20 0 24 4 20 19 -3 14 -1 18 10 14 8 -3 13 0 11 8
-2 8 5 14 15 14 9 0 26 14 37 30 11 17 20 25 20 19 0 -6 -11 -28 -25 -48 -34
-50 -12 -35 27 17 41 56 29 10 -14 -53 l-30 -45 27 25 28 25 -17 -33 c-10 -19
-15 -40 -12 -49 3 -8 1 -24 -5 -36 l-10 -22 18 21 c10 11 26 31 36 45 17 23
17 23 1 -11 -9 -19 -26 -48 -37 -64 -12 -16 -15 -26 -8 -22 7 4 26 26 42 48
34 48 37 39 9 -29 l-20 -48 21 25 c12 14 27 39 33 55 l11 30 6 -35 c5 -30 7
-27 8 22 1 66 14 80 35 41 23 -42 19 -8 -4 37 -23 45 -25 54 -8 44 8 -5 9 -2
4 11 -5 15 -4 16 9 5 17 -14 21 -35 5 -25 -16 10 -11 -8 11 -40 19 -28 20 -22
2 22 -5 12 -3 14 7 8 19 -12 -33 76 -85 145 -60 80 -59 76 -25 112 23 23 29
27 21 11 -18 -35 -13 -47 10 -22 16 20 18 20 11 4 -5 -11 -12 -38 -16 -60 l-6
-40 14 30 15 30 -5 -35 c-4 -32 -2 -30 16 15 15 38 18 42 14 17 -3 -18 -2 -51
2 -75 l7 -42 12 40 13 40 2 -45 3 -45 6 40 7 40 11 -55 11 -55 2 55 c2 36 4
45 7 25 3 -16 9 -34 15 -40 9 -9 4 40 -9 88 -7 27 5 20 22 -14 9 -17 19 -29
21 -26 3 3 -2 19 -10 36 -12 22 -13 32 -4 37 6 4 8 3 5 -3 -3 -5 0 -10 8 -10
13 0 13 3 0 17 -8 9 -15 24 -15 34 0 9 -5 27 -11 38 -9 16 -8 19 3 12 7 -5 17
-9 22 -9 5 0 11 -7 13 -15 4 -13 3 -13 -6 0 -13 18 -15 1 -2 -18 13 -21 23 15
11 38 -13 24 11 21 40 -5 11 -10 20 -14 20 -9 1 5 15 -7 32 -26 16 -19 25 -25
19 -14 -5 12 -8 24 -5 26 8 9 -64 58 -107 73 -23 8 -63 15 -89 15 -27 0 -55 3
-64 6 -21 8 -21 34 0 34 12 0 15 7 12 25 -3 13 -2 22 2 20 5 -3 10 2 14 10 9
25 26 17 26 -14 0 -16 6 -31 15 -35 12 -4 15 3 15 32 0 25 3 33 9 23 7 -11 10
-10 13 5 4 15 8 12 21 -16 18 -38 23 -27 7 14 -13 36 3 33 34 -6 31 -39 35
-29 5 13 -26 37 -13 37 41 -2 23 -17 39 -25 35 -19 -4 7 -27 24 -51 40 -24 15
-41 30 -37 34 3 3 -5 6 -18 7 -22 0 -23 1 -4 9 11 5 16 9 10 9 -27 3 26 21 65
23 42 1 41 2 -15 8 l-60 6 55 9 55 9 -40 6 -40 5 45 17 c62 22 18 22 -47 -1
-59 -20 -66 -19 -25 4 26 15 26 16 2 9 -14 -4 -38 -13 -55 -22 -29 -15 -30
-14 -15 4 8 10 -3 3 -24 -16 -33 -30 -37 -32 -26 -10 12 22 8 20 -32 -12 -26
-22 -45 -32 -44 -23 1 7 15 24 32 36 53 40 50 43 -11 10 l-60 -33 40 42 c22
24 34 40 28 36 -22 -12 -14 11 14 45 29 34 16 32 -26 -5 l-24 -21 6 23 c8 33
0 27 -23 -18 -20 -40 -38 -56 -25 -22 11 28 16 141 6 117 -9 -19 -10 -18 -11
5 l-2 25 -8 -25 c-4 -14 -8 -19 -9 -11 -1 18 -51 104 -57 98 -2 -2 5 -30 16
-62 25 -73 25 -91 0 -43 -11 20 -24 40 -30 43 -13 8 -13 -1 2 -28 14 -26 19
-153 5 -135 -6 9 -6 6 -2 -7 10 -26 17 -63 10 -49 -3 6 -19 9 -35 6 -23 -3
-35 3 -61 32 -48 55 -169 117 -169 86 0 -5 8 -10 18 -10 32 0 33 -13 5 -33
l-28 -19 32 4 c39 5 42 1 11 -12 -18 -8 -12 -9 22 -4 33 4 41 2 30 -5 -8 -6
-10 -11 -5 -11 6 0 3 -5 -5 -10 -12 -8 -9 -10 13 -10 29 0 39 -20 10 -21 -15
0 -15 -2 -3 -7 24 -11 22 -31 -3 -37 -15 -4 -37 2 -60 15 l-37 22 0 -62 c0
-38 4 -59 10 -55 6 3 10 1 10 -5 0 -6 4 -8 10 -5 6 3 7 -1 4 -10 -4 -9 -13
-14 -20 -11 -11 4 -14 -9 -14 -59 0 -35 4 -66 9 -69 10 -7 9 -31 -2 -42 -4 -4
-7 -21 -7 -37 0 -21 4 -28 14 -24 21 8 26 -24 7 -46 -10 -12 -16 -42 -17 -85
l-2 -67 16 45 17 45 6 -45 6 -45 2 45 c1 25 8 59 16 75 l13 30 2 -50 c0 -27 7
-63 15 -80 l15 -30 -5 40 -6 40 21 -33 c11 -18 20 -37 20 -43 0 -6 7 -9 15 -5
18 7 19 -12 5 -150 -5 -55 -16 -245 -25 -424 -8 -179 -18 -346 -21 -372 l-7
-48 -53 0 -54 0 0 -385 0 -385 12978 0 12977 0 -35 22 c-65 39 -374 196 -490
248 -603 272 -1261 448 -1872 502 l-138 12 0 56 c0 30 -9 141 -20 245 -11 105
-23 299 -27 433 l-6 242 27 0 c19 0 27 4 23 13 -3 8 -1 20 3 27 5 8 3 19 -6
27 -17 17 -18 49 -2 59 8 5 9 2 5 -9 -7 -20 4 -22 21 -5 9 9 12 8 12 -4 0 -9
-4 -19 -9 -23 -6 -3 -9 -15 -8 -26 1 -19 4 -18 30 12 23 27 27 29 17 9 -7 -14
-20 -34 -29 -44 -9 -11 -10 -16 -3 -12 7 5 27 26 43 48 16 23 29 38 29 34 0
-17 -33 -83 -53 -106 -16 -19 -13 -17 12 5 31 28 33 28 21 6 -7 -14 -14 -45
-16 -69 l-3 -45 25 41 c37 61 41 51 6 -13 -17 -30 -28 -55 -26 -55 2 0 17 19
34 42 33 46 37 41 15 -21 -20 -57 -9 -51 20 10 l24 52 4 -34 c3 -28 4 -26 5
13 1 25 5 54 8 62 6 15 8 15 20 -1 21 -28 16 -2 -6 37 l-21 35 32 -35 c18 -20
27 -26 20 -13 -14 28 -14 36 2 27 6 -5 0 9 -15 29 -16 20 -40 54 -55 75 -16
20 -33 40 -39 44 -6 4 -19 19 -28 33 -16 24 -16 26 10 53 19 19 25 22 20 9 -3
-11 -9 -31 -12 -45 -4 -20 0 -16 15 13 18 36 20 37 15 10 -3 -16 -8 -38 -11
-49 -3 -12 -1 -16 6 -12 7 5 11 -2 12 -16 1 -15 6 -7 14 22 l13 45 1 -47 c1
-55 15 -70 29 -31 10 27 10 27 13 -12 2 -36 2 -37 7 -10 5 29 5 29 17 -15 l13
-45 2 45 c2 42 3 43 10 15 l8 -30 1 27 c0 15 -3 38 -9 52 -13 36 -5 32 25 -11
30 -44 34 -33 5 15 -18 29 -18 36 1 34 4 -1 2 9 -4 23 -7 13 -15 21 -19 19 -5
-3 -11 1 -14 10 -3 8 -11 13 -18 10 -7 -3 -18 2 -25 10 -7 8 -18 13 -26 10 -7
-3 -16 -1 -19 4 -8 13 42 6 59 -8 8 -7 15 -9 15 -4 0 5 7 0 15 -10 11 -15 15
-16 15 -5 0 8 -5 20 -12 27 -7 7 -9 12 -5 12 3 0 17 -16 30 -35 19 -28 26 -32
31 -20 4 11 2 14 -6 9 -8 -5 -9 -2 -5 10 4 9 3 15 -1 12 -4 -2 -8 3 -8 13 0
28 24 21 56 -16 32 -36 37 -36 19 0 -7 16 -2 13 16 -8 24 -29 25 -29 17 -5 -5
16 -28 35 -62 53 -43 22 -67 27 -124 27 -39 0 -78 5 -86 10 -16 10 -10 13 33
13 9 0 17 6 17 14 0 11 7 14 25 11 21 -4 25 -1 25 18 0 12 3 30 6 39 6 14 10
12 26 -12 19 -26 19 -22 1 24 -3 11 10 3 32 -17 25 -23 34 -28 27 -14 -6 11
-18 26 -26 33 -9 8 -13 17 -10 22 3 5 -5 13 -18 18 l-23 10 23 0 c14 1 22 6
19 14 -2 7 13 17 42 24 l46 12 -50 -4 c-35 -3 -45 -2 -35 5 8 5 24 10 35 11
17 1 16 2 -5 9 -25 7 -25 7 10 24 34 17 34 17 5 11 -16 -4 -43 -13 -59 -21
-44 -21 -44 -8 1 15 21 11 34 20 30 21 -4 0 -26 -9 -48 -20 -22 -12 -43 -18
-48 -16 -4 3 -18 -6 -31 -19 -13 -13 -27 -22 -33 -18 -5 3 -20 -7 -33 -23 -17
-22 -23 -25 -24 -12 0 9 17 31 38 48 40 34 13 25 -43 -14 l-30 -21 25 34 c13
19 25 43 25 53 1 10 10 27 20 38 27 30 5 24 -28 -7 -21 -21 -27 -23 -21 -9 5
14 4 17 -4 12 -7 -4 -12 -13 -12 -20 0 -7 -6 -21 -14 -32 -13 -17 -14 -15 -6
20 5 21 6 54 3 74 -6 34 -7 34 -15 12 -9 -23 -10 -22 -38 27 -39 68 -69 89
-36 25 7 -15 17 -38 21 -52 6 -24 6 -24 -19 5 -32 38 -33 28 -1 -38 14 -29 19
-43 10 -33 -13 17 -15 17 -15 4 0 -9 5 -29 10 -44 10 -25 9 -26 -6 -13 -16 13
-16 12 -1 -18 10 -18 17 -34 17 -35 0 -2 -17 -2 -37 0 -23 3 -51 16 -71 33
-45 40 -83 58 -133 64 l-44 5 39 -13 38 -13 -23 -16 -24 -17 25 -1 c20 0 22
-2 10 -11 -11 -8 -5 -9 25 -4 l40 7 -24 -21 -24 -21 26 0 c36 0 45 -20 10 -21
-27 -2 -27 -2 -3 -6 14 -3 30 -9 35 -15 7 -6 0 -7 -20 -3 -23 5 -26 4 -15 -4
25 -18 -4 -13 -62 10 -59 23 -131 30 -148 13 -8 -8 -1 -10 22 -7 l33 3 -30
-15 -30 -15 35 5 c19 4 31 3 25 -2 -16 -13 -15 -55 1 -49 23 9 43 -4 39 -25
-3 -16 -1 -18 17 -8 15 8 19 8 14 0 -10 -15 7 -14 24 1 12 11 12 10 1 -5 -9
-11 -27 -17 -52 -17 -21 0 -41 -5 -44 -10 -4 -6 -11 -8 -16 -5 -5 4 -9 2 -9
-2 0 -5 -12 -14 -27 -20 l-28 -12 30 6 30 6 -35 -38 -35 -38 49 26 c63 35 67
34 26 -8 -34 -35 -31 -48 6 -20 31 24 39 17 13 -12 l-24 -27 30 18 c17 10 38
28 48 40 18 21 18 20 3 -11 -9 -17 -20 -35 -26 -38 -5 -3 -10 -11 -10 -17 0
-6 11 -1 24 11 20 19 28 21 43 11 16 -10 16 -10 -4 -5 -18 5 -22 3 -17 -9 3
-8 13 -12 22 -10 17 6 2 -8 -62 -58 -33 -25 -86 -104 -86 -127 0 -14 1 -14 10
-1 9 13 10 13 10 0 0 -8 9 3 19 25 l19 40 2 -30 c1 -30 1 -30 18 10 15 38 16
39 23 15 6 -23 7 -23 8 -3 1 12 4 24 9 26 4 3 7 -21 7 -54 -1 -32 0 -59 1 -59
1 0 11 15 23 33 l21 32 1 -45 1 -45 12 40 13 40 8 -45 9 -45 6 70 c5 67 5 69
13 30 5 -22 15 -51 23 -65 l15 -25 -4 29 -5 30 19 -25 c10 -13 19 -28 19 -33
0 -4 7 -6 15 -2 13 5 15 -17 15 -157 0 -89 5 -286 10 -437 6 -151 8 -297 4
-325 l-6 -50 -554 -3 -553 -3 -6 23 c-7 34 -23 265 -35 508 -11 224 -27 431
-37 489 -5 29 -3 33 14 27 15 -5 22 1 33 31 l14 38 6 -30 6 -30 12 40 c7 22
12 54 13 70 1 55 17 -4 19 -70 2 -55 3 -57 11 -25 4 19 6 43 2 54 -3 12 -1 16
6 12 6 -4 11 -13 11 -19 1 -7 7 -25 16 -42 l14 -30 -5 42 c-3 23 -8 50 -11 60
-4 11 4 6 20 -12 38 -45 31 -13 -9 39 -19 26 -35 56 -35 69 1 21 1 21 14 4 8
-10 18 -18 23 -17 4 1 16 -20 25 -46 18 -52 24 -41 9 14 -12 41 -4 41 15 -1
14 -29 15 -30 9 -4 -8 40 1 33 29 -20 25 -48 35 -47 16 2 -14 38 6 22 30 -23
10 -20 19 -30 20 -22 0 9 6 5 15 -10 24 -41 17 -13 -9 39 -27 53 -76 101 -136
131 -32 16 -40 26 -40 48 0 20 3 23 9 12 6 -8 8 -17 5 -21 -2 -4 2 -9 10 -12
10 -4 12 0 9 14 -3 11 0 19 6 19 7 0 9 -6 5 -13 -4 -6 -4 -9 1 -5 4 4 17 2 28
-4 15 -8 13 -1 -11 28 -42 51 -41 64 3 25 44 -38 51 -39 28 -5 l-17 27 32 -17
c47 -24 49 -20 11 20 l-34 36 32 -16 c44 -22 83 -37 83 -31 0 3 -19 18 -42 35
-37 27 -39 30 -17 30 17 1 11 5 -21 17 -27 9 -63 13 -92 11 -33 -4 -49 -1 -52
8 -3 9 0 11 11 7 11 -5 14 -3 8 6 -6 11 -3 11 16 0 23 -12 23 -11 9 6 -14 17
-14 18 8 6 28 -15 48 -5 31 15 -9 11 -9 14 0 14 7 0 10 4 7 9 -4 5 4 7 16 4
19 -4 20 -3 8 6 -13 10 -13 11 0 11 9 0 11 3 5 8 -24 17 -14 31 18 27 l32 -5
-35 14 -35 14 30 5 c17 2 9 3 -17 2 -28 -1 -69 -13 -99 -29 -56 -29 -83 -32
-103 -14 -10 10 -9 16 8 35 11 13 26 23 33 23 18 0 16 10 -4 26 -15 11 -12 12
27 8 33 -3 40 -2 25 5 -17 8 -15 10 15 11 l35 0 -32 16 c-35 18 -35 34 0 34
12 0 29 5 37 11 11 8 5 9 -25 4 -59 -10 -98 -31 -146 -80 -33 -33 -52 -44 -81
-47 -28 -3 -37 0 -33 9 3 7 8 20 12 30 4 10 2 14 -4 10 -8 -5 -10 7 -6 35 3
32 2 39 -6 28 -17 -24 -13 4 9 55 22 50 10 51 -21 1 l-20 -31 7 30 c4 17 13
48 21 69 21 61 8 54 -26 -15 -28 -55 -31 -59 -32 -33 -2 26 -2 26 -6 5 -4 -19
-7 -21 -15 -10 -7 10 -8 7 -5 -13 2 -15 0 -25 -4 -22 -12 7 -11 3 6 -46 19
-53 12 -63 -11 -18 -9 18 -19 27 -21 20 -3 -8 -14 -5 -35 13 -41 35 -52 31
-17 -6 33 -35 37 -51 12 -42 -10 3 2 -13 27 -36 l45 -43 -58 32 c-68 37 -86
35 -27 -4 22 -14 40 -31 40 -37 0 -6 -15 0 -34 15 -40 30 -54 34 -35 9 7 -10
-1 -5 -19 11 -18 17 -32 24 -32 18 0 -9 -7 -9 -27 1 -16 8 -39 17 -53 21 -19
5 -16 2 10 -13 42 -24 36 -27 -13 -6 -20 8 -47 15 -59 15 -20 -1 -18 -3 10
-15 29 -13 44 -27 25 -24 -25 4 -34 -4 -13 -11 25 -8 25 -8 2 -9 -31 -1 -18
-21 16 -22 l27 -2 -25 -5 c-23 -5 -22 -6 15 -18 l40 -12 -35 -1 c-26 -1 -31
-4 -20 -11 8 -5 11 -10 5 -10 -5 0 -23 -11 -40 -25 l-30 -26 35 21 c47 27 56
25 31 -6 -35 -44 -23 -50 15 -8 21 23 33 31 28 19 -4 -11 -9 -33 -11 -50 -4
-28 -3 -28 16 10 l21 40 -3 -42 c-2 -34 1 -42 13 -40 8 1 18 7 22 12 4 6 8 2
8 -7 0 -18 14 -22 59 -18 14 1 21 -2 17 -9 -4 -6 -27 -11 -52 -11 -25 0 -64
-5 -87 -11 -44 -11 -143 -76 -133 -87 15 -15 41 -9 59 14 10 14 22 23 25 20 3
-3 11 -1 19 5 10 9 10 3 -2 -24 -17 -41 -19 -59 -5 -37 9 13 10 13 10 0 1 -8
10 1 20 20 l20 35 -6 -30 c-4 -16 -11 -38 -16 -47 -6 -14 -5 -16 7 -12 19 8
19 5 0 -39 -21 -51 -18 -59 6 -14 11 20 21 37 23 37 2 0 2 -33 0 -73 -2 -64
-2 -66 5 -22 l8 50 1 -59 c2 -72 9 -69 21 10 l9 59 2 -45 c2 -38 3 -41 10 -20
4 14 5 39 3 55 -4 23 -2 27 6 15 6 -8 11 -28 12 -45 l2 -30 5 30 5 30 7 -25
c7 -21 8 -17 10 20 l2 45 10 -33 c9 -25 8 -36 -4 -50 -24 -27 -73 -116 -60
-108 15 9 15 5 2 -28 -14 -38 -4 -32 21 14 25 45 38 48 16 3 -8 -15 -18 -39
-22 -53 -7 -24 -7 -24 9 -5 12 15 15 16 16 5 0 -13 1 -13 10 0 7 11 10 6 11
-20 0 -19 4 -44 9 -55 7 -16 9 -14 9 15 l1 35 21 -42 c29 -59 55 -79 29 -22
-29 64 -24 78 10 31 17 -23 32 -42 35 -42 3 0 -9 26 -26 57 -16 32 -23 49 -15
38 8 -11 22 -29 30 -40 14 -19 15 -17 12 21 -2 23 -9 52 -16 65 l-13 24 24
-21 c43 -38 55 -39 18 -2 -20 20 -41 51 -48 70 l-11 33 36 -40 36 -40 -23 40
-22 40 33 -32 c18 -18 38 -33 45 -33 9 0 11 -8 7 -22 -4 -16 -2 -20 10 -16 29
12 42 -10 51 -84 6 -51 22 -744 22 -945 0 -6 -907 -14 -966 -9 l-74 7 1 342
c0 188 4 386 9 440 8 94 9 97 33 97 16 0 22 4 19 14 -3 7 -1 18 5 24 6 6 6 12
-1 16 -15 9 -14 53 1 62 8 5 9 2 5 -9 -7 -20 4 -22 21 -5 17 17 15 -3 -3 -29
-25 -36 1 -36 30 -1 21 26 24 28 15 8 -7 -14 -18 -32 -24 -41 -6 -8 4 1 22 20
l33 36 -11 -30 c-6 -16 -23 -43 -38 -60 l-27 -30 26 23 c23 20 27 21 33 7 3
-9 2 -13 -3 -10 -11 6 -25 -28 -26 -64 -1 -22 0 -23 12 -5 6 10 19 28 28 39
14 17 14 15 -1 -15 -9 -19 -21 -42 -28 -51 -6 -8 4 0 22 20 l32 35 -15 -45
-15 -44 20 24 c11 13 21 31 21 40 1 9 5 3 9 -14 7 -27 8 -25 9 17 1 51 14 68
30 41 15 -26 13 -8 -4 33 -8 19 -10 32 -5 29 21 -13 1 53 -29 95 -17 25 -38
55 -47 66 -14 20 -13 24 12 50 27 29 27 29 19 4 -16 -52 -16 -54 0 -27 18 31
31 37 15 6 -7 -12 -8 -34 -4 -52 l7 -32 11 32 c16 46 26 50 15 6 -12 -51 -12
-73 0 -54 7 11 9 11 14 0 3 -8 6 -3 8 11 1 21 3 19 9 -10 l7 -35 3 30 c2 26 4
23 14 -20 l12 -50 7 64 c7 67 21 96 41 84 6 -4 0 7 -14 24 -14 17 -28 29 -31
27 -4 -2 -12 3 -19 11 -7 8 -15 13 -19 11 -4 -3 -13 0 -21 5 -12 7 -11 8 5 6
11 -1 27 -7 35 -12 26 -16 42 -15 36 3 -4 10 2 7 12 -7 13 -16 22 -20 26 -12
4 6 5 15 2 20 -9 13 19 7 38 -8 9 -7 16 -10 16 -5 0 5 9 -2 20 -16 19 -24 19
-25 13 -2 -9 37 -81 72 -168 81 -77 9 -109 20 -64 22 13 1 27 1 32 0 4 0 7 3
7 9 0 5 -7 10 -15 10 -8 0 -15 4 -15 9 0 5 9 7 20 4 15 -4 20 0 20 13 0 15 -2
16 -9 5 -5 -8 -11 -9 -15 -3 -3 5 1 13 10 16 23 9 24 8 24 -19 0 -16 6 -25 15
-25 9 0 15 9 15 23 0 42 16 51 30 17 15 -37 25 -34 11 4 -13 33 -7 33 26 -1
21 -23 24 -24 14 -6 -6 12 -16 25 -21 28 -6 4 -8 11 -5 16 4 5 -4 13 -17 18
l-23 10 23 0 c15 1 21 5 16 13 -5 8 -2 9 10 5 10 -4 15 -3 11 3 -4 6 8 11 27
11 32 2 32 2 -7 9 l-40 7 35 3 c32 2 33 3 10 10 l-25 7 25 11 c40 17 -4 15
-48 -3 -33 -13 -35 -13 -18 0 11 8 24 15 30 15 5 0 7 3 4 6 -4 3 -20 -2 -38
-11 -18 -9 -34 -14 -38 -11 -3 4 -16 -4 -29 -16 -22 -21 -24 -21 -17 -3 5 14
-3 10 -29 -14 -22 -21 -37 -29 -37 -21 0 8 12 25 28 38 l27 24 -39 -21 c-52
-29 -56 -21 -9 18 21 18 29 29 19 25 -22 -9 -17 5 18 45 24 27 3 19 -32 -13
-22 -20 -23 -20 -17 -1 5 12 -1 8 -15 -10 -21 -29 -22 -29 -17 -5 2 14 5 30 7
35 1 6 2 21 1 34 -1 24 -2 24 -15 6 -12 -17 -14 -16 -25 16 -6 19 -20 45 -31
59 -20 25 -20 24 0 -34 11 -33 18 -62 15 -64 -3 -3 -5 -1 -5 4 0 5 -10 20 -21
34 -22 26 -21 20 5 -45 15 -36 15 -38 1 -20 -16 19 -16 18 -9 -19 5 -30 4 -37
-6 -31 -9 6 -9 3 0 -14 6 -12 9 -27 6 -34 -3 -9 -5 -9 -5 0 -1 6 -10 9 -21 6
-14 -4 -33 6 -59 30 -46 41 -82 62 -128 72 -21 4 -33 3 -33 -4 0 -6 10 -11 23
-11 34 0 41 -12 15 -27 l-23 -12 25 -1 c20 0 22 -2 10 -10 -12 -7 -8 -10 15
-10 28 -1 29 -2 12 -14 -21 -16 -8 -29 19 -19 12 4 15 3 10 -5 -4 -7 -15 -12
-24 -13 -9 0 -1 -7 18 -15 l35 -14 -40 6 c-21 3 -51 12 -65 19 -39 20 -92 27
-120 16 -22 -9 -20 -10 15 -6 l40 5 -30 -15 -30 -16 28 6 c31 6 33 3 11 -19
-9 -9 -11 -16 -4 -16 6 0 8 -5 4 -12 -4 -6 -3 -8 4 -5 13 9 44 -2 37 -13 -7
-11 21 -32 39 -28 8 2 15 -1 15 -6 1 -5 -26 -8 -59 -7 -35 1 -60 -2 -60 -8 0
-5 -8 -12 -17 -14 -17 -4 -17 -5 0 -6 14 -1 11 -7 -15 -31 l-33 -30 28 10 c16
5 38 15 50 21 18 9 16 6 -7 -20 -31 -32 -29 -39 5 -21 23 13 25 7 3 -14 -26
-27 2 -18 37 11 34 29 32 15 -5 -25 l-21 -24 29 8 c21 5 27 4 22 -5 -4 -6 -3
-11 3 -11 5 0 15 8 20 18 6 9 11 12 11 5 0 -6 -15 -22 -32 -34 -73 -49 -140
-130 -124 -147 3 -3 6 0 6 7 0 7 4 9 10 6 6 -4 7 1 3 11 -5 13 -3 15 7 9 8 -5
11 -4 7 1 -3 6 3 15 13 22 18 11 19 10 10 -14 -17 -43 -10 -41 15 6 16 31 24
39 25 25 0 -17 2 -17 10 -5 9 13 10 13 10 0 1 -9 7 -4 15 11 17 31 45 46 45
24 0 -8 -13 -34 -30 -58 -34 -50 -40 -76 -10 -37 l20 25 -5 -45 -6 -45 18 40
18 40 6 -45 6 -45 2 55 c2 70 21 105 21 40 0 -49 19 -96 20 -50 1 23 2 22 18
-11 11 -22 22 -34 31 -31 11 4 13 -5 8 -49 -7 -58 -20 -253 -38 -598 -6 -118
-13 -220 -16 -227 -4 -12 -90 -14 -483 -14 l-477 0 -7 61 c-3 34 -6 131 -6
215 l0 154 26 6 c16 4 23 12 20 20 -3 8 2 20 11 26 8 7 29 27 46 43 l31 30
-26 -47 c-34 -62 -26 -62 13 -1 27 41 30 44 24 18 -4 -16 -9 -42 -11 -56 -2
-14 -8 -38 -14 -53 -6 -17 -7 -34 -1 -44 7 -13 12 -10 25 16 9 18 19 32 21 32
7 0 -22 -69 -41 -97 -8 -13 -12 -23 -9 -23 3 0 19 21 35 47 32 50 38 42 15
-22 -19 -53 -19 -56 5 -20 11 16 23 43 27 60 l7 30 7 -35 c6 -32 6 -30 8 17 1
61 14 74 35 36 26 -47 18 -15 -10 38 -14 28 -21 48 -15 44 6 -3 11 -1 11 6 0
8 5 7 17 -2 21 -17 -68 103 -110 148 -23 24 -27 34 -18 45 7 7 19 22 27 33 15
20 15 20 10 -2 -15 -59 -15 -66 -1 -36 8 18 18 33 21 33 3 0 2 -5 -1 -11 -4
-6 -4 -31 0 -57 l8 -47 12 40 13 40 1 -48 c1 -41 3 -46 14 -35 8 7 16 20 20
28 3 8 6 -3 8 -25 2 -36 2 -37 7 -10 5 29 5 29 17 -15 l13 -45 2 40 c2 39 3
39 10 10 7 -28 8 -28 9 -5 0 14 -3 41 -8 60 -9 32 -9 33 4 15 8 -11 21 -29 30
-40 15 -19 15 -18 1 10 -8 17 -14 38 -14 45 3 41 -3 65 -11 52 -7 -11 -9 -10
-15 3 -3 9 -10 14 -14 11 -5 -3 -20 7 -33 22 l-24 27 28 -24 c15 -14 27 -21
27 -17 0 5 8 2 17 -5 15 -12 16 -12 10 5 -6 15 -5 17 6 8 8 -7 18 -8 22 -4 5
4 5 1 1 -5 -4 -7 -3 -20 2 -29 8 -15 10 -15 15 0 5 12 3 15 -5 10 -8 -5 -9 -2
-5 10 4 10 7 20 7 23 0 3 8 -1 18 -8 14 -11 15 -11 5 1 -21 23 -15 35 7 15 11
-10 20 -14 20 -10 0 5 12 -2 27 -16 l27 -24 -15 25 c-30 47 -91 72 -185 75
-47 2 -88 6 -91 9 -6 5 30 10 50 7 4 0 7 10 7 24 0 16 -6 25 -15 25 -8 0 -15
5 -15 11 0 5 5 7 10 4 6 -3 10 -1 10 5 0 6 5 8 10 5 6 -3 10 0 10 7 1 8 6 6
15 -6 17 -23 20 -40 5 -31 -5 3 -10 2 -10 -3 0 -6 7 -12 15 -16 12 -4 15 3 15
29 0 44 15 53 34 18 8 -15 15 -22 16 -15 0 7 -5 22 -10 33 -15 27 -1 24 34 -8
l29 -28 -22 33 c-24 34 -22 38 12 21 21 -10 21 -10 3 5 -11 9 -26 16 -34 16
-7 0 -10 5 -7 10 3 6 0 10 -7 10 -10 0 -10 2 1 9 11 7 11 9 0 13 -8 3 6 10 31
16 l45 10 -35 2 -35 2 40 14 c39 14 39 14 7 11 -39 -4 -28 12 21 30 22 8 26
12 12 12 -11 1 -44 -10 -74 -24 -31 -15 -49 -19 -42 -11 6 8 25 19 42 26 16 7
28 15 25 17 -2 2 -27 -7 -55 -21 -28 -15 -53 -25 -55 -24 -2 2 -16 -8 -31 -22
-23 -21 -25 -22 -19 -5 5 14 -3 10 -29 -14 -21 -19 -37 -29 -37 -23 0 7 15 26
33 43 35 34 21 30 -30 -8 -44 -32 -42 -18 5 31 20 22 29 34 19 27 -28 -22 -29
-8 -1 33 l26 38 -26 -17 c-14 -10 -26 -21 -26 -26 0 -5 -4 -9 -10 -9 -5 0 -7
8 -5 18 3 9 -4 -3 -16 -26 -24 -51 -31 -51 -20 -1 4 19 6 50 3 67 -4 29 -6 31
-17 16 -11 -16 -14 -14 -29 18 -10 20 -26 44 -37 54 -20 18 -20 17 0 -30 28
-65 26 -72 -10 -34 l-30 33 25 -46 c28 -50 32 -64 15 -53 -12 7 -8 -19 8 -63
6 -16 5 -17 -12 -3 -18 15 -19 14 -2 -10 9 -13 17 -31 16 -40 0 -8 -3 -10 -5
-4 -2 6 -18 8 -34 6 -24 -3 -38 3 -71 33 -52 46 -96 65 -151 64 -25 -1 -32 -3
-18 -6 14 -2 36 -6 49 -9 l25 -5 -28 -19 -28 -18 41 -7 c22 -4 46 -4 53 0 7 4
4 0 -6 -9 -19 -15 -19 -16 0 -22 48 -16 49 -17 24 -24 -25 -8 -25 -8 5 -10 30
-2 30 -2 5 -10 -25 -8 -25 -8 4 -9 16 -1 27 -3 25 -5 -8 -7 -79 -15 -75 -8 3
4 -3 8 -12 9 -9 1 -35 8 -57 17 -46 17 -93 20 -115 6 -11 -7 -5 -8 20 -4 l35
5 -25 -16 c-23 -15 -23 -16 -3 -12 15 3 23 -1 26 -14 3 -11 2 -17 -2 -14 -4 2
-8 -2 -8 -10 0 -8 7 -17 14 -19 8 -3 11 -1 8 4 -3 6 1 7 9 4 19 -7 21 -21 4
-26 -8 -3 -6 -7 5 -11 9 -3 19 -1 23 5 5 7 2 8 -6 3 -9 -6 -11 -4 -5 5 6 10
10 10 20 -3 9 -13 14 -14 25 -4 10 10 12 8 6 -7 -5 -16 -4 -17 9 -6 13 11 14
10 9 -4 -5 -12 -21 -16 -73 -17 -36 0 -59 -3 -51 -6 10 -4 1 -11 -25 -19 -27
-9 -30 -12 -10 -8 l30 5 -32 -30 c-18 -16 -33 -33 -33 -36 0 -7 35 11 75 39
28 19 29 19 15 1 -8 -11 -23 -30 -34 -43 -25 -28 -13 -28 27 0 30 22 30 12 -2
-26 -14 -17 -11 -16 16 3 18 12 37 30 43 39 5 9 10 12 10 6 0 -6 -12 -29 -26
-50 -21 -31 -22 -35 -6 -21 11 11 26 16 32 12 7 -4 15 -3 19 3 4 7 12 8 21 2
10 -7 11 -10 3 -10 -7 0 -13 -7 -13 -15 0 -8 -12 -21 -27 -29 -54 -28 -146
-146 -129 -164 3 -3 6 1 6 9 0 12 2 12 9 0 7 -10 11 -8 16 10 4 13 14 33 22
44 12 18 13 17 8 -15 l-6 -35 20 43 c22 46 32 54 24 19 -4 -21 -3 -21 11 3 14
24 14 24 11 -20 -4 -40 -4 -41 3 -10 8 35 31 83 32 66 0 -6 7 -1 15 10 14 18
14 18 15 -8 0 -15 -5 -30 -10 -33 -14 -9 -53 -86 -46 -92 2 -3 12 9 21 26 8
17 17 31 18 31 1 0 1 -21 0 -47 l-2 -48 12 39 11 39 13 -49 12 -49 -4 45 c-3
25 -1 58 3 74 8 28 9 27 20 -25 15 -63 37 -105 28 -50 l-6 34 20 -26 c11 -14
20 -30 20 -36 0 -15 17 -14 23 2 5 12 9 -416 5 -430 -3 -9 -1065 -5 -1110 3
-25 5 -27 9 -32 77 -3 40 -10 137 -16 217 -7 80 -14 158 -17 174 -5 25 -4 28
16 21 16 -5 21 -2 21 12 0 10 7 27 15 37 14 19 15 18 16 -10 1 -27 2 -27 14
11 8 22 14 56 15 75 2 57 18 6 20 -65 2 -52 3 -56 10 -27 4 18 5 43 2 55 -8
34 4 17 27 -38 l21 -50 -6 49 c-3 27 -8 56 -11 65 -3 9 7 -1 21 -21 15 -21 29
-38 32 -38 7 0 -26 61 -52 96 -25 32 -32 64 -14 64 6 0 10 -8 11 -17 0 -13 2
-14 6 -4 4 10 12 4 25 -20 13 -24 18 -27 14 -11 -6 29 0 28 19 -5 l16 -28 -6
30 c-8 36 -4 33 29 -25 26 -45 34 -43 16 4 -13 35 -6 33 20 -6 12 -19 19 -24
16 -13 -6 20 -6 20 9 1 8 -11 15 -24 15 -30 0 -5 3 -7 6 -4 19 20 -82 131
-149 163 -39 18 -49 48 -21 59 9 4 19 4 22 1 3 -3 0 -5 -6 -5 -15 0 -16 -26
-2 -35 5 -3 7 0 4 8 -8 21 14 31 34 16 16 -13 16 -12 1 6 -9 11 -22 31 -29 45
l-13 25 24 -21 c13 -12 35 -27 49 -34 24 -12 24 -11 -5 20 l-30 32 45 -22 45
-22 -40 42 -40 42 53 -27 c30 -14 56 -24 58 -22 3 3 -9 16 -26 31 -30 25 -31
26 -8 27 22 0 22 1 3 9 -11 5 -33 9 -50 9 -23 1 -27 4 -15 11 10 7 -5 9 -49 7
-49 -1 -65 1 -69 13 -5 13 -3 13 12 1 15 -12 16 -12 9 5 -6 17 -5 18 12 4 17
-14 18 -13 12 4 -7 17 -6 17 10 5 14 -12 16 -12 8 0 -6 11 -4 13 7 8 10 -3 15
0 14 10 0 9 6 18 14 20 13 4 13 3 0 -7 -13 -10 -12 -11 3 -6 10 3 24 6 30 6 7
1 1 7 -12 14 -21 12 -22 14 -5 20 16 6 16 8 4 16 -12 8 -10 10 10 11 17 1 20
3 7 6 -28 7 -9 24 21 17 24 -5 25 -4 8 7 -25 16 -110 -3 -157 -35 -29 -20 -41
-22 -79 -16 -44 7 -44 8 -10 10 l35 2 -30 8 c-29 8 -29 8 10 10 38 3 39 3 7 7
-43 6 -31 23 16 24 33 1 34 2 12 9 -14 4 -20 9 -15 9 6 1 3 6 -5 11 -11 7 -6
10 20 10 25 0 31 3 21 9 -11 7 -7 10 15 14 27 4 28 5 7 12 -34 11 -28 23 15
30 65 11 68 13 24 14 -53 1 -109 -26 -171 -84 -27 -25 -59 -44 -76 -47 l-31
-4 1 86 c1 47 7 95 13 107 15 27 15 36 2 28 -6 -3 -19 -23 -30 -43 -25 -48
-25 -30 0 43 11 32 18 60 16 62 -6 6 -56 -80 -57 -98 -1 -8 -5 0 -9 16 l-8 30
-2 -30 c-1 -27 -2 -28 -11 -10 -7 16 -8 13 -4 -13 2 -18 1 -31 -4 -28 -5 3 -3
-15 5 -41 8 -25 13 -48 11 -50 -2 -1 -14 15 -26 37 -25 45 -32 50 -24 17 6
-21 5 -21 -24 6 -42 39 -51 34 -14 -8 35 -41 38 -50 14 -41 -10 4 -1 -10 20
-29 20 -20 37 -38 37 -41 0 -2 -23 10 -51 27 -59 37 -77 34 -21 -4 21 -14 39
-32 39 -41 0 -13 -5 -12 -26 7 -14 13 -34 29 -44 36 -15 12 -17 12 -11 -5 5
-14 -1 -11 -27 11 -18 17 -27 21 -19 11 15 -18 14 -19 -15 -4 -16 9 -41 18
-55 22 -24 7 -24 6 3 -9 40 -23 33 -24 -25 -4 -29 10 -64 18 -78 18 -17 0 -9
-6 25 -17 l50 -16 -40 -5 -40 -4 55 -12 55 -13 -65 -2 c-64 -3 -61 -4 29 -16
29 -4 40 -9 31 -14 -10 -6 -8 -9 6 -13 17 -4 17 -5 1 -6 -10 0 -16 -5 -13 -10
3 -5 -8 -14 -24 -21 -17 -7 -33 -17 -36 -22 -4 -5 8 -2 26 7 l33 17 -22 -35
c-30 -49 -26 -52 14 -9 34 35 35 36 25 9 -18 -49 -10 -64 10 -19 22 49 29 53
23 15 -3 -24 -2 -25 6 -8 8 17 10 14 10 -17 1 -51 31 -41 32 11 1 20 3 28 6
18 2 -9 9 -15 14 -12 5 4 9 1 9 -5 0 -6 6 -8 13 -4 7 4 9 3 4 -2 -5 -5 -13 -9
-18 -9 -5 0 -8 -4 -6 -10 1 -5 7 -8 12 -7 37 13 55 11 54 -5 0 -10 -3 -13 -5
-6 -7 17 -34 4 -34 -16 0 -14 2 -14 10 -1 8 13 10 13 10 -2 0 -19 -16 -24
-101 -32 -85 -7 -155 -48 -173 -101 -5 -14 1 -11 19 10 24 27 25 28 15 5 -9
-18 -2 -14 24 15 19 22 35 36 36 31 0 -5 6 -4 13 2 10 8 13 6 13 -8 0 -10 -3
-17 -7 -14 -11 7 -20 -27 -11 -43 7 -12 12 -8 22 16 15 37 31 50 22 19 -3 -14
-1 -19 6 -14 8 5 10 1 5 -9 -5 -14 -8 -14 -15 -3 -7 9 -8 4 -5 -15 2 -15 0
-30 -6 -34 -6 -4 -7 -1 -2 7 5 9 4 11 -4 6 -6 -4 -9 -12 -5 -17 3 -5 10 -7 15
-4 13 9 11 -6 -6 -35 -24 -43 -16 -47 10 -5 l24 39 -3 -69 c-2 -39 -1 -52 2
-30 l6 40 6 -55 6 -55 10 65 c9 53 12 58 14 30 l3 -35 6 40 7 40 11 -35 c10
-31 11 -32 13 -10 l2 25 9 -25 c6 -19 8 -12 5 25 -3 28 -7 59 -10 70 -4 11 3
2 14 -20 14 -28 20 -34 20 -20 l1 20 10 -20 c7 -16 8 -12 5 15 -2 19 -7 44
-11 55 -3 11 3 4 14 -15 23 -40 29 -20 7 23 -19 35 -11 34 24 -3 l27 -29 -52
-73 c-67 -94 -102 -154 -85 -143 10 6 12 4 7 -8 -18 -44 -17 -49 3 -19 27 39
38 36 17 -5 -8 -15 -17 -39 -21 -53 -5 -18 -2 -16 13 10 22 39 19 42 37 -55 7
-40 7 -40 13 -10 l6 30 14 -32 c7 -18 20 -38 28 -45 13 -10 13 -6 -1 26 -25
59 -19 62 24 15 l40 -44 -35 54 c-19 29 -35 58 -35 64 0 7 11 -5 25 -26 14
-20 27 -37 29 -37 8 0 -3 70 -14 90 -6 12 -9 24 -6 28 3 3 6 1 6 -5 0 -6 12
-19 28 -29 23 -15 22 -12 -10 24 -21 23 -38 46 -38 51 0 5 -3 18 -7 28 -3 10
11 0 33 -23 21 -22 32 -31 23 -20 -9 12 -22 32 -29 46 -9 18 -2 13 24 -15 21
-22 35 -34 31 -27 -3 6 -1 12 6 12 8 0 7 5 -3 18 -8 9 -18 26 -22 36 -6 19 -6
19 12 3 21 -19 38 -11 21 10 -7 7 -7 13 -2 13 5 0 15 -11 21 -24 8 -18 7 -28
-4 -44 -8 -12 -10 -23 -5 -26 5 -3 7 -16 3 -28 -4 -16 -2 -20 10 -16 43 17 50
-23 64 -321 l7 -164 -524 7 c-288 3 -597 9 -686 13 l-163 6 0 37 c0 21 -7 98
-15 172 -17 157 -35 464 -35 599 0 79 3 98 16 103 9 3 20 3 26 0 5 -4 8 4 6
17 -2 13 2 24 7 24 18 1 36 17 56 49 10 17 19 27 19 21 0 -5 -9 -25 -20 -43
-27 -44 -17 -41 15 5 14 21 25 32 25 26 0 -24 -22 -69 -48 -98 l-27 -30 31 28
c26 23 32 26 37 13 4 -9 2 -26 -4 -38 -8 -20 -9 -19 -4 7 4 20 3 26 -4 16 -9
-13 -13 -81 -5 -81 2 0 13 17 24 38 14 25 19 29 14 12 -3 -14 -14 -40 -25 -58
-25 -44 -16 -41 16 5 29 43 34 25 10 -35 l-15 -37 20 25 c10 14 22 39 26 55 6
27 8 28 15 10 6 -15 8 -10 8 21 1 52 11 61 33 32 16 -20 17 -20 11 -3 -4 11
-15 36 -26 55 -18 33 -18 34 0 14 10 -11 26 -31 36 -45 14 -18 13 -15 -2 14
-25 46 -26 54 -4 36 23 -19 -29 52 -94 128 l-53 61 31 34 c21 22 27 26 20 11
-6 -12 -11 -30 -11 -40 1 -12 5 -8 15 12 13 29 13 29 9 -20 -3 -34 -2 -44 4
-30 l9 20 5 -20 6 -20 1 20 c1 11 5 26 10 33 4 7 6 -12 4 -45 -2 -39 0 -51 6
-38 l8 20 5 -20 c4 -14 6 -9 8 15 l3 35 7 -35 c6 -29 8 -31 10 -10 2 21 4 19
15 -15 l13 -40 2 40 2 40 14 -50 14 -50 -6 45 c-3 25 -8 56 -11 70 -5 22 -3
21 21 -9 31 -41 35 -30 6 16 -11 18 -16 32 -12 30 9 -3 10 12 4 36 -3 13 -7
15 -12 7 -5 -8 -9 -7 -13 5 -4 10 -3 14 4 9 8 -4 9 1 4 17 -5 19 -2 17 15 -8
25 -38 26 -38 34 -17 4 10 2 13 -6 8 -7 -4 -8 -3 -4 5 4 6 2 18 -4 26 -14 17
-10 18 22 6 13 -5 26 -8 30 -7 3 0 19 -10 34 -24 l28 -25 -15 25 c-27 44 -93
70 -179 70 -85 0 -122 13 -68 24 25 5 29 9 18 16 -8 5 -18 6 -22 4 -4 -3 -8 0
-8 6 0 6 10 10 22 8 18 -2 24 3 29 27 l7 30 1 -31 c2 -46 31 -55 31 -9 0 41
15 53 30 24 7 -11 14 -18 17 -16 2 3 0 15 -7 26 -15 29 -2 26 33 -6 25 -24 28
-25 18 -6 -6 12 -16 25 -21 28 -6 4 -8 10 -5 15 3 5 -6 13 -22 16 l-27 7 25
10 c18 7 20 11 9 15 -9 3 9 11 40 19 l55 12 -47 -3 c-27 -2 -48 -2 -48 0 0 2
21 10 48 19 43 14 44 15 10 10 -47 -7 -49 1 -5 20 19 9 25 14 14 15 -10 0 -37
-9 -59 -20 -23 -11 -44 -18 -46 -15 -3 3 -1 5 4 5 5 0 20 10 34 21 20 17 15
16 -24 -5 -55 -30 -60 -31 -50 -13 4 6 -5 1 -19 -12 -15 -14 -27 -21 -27 -16
0 5 -15 -6 -34 -24 -26 -25 -34 -29 -32 -15 2 9 18 31 37 47 33 29 33 29 4 13
-16 -9 -41 -24 -55 -33 l-25 -17 25 29 c14 16 32 35 40 42 13 11 13 12 -2 7
-26 -9 -22 10 10 47 28 34 14 32 -25 -4 -17 -15 -23 -17 -24 -6 0 8 -9 -4 -20
-26 -17 -37 -18 -38 -19 -13 0 15 4 38 10 53 5 14 6 24 1 21 -5 -3 -12 4 -15
17 -7 21 -7 21 -15 2 -7 -18 -8 -18 -14 5 -3 14 -20 41 -36 60 l-31 35 25 -58
c32 -74 31 -79 -5 -37 -24 27 -28 29 -19 10 7 -13 13 -40 14 -60 1 -19 5 -46
10 -59 5 -17 4 -21 -5 -16 -7 4 -5 -5 4 -24 9 -17 12 -31 6 -31 -5 0 -10 4
-10 8 0 5 -13 7 -29 4 -23 -3 -37 3 -63 27 -44 41 -92 63 -148 67 -42 3 -38 0
20 -12 l25 -6 -25 -19 -25 -19 25 0 c20 0 22 -2 10 -10 -10 -6 -2 -8 25 -4 30
4 36 3 25 -5 -8 -6 -10 -11 -5 -12 6 0 1 -4 -10 -9 -17 -7 -15 -9 11 -9 30 -1
73 -31 45 -31 -7 0 -9 -4 -6 -10 11 -18 -42 -22 -73 -6 -50 26 -124 38 -153
26 -23 -10 -22 -10 9 -7 17 2 32 0 32 -5 0 -4 -8 -8 -17 -9 -13 0 -11 -3 6
-10 23 -9 24 -10 5 -24 -19 -15 -19 -15 0 -8 15 5 17 3 11 -7 -6 -10 -4 -12 9
-7 9 4 14 3 11 -2 -5 -9 32 -27 48 -23 5 1 6 -2 2 -8 -4 -7 -13 -7 -28 1 -21
10 -21 9 -3 -5 10 -9 23 -13 27 -10 5 3 18 7 30 9 15 3 19 0 15 -11 -3 -9 -6
-16 -6 -17 0 -1 -26 -1 -57 1 -37 2 -53 0 -45 -6 10 -6 1 -11 -30 -17 -39 -7
-41 -8 -18 -15 14 -5 20 -8 14 -9 -14 -1 -57 -42 -50 -48 3 -3 26 7 52 22 l47
28 -29 -38 -29 -38 35 18 c35 18 35 18 18 -2 -32 -35 -19 -38 17 -3 40 39 44
33 13 -19 -22 -36 -22 -36 0 -18 12 11 26 16 33 11 9 -5 10 -2 6 9 -4 11 -2
14 9 10 29 -11 14 -43 -41 -83 -50 -37 -115 -126 -115 -155 1 -5 7 1 15 15 9
15 15 19 15 10 0 -8 10 1 20 20 l19 35 -5 -35 c-5 -34 -5 -33 20 15 25 49 26
49 21 15 l-5 -35 14 35 c13 32 15 33 16 10 1 -22 3 -21 17 12 8 21 19 35 24
32 5 -3 9 1 10 8 0 7 4 4 8 -6 5 -14 -2 -36 -26 -75 -18 -30 -33 -60 -33 -65
0 -6 11 7 25 28 l24 40 -5 -60 -4 -59 17 50 17 50 7 -45 c6 -44 6 -44 7 17 2
64 22 101 22 41 1 -18 7 -46 15 -63 l15 -30 -4 29 -4 30 19 -25 c10 -13 19
-30 19 -37 0 -9 7 -11 22 -7 21 7 21 6 15 -61 -4 -38 -2 -243 5 -456 6 -214 9
-390 7 -392 -3 -3 -179 -8 -393 -12 l-389 -7 6 389 c4 214 9 404 13 422 4 21
12 32 24 32 10 0 20 9 23 21 3 12 10 18 16 15 5 -3 22 8 36 26 l27 33 -21 -40
-22 -40 30 35 c17 19 31 31 31 27 0 -13 -21 -50 -44 -77 l-21 -25 23 19 c13
12 22 14 22 7 0 -7 5 -9 11 -5 7 4 7 -2 -1 -17 -18 -35 -23 -38 -16 -9 6 19 5
21 -3 10 -6 -8 -11 -28 -11 -45 l0 -30 21 33 c12 17 23 32 25 32 5 0 -24 -58
-40 -81 -6 -8 4 0 22 20 36 39 39 36 17 -16 -12 -29 -12 -33 -1 -24 8 6 20 26
27 43 11 27 14 29 20 12 6 -16 8 -14 8 9 1 16 6 37 11 48 8 13 7 26 0 42 l-11
22 18 -21 c10 -12 24 -30 31 -40 11 -17 11 -17 2 3 -13 28 -13 36 2 27 13 -9
9 0 -44 78 -31 46 -36 61 -29 80 9 21 10 21 11 3 1 -14 5 -10 15 15 l14 35 -5
-37 c-3 -20 -3 -46 1 -59 7 -22 8 -22 20 7 l13 29 2 -30 c2 -30 2 -30 10 -5 7
21 8 18 11 -20 l2 -45 7 45 c6 42 7 43 12 15 3 -16 4 -8 2 20 l-4 50 20 -30
c21 -31 27 -28 10 5 -6 11 -6 21 -1 24 5 3 7 15 4 26 -3 11 -8 18 -12 16 -3
-2 -6 7 -6 20 0 22 1 23 13 7 6 -9 12 -22 12 -27 0 -6 4 -4 9 3 6 9 6 22 0 32
-6 13 -5 17 6 15 8 -1 18 -6 22 -11 4 -4 2 -5 -6 0 -9 5 -12 4 -7 -3 3 -6 15
-9 26 -7 12 2 27 -6 39 -23 19 -26 20 -26 14 -4 -9 35 -71 71 -144 83 -102 17
-109 19 -109 28 0 5 14 8 31 6 30 -4 31 -3 25 26 -3 19 -2 28 4 24 6 -3 10 -1
10 4 0 6 5 11 10 11 14 0 12 -38 -2 -42 -7 -3 -6 -7 5 -11 14 -5 17 0 17 26 0
24 3 28 10 17 8 -12 10 -12 11 5 0 16 4 14 15 -10 l15 -30 -6 28 c-7 37 11 34
35 -5 11 -18 20 -28 20 -22 0 6 -9 23 -21 38 -11 15 -18 33 -16 41 4 8 -1 16
-11 18 -14 4 -13 5 3 6 17 1 18 3 5 11 -11 7 -7 10 20 11 l35 1 -30 7 c-30 7
-30 8 15 18 l45 11 -35 2 -35 2 30 13 c39 18 11 18 -40 0 -37 -13 -38 -13 -20
2 l20 16 -20 -8 c-11 -4 -28 -8 -37 -9 -10 -1 -27 -11 -39 -22 -22 -19 -22
-19 -15 1 5 14 -3 10 -28 -14 -21 -21 -36 -29 -36 -21 0 8 12 25 28 38 l27 24
-39 -21 c-52 -29 -56 -21 -9 18 21 18 30 29 21 25 -24 -8 -23 9 2 31 11 10 18
21 15 23 -3 3 -17 -5 -32 -19 -20 -18 -25 -20 -20 -6 10 28 -1 20 -18 -14 -20
-37 -28 -34 -16 7 5 19 3 41 -5 64 -11 31 -13 32 -13 10 -1 -20 -6 -14 -26 29
-30 63 -42 64 -20 1 21 -58 19 -71 -5 -32 -28 46 -33 40 -10 -14 22 -51 25
-67 9 -44 -8 11 -9 6 -5 -23 3 -22 1 -35 -5 -32 -5 4 -5 -5 1 -21 6 -15 8 -29
5 -32 -3 -3 -5 -1 -5 5 0 6 -11 8 -24 6 -18 -4 -34 5 -66 37 -50 50 -95 70
-152 69 l-43 -2 47 -6 c50 -7 75 -20 42 -22 -72 -5 -149 1 -148 10 3 32 4 33
19 21 13 -11 18 -11 28 0 10 10 9 11 -2 5 -9 -5 -12 -4 -7 3 3 6 22 16 41 22
19 6 33 15 30 20 -3 5 1 11 7 14 7 3 2 3 -12 0 -24 -6 -24 -6 -5 10 15 12 17
16 5 17 -8 0 -4 5 10 9 22 7 22 8 5 10 -12 2 -6 5 15 10 33 7 32 7 -16 9 -36
1 -65 -6 -98 -23 -27 -14 -56 -22 -65 -19 -14 4 -14 3 -1 -6 19 -14 0 -14 -35
-1 -30 11 -25 29 8 31 17 1 18 2 5 6 -27 7 -21 23 9 23 l26 0 -24 21 -24 21
45 -6 c34 -5 39 -4 23 4 -34 14 -28 19 20 13 l42 -4 -40 19 c-42 21 -41 23 25
41 27 7 30 9 11 10 -50 2 -106 -24 -162 -77 -41 -38 -65 -53 -81 -51 -13 2
-29 0 -36 -5 -10 -6 -9 2 2 29 15 35 15 36 0 24 -15 -12 -16 -11 -11 6 3 11 8
36 12 55 l6 35 -16 -25 -16 -25 7 25 c4 14 15 43 26 65 l19 40 -31 -35 c-34
-38 -37 -32 -15 30 19 53 19 55 1 40 -8 -6 -23 -32 -32 -57 -14 -37 -19 -42
-25 -27 -6 17 -8 15 -14 -8 -4 -16 -11 -26 -15 -23 -4 3 -2 -12 6 -33 21 -59
16 -70 -12 -27 -14 22 -23 32 -20 23 7 -22 -7 -23 -24 -2 -8 8 -23 20 -34 26
-15 8 -12 1 12 -26 36 -42 40 -51 15 -42 -10 3 -1 -9 20 -27 20 -17 37 -35 37
-39 0 -3 -26 8 -57 24 -59 32 -61 29 -9 -11 17 -12 31 -29 32 -38 2 -10 -7 -7
-26 12 -16 15 -33 24 -40 20 -7 -4 -25 5 -43 21 -17 16 -25 21 -18 11 13 -16
9 -16 -34 3 -26 11 -50 18 -53 15 -3 -3 -1 -5 4 -5 6 0 19 -7 30 -15 17 -13
14 -13 -25 0 -54 18 -87 18 -46 0 l30 -13 -35 -4 -35 -4 45 -11 45 -11 -45 -2
-45 -2 55 -13 c30 -7 48 -13 40 -14 -10 -1 -7 -6 9 -15 l23 -13 -22 -6 c-12
-3 -19 -10 -16 -16 4 -5 2 -12 -4 -16 -6 -3 -17 -21 -26 -38 -16 -31 -15 -30
20 8 l35 40 -5 -35 -5 -35 20 35 c19 35 19 35 26 10 3 -14 7 -34 7 -46 2 -15
7 -20 21 -16 13 3 15 7 7 12 -9 6 -10 16 -3 36 l10 29 7 -32 c6 -27 13 -33 34
-34 27 0 27 0 5 -11 -21 -10 -32 -29 -15 -27 4 1 16 1 27 0 40 -3 -8 -21 -55
-21 -25 0 -61 -5 -80 -10 -50 -14 -127 -64 -127 -84 0 -15 2 -15 19 1 10 9 18
12 18 8 0 -5 11 2 25 15 14 13 25 20 25 16 0 -5 6 -4 13 2 10 8 13 6 13 -8 0
-10 -3 -17 -7 -14 -11 7 -20 -27 -11 -43 7 -12 12 -8 22 16 15 37 31 50 22 19
-4 -15 -2 -19 8 -13 8 5 11 3 9 -4 -3 -7 -8 -12 -13 -11 -15 2 -34 -44 -23
-58 7 -8 6 -21 -2 -38 -19 -42 -12 -41 14 1 l25 40 -5 -65 -5 -65 14 50 14 50
2 -55 3 -55 6 50 6 50 12 -30 11 -30 2 35 c1 29 3 32 10 15 6 -14 9 -15 10 -5
1 11 4 9 11 -5 7 -14 8 -2 5 40 l-5 60 15 -39 c19 -52 25 -57 19 -15 -4 26 -3
29 4 14 9 -19 10 -19 10 2 1 12 -3 33 -9 47 -13 34 -5 33 14 -1 9 -16 15 -21
16 -13 0 9 -7 26 -16 38 -8 12 -11 22 -5 22 5 0 18 -13 27 -29 10 -17 21 -28
26 -25 15 9 8 -11 -13 -36 -20 -25 -65 -92 -115 -172 -20 -31 -22 -39 -9 -28
17 14 18 13 12 -3 -19 -46 -17 -49 8 -9 14 23 28 42 30 42 2 0 -5 -21 -15 -46
-23 -53 -26 -80 -5 -44 l15 25 -5 -30 -6 -30 15 30 14 30 3 -60 c1 -41 4 -49
6 -26 l5 35 17 -40 c10 -21 26 -46 36 -54 17 -14 17 -14 3 15 -9 17 -19 41
-23 55 -6 20 0 17 34 -20 l41 -45 -35 54 c-38 58 -48 91 -13 45 12 -16 25 -33
29 -38 13 -15 4 57 -10 79 -13 20 -11 12 6 -33 10 -26 -2 -11 -22 27 -9 18
-12 30 -6 27 6 -4 11 -2 11 5 0 7 15 0 33 -17 l32 -29 -26 30 c-25 28 -59 86
-59 100 0 4 19 -13 43 -37 23 -24 32 -33 21 -19 -12 14 -27 37 -33 51 -9 18
-4 15 19 -12 21 -25 36 -35 47 -31 11 4 14 2 9 -5 -4 -7 -2 -12 4 -12 7 0 10
-6 7 -14 -4 -10 2 -16 21 -18 25 -3 27 -7 34 -63 17 -151 28 -507 22 -707 l-7
-218 -374 0 -373 0 0 640 0 640 35 0 35 0 0 65 0 65 -120 0 -120 0 0 329 c0
320 1 329 20 334 20 5 29 27 11 27 -5 0 -7 9 -4 20 3 12 -1 22 -11 26 -14 5
-16 26 -16 140 0 83 -4 134 -10 134 -6 0 -10 62 -10 165 l0 165 -65 0 c-74 0
-75 0 -44 80 30 76 37 217 15 292 -32 109 -120 198 -271 272 -109 53 -216 136
-279 216 -48 61 -54 78 -34 98 10 10 10 15 -1 21 -8 6 -12 25 -11 57 5 91 0
164 -10 164 -5 0 -11 -26 -11 -57z m-4499 -1608 c0 -78 3 -95 15 -95 11 0 15
-12 15 -45 l0 -45 45 0 c25 0 45 -5 45 -10 0 -6 -12 -33 -26 -61 -24 -48 -25
-60 -27 -227 l-2 -177 -32 -3 c-29 -3 -33 -7 -33 -33 0 -16 5 -29 10 -29 6 0
10 -7 10 -15 0 -12 13 -15 61 -15 l61 0 -5 -72 c-8 -120 -13 -141 -35 -159
-12 -9 -22 -29 -22 -43 0 -25 -30 -66 -49 -66 -7 0 -3 -769 4 -778 2 -2 19 1
39 6 l36 10 0 -99 0 -99 -95 0 -95 0 0 138 c0 97 4 142 13 151 10 10 9 15 -4
24 -14 10 -17 46 -21 232 -5 194 -3 221 11 232 15 12 15 14 0 23 -14 8 -18 44
-24 260 -7 238 -6 252 11 265 18 13 18 14 2 20 -15 6 -18 21 -18 97 0 106 -20
152 -70 163 -27 6 -30 10 -30 47 0 23 -3 38 -7 34 -5 -4 -8 -22 -8 -39 0 -27
-5 -33 -31 -41 -49 -15 -64 -53 -64 -162 0 -77 -3 -94 -15 -94 -20 0 -19 -17
1 -28 14 -8 15 -35 9 -265 -6 -207 -10 -257 -21 -257 -19 0 -17 -19 2 -27 15
-6 16 -28 10 -232 -4 -124 -12 -227 -17 -229 -12 -5 -12 -32 1 -32 6 0 10 -53
10 -140 l0 -140 -95 0 -95 0 0 761 c0 677 2 763 16 773 13 10 12 14 -10 35
l-26 24 -26 -24 c-21 -20 -23 -25 -10 -34 11 -8 15 -37 18 -106 l3 -94 -182
-3 -183 -2 0 140 c0 118 2 140 15 140 8 0 15 3 15 8 -1 10 -37 52 -45 52 -8 0
-44 -42 -45 -52 0 -5 7 -8 15 -8 13 0 15 -22 15 -141 l0 -140 -52 3 -53 3 -5
215 c-5 198 -7 218 -27 255 -39 70 -68 94 -142 118 l-71 22 0 63 c0 34 -4 62
-10 62 -6 0 -10 -28 -10 -63 l0 -62 -72 -23 c-64 -20 -77 -29 -107 -69 -19
-25 -40 -65 -47 -87 -12 -40 -13 -39 -15 54 -2 111 -3 94 17 150 8 25 18 75
21 112 l6 68 763 0 764 0 0 -95z m-2231 -624 c21 -11 55 -39 75 -63 65 -75 67
-91 64 -583 l-3 -440 -236 -3 -236 -2 -6 222 c-3 123 -4 329 -3 458 2 216 4
239 23 282 61 133 202 190 322 129z m-5061 -525 c44 -23 121 -112 146 -169 31
-70 56 -183 56 -255 0 -41 5 -63 15 -72 13 -11 15 -62 15 -346 l0 -334 -310 0
-310 0 0 333 c0 183 4 337 9 343 5 5 14 54 20 109 22 192 77 307 179 375 36
24 56 30 99 30 30 0 66 -6 81 -14z m13568 -59 c11 -58 12 -59 14 -22 l2 40 15
-47 c16 -46 16 -47 -10 -78 -29 -34 -33 -45 -17 -55 6 -3 7 1 4 10 -4 9 -2 15
4 13 6 -2 17 6 26 17 15 19 15 19 10 -5 -5 -19 0 -16 19 15 l25 40 8 -29 7
-28 12 29 c13 31 40 49 50 33 3 -5 -10 -31 -30 -58 -40 -56 -48 -83 -11 -37
l25 30 -10 -44 c-12 -56 -5 -64 12 -14 l13 38 7 -35 6 -35 2 40 c1 22 6 49 10
60 6 15 9 8 15 -30 3 -28 11 -57 17 -65 8 -12 9 -8 6 15 -5 27 -4 28 9 10 8
-10 14 -25 14 -32 0 -8 8 -13 18 -11 9 2 16 -1 15 -7 -5 -33 -24 -344 -33
-540 -6 -126 -13 -245 -17 -263 l-5 -33 -142 3 -141 3 -7 65 c-4 36 -14 202
-23 370 -8 168 -20 350 -25 405 -6 55 -11 111 -13 125 -1 19 2 24 16 22 9 -2
17 2 17 7 0 6 9 25 20 43 l19 32 -4 -39 -5 -40 14 35 c8 19 15 55 15 79 1 58
11 46 27 -32z m-4116 3 c49 -25 95 -76 120 -133 20 -46 22 -68 27 -502 l6
-455 -245 0 -246 0 -7 203 c-4 111 -5 315 -3 452 3 236 4 253 26 300 64 139
200 196 322 135z m-1090 -322 c5 -16 16 -28 25 -28 13 0 15 -33 15 -250 l0
-250 -29 0 -30 0 16 -45 c8 -25 21 -45 29 -45 9 0 14 -12 14 -35 0 -33 -2 -35
-35 -35 -34 0 -35 -1 -35 -40 l0 -40 -190 0 -190 0 0 40 0 40 -60 0 -60 0 0
80 0 80 -49 0 -48 0 -7 46 c-3 26 -6 96 -6 156 0 94 2 109 18 115 67 23 363
153 469 207 139 70 129 69 153 4z m-9483 -288 c29 -59 43 -178 43 -362 l0
-148 -126 0 -126 0 5 173 c8 262 25 338 87 390 32 27 32 27 64 10 17 -11 41
-38 53 -63z m2215 53 c14 -16 31 -38 37 -49 22 -44 41 -211 41 -361 l0 -153
-125 0 -125 0 0 153 c0 155 18 316 40 358 21 40 63 79 85 79 12 0 33 -12 47
-27z"/>
<path d="M3614 4558 c172 -473 388 -890 658 -1270 l69 -98 519 0 520 0 0 25
c0 16 6 25 15 25 13 0 15 26 15 170 l0 171 -35 52 -35 52 35 3 c31 3 35 6 35
33 0 17 -6 32 -15 35 -8 4 -15 15 -15 25 0 11 7 22 15 25 23 9 22 414 0 414
-9 0 -20 11 -27 25 -9 19 -8 29 6 50 9 14 21 25 26 25 6 0 10 12 10 28 0 36
50 140 111 229 l49 73 -995 0 -995 0 34 -92z"/>
</g>
</svg>
