<?xml version="1.0"?>
<svg xmlns="http://www.w3.org/2000/svg" viewBox="0 0 64 64" width="512" height="512"><g id="graduation_cap" data-name="graduation cap"><path d="M59,38.59V22.33l2.51-1.47a1,1,0,0,0,0-1.72l-29-17a.984.984,0,0,0-1.02,0l-29,17a1,1,0,0,0,0,1.72L12,26.43v4.36a4.969,4.969,0,0,0,2.33,4.23L31,45.55V57a3.009,3.009,0,0,1-3,3H26a3.009,3.009,0,0,1-3-3V43a1,1,0,0,0-1-1H18V39a1,1,0,0,0-1-1H10a2.006,2.006,0,0,0-2,2v2.08A7,7,0,0,0,2,49v6a7,7,0,0,0,14,0V49a7,7,0,0,0-6-6.92V40h6v3a1,1,0,0,0,1,1h4V57a5,5,0,0,0,5,5h2a5,5,0,0,0,5-5V45.55L49.67,35.02A4.969,4.969,0,0,0,52,30.79V26.43l5-2.93V38.59l-2.71,2.7A1.033,1.033,0,0,0,54,42v8a.987.987,0,0,0,.62.92,1,1,0,0,0,1.09-.21L58,48.41l2.29,2.3A1.007,1.007,0,0,0,61,51a.838.838,0,0,0,.38-.08A.987.987,0,0,0,62,50V42a1.033,1.033,0,0,0-.29-.71ZM14,49v6A5,5,0,0,1,4,55V49a5,5,0,0,1,10,0ZM50,30.79a2.973,2.973,0,0,1-1.4,2.54L32,43.82,15.4,33.33A2.973,2.973,0,0,1,14,30.79V27.61L31.49,37.86a1,1,0,0,0,1.02,0L50,27.61ZM32,35.84,4.98,20,32,4.16,59.02,20ZM60,47.59l-1.29-1.3a1.014,1.014,0,0,0-1.42,0L56,47.59V42.41l2-2,2,2Z"/><rect x="8" y="46" width="2" height="8"/><path d="M41.24,17.03l-1.29-.32.69-1.15a1.014,1.014,0,0,0-.15-1.22l-2.83-2.83a1.014,1.014,0,0,0-1.22-.15l-1.15.69-.32-1.29A1,1,0,0,0,34,10H30a1,1,0,0,0-.97.76l-.32,1.29-1.15-.69a1.014,1.014,0,0,0-1.22.15l-2.83,2.83a1.014,1.014,0,0,0-.15,1.22l.69,1.15-1.29.32A1,1,0,0,0,22,18v4a1,1,0,0,0,.76.97l1.29.32-.69,1.14a1.027,1.027,0,0,0,.15,1.23l2.83,2.83a1.014,1.014,0,0,0,1.22.15l1.15-.69.32,1.29A1,1,0,0,0,30,30h4a1,1,0,0,0,.97-.76l.32-1.29,1.15.69a1.014,1.014,0,0,0,1.22-.15l2.83-2.83a1.027,1.027,0,0,0,.15-1.23l-.69-1.14,1.29-.32A1,1,0,0,0,42,22V18A1,1,0,0,0,41.24,17.03ZM40,21.22l-1.84.46a1,1,0,0,0-.62,1.49l.98,1.62-1.73,1.73-1.62-.98a1.023,1.023,0,0,0-.9-.07,1.045,1.045,0,0,0-.59.69L33.22,28H30.78l-.46-1.84a1.045,1.045,0,0,0-.59-.69,1.023,1.023,0,0,0-.9.07l-1.62.98-1.73-1.73.98-1.62a1,1,0,0,0-.62-1.49L24,21.22V18.78l1.84-.46a1,1,0,0,0,.62-1.49l-.98-1.62,1.73-1.73,1.62.98a1.023,1.023,0,0,0,.9.07,1.045,1.045,0,0,0,.59-.69L30.78,12h2.44l.46,1.84a1.045,1.045,0,0,0,.59.69,1.023,1.023,0,0,0,.9-.07l1.62-.98,1.73,1.73-.98,1.62a1,1,0,0,0,.62,1.49l1.84.46Z"/><path d="M36,20a4,4,0,1,0-4,4A4,4,0,0,0,36,20Zm-4,2a2,2,0,1,1,2-2A2,2,0,0,1,32,22Z"/></g></svg>
